%TF.GenerationSoftware,KiCad,Pcbnew,7.0.10*%
%TF.CreationDate,2024-03-06T22:20:24+01:00*%
%TF.ProjectId,tcvr,74637672-2e6b-4696-9361-645f70636258,rev?*%
%TF.SameCoordinates,Original*%
%TF.FileFunction,Copper,L1,Top*%
%TF.FilePolarity,Positive*%
%FSLAX46Y46*%
G04 Gerber Fmt 4.6, Leading zero omitted, Abs format (unit mm)*
G04 Created by KiCad (PCBNEW 7.0.10) date 2024-03-06 22:20:24*
%MOMM*%
%LPD*%
G01*
G04 APERTURE LIST*
G04 Aperture macros list*
%AMRoundRect*
0 Rectangle with rounded corners*
0 $1 Rounding radius*
0 $2 $3 $4 $5 $6 $7 $8 $9 X,Y pos of 4 corners*
0 Add a 4 corners polygon primitive as box body*
4,1,4,$2,$3,$4,$5,$6,$7,$8,$9,$2,$3,0*
0 Add four circle primitives for the rounded corners*
1,1,$1+$1,$2,$3*
1,1,$1+$1,$4,$5*
1,1,$1+$1,$6,$7*
1,1,$1+$1,$8,$9*
0 Add four rect primitives between the rounded corners*
20,1,$1+$1,$2,$3,$4,$5,0*
20,1,$1+$1,$4,$5,$6,$7,0*
20,1,$1+$1,$6,$7,$8,$9,0*
20,1,$1+$1,$8,$9,$2,$3,0*%
G04 Aperture macros list end*
%ADD10C,0.200000*%
%TA.AperFunction,SMDPad,CuDef*%
%ADD11RoundRect,0.250000X-0.475000X0.250000X-0.475000X-0.250000X0.475000X-0.250000X0.475000X0.250000X0*%
%TD*%
%TA.AperFunction,SMDPad,CuDef*%
%ADD12RoundRect,0.250000X0.250000X0.250000X-0.250000X0.250000X-0.250000X-0.250000X0.250000X-0.250000X0*%
%TD*%
%TA.AperFunction,SMDPad,CuDef*%
%ADD13RoundRect,0.250000X0.475000X-0.250000X0.475000X0.250000X-0.475000X0.250000X-0.475000X-0.250000X0*%
%TD*%
%TA.AperFunction,SMDPad,CuDef*%
%ADD14RoundRect,0.250000X-0.450000X0.262500X-0.450000X-0.262500X0.450000X-0.262500X0.450000X0.262500X0*%
%TD*%
%TA.AperFunction,SMDPad,CuDef*%
%ADD15RoundRect,0.250000X-0.325000X-0.650000X0.325000X-0.650000X0.325000X0.650000X-0.325000X0.650000X0*%
%TD*%
%TA.AperFunction,SMDPad,CuDef*%
%ADD16RoundRect,0.250000X-0.262500X-0.450000X0.262500X-0.450000X0.262500X0.450000X-0.262500X0.450000X0*%
%TD*%
%TA.AperFunction,SMDPad,CuDef*%
%ADD17RoundRect,0.250000X0.650000X-0.325000X0.650000X0.325000X-0.650000X0.325000X-0.650000X-0.325000X0*%
%TD*%
%TA.AperFunction,SMDPad,CuDef*%
%ADD18RoundRect,2.500000X2.500000X-2.500000X2.500000X2.500000X-2.500000X2.500000X-2.500000X-2.500000X0*%
%TD*%
%TA.AperFunction,SMDPad,CuDef*%
%ADD19RoundRect,0.250000X-0.250000X-0.475000X0.250000X-0.475000X0.250000X0.475000X-0.250000X0.475000X0*%
%TD*%
%TA.AperFunction,SMDPad,CuDef*%
%ADD20R,2.000000X1.500000*%
%TD*%
%TA.AperFunction,SMDPad,CuDef*%
%ADD21R,2.000000X3.800000*%
%TD*%
%TA.AperFunction,ComponentPad*%
%ADD22C,1.500000*%
%TD*%
%TA.AperFunction,SMDPad,CuDef*%
%ADD23RoundRect,0.250000X0.450000X-0.262500X0.450000X0.262500X-0.450000X0.262500X-0.450000X-0.262500X0*%
%TD*%
%TA.AperFunction,SMDPad,CuDef*%
%ADD24RoundRect,0.150000X-0.587500X-0.150000X0.587500X-0.150000X0.587500X0.150000X-0.587500X0.150000X0*%
%TD*%
%TA.AperFunction,ComponentPad*%
%ADD25R,1.700000X1.700000*%
%TD*%
%TA.AperFunction,ComponentPad*%
%ADD26O,1.700000X1.700000*%
%TD*%
%TA.AperFunction,ComponentPad*%
%ADD27C,2.000000*%
%TD*%
%TA.AperFunction,ComponentPad*%
%ADD28O,2.000000X2.000000*%
%TD*%
%TA.AperFunction,SMDPad,CuDef*%
%ADD29RoundRect,0.250000X-0.250000X-0.250000X0.250000X-0.250000X0.250000X0.250000X-0.250000X0.250000X0*%
%TD*%
%TA.AperFunction,SMDPad,CuDef*%
%ADD30RoundRect,0.500000X-2.000000X-0.500000X2.000000X-0.500000X2.000000X0.500000X-2.000000X0.500000X0*%
%TD*%
%TA.AperFunction,ComponentPad*%
%ADD31C,2.286000*%
%TD*%
%TA.AperFunction,ComponentPad*%
%ADD32C,5.500000*%
%TD*%
%TA.AperFunction,SMDPad,CuDef*%
%ADD33RoundRect,0.150000X-0.825000X-0.150000X0.825000X-0.150000X0.825000X0.150000X-0.825000X0.150000X0*%
%TD*%
%TA.AperFunction,SMDPad,CuDef*%
%ADD34RoundRect,0.250000X-1.075000X0.375000X-1.075000X-0.375000X1.075000X-0.375000X1.075000X0.375000X0*%
%TD*%
%TA.AperFunction,SMDPad,CuDef*%
%ADD35RoundRect,0.250000X0.250000X-0.250000X0.250000X0.250000X-0.250000X0.250000X-0.250000X-0.250000X0*%
%TD*%
%TA.AperFunction,SMDPad,CuDef*%
%ADD36RoundRect,0.250000X0.325000X0.650000X-0.325000X0.650000X-0.325000X-0.650000X0.325000X-0.650000X0*%
%TD*%
%TA.AperFunction,Conductor*%
%ADD37C,0.250000*%
%TD*%
G04 APERTURE END LIST*
D10*
G36*
X90861904Y-113801117D02*
G01*
X90861904Y-114591796D01*
X90785916Y-114629790D01*
X90528368Y-114629790D01*
X90411615Y-114571414D01*
X90358375Y-114518173D01*
X90299999Y-114401420D01*
X90299999Y-113991492D01*
X90358374Y-113874741D01*
X90411616Y-113821499D01*
X90528368Y-113763123D01*
X90785915Y-113763123D01*
X90861904Y-113801117D01*
G37*
G36*
X92309523Y-114591796D02*
G01*
X92233535Y-114629790D01*
X91899797Y-114629790D01*
X91798344Y-114579063D01*
X91747618Y-114477611D01*
X91747618Y-114372445D01*
X91798343Y-114270993D01*
X91899797Y-114220266D01*
X92257142Y-114220266D01*
X92279065Y-114213142D01*
X92301863Y-114209709D01*
X92309523Y-114205879D01*
X92309523Y-114591796D01*
G37*
G36*
X94712190Y-113821498D02*
G01*
X94765432Y-113874740D01*
X94823809Y-113991492D01*
X94823809Y-114401420D01*
X94765431Y-114518175D01*
X94712192Y-114571414D01*
X94595440Y-114629790D01*
X94414082Y-114629790D01*
X94297329Y-114571414D01*
X94244089Y-114518173D01*
X94185713Y-114401420D01*
X94185713Y-113991492D01*
X94244088Y-113874741D01*
X94297330Y-113821499D01*
X94414082Y-113763123D01*
X94595439Y-113763123D01*
X94712190Y-113821498D01*
G37*
G36*
X96159809Y-113821498D02*
G01*
X96213051Y-113874740D01*
X96271428Y-113991492D01*
X96271428Y-114401420D01*
X96213050Y-114518175D01*
X96159811Y-114571414D01*
X96043059Y-114629790D01*
X95785511Y-114629790D01*
X95709523Y-114591796D01*
X95709523Y-113801117D01*
X95785511Y-113763123D01*
X96043058Y-113763123D01*
X96159809Y-113821498D01*
G37*
G36*
X100127340Y-115591694D02*
G01*
X89871428Y-115591694D01*
X89871428Y-114425028D01*
X90099999Y-114425028D01*
X90107122Y-114446951D01*
X90110556Y-114469750D01*
X90186747Y-114622130D01*
X90198121Y-114633678D01*
X90205479Y-114648119D01*
X90281669Y-114724310D01*
X90296110Y-114731669D01*
X90307659Y-114743043D01*
X90460040Y-114819233D01*
X90482837Y-114822666D01*
X90504761Y-114829790D01*
X90809523Y-114829790D01*
X90831446Y-114822666D01*
X90854244Y-114819233D01*
X90861904Y-114815403D01*
X90861904Y-114934754D01*
X90803528Y-115051506D01*
X90750286Y-115104747D01*
X90633535Y-115163123D01*
X90452178Y-115163123D01*
X90320911Y-115097490D01*
X90259797Y-115088285D01*
X90204944Y-115116761D01*
X90177305Y-115172040D01*
X90187436Y-115233007D01*
X90231469Y-115276376D01*
X90383850Y-115352566D01*
X90406647Y-115355999D01*
X90428571Y-115363123D01*
X90657142Y-115363123D01*
X90679065Y-115355999D01*
X90701863Y-115352566D01*
X90854244Y-115276376D01*
X90865791Y-115265002D01*
X90880234Y-115257644D01*
X90956424Y-115181453D01*
X90963782Y-115167011D01*
X90975157Y-115155463D01*
X91051347Y-115003082D01*
X91054780Y-114980284D01*
X91061904Y-114958361D01*
X91061904Y-114501219D01*
X91547618Y-114501219D01*
X91554741Y-114523142D01*
X91558175Y-114545941D01*
X91634366Y-114698321D01*
X91634924Y-114698887D01*
X91635055Y-114699674D01*
X91656557Y-114720851D01*
X91677735Y-114742354D01*
X91678521Y-114742484D01*
X91679088Y-114743043D01*
X91831469Y-114819233D01*
X91854266Y-114822666D01*
X91876190Y-114829790D01*
X92257142Y-114829790D01*
X92279065Y-114822666D01*
X92301863Y-114819233D01*
X92342713Y-114798807D01*
X92378621Y-114824896D01*
X92440425Y-114824896D01*
X92490425Y-114788569D01*
X92509523Y-114729790D01*
X93071428Y-114729790D01*
X93090526Y-114788569D01*
X93140526Y-114824896D01*
X93202330Y-114824896D01*
X93252330Y-114788569D01*
X93271428Y-114729790D01*
X93271428Y-114425028D01*
X93985713Y-114425028D01*
X93992836Y-114446951D01*
X93996270Y-114469750D01*
X94072461Y-114622130D01*
X94083835Y-114633678D01*
X94091193Y-114648119D01*
X94167383Y-114724310D01*
X94181824Y-114731669D01*
X94193373Y-114743043D01*
X94345754Y-114819233D01*
X94368551Y-114822666D01*
X94390475Y-114829790D01*
X94619047Y-114829790D01*
X94640970Y-114822666D01*
X94663768Y-114819233D01*
X94816149Y-114743043D01*
X94827697Y-114731668D01*
X94831383Y-114729790D01*
X95509523Y-114729790D01*
X95528621Y-114788569D01*
X95578621Y-114824896D01*
X95640425Y-114824896D01*
X95676332Y-114798807D01*
X95717183Y-114819233D01*
X95739980Y-114822666D01*
X95761904Y-114829790D01*
X96066666Y-114829790D01*
X96088589Y-114822666D01*
X96111387Y-114819233D01*
X96263768Y-114743043D01*
X96275316Y-114731668D01*
X96289758Y-114724310D01*
X96365948Y-114648119D01*
X96373305Y-114633679D01*
X96384680Y-114622131D01*
X96460870Y-114469750D01*
X96464303Y-114446954D01*
X96471428Y-114425028D01*
X96880951Y-114425028D01*
X96888074Y-114446951D01*
X96891508Y-114469750D01*
X96967699Y-114622130D01*
X96979073Y-114633678D01*
X96986431Y-114648119D01*
X97062621Y-114724310D01*
X97077062Y-114731669D01*
X97088611Y-114743043D01*
X97240992Y-114819233D01*
X97263789Y-114822666D01*
X97285713Y-114829790D01*
X97590475Y-114829790D01*
X97612398Y-114822666D01*
X97635196Y-114819233D01*
X97787577Y-114743043D01*
X97831610Y-114699674D01*
X97841741Y-114638707D01*
X97814102Y-114583428D01*
X97759249Y-114554952D01*
X97698135Y-114564157D01*
X97566868Y-114629790D01*
X97309320Y-114629790D01*
X97192567Y-114571414D01*
X97139327Y-114518173D01*
X97080951Y-114401420D01*
X97080951Y-113991492D01*
X97092754Y-113967885D01*
X98252380Y-113967885D01*
X98259503Y-113989808D01*
X98262937Y-114012607D01*
X98339128Y-114164987D01*
X98339686Y-114165553D01*
X98339817Y-114166340D01*
X98361334Y-114187533D01*
X98382497Y-114209020D01*
X98383281Y-114209150D01*
X98383849Y-114209709D01*
X98536230Y-114285899D01*
X98559025Y-114289332D01*
X98580952Y-114296457D01*
X98785916Y-114296457D01*
X98887367Y-114347182D01*
X98938095Y-114448635D01*
X98938095Y-114477611D01*
X98887367Y-114579064D01*
X98785916Y-114629790D01*
X98528368Y-114629790D01*
X98397101Y-114564157D01*
X98335987Y-114554952D01*
X98281134Y-114583428D01*
X98253495Y-114638707D01*
X98263626Y-114699674D01*
X98307659Y-114743043D01*
X98460040Y-114819233D01*
X98482837Y-114822666D01*
X98504761Y-114829790D01*
X98809523Y-114829790D01*
X98831446Y-114822666D01*
X98854244Y-114819233D01*
X99006625Y-114743043D01*
X99007191Y-114742484D01*
X99007978Y-114742354D01*
X99020352Y-114729790D01*
X99623809Y-114729790D01*
X99642907Y-114788569D01*
X99692907Y-114824896D01*
X99754711Y-114824896D01*
X99804711Y-114788569D01*
X99823809Y-114729790D01*
X99823809Y-113663123D01*
X99804711Y-113604344D01*
X99754711Y-113568017D01*
X99692907Y-113568017D01*
X99642907Y-113604344D01*
X99623809Y-113663123D01*
X99623809Y-114729790D01*
X99020352Y-114729790D01*
X99029171Y-114720836D01*
X99050658Y-114699674D01*
X99050788Y-114698889D01*
X99051347Y-114698322D01*
X99127537Y-114545941D01*
X99130970Y-114523145D01*
X99138095Y-114501219D01*
X99138095Y-114425028D01*
X99130970Y-114403101D01*
X99127537Y-114380306D01*
X99051347Y-114227925D01*
X99050788Y-114227357D01*
X99050658Y-114226573D01*
X99029171Y-114205410D01*
X99007978Y-114183893D01*
X99007191Y-114183762D01*
X99006625Y-114183204D01*
X98854244Y-114107014D01*
X98831446Y-114103580D01*
X98809523Y-114096457D01*
X98604559Y-114096457D01*
X98503105Y-114045729D01*
X98452380Y-113944277D01*
X98452380Y-113915302D01*
X98503105Y-113813850D01*
X98604559Y-113763123D01*
X98785915Y-113763123D01*
X98917182Y-113828756D01*
X98978296Y-113837962D01*
X99033149Y-113809486D01*
X99060789Y-113754207D01*
X99050658Y-113693240D01*
X99006625Y-113649871D01*
X98854245Y-113573680D01*
X98831446Y-113570246D01*
X98809523Y-113563123D01*
X98580952Y-113563123D01*
X98559025Y-113570247D01*
X98536230Y-113573681D01*
X98383849Y-113649871D01*
X98383281Y-113650429D01*
X98382497Y-113650560D01*
X98361334Y-113672046D01*
X98339817Y-113693240D01*
X98339687Y-113694025D01*
X98339128Y-113694593D01*
X98262937Y-113846973D01*
X98259503Y-113869771D01*
X98252380Y-113891695D01*
X98252380Y-113967885D01*
X97092754Y-113967885D01*
X97139326Y-113874741D01*
X97192568Y-113821499D01*
X97309320Y-113763123D01*
X97566867Y-113763123D01*
X97698134Y-113828756D01*
X97759248Y-113837962D01*
X97814101Y-113809486D01*
X97841741Y-113754207D01*
X97831610Y-113693240D01*
X97787577Y-113649871D01*
X97635197Y-113573680D01*
X97612398Y-113570246D01*
X97590475Y-113563123D01*
X97285713Y-113563123D01*
X97263786Y-113570247D01*
X97240991Y-113573681D01*
X97088610Y-113649871D01*
X97077062Y-113661245D01*
X97062621Y-113668603D01*
X96986431Y-113744793D01*
X96979072Y-113759235D01*
X96967699Y-113770783D01*
X96891508Y-113923163D01*
X96888074Y-113945961D01*
X96880951Y-113967885D01*
X96880951Y-114425028D01*
X96471428Y-114425028D01*
X96471428Y-113967885D01*
X96464303Y-113945958D01*
X96460870Y-113923163D01*
X96384680Y-113770782D01*
X96373305Y-113759234D01*
X96365948Y-113744793D01*
X96289758Y-113668603D01*
X96275315Y-113661244D01*
X96263768Y-113649871D01*
X96111388Y-113573680D01*
X96088589Y-113570246D01*
X96066666Y-113563123D01*
X95761904Y-113563123D01*
X95739977Y-113570247D01*
X95717182Y-113573681D01*
X95709523Y-113577510D01*
X95709523Y-113221623D01*
X99548849Y-113221623D01*
X99556039Y-113235735D01*
X99558517Y-113251378D01*
X99569715Y-113262577D01*
X99576907Y-113276691D01*
X99653098Y-113352881D01*
X99667210Y-113360071D01*
X99678411Y-113371272D01*
X99686378Y-113372533D01*
X99692907Y-113377277D01*
X99700976Y-113377277D01*
X99708165Y-113380940D01*
X99723809Y-113378462D01*
X99739453Y-113380940D01*
X99746642Y-113377277D01*
X99754711Y-113377277D01*
X99761239Y-113372534D01*
X99769208Y-113371272D01*
X99780408Y-113360071D01*
X99794520Y-113352881D01*
X99870710Y-113276690D01*
X99877900Y-113262578D01*
X99889100Y-113251379D01*
X99891577Y-113235735D01*
X99898769Y-113221622D01*
X99896290Y-113205977D01*
X99898768Y-113190337D01*
X99891578Y-113176226D01*
X99889100Y-113160580D01*
X99877899Y-113149379D01*
X99870710Y-113135269D01*
X99794520Y-113059079D01*
X99780409Y-113051889D01*
X99769209Y-113040689D01*
X99761238Y-113039426D01*
X99754711Y-113034684D01*
X99746641Y-113034684D01*
X99739452Y-113031021D01*
X99723811Y-113033498D01*
X99708167Y-113031020D01*
X99700976Y-113034684D01*
X99692907Y-113034684D01*
X99686379Y-113039426D01*
X99678410Y-113040689D01*
X99667210Y-113051888D01*
X99653099Y-113059079D01*
X99576908Y-113135269D01*
X99569717Y-113149380D01*
X99558517Y-113160581D01*
X99556039Y-113176224D01*
X99548849Y-113190336D01*
X99551326Y-113205979D01*
X99548849Y-113221623D01*
X95709523Y-113221623D01*
X95709523Y-113129790D01*
X95690425Y-113071011D01*
X95640425Y-113034684D01*
X95578621Y-113034684D01*
X95528621Y-113071011D01*
X95509523Y-113129790D01*
X95509523Y-114729790D01*
X94831383Y-114729790D01*
X94842139Y-114724310D01*
X94918329Y-114648119D01*
X94925686Y-114633679D01*
X94937061Y-114622131D01*
X95013251Y-114469750D01*
X95016684Y-114446954D01*
X95023809Y-114425028D01*
X95023809Y-113967885D01*
X95016684Y-113945958D01*
X95013251Y-113923163D01*
X94937061Y-113770782D01*
X94925686Y-113759234D01*
X94918329Y-113744793D01*
X94842139Y-113668603D01*
X94827696Y-113661244D01*
X94816149Y-113649871D01*
X94663769Y-113573680D01*
X94640970Y-113570246D01*
X94619047Y-113563123D01*
X94390475Y-113563123D01*
X94368548Y-113570247D01*
X94345753Y-113573681D01*
X94193372Y-113649871D01*
X94181824Y-113661245D01*
X94167383Y-113668603D01*
X94091193Y-113744793D01*
X94083834Y-113759235D01*
X94072461Y-113770783D01*
X93996270Y-113923163D01*
X93992836Y-113945961D01*
X93985713Y-113967885D01*
X93985713Y-114425028D01*
X93271428Y-114425028D01*
X93271428Y-113991491D01*
X93329803Y-113874739D01*
X93383042Y-113821500D01*
X93499797Y-113763123D01*
X93628571Y-113763123D01*
X93687350Y-113744025D01*
X93723677Y-113694025D01*
X93723677Y-113632221D01*
X93687350Y-113582221D01*
X93628571Y-113563123D01*
X93476190Y-113563123D01*
X93454263Y-113570247D01*
X93431468Y-113573681D01*
X93279087Y-113649871D01*
X93270022Y-113658798D01*
X93252330Y-113604344D01*
X93202330Y-113568017D01*
X93140526Y-113568017D01*
X93090526Y-113604344D01*
X93071428Y-113663123D01*
X93071428Y-114729790D01*
X92509523Y-114729790D01*
X92509523Y-113891695D01*
X92502399Y-113869771D01*
X92498966Y-113846974D01*
X92422776Y-113694593D01*
X92422217Y-113694025D01*
X92422087Y-113693240D01*
X92400584Y-113672062D01*
X92379407Y-113650560D01*
X92378620Y-113650429D01*
X92378054Y-113649871D01*
X92225674Y-113573680D01*
X92202875Y-113570246D01*
X92180952Y-113563123D01*
X91876190Y-113563123D01*
X91854263Y-113570247D01*
X91831468Y-113573681D01*
X91679087Y-113649871D01*
X91635055Y-113693240D01*
X91624924Y-113754207D01*
X91652564Y-113809486D01*
X91707416Y-113837962D01*
X91768531Y-113828757D01*
X91899797Y-113763123D01*
X92157344Y-113763123D01*
X92258796Y-113813849D01*
X92309523Y-113915301D01*
X92309523Y-113982272D01*
X92233535Y-114020266D01*
X91876190Y-114020266D01*
X91854263Y-114027390D01*
X91831468Y-114030824D01*
X91679087Y-114107014D01*
X91678519Y-114107572D01*
X91677735Y-114107703D01*
X91656572Y-114129189D01*
X91635055Y-114150383D01*
X91634925Y-114151168D01*
X91634366Y-114151736D01*
X91558175Y-114304116D01*
X91554741Y-114326914D01*
X91547618Y-114348838D01*
X91547618Y-114501219D01*
X91061904Y-114501219D01*
X91061904Y-113663123D01*
X91042806Y-113604344D01*
X90992806Y-113568017D01*
X90931002Y-113568017D01*
X90895094Y-113594105D01*
X90854245Y-113573680D01*
X90831446Y-113570246D01*
X90809523Y-113563123D01*
X90504761Y-113563123D01*
X90482834Y-113570247D01*
X90460039Y-113573681D01*
X90307658Y-113649871D01*
X90296110Y-113661245D01*
X90281669Y-113668603D01*
X90205479Y-113744793D01*
X90198120Y-113759235D01*
X90186747Y-113770783D01*
X90110556Y-113923163D01*
X90107122Y-113945961D01*
X90099999Y-113967885D01*
X90099999Y-114425028D01*
X89871428Y-114425028D01*
X89871428Y-112802449D01*
X100127340Y-112802449D01*
X100127340Y-115591694D01*
G37*
D11*
%TO.P,C3,1*%
%TO.N,Net-(Q1-B)*%
X103500000Y-98550000D03*
%TO.P,C3,2*%
%TO.N,Net-(Q1-E)*%
X103500000Y-100450000D03*
%TD*%
D12*
%TO.P,D3,1,K*%
%TO.N,Net-(D2-K)*%
X94750000Y-103000000D03*
%TO.P,D3,2,A*%
%TO.N,Net-(D3-A)*%
X92250000Y-103000000D03*
%TD*%
D13*
%TO.P,C18,1*%
%TO.N,Net-(J2-Pin_1)*%
X141500000Y-92950000D03*
%TO.P,C18,2*%
%TO.N,GND*%
X141500000Y-91050000D03*
%TD*%
D14*
%TO.P,R10,1*%
%TO.N,Net-(D1-K)*%
X78000000Y-96587500D03*
%TO.P,R10,2*%
%TO.N,Net-(D3-A)*%
X78000000Y-98412500D03*
%TD*%
D13*
%TO.P,C15,1*%
%TO.N,Net-(U1--)*%
X114500000Y-109950000D03*
%TO.P,C15,2*%
%TO.N,Net-(D2-K)*%
X114500000Y-108050000D03*
%TD*%
D11*
%TO.P,C4,1*%
%TO.N,Net-(Q1-E)*%
X103500000Y-102050000D03*
%TO.P,C4,2*%
%TO.N,GND*%
X103500000Y-103950000D03*
%TD*%
D15*
%TO.P,C14,1*%
%TO.N,Net-(U1-BYPASS)*%
X124525000Y-108500000D03*
%TO.P,C14,2*%
%TO.N,GND*%
X127475000Y-108500000D03*
%TD*%
D16*
%TO.P,R8,1*%
%TO.N,Net-(C13-Pad2)*%
X128087500Y-113500000D03*
%TO.P,R8,2*%
%TO.N,GND*%
X129912500Y-113500000D03*
%TD*%
D17*
%TO.P,C1,1*%
%TO.N,Net-(D1-K)*%
X108500000Y-96975000D03*
%TO.P,C1,2*%
%TO.N,GND*%
X108500000Y-94025000D03*
%TD*%
D18*
%TO.P,SW1,1,A*%
%TO.N,GND*%
X82500000Y-110500000D03*
%TO.P,SW1,2,B*%
%TO.N,Net-(D2-K)*%
X107500000Y-110500000D03*
%TD*%
D19*
%TO.P,C19,1*%
%TO.N,Net-(AE1-A)*%
X146550000Y-103000000D03*
%TO.P,C19,2*%
%TO.N,GND*%
X148450000Y-103000000D03*
%TD*%
D20*
%TO.P,Q3,1,B*%
%TO.N,Net-(Q3-B)*%
X118350000Y-95200000D03*
%TO.P,Q3,2,C*%
%TO.N,Net-(Q3-C)*%
X118350000Y-97500000D03*
D21*
X124650000Y-97500000D03*
D20*
%TO.P,Q3,3,E*%
%TO.N,Net-(D2-K)*%
X118350000Y-99800000D03*
%TD*%
D19*
%TO.P,C13,1*%
%TO.N,Net-(C13-Pad1)*%
X124550000Y-113500000D03*
%TO.P,C13,2*%
%TO.N,Net-(C13-Pad2)*%
X126450000Y-113500000D03*
%TD*%
D13*
%TO.P,C10,1*%
%TO.N,Net-(J2-Pin_1)*%
X131000000Y-92950000D03*
%TO.P,C10,2*%
%TO.N,GND*%
X131000000Y-91050000D03*
%TD*%
D22*
%TO.P,Y1,1,1*%
%TO.N,Net-(Q2-D)*%
X97500000Y-92050000D03*
%TO.P,Y1,2,2*%
%TO.N,Net-(Q1-B)*%
X97500000Y-96950000D03*
%TD*%
D14*
%TO.P,R9,1*%
%TO.N,Net-(D1-K)*%
X125000000Y-102087500D03*
%TO.P,R9,2*%
%TO.N,Net-(D2-A)*%
X125000000Y-103912500D03*
%TD*%
D19*
%TO.P,C20,1*%
%TO.N,Net-(AE1-A)*%
X146550000Y-106500000D03*
%TO.P,C20,2*%
%TO.N,GND*%
X148450000Y-106500000D03*
%TD*%
D23*
%TO.P,R6,1*%
%TO.N,Net-(J2-Pin_1)*%
X134500000Y-92912500D03*
%TO.P,R6,2*%
%TO.N,GND*%
X134500000Y-91087500D03*
%TD*%
D24*
%TO.P,Q2,1,G*%
%TO.N,Net-(D3-A)*%
X78062500Y-101550000D03*
%TO.P,Q2,2,S*%
%TO.N,GND*%
X78062500Y-103450000D03*
%TO.P,Q2,3,D*%
%TO.N,Net-(Q2-D)*%
X79937500Y-102500000D03*
%TD*%
D25*
%TO.P,J1,1,Pin_1*%
%TO.N,Net-(D1-A)*%
X105225000Y-91000000D03*
D26*
%TO.P,J1,2,Pin_2*%
%TO.N,GND*%
X107765000Y-91000000D03*
%TD*%
D14*
%TO.P,R2,1*%
%TO.N,Net-(Q1-E)*%
X107000000Y-102087500D03*
%TO.P,R2,2*%
%TO.N,GND*%
X107000000Y-103912500D03*
%TD*%
D25*
%TO.P,AE1,1,A*%
%TO.N,Net-(AE1-A)*%
X147500000Y-118000000D03*
%TD*%
D14*
%TO.P,R3,1*%
%TO.N,Net-(Q1-B)*%
X100000000Y-102087500D03*
%TO.P,R3,2*%
%TO.N,GND*%
X100000000Y-103912500D03*
%TD*%
%TO.P,R5,1*%
%TO.N,Net-(D2-K)*%
X118000000Y-102087500D03*
%TO.P,R5,2*%
%TO.N,GND*%
X118000000Y-103912500D03*
%TD*%
D27*
%TO.P,L3,1,1*%
%TO.N,Net-(C11-Pad1)*%
X128500000Y-96500000D03*
D28*
%TO.P,L3,2,2*%
%TO.N,Net-(J2-Pin_1)*%
X141200000Y-96500000D03*
%TD*%
D27*
%TO.P,L4,1,1*%
%TO.N,Net-(J2-Pin_1)*%
X130150000Y-104500000D03*
D28*
%TO.P,L4,2,2*%
%TO.N,Net-(AE1-A)*%
X142850000Y-104500000D03*
%TD*%
D29*
%TO.P,D2,1,K*%
%TO.N,Net-(D2-K)*%
X122750000Y-106000000D03*
%TO.P,D2,2,A*%
%TO.N,Net-(D2-A)*%
X125250000Y-106000000D03*
%TD*%
D30*
%TO.P,J2,1,Pin_1*%
%TO.N,Net-(J2-Pin_1)*%
X146500000Y-93500000D03*
%TD*%
D19*
%TO.P,C23,1*%
%TO.N,Net-(AE1-A)*%
X146550000Y-99500000D03*
%TO.P,C23,2*%
%TO.N,GND*%
X148450000Y-99500000D03*
%TD*%
D31*
%TO.P,J3,1,Pin_1*%
%TO.N,Net-(J3-Pin_1)*%
X133000000Y-110000000D03*
%TO.P,J3,2,Pin_2*%
X135500000Y-110000000D03*
%TO.P,J3,3,Pin_3*%
X140500000Y-110000000D03*
%TO.P,J3,4,Pin_4*%
X143000000Y-110000000D03*
%TO.P,J3,5,Pin_5*%
%TO.N,GND*%
X138000000Y-115000000D03*
%TD*%
D23*
%TO.P,R7,1*%
%TO.N,Net-(J2-Pin_1)*%
X138000000Y-92912500D03*
%TO.P,R7,2*%
%TO.N,GND*%
X138000000Y-91087500D03*
%TD*%
D32*
%TO.P,J4,1,Pin_1*%
%TO.N,unconnected-(J4-Pin_1-Pad1)*%
X78000000Y-90500000D03*
%TD*%
D19*
%TO.P,C8,1*%
%TO.N,Net-(Q3-C)*%
X127550000Y-100500000D03*
%TO.P,C8,2*%
%TO.N,Net-(C11-Pad1)*%
X129450000Y-100500000D03*
%TD*%
%TO.P,C11,1*%
%TO.N,Net-(C11-Pad1)*%
X133550000Y-100500000D03*
%TO.P,C11,2*%
%TO.N,Net-(J2-Pin_1)*%
X135450000Y-100500000D03*
%TD*%
D13*
%TO.P,C2,1*%
%TO.N,Net-(D1-K)*%
X105000000Y-96450000D03*
%TO.P,C2,2*%
%TO.N,GND*%
X105000000Y-94550000D03*
%TD*%
D19*
%TO.P,C7,1*%
%TO.N,Net-(Q1-E)*%
X110550000Y-102500000D03*
%TO.P,C7,2*%
%TO.N,Net-(Q3-B)*%
X112450000Y-102500000D03*
%TD*%
D24*
%TO.P,Q1,1,B*%
%TO.N,Net-(Q1-B)*%
X107062500Y-98550000D03*
%TO.P,Q1,2,E*%
%TO.N,Net-(Q1-E)*%
X107062500Y-100450000D03*
%TO.P,Q1,3,C*%
%TO.N,Net-(D1-K)*%
X108937500Y-99500000D03*
%TD*%
D33*
%TO.P,U1,1,GAIN*%
%TO.N,Net-(C12-Pad2)*%
X117025000Y-108595000D03*
%TO.P,U1,2,-*%
%TO.N,Net-(U1--)*%
X117025000Y-109865000D03*
%TO.P,U1,3,+*%
%TO.N,GND*%
X117025000Y-111135000D03*
%TO.P,U1,4,GND*%
X117025000Y-112405000D03*
%TO.P,U1,5*%
%TO.N,Net-(C13-Pad1)*%
X121975000Y-112405000D03*
%TO.P,U1,6,V+*%
%TO.N,Net-(D2-A)*%
X121975000Y-111135000D03*
%TO.P,U1,7,BYPASS*%
%TO.N,Net-(U1-BYPASS)*%
X121975000Y-109865000D03*
%TO.P,U1,8,GAIN*%
%TO.N,Net-(C12-Pad1)*%
X121975000Y-108595000D03*
%TD*%
D13*
%TO.P,C9,1*%
%TO.N,Net-(C11-Pad1)*%
X127500000Y-92950000D03*
%TO.P,C9,2*%
%TO.N,GND*%
X127500000Y-91050000D03*
%TD*%
D19*
%TO.P,C21,1*%
%TO.N,Net-(AE1-A)*%
X146550000Y-110000000D03*
%TO.P,C21,2*%
%TO.N,GND*%
X148450000Y-110000000D03*
%TD*%
D11*
%TO.P,C6,1*%
%TO.N,Net-(D2-K)*%
X114500000Y-102050000D03*
%TO.P,C6,2*%
%TO.N,GND*%
X114500000Y-103950000D03*
%TD*%
D14*
%TO.P,R4,1*%
%TO.N,Net-(D1-K)*%
X111500000Y-95087500D03*
%TO.P,R4,2*%
%TO.N,Net-(Q3-B)*%
X111500000Y-96912500D03*
%TD*%
D34*
%TO.P,L2,1,1*%
%TO.N,Net-(Q3-B)*%
X115500000Y-97100000D03*
%TO.P,L2,2,2*%
%TO.N,Net-(D2-K)*%
X115500000Y-99900000D03*
%TD*%
D17*
%TO.P,C16,1*%
%TO.N,Net-(D2-A)*%
X127500000Y-105975000D03*
%TO.P,C16,2*%
%TO.N,GND*%
X127500000Y-103025000D03*
%TD*%
D15*
%TO.P,C17,1*%
%TO.N,Net-(C13-Pad1)*%
X127525000Y-111000000D03*
%TO.P,C17,2*%
%TO.N,Net-(J3-Pin_1)*%
X130475000Y-111000000D03*
%TD*%
D14*
%TO.P,R1,1*%
%TO.N,Net-(D1-K)*%
X100000000Y-98587500D03*
%TO.P,R1,2*%
%TO.N,Net-(Q1-B)*%
X100000000Y-100412500D03*
%TD*%
D35*
%TO.P,D1,1,K*%
%TO.N,Net-(D1-K)*%
X101500000Y-96750000D03*
%TO.P,D1,2,A*%
%TO.N,Net-(D1-A)*%
X101500000Y-94250000D03*
%TD*%
D36*
%TO.P,C12,1*%
%TO.N,Net-(C12-Pad1)*%
X119975000Y-106000000D03*
%TO.P,C12,2*%
%TO.N,Net-(C12-Pad2)*%
X117025000Y-106000000D03*
%TD*%
D19*
%TO.P,C5,1*%
%TO.N,Net-(Q2-D)*%
X82050000Y-102500000D03*
%TO.P,C5,2*%
%TO.N,GND*%
X83950000Y-102500000D03*
%TD*%
%TO.P,C22,1*%
%TO.N,Net-(AE1-A)*%
X146550000Y-113500000D03*
%TO.P,C22,2*%
%TO.N,GND*%
X148450000Y-113500000D03*
%TD*%
D27*
%TO.P,L1,1,1*%
%TO.N,Net-(D1-K)*%
X111000000Y-91500000D03*
D28*
%TO.P,L1,2,2*%
%TO.N,Net-(Q3-C)*%
X123700000Y-91500000D03*
%TD*%
D37*
%TO.N,GND*%
X100000000Y-103912500D02*
X99912500Y-103912500D01*
X114500000Y-103950000D02*
X117962500Y-103950000D01*
X93500000Y-102000000D02*
X93500000Y-105000000D01*
X82500000Y-107887500D02*
X82500000Y-110500000D01*
X106962500Y-103950000D02*
X107000000Y-103912500D01*
X131000000Y-91050000D02*
X134462500Y-91050000D01*
X99912500Y-103912500D02*
X97500000Y-101500000D01*
X141462500Y-91087500D02*
X141500000Y-91050000D01*
X97500000Y-101500000D02*
X94000000Y-101500000D01*
X148450000Y-113500000D02*
X148450000Y-110000000D01*
X134500000Y-91087500D02*
X138000000Y-91087500D01*
X88000000Y-110500000D02*
X82500000Y-110500000D01*
X117025000Y-111135000D02*
X117025000Y-112405000D01*
X83950000Y-109050000D02*
X82500000Y-110500000D01*
X129000000Y-112587500D02*
X129000000Y-109000000D01*
X129000000Y-109000000D02*
X128500000Y-108500000D01*
X127500000Y-91050000D02*
X131000000Y-91050000D01*
X128825000Y-107150000D02*
X128825000Y-104350000D01*
X100000000Y-103912500D02*
X103462500Y-103912500D01*
X127475000Y-108500000D02*
X128825000Y-107150000D01*
X138000000Y-91087500D02*
X141462500Y-91087500D01*
X105000000Y-94550000D02*
X107975000Y-94550000D01*
X129912500Y-113500000D02*
X129000000Y-112587500D01*
X107975000Y-94550000D02*
X108500000Y-94025000D01*
X128500000Y-108500000D02*
X127475000Y-108500000D01*
X148450000Y-110000000D02*
X148450000Y-106500000D01*
X117962500Y-103950000D02*
X118000000Y-103912500D01*
X93500000Y-105000000D02*
X88000000Y-110500000D01*
X148450000Y-106500000D02*
X148450000Y-103000000D01*
X148450000Y-99500000D02*
X148450000Y-103000000D01*
X107765000Y-93290000D02*
X107765000Y-91000000D01*
X134462500Y-91050000D02*
X134500000Y-91087500D01*
X94000000Y-101500000D02*
X93500000Y-102000000D01*
X128825000Y-104350000D02*
X127500000Y-103025000D01*
X103462500Y-103912500D02*
X103500000Y-103950000D01*
X103500000Y-103950000D02*
X106962500Y-103950000D01*
X108500000Y-94025000D02*
X107765000Y-93290000D01*
%TO.N,Net-(D2-K)*%
X113450000Y-103100000D02*
X114500000Y-102050000D01*
X114500000Y-108050000D02*
X113450000Y-107000000D01*
X113450000Y-107000000D02*
X113450000Y-103100000D01*
X118350000Y-99800000D02*
X115600000Y-99800000D01*
X122750000Y-106000000D02*
X122750000Y-105250000D01*
X109950000Y-108050000D02*
X107500000Y-110500000D01*
X94750000Y-103000000D02*
X94750000Y-109250000D01*
X94750000Y-109250000D02*
X96000000Y-110500000D01*
X118000000Y-100150000D02*
X118350000Y-99800000D01*
X118000000Y-102087500D02*
X118000000Y-100150000D01*
X96000000Y-110500000D02*
X107500000Y-110500000D01*
X119587500Y-102087500D02*
X118000000Y-102087500D01*
X114500000Y-102050000D02*
X115500000Y-101050000D01*
X115600000Y-99800000D02*
X115500000Y-99900000D01*
X114500000Y-108050000D02*
X109950000Y-108050000D01*
X115500000Y-101050000D02*
X115500000Y-99900000D01*
X122750000Y-105250000D02*
X119587500Y-102087500D01*
%TO.N,Net-(J3-Pin_1)*%
X140500000Y-110000000D02*
X143000000Y-110000000D01*
X140500000Y-110000000D02*
X135500000Y-110000000D01*
X130475000Y-111000000D02*
X131475000Y-110000000D01*
X131475000Y-110000000D02*
X133000000Y-110000000D01*
X133000000Y-110000000D02*
X135500000Y-110000000D01*
%TO.N,Net-(J2-Pin_1)*%
X135450000Y-97400000D02*
X131000000Y-92950000D01*
X138000000Y-92912500D02*
X141462500Y-92912500D01*
X134500000Y-92912500D02*
X138000000Y-92912500D01*
X135450000Y-100500000D02*
X131450000Y-104500000D01*
X135450000Y-100500000D02*
X135450000Y-97400000D01*
X146500000Y-93500000D02*
X142050000Y-93500000D01*
X131000000Y-92950000D02*
X134462500Y-92950000D01*
X141462500Y-92912500D02*
X141500000Y-92950000D01*
X141500000Y-92950000D02*
X141500000Y-96200000D01*
X134462500Y-92950000D02*
X134500000Y-92912500D01*
X141500000Y-96200000D02*
X141200000Y-96500000D01*
X131450000Y-104500000D02*
X130150000Y-104500000D01*
X142050000Y-93500000D02*
X141500000Y-92950000D01*
%TO.N,Net-(D1-K)*%
X120000000Y-91500000D02*
X111000000Y-91500000D01*
X100000000Y-90000000D02*
X99000000Y-89000000D01*
X111500000Y-95087500D02*
X111500000Y-92000000D01*
X110412500Y-95087500D02*
X111500000Y-95087500D01*
X108500000Y-99062500D02*
X108937500Y-99500000D01*
X108500000Y-96975000D02*
X109975000Y-95500000D01*
X101500000Y-96750000D02*
X101500000Y-97087500D01*
X99000000Y-89000000D02*
X85587500Y-89000000D01*
X105000000Y-96450000D02*
X107975000Y-96450000D01*
X104700000Y-96750000D02*
X105000000Y-96450000D01*
X101500000Y-96750000D02*
X104700000Y-96750000D01*
X125000000Y-102087500D02*
X124087500Y-102087500D01*
X107975000Y-96450000D02*
X108500000Y-96975000D01*
X121500000Y-99500000D02*
X121500000Y-93000000D01*
X101500000Y-97087500D02*
X100000000Y-98587500D01*
X124087500Y-102087500D02*
X121500000Y-99500000D01*
X108500000Y-96975000D02*
X108500000Y-99062500D01*
X109975000Y-95500000D02*
X110000000Y-95500000D01*
X100000000Y-98587500D02*
X100000000Y-90000000D01*
X110000000Y-95500000D02*
X110412500Y-95087500D01*
X111500000Y-92000000D02*
X111000000Y-91500000D01*
X85587500Y-89000000D02*
X78000000Y-96587500D01*
X121500000Y-93000000D02*
X120000000Y-91500000D01*
%TO.N,Net-(D2-A)*%
X126000000Y-106500000D02*
X126000000Y-110000000D01*
X124865000Y-111135000D02*
X121975000Y-111135000D01*
X125000000Y-105750000D02*
X125250000Y-106000000D01*
X125250000Y-106000000D02*
X125500000Y-106000000D01*
X127475000Y-106000000D02*
X127500000Y-105975000D01*
X125250000Y-106000000D02*
X127475000Y-106000000D01*
X125000000Y-103912500D02*
X125000000Y-105750000D01*
X126000000Y-110000000D02*
X124865000Y-111135000D01*
X125500000Y-106000000D02*
X126000000Y-106500000D01*
%TO.N,Net-(C13-Pad2)*%
X126450000Y-113500000D02*
X128087500Y-113500000D01*
%TO.N,Net-(Q3-B)*%
X111500000Y-96912500D02*
X115312500Y-96912500D01*
X115500000Y-97100000D02*
X117400000Y-95200000D01*
X115312500Y-96912500D02*
X115500000Y-97100000D01*
X117400000Y-95200000D02*
X118350000Y-95200000D01*
X111500000Y-101550000D02*
X112450000Y-102500000D01*
X111500000Y-96912500D02*
X111500000Y-101550000D01*
%TO.N,Net-(Q1-B)*%
X107062500Y-98550000D02*
X103500000Y-98550000D01*
X100587500Y-100412500D02*
X102450000Y-98550000D01*
X100000000Y-100412500D02*
X100587500Y-100412500D01*
X98412500Y-100412500D02*
X97500000Y-99500000D01*
X97500000Y-99500000D02*
X97500000Y-96950000D01*
X100000000Y-100412500D02*
X98412500Y-100412500D01*
X102450000Y-98550000D02*
X103500000Y-98550000D01*
X100000000Y-102087500D02*
X100000000Y-100412500D01*
%TO.N,Net-(Q1-E)*%
X110137500Y-102087500D02*
X110550000Y-102500000D01*
X107000000Y-102087500D02*
X107000000Y-100512500D01*
X103537500Y-102087500D02*
X103500000Y-102050000D01*
X107000000Y-102087500D02*
X110137500Y-102087500D01*
X107000000Y-102087500D02*
X103537500Y-102087500D01*
X107000000Y-100512500D02*
X107062500Y-100450000D01*
X103500000Y-100450000D02*
X103500000Y-102050000D01*
%TO.N,Net-(D3-A)*%
X99000000Y-93000000D02*
X92250000Y-99750000D01*
X99000000Y-91500000D02*
X99000000Y-93000000D01*
X92250000Y-99750000D02*
X92250000Y-103000000D01*
X78000000Y-98412500D02*
X78000000Y-101487500D01*
X78062500Y-101550000D02*
X89000000Y-90612500D01*
X89000000Y-90500000D02*
X98000000Y-90500000D01*
X98000000Y-90500000D02*
X99000000Y-91500000D01*
X89000000Y-90612500D02*
X89000000Y-90500000D01*
X78000000Y-101487500D02*
X78062500Y-101550000D01*
%TO.N,Net-(Q2-D)*%
X82050000Y-102500000D02*
X92500000Y-92050000D01*
X79937500Y-102500000D02*
X82050000Y-102500000D01*
X92500000Y-92050000D02*
X97500000Y-92050000D01*
%TO.N,Net-(Q3-C)*%
X124650000Y-92450000D02*
X123700000Y-91500000D01*
X124650000Y-97500000D02*
X124650000Y-97600000D01*
X124650000Y-97600000D02*
X127550000Y-100500000D01*
X124650000Y-97500000D02*
X124650000Y-92450000D01*
%TO.N,Net-(C12-Pad2)*%
X117025000Y-106500000D02*
X117025000Y-108595000D01*
%TO.N,Net-(U1--)*%
X116940000Y-109950000D02*
X117025000Y-109865000D01*
X114500000Y-109950000D02*
X116940000Y-109950000D01*
%TO.N,Net-(C13-Pad1)*%
X124550000Y-113500000D02*
X123455000Y-112405000D01*
X127525000Y-111000000D02*
X127050000Y-111000000D01*
X127050000Y-111000000D02*
X124550000Y-113500000D01*
X123455000Y-112405000D02*
X121975000Y-112405000D01*
%TO.N,Net-(U1-BYPASS)*%
X123160000Y-109865000D02*
X121975000Y-109865000D01*
X124525000Y-108500000D02*
X123160000Y-109865000D01*
%TO.N,Net-(C12-Pad1)*%
X119975000Y-106500000D02*
X121975000Y-108500000D01*
X121975000Y-108500000D02*
X121975000Y-108595000D01*
%TO.N,Net-(C11-Pad1)*%
X128500000Y-96500000D02*
X128500000Y-93950000D01*
X129450000Y-100500000D02*
X133550000Y-100500000D01*
X128500000Y-93950000D02*
X127500000Y-92950000D01*
X129450000Y-97450000D02*
X128500000Y-96500000D01*
X129450000Y-100500000D02*
X129450000Y-97450000D01*
%TO.N,Net-(AE1-A)*%
X145050000Y-104500000D02*
X146550000Y-103000000D01*
X146550000Y-113500000D02*
X146550000Y-117050000D01*
X146550000Y-113500000D02*
X146550000Y-110000000D01*
X142850000Y-104500000D02*
X145050000Y-104500000D01*
X146550000Y-103000000D02*
X146550000Y-106500000D01*
X146550000Y-117050000D02*
X147500000Y-118000000D01*
X146550000Y-99500000D02*
X146550000Y-103000000D01*
X146550000Y-110000000D02*
X146550000Y-106500000D01*
%TO.N,Net-(D1-A)*%
X101500000Y-94250000D02*
X104750000Y-91000000D01*
X104750000Y-91000000D02*
X105225000Y-91000000D01*
%TD*%
%TA.AperFunction,Conductor*%
%TO.N,GND*%
G36*
X119756587Y-92145185D02*
G01*
X119777229Y-92161819D01*
X120838181Y-93222771D01*
X120871666Y-93284094D01*
X120874500Y-93310452D01*
X120874500Y-99417255D01*
X120872775Y-99432872D01*
X120873061Y-99432899D01*
X120872326Y-99440665D01*
X120874439Y-99507872D01*
X120874500Y-99511767D01*
X120874500Y-99539357D01*
X120875003Y-99543335D01*
X120875918Y-99554967D01*
X120877290Y-99598624D01*
X120877291Y-99598627D01*
X120882880Y-99617867D01*
X120886824Y-99636911D01*
X120889336Y-99656792D01*
X120905414Y-99697403D01*
X120909197Y-99708452D01*
X120921268Y-99750000D01*
X120921382Y-99750390D01*
X120925614Y-99757547D01*
X120931580Y-99767634D01*
X120940136Y-99785100D01*
X120943566Y-99793760D01*
X120947514Y-99803732D01*
X120973181Y-99839060D01*
X120979593Y-99848821D01*
X121001828Y-99886417D01*
X121001833Y-99886424D01*
X121015990Y-99900580D01*
X121028628Y-99915376D01*
X121040405Y-99931586D01*
X121040406Y-99931587D01*
X121074057Y-99959425D01*
X121082698Y-99967288D01*
X123586694Y-102471284D01*
X123596519Y-102483548D01*
X123596740Y-102483366D01*
X123601710Y-102489374D01*
X123650739Y-102535415D01*
X123653536Y-102538126D01*
X123673030Y-102557620D01*
X123676195Y-102560075D01*
X123685071Y-102567656D01*
X123716918Y-102597562D01*
X123716922Y-102597564D01*
X123734473Y-102607213D01*
X123750731Y-102617892D01*
X123766564Y-102630174D01*
X123786485Y-102638794D01*
X123806655Y-102647522D01*
X123817148Y-102652663D01*
X123845631Y-102668322D01*
X123891431Y-102711885D01*
X123936830Y-102785489D01*
X123957289Y-102818657D01*
X124050951Y-102912319D01*
X124084436Y-102973642D01*
X124079452Y-103043334D01*
X124050951Y-103087681D01*
X123957289Y-103181342D01*
X123865187Y-103330663D01*
X123865185Y-103330668D01*
X123844775Y-103392261D01*
X123810001Y-103497203D01*
X123810001Y-103497204D01*
X123810000Y-103497204D01*
X123799500Y-103599983D01*
X123799500Y-103599996D01*
X123799501Y-104224998D01*
X123799501Y-104225019D01*
X123810000Y-104327796D01*
X123810001Y-104327799D01*
X123865185Y-104494331D01*
X123865187Y-104494336D01*
X123881246Y-104520371D01*
X123957288Y-104643656D01*
X124081344Y-104767712D01*
X124229927Y-104859358D01*
X124230668Y-104859815D01*
X124242010Y-104863573D01*
X124289502Y-104879310D01*
X124346947Y-104919081D01*
X124373772Y-104983596D01*
X124374500Y-104997016D01*
X124374500Y-105299336D01*
X124356039Y-105364432D01*
X124315189Y-105430659D01*
X124315185Y-105430668D01*
X124311324Y-105442320D01*
X124260001Y-105597203D01*
X124260001Y-105597204D01*
X124260000Y-105597204D01*
X124249500Y-105699983D01*
X124249500Y-106300001D01*
X124249501Y-106300019D01*
X124260000Y-106402796D01*
X124260001Y-106402799D01*
X124276569Y-106452797D01*
X124315186Y-106569334D01*
X124405591Y-106715905D01*
X124407289Y-106718657D01*
X124531344Y-106842712D01*
X124575522Y-106869961D01*
X124622247Y-106921909D01*
X124633470Y-106990871D01*
X124605627Y-107054953D01*
X124547558Y-107093810D01*
X124510426Y-107099500D01*
X124149998Y-107099500D01*
X124149980Y-107099501D01*
X124047203Y-107110000D01*
X124047200Y-107110001D01*
X123880668Y-107165185D01*
X123880663Y-107165187D01*
X123731342Y-107257289D01*
X123607289Y-107381342D01*
X123515187Y-107530663D01*
X123515185Y-107530668D01*
X123515115Y-107530880D01*
X123460001Y-107697203D01*
X123460001Y-107697204D01*
X123460000Y-107697204D01*
X123449500Y-107799983D01*
X123449500Y-107875191D01*
X123429815Y-107942230D01*
X123377011Y-107987985D01*
X123307853Y-107997929D01*
X123244297Y-107968904D01*
X123237819Y-107962872D01*
X123201870Y-107926923D01*
X123201862Y-107926917D01*
X123078964Y-107854236D01*
X123060398Y-107843256D01*
X123060397Y-107843255D01*
X123060396Y-107843255D01*
X123060393Y-107843254D01*
X122902573Y-107797402D01*
X122902567Y-107797401D01*
X122865701Y-107794500D01*
X122865694Y-107794500D01*
X122205453Y-107794500D01*
X122138414Y-107774815D01*
X122117772Y-107758181D01*
X121086818Y-106727227D01*
X121053333Y-106665904D01*
X121050499Y-106639546D01*
X121050499Y-105299998D01*
X121050498Y-105299981D01*
X121039999Y-105197203D01*
X121039998Y-105197200D01*
X121016959Y-105127673D01*
X120984814Y-105030666D01*
X120892712Y-104881344D01*
X120768656Y-104757288D01*
X120619334Y-104665186D01*
X120452797Y-104610001D01*
X120452795Y-104610000D01*
X120350010Y-104599500D01*
X119599998Y-104599500D01*
X119599980Y-104599501D01*
X119497203Y-104610000D01*
X119497200Y-104610001D01*
X119330668Y-104665185D01*
X119330659Y-104665189D01*
X119288801Y-104691008D01*
X119221409Y-104709448D01*
X119154745Y-104688525D01*
X119109976Y-104634883D01*
X119101315Y-104565552D01*
X119118167Y-104520371D01*
X119134355Y-104494126D01*
X119134358Y-104494119D01*
X119189505Y-104327697D01*
X119189506Y-104327690D01*
X119199999Y-104224986D01*
X119200000Y-104224973D01*
X119200000Y-104162500D01*
X116800001Y-104162500D01*
X116800001Y-104224986D01*
X116810494Y-104327697D01*
X116846547Y-104436496D01*
X116848949Y-104506324D01*
X116813217Y-104566366D01*
X116750697Y-104597559D01*
X116728843Y-104599500D01*
X116649999Y-104599500D01*
X116649980Y-104599501D01*
X116547203Y-104610000D01*
X116547200Y-104610001D01*
X116380668Y-104665185D01*
X116380663Y-104665187D01*
X116231342Y-104757289D01*
X116107289Y-104881342D01*
X116015187Y-105030663D01*
X116015185Y-105030668D01*
X115999296Y-105078618D01*
X115960001Y-105197203D01*
X115960001Y-105197204D01*
X115960000Y-105197204D01*
X115949500Y-105299983D01*
X115949500Y-106700001D01*
X115949501Y-106700018D01*
X115960000Y-106802796D01*
X115960001Y-106802799D01*
X116015185Y-106969331D01*
X116015187Y-106969336D01*
X116027932Y-106989999D01*
X116107288Y-107118656D01*
X116231344Y-107242712D01*
X116340597Y-107310099D01*
X116387321Y-107362047D01*
X116399500Y-107415638D01*
X116399500Y-107670500D01*
X116379815Y-107737539D01*
X116327011Y-107783294D01*
X116275500Y-107794500D01*
X116134298Y-107794500D01*
X116097432Y-107797401D01*
X116097426Y-107797402D01*
X115939606Y-107843254D01*
X115939599Y-107843257D01*
X115912619Y-107859213D01*
X115844895Y-107876396D01*
X115778633Y-107854236D01*
X115734870Y-107799769D01*
X115725499Y-107752481D01*
X115725499Y-107749998D01*
X115725498Y-107749981D01*
X115714999Y-107647203D01*
X115714998Y-107647200D01*
X115695658Y-107588837D01*
X115659814Y-107480666D01*
X115567712Y-107331344D01*
X115443656Y-107207288D01*
X115314618Y-107127697D01*
X115294336Y-107115187D01*
X115294331Y-107115185D01*
X115278684Y-107110000D01*
X115127797Y-107060001D01*
X115127795Y-107060000D01*
X115025016Y-107049500D01*
X115025009Y-107049500D01*
X114435453Y-107049500D01*
X114368414Y-107029815D01*
X114347772Y-107013181D01*
X114111819Y-106777228D01*
X114078334Y-106715905D01*
X114075500Y-106689547D01*
X114075500Y-105073999D01*
X114095185Y-105006960D01*
X114147989Y-104961205D01*
X114199500Y-104949999D01*
X114250000Y-104949999D01*
X114250000Y-104200000D01*
X114750000Y-104200000D01*
X114750000Y-104949999D01*
X115024972Y-104949999D01*
X115024986Y-104949998D01*
X115127697Y-104939505D01*
X115294119Y-104884358D01*
X115294124Y-104884356D01*
X115443345Y-104792315D01*
X115567315Y-104668345D01*
X115659356Y-104519124D01*
X115659358Y-104519119D01*
X115714505Y-104352697D01*
X115714506Y-104352690D01*
X115724999Y-104249986D01*
X115725000Y-104249973D01*
X115725000Y-104200000D01*
X114750000Y-104200000D01*
X114250000Y-104200000D01*
X114250000Y-103824000D01*
X114269685Y-103756961D01*
X114322489Y-103711206D01*
X114374000Y-103700000D01*
X115724999Y-103700000D01*
X115724999Y-103650028D01*
X115724998Y-103650013D01*
X115714505Y-103547302D01*
X115659358Y-103380880D01*
X115659356Y-103380875D01*
X115567315Y-103231654D01*
X115443344Y-103107683D01*
X115443341Y-103107681D01*
X115440339Y-103105829D01*
X115438713Y-103104021D01*
X115437677Y-103103202D01*
X115437817Y-103103024D01*
X115393617Y-103053880D01*
X115382397Y-102984917D01*
X115410243Y-102920836D01*
X115440344Y-102894754D01*
X115443656Y-102892712D01*
X115567712Y-102768656D01*
X115659814Y-102619334D01*
X115714999Y-102452797D01*
X115725500Y-102350009D01*
X115725499Y-101760450D01*
X115745183Y-101693412D01*
X115761813Y-101672775D01*
X115883786Y-101550802D01*
X115896048Y-101540980D01*
X115895865Y-101540759D01*
X115901868Y-101535791D01*
X115901877Y-101535786D01*
X115947934Y-101486739D01*
X115950582Y-101484006D01*
X115970120Y-101464470D01*
X115972570Y-101461310D01*
X115980154Y-101452429D01*
X116010062Y-101420582D01*
X116019714Y-101403023D01*
X116030389Y-101386772D01*
X116042674Y-101370936D01*
X116060022Y-101330843D01*
X116065162Y-101320354D01*
X116086193Y-101282100D01*
X116086193Y-101282098D01*
X116086197Y-101282092D01*
X116091180Y-101262680D01*
X116097477Y-101244291D01*
X116105438Y-101225895D01*
X116112270Y-101182748D01*
X116114639Y-101171316D01*
X116127441Y-101121461D01*
X116130036Y-101122127D01*
X116152805Y-101069917D01*
X116210925Y-101031139D01*
X116247898Y-101025499D01*
X116625002Y-101025499D01*
X116625008Y-101025499D01*
X116727797Y-101014999D01*
X116894334Y-100959814D01*
X116914569Y-100947332D01*
X116981960Y-100928891D01*
X117048624Y-100949812D01*
X117053978Y-100953603D01*
X117107673Y-100993799D01*
X117111440Y-100995856D01*
X117114474Y-100998890D01*
X117114769Y-100999111D01*
X117114737Y-100999153D01*
X117160846Y-101045261D01*
X117175698Y-101113534D01*
X117151281Y-101178998D01*
X117117111Y-101210226D01*
X117081347Y-101232285D01*
X117081343Y-101232288D01*
X116957289Y-101356342D01*
X116865187Y-101505663D01*
X116865185Y-101505668D01*
X116848393Y-101556344D01*
X116810001Y-101672203D01*
X116810001Y-101672204D01*
X116810000Y-101672204D01*
X116799500Y-101774983D01*
X116799500Y-102400001D01*
X116799501Y-102400019D01*
X116810000Y-102502796D01*
X116810001Y-102502799D01*
X116865185Y-102669331D01*
X116865187Y-102669336D01*
X116891432Y-102711886D01*
X116916525Y-102752569D01*
X116957289Y-102818657D01*
X117051304Y-102912672D01*
X117084789Y-102973995D01*
X117079805Y-103043687D01*
X117051305Y-103088034D01*
X116957682Y-103181657D01*
X116865643Y-103330875D01*
X116865641Y-103330880D01*
X116810494Y-103497302D01*
X116810493Y-103497309D01*
X116800000Y-103600013D01*
X116800000Y-103662500D01*
X119199999Y-103662500D01*
X119199999Y-103600028D01*
X119199998Y-103600013D01*
X119189505Y-103497302D01*
X119134358Y-103330880D01*
X119134356Y-103330875D01*
X119042315Y-103181654D01*
X118948695Y-103088034D01*
X118915210Y-103026711D01*
X118920194Y-102957019D01*
X118948691Y-102912676D01*
X119042712Y-102818656D01*
X119071549Y-102771902D01*
X119123497Y-102725179D01*
X119177088Y-102713000D01*
X119277048Y-102713000D01*
X119344087Y-102732685D01*
X119364729Y-102749319D01*
X121833940Y-105218530D01*
X121867425Y-105279853D01*
X121862441Y-105349545D01*
X121851798Y-105371307D01*
X121815190Y-105430659D01*
X121815185Y-105430668D01*
X121811324Y-105442320D01*
X121760001Y-105597203D01*
X121760001Y-105597204D01*
X121760000Y-105597204D01*
X121749500Y-105699983D01*
X121749500Y-106300001D01*
X121749501Y-106300019D01*
X121760000Y-106402796D01*
X121760001Y-106402799D01*
X121776569Y-106452797D01*
X121815186Y-106569334D01*
X121907288Y-106718656D01*
X122031344Y-106842712D01*
X122180666Y-106934814D01*
X122347203Y-106989999D01*
X122449991Y-107000500D01*
X123050008Y-107000499D01*
X123050016Y-107000498D01*
X123050019Y-107000498D01*
X123106302Y-106994748D01*
X123152797Y-106989999D01*
X123319334Y-106934814D01*
X123468656Y-106842712D01*
X123592712Y-106718656D01*
X123684814Y-106569334D01*
X123739999Y-106402797D01*
X123750500Y-106300009D01*
X123750499Y-105699992D01*
X123739999Y-105597203D01*
X123684814Y-105430666D01*
X123592712Y-105281344D01*
X123468656Y-105157288D01*
X123394507Y-105111553D01*
X123347783Y-105059606D01*
X123340530Y-105040615D01*
X123328617Y-104999610D01*
X123328552Y-104999500D01*
X123318421Y-104982369D01*
X123309860Y-104964893D01*
X123307559Y-104959081D01*
X123302486Y-104946268D01*
X123276809Y-104910926D01*
X123270412Y-104901190D01*
X123248170Y-104863579D01*
X123248167Y-104863576D01*
X123248165Y-104863573D01*
X123234005Y-104849413D01*
X123221370Y-104834620D01*
X123209593Y-104818412D01*
X123175945Y-104790576D01*
X123167304Y-104782713D01*
X120088303Y-101703712D01*
X120078480Y-101691450D01*
X120078259Y-101691634D01*
X120073286Y-101685622D01*
X120024276Y-101639599D01*
X120021477Y-101636886D01*
X120001977Y-101617385D01*
X120001971Y-101617380D01*
X119998786Y-101614909D01*
X119989934Y-101607348D01*
X119958082Y-101577438D01*
X119958080Y-101577436D01*
X119958077Y-101577435D01*
X119940529Y-101567788D01*
X119924263Y-101557104D01*
X119923283Y-101556344D01*
X119908436Y-101544827D01*
X119908435Y-101544826D01*
X119908432Y-101544824D01*
X119868349Y-101527478D01*
X119857863Y-101522341D01*
X119819594Y-101501303D01*
X119819592Y-101501302D01*
X119800193Y-101496322D01*
X119781781Y-101490018D01*
X119763398Y-101482062D01*
X119763392Y-101482060D01*
X119720260Y-101475229D01*
X119708822Y-101472861D01*
X119666520Y-101462000D01*
X119666519Y-101462000D01*
X119646484Y-101462000D01*
X119627086Y-101460473D01*
X119619662Y-101459297D01*
X119607305Y-101457340D01*
X119607304Y-101457340D01*
X119563825Y-101461450D01*
X119552156Y-101462000D01*
X119177088Y-101462000D01*
X119110049Y-101442315D01*
X119071549Y-101403097D01*
X119071509Y-101403032D01*
X119042712Y-101356344D01*
X118948548Y-101262180D01*
X118915063Y-101200857D01*
X118920047Y-101131165D01*
X118961919Y-101075232D01*
X119027383Y-101050815D01*
X119036229Y-101050499D01*
X119397871Y-101050499D01*
X119397872Y-101050499D01*
X119457483Y-101044091D01*
X119592331Y-100993796D01*
X119707546Y-100907546D01*
X119793796Y-100792331D01*
X119844091Y-100657483D01*
X119850500Y-100597873D01*
X119850499Y-99002128D01*
X119844091Y-98942517D01*
X119840276Y-98932289D01*
X119793797Y-98807671D01*
X119793796Y-98807669D01*
X119731394Y-98724311D01*
X119706977Y-98658847D01*
X119721828Y-98590574D01*
X119731394Y-98575689D01*
X119793796Y-98492331D01*
X119844091Y-98357483D01*
X119850500Y-98297873D01*
X119850499Y-96702128D01*
X119844091Y-96642517D01*
X119828232Y-96599998D01*
X119793797Y-96507671D01*
X119793796Y-96507669D01*
X119770435Y-96476463D01*
X119731393Y-96424310D01*
X119706977Y-96358847D01*
X119721828Y-96290574D01*
X119731394Y-96275689D01*
X119746199Y-96255912D01*
X119793796Y-96192331D01*
X119844091Y-96057483D01*
X119850500Y-95997873D01*
X119850499Y-94402128D01*
X119844091Y-94342517D01*
X119828233Y-94300000D01*
X119793797Y-94207671D01*
X119793793Y-94207664D01*
X119707547Y-94092455D01*
X119707544Y-94092452D01*
X119592335Y-94006206D01*
X119592328Y-94006202D01*
X119457482Y-93955908D01*
X119457483Y-93955908D01*
X119397883Y-93949501D01*
X119397881Y-93949500D01*
X119397873Y-93949500D01*
X119397864Y-93949500D01*
X117302129Y-93949500D01*
X117302123Y-93949501D01*
X117242516Y-93955908D01*
X117107671Y-94006202D01*
X117107664Y-94006206D01*
X116992455Y-94092452D01*
X116992452Y-94092455D01*
X116906206Y-94207664D01*
X116906202Y-94207671D01*
X116855908Y-94342517D01*
X116849731Y-94399981D01*
X116849501Y-94402123D01*
X116849500Y-94402135D01*
X116849500Y-94814546D01*
X116829815Y-94881585D01*
X116813181Y-94902227D01*
X115777226Y-95938181D01*
X115715903Y-95971666D01*
X115689545Y-95974500D01*
X114374998Y-95974500D01*
X114374981Y-95974501D01*
X114272203Y-95985000D01*
X114272200Y-95985001D01*
X114105668Y-96040185D01*
X114105663Y-96040187D01*
X113956342Y-96132289D01*
X113837951Y-96250681D01*
X113776628Y-96284166D01*
X113750270Y-96287000D01*
X112677088Y-96287000D01*
X112610049Y-96267315D01*
X112571549Y-96228097D01*
X112542712Y-96181344D01*
X112449049Y-96087681D01*
X112415564Y-96026358D01*
X112420548Y-95956666D01*
X112449049Y-95912319D01*
X112488389Y-95872979D01*
X112542712Y-95818656D01*
X112634814Y-95669334D01*
X112689999Y-95502797D01*
X112700500Y-95400009D01*
X112700499Y-94774992D01*
X112689999Y-94672203D01*
X112634814Y-94505666D01*
X112542712Y-94356344D01*
X112418656Y-94232288D01*
X112322163Y-94172771D01*
X112269336Y-94140187D01*
X112269335Y-94140186D01*
X112269334Y-94140186D01*
X112210493Y-94120688D01*
X112153051Y-94080916D01*
X112126228Y-94016400D01*
X112125500Y-94002983D01*
X112125500Y-92541241D01*
X112145185Y-92474202D01*
X112158270Y-92457258D01*
X112168088Y-92446593D01*
X112188164Y-92424785D01*
X112324173Y-92216607D01*
X112324175Y-92216603D01*
X112331595Y-92199689D01*
X112376551Y-92146203D01*
X112443287Y-92125514D01*
X112445150Y-92125500D01*
X119689548Y-92125500D01*
X119756587Y-92145185D01*
G37*
%TD.AperFunction*%
%TA.AperFunction,Conductor*%
G36*
X132536738Y-101145185D02*
G01*
X132582493Y-101197989D01*
X132587403Y-101210492D01*
X132615186Y-101294334D01*
X132707288Y-101443656D01*
X132831344Y-101567712D01*
X132980666Y-101659814D01*
X133109005Y-101702341D01*
X133166448Y-101742112D01*
X133193271Y-101806628D01*
X133180956Y-101875404D01*
X133157680Y-101907727D01*
X131502417Y-103562990D01*
X131441094Y-103596475D01*
X131371402Y-103591491D01*
X131323506Y-103559292D01*
X131291913Y-103524973D01*
X131169744Y-103392262D01*
X130973509Y-103239526D01*
X130973507Y-103239525D01*
X130973506Y-103239524D01*
X130754811Y-103121172D01*
X130754802Y-103121169D01*
X130519616Y-103040429D01*
X130274335Y-102999500D01*
X130025665Y-102999500D01*
X129780383Y-103040429D01*
X129545197Y-103121169D01*
X129545188Y-103121172D01*
X129326493Y-103239524D01*
X129130256Y-103392261D01*
X129115229Y-103408586D01*
X129055342Y-103444576D01*
X128985504Y-103442475D01*
X128927888Y-103402950D01*
X128900787Y-103338551D01*
X128900000Y-103324602D01*
X128900000Y-103275000D01*
X127750000Y-103275000D01*
X127750000Y-104099999D01*
X128199972Y-104099999D01*
X128199986Y-104099998D01*
X128302697Y-104089505D01*
X128469119Y-104034358D01*
X128469126Y-104034355D01*
X128506087Y-104011557D01*
X128573479Y-103993116D01*
X128640143Y-104014038D01*
X128684913Y-104067679D01*
X128693575Y-104137010D01*
X128691391Y-104147535D01*
X128664892Y-104252174D01*
X128664890Y-104252187D01*
X128644357Y-104499994D01*
X128644357Y-104500005D01*
X128664890Y-104747812D01*
X128664892Y-104747824D01*
X128691215Y-104851768D01*
X128688590Y-104921588D01*
X128648634Y-104978905D01*
X128584033Y-105005522D01*
X128515296Y-104992988D01*
X128505914Y-104987748D01*
X128483577Y-104973971D01*
X128469334Y-104965186D01*
X128302797Y-104910001D01*
X128302795Y-104910000D01*
X128200010Y-104899500D01*
X126799998Y-104899500D01*
X126799981Y-104899501D01*
X126697203Y-104910000D01*
X126697200Y-104910001D01*
X126530668Y-104965185D01*
X126530663Y-104965187D01*
X126381342Y-105057289D01*
X126257289Y-105181342D01*
X126238682Y-105211510D01*
X126186734Y-105258234D01*
X126117771Y-105269457D01*
X126053689Y-105241613D01*
X126045462Y-105234094D01*
X125968657Y-105157289D01*
X125968656Y-105157288D01*
X125841109Y-105078617D01*
X125819336Y-105065187D01*
X125812791Y-105062136D01*
X125813732Y-105060117D01*
X125765186Y-105026507D01*
X125738363Y-104961991D01*
X125750678Y-104893215D01*
X125796539Y-104843034D01*
X125836456Y-104818413D01*
X125918656Y-104767712D01*
X126042712Y-104643656D01*
X126134814Y-104494334D01*
X126189999Y-104327797D01*
X126200500Y-104225009D01*
X126200499Y-104052751D01*
X126220183Y-103985714D01*
X126272987Y-103939959D01*
X126342145Y-103930015D01*
X126389596Y-103947214D01*
X126530875Y-104034356D01*
X126530880Y-104034358D01*
X126697302Y-104089505D01*
X126697309Y-104089506D01*
X126800019Y-104099999D01*
X127249999Y-104099999D01*
X127250000Y-104099998D01*
X127250000Y-102899000D01*
X127269685Y-102831961D01*
X127322489Y-102786206D01*
X127374000Y-102775000D01*
X128899999Y-102775000D01*
X128899999Y-102650028D01*
X128899998Y-102650013D01*
X128889505Y-102547302D01*
X128834358Y-102380880D01*
X128834356Y-102380875D01*
X128742315Y-102231654D01*
X128618345Y-102107684D01*
X128469124Y-102015643D01*
X128469119Y-102015641D01*
X128302697Y-101960494D01*
X128302690Y-101960493D01*
X128199986Y-101950000D01*
X128012035Y-101950000D01*
X127944996Y-101930315D01*
X127899241Y-101877511D01*
X127889297Y-101808353D01*
X127918322Y-101744797D01*
X127973031Y-101708294D01*
X127980971Y-101705663D01*
X128119334Y-101659814D01*
X128268656Y-101567712D01*
X128392712Y-101443656D01*
X128394461Y-101440819D01*
X128396169Y-101439283D01*
X128397193Y-101437989D01*
X128397414Y-101438163D01*
X128446406Y-101394096D01*
X128515368Y-101382872D01*
X128579451Y-101410713D01*
X128605537Y-101440817D01*
X128607288Y-101443656D01*
X128731344Y-101567712D01*
X128880666Y-101659814D01*
X129047203Y-101714999D01*
X129149991Y-101725500D01*
X129750008Y-101725499D01*
X129750016Y-101725498D01*
X129750019Y-101725498D01*
X129806302Y-101719748D01*
X129852797Y-101714999D01*
X130019334Y-101659814D01*
X130168656Y-101567712D01*
X130292712Y-101443656D01*
X130384814Y-101294334D01*
X130412595Y-101210495D01*
X130452368Y-101153051D01*
X130516884Y-101126228D01*
X130530301Y-101125500D01*
X132469699Y-101125500D01*
X132536738Y-101145185D01*
G37*
%TD.AperFunction*%
%TA.AperFunction,Conductor*%
G36*
X150442539Y-86020185D02*
G01*
X150488294Y-86072989D01*
X150499500Y-86124500D01*
X150499500Y-121375500D01*
X150479815Y-121442539D01*
X150427011Y-121488294D01*
X150375500Y-121499500D01*
X73624500Y-121499500D01*
X73557461Y-121479815D01*
X73511706Y-121427011D01*
X73500500Y-121375500D01*
X73500500Y-115291396D01*
X78062157Y-115291396D01*
X78136140Y-115357234D01*
X78422404Y-115557679D01*
X78729991Y-115723528D01*
X78730008Y-115723535D01*
X79054760Y-115852551D01*
X79054771Y-115852555D01*
X79392317Y-115943000D01*
X79738091Y-115993648D01*
X79883555Y-115999999D01*
X85116444Y-115999999D01*
X85261908Y-115993648D01*
X85607682Y-115943000D01*
X85945228Y-115852555D01*
X85945239Y-115852551D01*
X86269991Y-115723535D01*
X86270008Y-115723528D01*
X86577595Y-115557679D01*
X86863853Y-115357239D01*
X86863864Y-115357230D01*
X86937841Y-115291396D01*
X86937841Y-115291395D01*
X82500000Y-110853553D01*
X78062157Y-115291395D01*
X78062157Y-115291396D01*
X73500500Y-115291396D01*
X73500500Y-113116444D01*
X77000000Y-113116444D01*
X77006351Y-113261908D01*
X77056999Y-113607682D01*
X77147444Y-113945228D01*
X77147448Y-113945239D01*
X77276464Y-114269991D01*
X77276471Y-114270008D01*
X77442320Y-114577595D01*
X77642764Y-114863859D01*
X77708602Y-114937841D01*
X77708603Y-114937841D01*
X82146444Y-110500000D01*
X82853553Y-110500000D01*
X87291395Y-114937841D01*
X87291396Y-114937841D01*
X87357230Y-114863864D01*
X87357239Y-114863853D01*
X87557679Y-114577595D01*
X87723528Y-114270008D01*
X87723535Y-114269991D01*
X87852551Y-113945239D01*
X87852555Y-113945228D01*
X87943000Y-113607682D01*
X87993648Y-113261908D01*
X87999999Y-113116444D01*
X87999999Y-112807367D01*
X89877704Y-112807367D01*
X89877704Y-115585418D01*
X100122422Y-115585418D01*
X100122422Y-112807367D01*
X89877704Y-112807367D01*
X87999999Y-112807367D01*
X87999999Y-107883555D01*
X87993648Y-107738091D01*
X87943000Y-107392317D01*
X87852555Y-107054771D01*
X87852551Y-107054760D01*
X87723535Y-106730008D01*
X87723528Y-106729991D01*
X87557679Y-106422404D01*
X87357234Y-106136140D01*
X87291395Y-106062157D01*
X82853553Y-110500000D01*
X82146444Y-110500000D01*
X82146445Y-110499999D01*
X77708603Y-106062157D01*
X77708602Y-106062157D01*
X77642760Y-106136145D01*
X77442320Y-106422404D01*
X77276471Y-106729991D01*
X77276464Y-106730008D01*
X77147448Y-107054760D01*
X77147444Y-107054771D01*
X77056999Y-107392317D01*
X77006351Y-107738091D01*
X77000000Y-107883555D01*
X77000000Y-113116444D01*
X73500500Y-113116444D01*
X73500500Y-105708603D01*
X78062157Y-105708603D01*
X82499999Y-110146445D01*
X86937841Y-105708603D01*
X86937841Y-105708602D01*
X86863859Y-105642764D01*
X86577595Y-105442320D01*
X86270008Y-105276471D01*
X86269991Y-105276464D01*
X85945239Y-105147448D01*
X85945228Y-105147444D01*
X85607682Y-105056999D01*
X85261908Y-105006351D01*
X85116444Y-105000000D01*
X79883555Y-105000000D01*
X79738091Y-105006351D01*
X79392317Y-105056999D01*
X79054771Y-105147444D01*
X79054760Y-105147448D01*
X78730008Y-105276464D01*
X78729991Y-105276471D01*
X78422404Y-105442320D01*
X78136145Y-105642760D01*
X78062157Y-105708602D01*
X78062157Y-105708603D01*
X73500500Y-105708603D01*
X73500500Y-103700001D01*
X76827704Y-103700001D01*
X76827899Y-103702486D01*
X76873718Y-103860198D01*
X76957314Y-104001552D01*
X76957321Y-104001561D01*
X77073438Y-104117678D01*
X77073447Y-104117685D01*
X77214803Y-104201282D01*
X77214806Y-104201283D01*
X77372504Y-104247099D01*
X77372510Y-104247100D01*
X77409350Y-104249999D01*
X77409366Y-104250000D01*
X77812500Y-104250000D01*
X77812500Y-103700000D01*
X78312500Y-103700000D01*
X78312500Y-104250000D01*
X78715634Y-104250000D01*
X78715649Y-104249999D01*
X78752489Y-104247100D01*
X78752495Y-104247099D01*
X78910193Y-104201283D01*
X78910196Y-104201282D01*
X79051552Y-104117685D01*
X79051561Y-104117678D01*
X79167678Y-104001561D01*
X79167685Y-104001552D01*
X79251281Y-103860198D01*
X79297100Y-103702486D01*
X79297295Y-103700001D01*
X79297295Y-103700000D01*
X78312500Y-103700000D01*
X77812500Y-103700000D01*
X76827705Y-103700000D01*
X76827704Y-103700001D01*
X73500500Y-103700001D01*
X73500500Y-103199998D01*
X76827704Y-103199998D01*
X76827705Y-103200000D01*
X77812500Y-103200000D01*
X77812500Y-102650000D01*
X77409350Y-102650000D01*
X77372510Y-102652899D01*
X77372504Y-102652900D01*
X77214806Y-102698716D01*
X77214803Y-102698717D01*
X77073447Y-102782314D01*
X77073438Y-102782321D01*
X76957321Y-102898438D01*
X76957314Y-102898447D01*
X76873718Y-103039801D01*
X76827899Y-103197513D01*
X76827704Y-103199998D01*
X73500500Y-103199998D01*
X73500500Y-98725001D01*
X76799500Y-98725001D01*
X76799501Y-98725019D01*
X76810000Y-98827796D01*
X76810001Y-98827799D01*
X76849875Y-98948129D01*
X76865186Y-98994334D01*
X76957288Y-99143656D01*
X77081344Y-99267712D01*
X77210859Y-99347597D01*
X77230668Y-99359815D01*
X77251110Y-99366588D01*
X77289502Y-99379310D01*
X77346947Y-99419081D01*
X77373772Y-99483596D01*
X77374500Y-99497016D01*
X77374500Y-100658699D01*
X77354815Y-100725738D01*
X77302011Y-100771493D01*
X77285095Y-100777775D01*
X77214606Y-100798253D01*
X77214603Y-100798255D01*
X77073137Y-100881917D01*
X77073129Y-100881923D01*
X76956923Y-100998129D01*
X76956917Y-100998137D01*
X76873255Y-101139603D01*
X76873254Y-101139606D01*
X76827402Y-101297426D01*
X76827401Y-101297432D01*
X76824500Y-101334298D01*
X76824500Y-101765701D01*
X76827401Y-101802567D01*
X76827402Y-101802573D01*
X76873254Y-101960393D01*
X76873255Y-101960396D01*
X76873256Y-101960398D01*
X76905928Y-102015643D01*
X76956917Y-102101862D01*
X76956923Y-102101870D01*
X77073129Y-102218076D01*
X77073133Y-102218079D01*
X77073135Y-102218081D01*
X77214602Y-102301744D01*
X77232559Y-102306961D01*
X77372426Y-102347597D01*
X77372429Y-102347597D01*
X77372431Y-102347598D01*
X77409306Y-102350500D01*
X78575500Y-102350500D01*
X78642539Y-102370185D01*
X78688294Y-102422989D01*
X78699500Y-102474500D01*
X78699500Y-102526000D01*
X78679815Y-102593039D01*
X78627011Y-102638794D01*
X78575500Y-102650000D01*
X78312500Y-102650000D01*
X78312500Y-103200000D01*
X78968185Y-103200000D01*
X79031306Y-103217268D01*
X79089602Y-103251744D01*
X79131224Y-103263836D01*
X79247426Y-103297597D01*
X79247429Y-103297597D01*
X79247431Y-103297598D01*
X79284306Y-103300500D01*
X79284314Y-103300500D01*
X80590686Y-103300500D01*
X80590694Y-103300500D01*
X80627569Y-103297598D01*
X80627571Y-103297597D01*
X80627573Y-103297597D01*
X80705351Y-103275000D01*
X80785398Y-103251744D01*
X80916916Y-103173964D01*
X80984639Y-103156782D01*
X81050901Y-103178942D01*
X81094665Y-103233408D01*
X81097741Y-103241691D01*
X81115184Y-103294328D01*
X81115187Y-103294336D01*
X81137728Y-103330880D01*
X81207288Y-103443656D01*
X81331344Y-103567712D01*
X81480666Y-103659814D01*
X81647203Y-103714999D01*
X81749991Y-103725500D01*
X82350008Y-103725499D01*
X82350016Y-103725498D01*
X82350019Y-103725498D01*
X82416997Y-103718656D01*
X82452797Y-103714999D01*
X82619334Y-103659814D01*
X82768656Y-103567712D01*
X82892712Y-103443656D01*
X82894752Y-103440347D01*
X82896745Y-103438555D01*
X82897193Y-103437989D01*
X82897289Y-103438065D01*
X82946694Y-103393623D01*
X83015656Y-103382395D01*
X83079740Y-103410234D01*
X83105829Y-103440339D01*
X83107681Y-103443341D01*
X83107683Y-103443344D01*
X83231654Y-103567315D01*
X83380875Y-103659356D01*
X83380880Y-103659358D01*
X83547302Y-103714505D01*
X83547309Y-103714506D01*
X83650019Y-103724999D01*
X83699999Y-103724998D01*
X83700000Y-103724998D01*
X83700000Y-102750000D01*
X84200000Y-102750000D01*
X84200000Y-103724999D01*
X84249972Y-103724999D01*
X84249986Y-103724998D01*
X84352697Y-103714505D01*
X84519119Y-103659358D01*
X84519124Y-103659356D01*
X84668345Y-103567315D01*
X84792315Y-103443345D01*
X84884356Y-103294124D01*
X84884358Y-103294119D01*
X84939505Y-103127697D01*
X84939506Y-103127690D01*
X84949999Y-103024986D01*
X84950000Y-103024973D01*
X84950000Y-102750000D01*
X84200000Y-102750000D01*
X83700000Y-102750000D01*
X83700000Y-102374000D01*
X83719685Y-102306961D01*
X83772489Y-102261206D01*
X83824000Y-102250000D01*
X84949999Y-102250000D01*
X84949999Y-101975028D01*
X84949998Y-101975013D01*
X84939505Y-101872302D01*
X84884358Y-101705880D01*
X84884356Y-101705875D01*
X84792315Y-101556654D01*
X84668345Y-101432684D01*
X84519124Y-101340643D01*
X84519121Y-101340642D01*
X84390597Y-101298053D01*
X84333153Y-101258280D01*
X84306330Y-101193764D01*
X84318645Y-101124988D01*
X84341915Y-101092673D01*
X92722771Y-92711819D01*
X92784094Y-92678334D01*
X92810452Y-92675500D01*
X96346851Y-92675500D01*
X96413890Y-92695185D01*
X96448423Y-92728374D01*
X96538402Y-92856877D01*
X96693123Y-93011598D01*
X96872361Y-93137102D01*
X97070670Y-93229575D01*
X97282023Y-93286207D01*
X97500000Y-93305277D01*
X97500466Y-93305236D01*
X97500669Y-93305277D01*
X97505414Y-93305277D01*
X97505414Y-93306230D01*
X97568966Y-93318996D01*
X97619153Y-93367607D01*
X97635092Y-93435635D01*
X97611723Y-93501480D01*
X97598964Y-93516444D01*
X91866208Y-99249199D01*
X91853951Y-99259020D01*
X91854134Y-99259241D01*
X91848122Y-99264214D01*
X91802098Y-99313223D01*
X91799391Y-99316016D01*
X91779889Y-99335517D01*
X91779875Y-99335534D01*
X91777407Y-99338715D01*
X91769843Y-99347570D01*
X91739937Y-99379418D01*
X91739936Y-99379420D01*
X91730284Y-99396976D01*
X91719610Y-99413226D01*
X91707329Y-99429061D01*
X91707324Y-99429068D01*
X91689975Y-99469158D01*
X91684838Y-99479644D01*
X91663803Y-99517906D01*
X91658822Y-99537307D01*
X91652521Y-99555710D01*
X91644562Y-99574102D01*
X91644561Y-99574105D01*
X91637728Y-99617243D01*
X91635360Y-99628674D01*
X91624501Y-99670971D01*
X91624500Y-99670982D01*
X91624500Y-99691016D01*
X91622973Y-99710413D01*
X91619840Y-99730196D01*
X91621853Y-99751494D01*
X91623950Y-99773674D01*
X91624500Y-99785343D01*
X91624500Y-102030621D01*
X91604815Y-102097660D01*
X91565599Y-102136158D01*
X91531346Y-102157285D01*
X91407289Y-102281342D01*
X91315187Y-102430663D01*
X91315185Y-102430668D01*
X91295732Y-102489374D01*
X91260001Y-102597203D01*
X91260001Y-102597204D01*
X91260000Y-102597204D01*
X91249500Y-102699983D01*
X91249500Y-103300001D01*
X91249501Y-103300019D01*
X91260000Y-103402796D01*
X91260001Y-103402799D01*
X91315185Y-103569331D01*
X91315187Y-103569336D01*
X91334090Y-103599983D01*
X91407288Y-103718656D01*
X91531344Y-103842712D01*
X91680666Y-103934814D01*
X91847203Y-103989999D01*
X91949991Y-104000500D01*
X92550008Y-104000499D01*
X92550016Y-104000498D01*
X92550019Y-104000498D01*
X92622283Y-103993116D01*
X92652797Y-103989999D01*
X92819334Y-103934814D01*
X92968656Y-103842712D01*
X93092712Y-103718656D01*
X93184814Y-103569334D01*
X93239999Y-103402797D01*
X93250500Y-103300009D01*
X93250499Y-102699992D01*
X93247367Y-102669336D01*
X93239999Y-102597203D01*
X93239998Y-102597200D01*
X93230209Y-102567660D01*
X93184814Y-102430666D01*
X93092712Y-102281344D01*
X92968656Y-102157288D01*
X92968653Y-102157285D01*
X92934401Y-102136158D01*
X92887678Y-102084210D01*
X92875500Y-102030621D01*
X92875500Y-100060451D01*
X92895185Y-99993412D01*
X92911814Y-99972775D01*
X96033557Y-96851031D01*
X96094878Y-96817548D01*
X96164570Y-96822532D01*
X96220503Y-96864404D01*
X96244920Y-96929868D01*
X96244765Y-96949506D01*
X96244723Y-96949986D01*
X96244723Y-96950002D01*
X96248442Y-96992511D01*
X96257519Y-97096268D01*
X96263793Y-97167975D01*
X96263793Y-97167979D01*
X96320422Y-97379322D01*
X96320424Y-97379326D01*
X96320425Y-97379330D01*
X96348802Y-97440185D01*
X96412897Y-97577638D01*
X96423451Y-97592710D01*
X96538402Y-97756877D01*
X96693123Y-97911598D01*
X96821624Y-98001575D01*
X96865248Y-98056151D01*
X96874500Y-98103149D01*
X96874500Y-99417255D01*
X96872775Y-99432872D01*
X96873061Y-99432899D01*
X96872326Y-99440665D01*
X96874439Y-99507872D01*
X96874500Y-99511767D01*
X96874500Y-99539357D01*
X96875003Y-99543335D01*
X96875918Y-99554967D01*
X96877290Y-99598624D01*
X96877291Y-99598627D01*
X96882880Y-99617867D01*
X96886824Y-99636911D01*
X96889336Y-99656792D01*
X96905414Y-99697403D01*
X96909197Y-99708452D01*
X96921268Y-99750000D01*
X96921382Y-99750390D01*
X96925614Y-99757547D01*
X96931580Y-99767634D01*
X96940136Y-99785100D01*
X96943566Y-99793760D01*
X96947514Y-99803732D01*
X96973181Y-99839060D01*
X96979593Y-99848821D01*
X97001828Y-99886417D01*
X97001833Y-99886424D01*
X97015990Y-99900580D01*
X97028628Y-99915376D01*
X97040405Y-99931586D01*
X97040406Y-99931587D01*
X97074057Y-99959425D01*
X97082698Y-99967288D01*
X97911697Y-100796288D01*
X97921522Y-100808551D01*
X97921743Y-100808369D01*
X97926711Y-100814374D01*
X97926713Y-100814376D01*
X97926714Y-100814377D01*
X97967625Y-100852795D01*
X97975722Y-100860399D01*
X97978521Y-100863112D01*
X97998022Y-100882614D01*
X97998026Y-100882617D01*
X97998029Y-100882620D01*
X98001202Y-100885081D01*
X98010074Y-100892659D01*
X98041918Y-100922562D01*
X98059476Y-100932214D01*
X98075733Y-100942893D01*
X98091564Y-100955173D01*
X98121303Y-100968042D01*
X98131652Y-100972521D01*
X98142141Y-100977660D01*
X98165957Y-100990752D01*
X98180408Y-100998697D01*
X98192736Y-101001862D01*
X98199805Y-101003677D01*
X98218219Y-101009981D01*
X98236604Y-101017938D01*
X98279761Y-101024773D01*
X98291156Y-101027132D01*
X98333481Y-101038000D01*
X98353516Y-101038000D01*
X98372913Y-101039526D01*
X98392696Y-101042660D01*
X98436175Y-101038550D01*
X98447844Y-101038000D01*
X98822912Y-101038000D01*
X98889951Y-101057685D01*
X98928449Y-101096901D01*
X98957288Y-101143656D01*
X98957289Y-101143657D01*
X98975951Y-101162319D01*
X99009436Y-101223642D01*
X99004452Y-101293334D01*
X98975951Y-101337681D01*
X98957289Y-101356342D01*
X98865187Y-101505663D01*
X98865185Y-101505668D01*
X98848393Y-101556344D01*
X98810001Y-101672203D01*
X98810001Y-101672204D01*
X98810000Y-101672204D01*
X98799500Y-101774983D01*
X98799500Y-102400001D01*
X98799501Y-102400019D01*
X98810000Y-102502796D01*
X98810001Y-102502799D01*
X98865185Y-102669331D01*
X98865187Y-102669336D01*
X98891432Y-102711886D01*
X98916525Y-102752569D01*
X98957289Y-102818657D01*
X99051304Y-102912672D01*
X99084789Y-102973995D01*
X99079805Y-103043687D01*
X99051305Y-103088034D01*
X98957682Y-103181657D01*
X98865643Y-103330875D01*
X98865641Y-103330880D01*
X98810494Y-103497302D01*
X98810493Y-103497309D01*
X98800000Y-103600013D01*
X98800000Y-103662500D01*
X101199999Y-103662500D01*
X101199999Y-103600028D01*
X101199998Y-103600013D01*
X101189505Y-103497302D01*
X101134358Y-103330880D01*
X101134356Y-103330875D01*
X101042315Y-103181654D01*
X100948695Y-103088034D01*
X100915210Y-103026711D01*
X100920194Y-102957019D01*
X100948691Y-102912676D01*
X101042712Y-102818656D01*
X101134814Y-102669334D01*
X101189999Y-102502797D01*
X101200500Y-102400009D01*
X101200499Y-101774992D01*
X101197748Y-101748066D01*
X101189999Y-101672203D01*
X101189998Y-101672200D01*
X101171016Y-101614916D01*
X101134814Y-101505666D01*
X101042712Y-101356344D01*
X101024049Y-101337681D01*
X100990564Y-101276358D01*
X100995548Y-101206666D01*
X101024049Y-101162319D01*
X101033317Y-101153051D01*
X101042712Y-101143656D01*
X101134814Y-100994334D01*
X101189999Y-100827797D01*
X101200500Y-100725009D01*
X101200500Y-100724998D01*
X101200672Y-100723318D01*
X101227068Y-100658627D01*
X101236340Y-100648248D01*
X102136877Y-99747712D01*
X102198199Y-99714228D01*
X102267891Y-99719212D01*
X102323824Y-99761084D01*
X102348241Y-99826548D01*
X102342263Y-99874398D01*
X102285001Y-100047203D01*
X102285000Y-100047204D01*
X102274500Y-100149983D01*
X102274500Y-100750001D01*
X102274501Y-100750019D01*
X102285000Y-100852796D01*
X102285001Y-100852799D01*
X102340185Y-101019331D01*
X102340187Y-101019336D01*
X102363841Y-101057685D01*
X102432287Y-101168655D01*
X102432289Y-101168657D01*
X102435795Y-101173091D01*
X102461934Y-101237887D01*
X102448892Y-101306529D01*
X102435795Y-101326909D01*
X102432289Y-101331342D01*
X102340187Y-101480663D01*
X102340185Y-101480668D01*
X102315109Y-101556342D01*
X102285001Y-101647203D01*
X102285001Y-101647204D01*
X102285000Y-101647204D01*
X102274500Y-101749983D01*
X102274500Y-102350001D01*
X102274501Y-102350019D01*
X102285000Y-102452796D01*
X102285001Y-102452799D01*
X102340185Y-102619331D01*
X102340187Y-102619336D01*
X102370402Y-102668322D01*
X102432288Y-102768656D01*
X102556344Y-102892712D01*
X102559628Y-102894737D01*
X102559653Y-102894753D01*
X102561445Y-102896746D01*
X102562011Y-102897193D01*
X102561934Y-102897289D01*
X102606379Y-102946699D01*
X102617603Y-103015661D01*
X102589761Y-103079744D01*
X102559665Y-103105826D01*
X102556660Y-103107679D01*
X102556655Y-103107683D01*
X102432684Y-103231654D01*
X102340643Y-103380875D01*
X102340641Y-103380880D01*
X102285494Y-103547302D01*
X102285493Y-103547309D01*
X102275000Y-103650013D01*
X102275000Y-103700000D01*
X104724999Y-103700000D01*
X104724999Y-103650028D01*
X104724998Y-103650013D01*
X104714505Y-103547302D01*
X104659358Y-103380880D01*
X104659356Y-103380875D01*
X104567315Y-103231654D01*
X104443344Y-103107683D01*
X104443341Y-103107681D01*
X104440339Y-103105829D01*
X104438713Y-103104021D01*
X104437677Y-103103202D01*
X104437817Y-103103024D01*
X104393617Y-103053880D01*
X104382397Y-102984917D01*
X104410243Y-102920836D01*
X104440344Y-102894754D01*
X104443656Y-102892712D01*
X104567712Y-102768656D01*
X104567715Y-102768650D01*
X104572193Y-102762989D01*
X104574015Y-102764430D01*
X104617665Y-102725175D01*
X104671248Y-102713000D01*
X105822912Y-102713000D01*
X105889951Y-102732685D01*
X105928449Y-102771901D01*
X105937273Y-102786206D01*
X105957289Y-102818657D01*
X106051304Y-102912672D01*
X106084789Y-102973995D01*
X106079805Y-103043687D01*
X106051305Y-103088034D01*
X105957682Y-103181657D01*
X105865643Y-103330875D01*
X105865641Y-103330880D01*
X105810494Y-103497302D01*
X105810493Y-103497309D01*
X105800000Y-103600013D01*
X105800000Y-103662500D01*
X108199999Y-103662500D01*
X108199999Y-103600028D01*
X108199998Y-103600013D01*
X108189505Y-103497302D01*
X108134358Y-103330880D01*
X108134356Y-103330875D01*
X108042315Y-103181654D01*
X107948695Y-103088034D01*
X107915210Y-103026711D01*
X107920194Y-102957019D01*
X107948691Y-102912676D01*
X108042712Y-102818656D01*
X108071549Y-102771902D01*
X108123497Y-102725179D01*
X108177088Y-102713000D01*
X109425501Y-102713000D01*
X109492540Y-102732685D01*
X109538295Y-102785489D01*
X109549501Y-102837000D01*
X109549501Y-103025018D01*
X109560000Y-103127796D01*
X109560001Y-103127799D01*
X109615185Y-103294331D01*
X109615187Y-103294336D01*
X109637728Y-103330880D01*
X109707288Y-103443656D01*
X109831344Y-103567712D01*
X109980666Y-103659814D01*
X110147203Y-103714999D01*
X110249991Y-103725500D01*
X110850008Y-103725499D01*
X110850016Y-103725498D01*
X110850019Y-103725498D01*
X110916997Y-103718656D01*
X110952797Y-103714999D01*
X111119334Y-103659814D01*
X111268656Y-103567712D01*
X111392712Y-103443656D01*
X111394461Y-103440819D01*
X111396169Y-103439283D01*
X111397193Y-103437989D01*
X111397414Y-103438163D01*
X111446406Y-103394096D01*
X111515368Y-103382872D01*
X111579451Y-103410713D01*
X111605537Y-103440817D01*
X111607288Y-103443656D01*
X111731344Y-103567712D01*
X111880666Y-103659814D01*
X112047203Y-103714999D01*
X112149991Y-103725500D01*
X112700500Y-103725499D01*
X112767539Y-103745183D01*
X112813294Y-103797987D01*
X112824500Y-103849499D01*
X112824500Y-106424955D01*
X112804815Y-106491994D01*
X112752011Y-106537749D01*
X112682853Y-106547693D01*
X112619297Y-106518668D01*
X112591355Y-106483805D01*
X112558108Y-106422146D01*
X112558104Y-106422138D01*
X112357628Y-106135830D01*
X112357624Y-106135826D01*
X112357621Y-106135821D01*
X112125272Y-105874731D01*
X112125268Y-105874727D01*
X111864178Y-105642378D01*
X111864172Y-105642373D01*
X111864170Y-105642372D01*
X111577862Y-105441896D01*
X111557038Y-105430668D01*
X111280098Y-105281344D01*
X111270215Y-105276015D01*
X111270214Y-105276014D01*
X111270213Y-105276014D01*
X111270203Y-105276009D01*
X110945397Y-105146973D01*
X110945386Y-105146969D01*
X110607784Y-105056509D01*
X110492506Y-105039623D01*
X110261954Y-105005852D01*
X110116467Y-104999500D01*
X107979152Y-104999500D01*
X107912113Y-104979815D01*
X107866358Y-104927011D01*
X107856414Y-104857853D01*
X107885439Y-104794297D01*
X107914062Y-104769957D01*
X107918345Y-104767315D01*
X108042315Y-104643345D01*
X108134356Y-104494124D01*
X108134358Y-104494119D01*
X108189505Y-104327697D01*
X108189506Y-104327690D01*
X108199999Y-104224986D01*
X108200000Y-104224973D01*
X108200000Y-104162500D01*
X105800001Y-104162500D01*
X105800001Y-104224986D01*
X105810494Y-104327697D01*
X105865641Y-104494119D01*
X105865643Y-104494124D01*
X105957684Y-104643345D01*
X106081655Y-104767316D01*
X106081657Y-104767317D01*
X106085941Y-104769960D01*
X106132667Y-104821906D01*
X106143891Y-104890869D01*
X106116049Y-104954952D01*
X106057981Y-104993809D01*
X106020847Y-104999500D01*
X104883534Y-104999500D01*
X104744132Y-105005586D01*
X104738046Y-105005852D01*
X104694993Y-105012158D01*
X104491742Y-105041930D01*
X104422558Y-105032169D01*
X104369633Y-104986554D01*
X104349771Y-104919567D01*
X104369279Y-104852475D01*
X104408676Y-104813699D01*
X104443345Y-104792315D01*
X104567315Y-104668345D01*
X104659356Y-104519124D01*
X104659358Y-104519119D01*
X104714505Y-104352697D01*
X104714506Y-104352690D01*
X104724999Y-104249986D01*
X104725000Y-104249973D01*
X104725000Y-104200000D01*
X103750000Y-104200000D01*
X103750000Y-104949999D01*
X103902435Y-104949999D01*
X103969474Y-104969684D01*
X104015229Y-105022488D01*
X104025173Y-105091646D01*
X103996148Y-105155202D01*
X103948216Y-105189238D01*
X103729796Y-105276009D01*
X103729786Y-105276014D01*
X103422146Y-105441891D01*
X103422141Y-105441893D01*
X103422138Y-105441896D01*
X103258246Y-105556655D01*
X103135821Y-105642378D01*
X102874731Y-105874727D01*
X102874727Y-105874731D01*
X102642378Y-106135821D01*
X102642372Y-106135830D01*
X102441896Y-106422138D01*
X102441893Y-106422141D01*
X102441891Y-106422146D01*
X102276014Y-106729786D01*
X102276009Y-106729796D01*
X102146973Y-107054602D01*
X102146969Y-107054613D01*
X102056509Y-107392215D01*
X102036229Y-107530666D01*
X102005852Y-107738046D01*
X102003147Y-107800013D01*
X101999500Y-107883533D01*
X101999500Y-109750500D01*
X101979815Y-109817539D01*
X101927011Y-109863294D01*
X101875500Y-109874500D01*
X96310452Y-109874500D01*
X96243413Y-109854815D01*
X96222771Y-109838181D01*
X95411819Y-109027228D01*
X95378334Y-108965905D01*
X95375500Y-108939547D01*
X95375500Y-104162500D01*
X98800001Y-104162500D01*
X98800001Y-104224986D01*
X98810494Y-104327697D01*
X98865641Y-104494119D01*
X98865643Y-104494124D01*
X98957684Y-104643345D01*
X99081654Y-104767315D01*
X99230875Y-104859356D01*
X99230880Y-104859358D01*
X99397302Y-104914505D01*
X99397309Y-104914506D01*
X99500019Y-104924999D01*
X99749999Y-104924999D01*
X99750000Y-104924998D01*
X99750000Y-104162500D01*
X100250000Y-104162500D01*
X100250000Y-104924999D01*
X100499972Y-104924999D01*
X100499986Y-104924998D01*
X100602697Y-104914505D01*
X100769119Y-104859358D01*
X100769124Y-104859356D01*
X100918345Y-104767315D01*
X101042315Y-104643345D01*
X101134356Y-104494124D01*
X101134358Y-104494119D01*
X101189505Y-104327697D01*
X101189506Y-104327690D01*
X101199999Y-104224986D01*
X101200000Y-104224973D01*
X101200000Y-104200000D01*
X102275001Y-104200000D01*
X102275001Y-104249986D01*
X102285494Y-104352697D01*
X102340641Y-104519119D01*
X102340643Y-104519124D01*
X102432684Y-104668345D01*
X102556654Y-104792315D01*
X102705875Y-104884356D01*
X102705880Y-104884358D01*
X102872302Y-104939505D01*
X102872309Y-104939506D01*
X102975019Y-104949999D01*
X103249999Y-104949999D01*
X103250000Y-104949998D01*
X103250000Y-104200000D01*
X102275001Y-104200000D01*
X101200000Y-104200000D01*
X101200000Y-104162500D01*
X100250000Y-104162500D01*
X99750000Y-104162500D01*
X98800001Y-104162500D01*
X95375500Y-104162500D01*
X95375500Y-103969377D01*
X95395185Y-103902338D01*
X95434406Y-103863837D01*
X95440306Y-103860198D01*
X95468656Y-103842712D01*
X95592712Y-103718656D01*
X95684814Y-103569334D01*
X95739999Y-103402797D01*
X95750500Y-103300009D01*
X95750499Y-102699992D01*
X95747367Y-102669336D01*
X95739999Y-102597203D01*
X95739998Y-102597200D01*
X95730209Y-102567660D01*
X95684814Y-102430666D01*
X95592712Y-102281344D01*
X95468656Y-102157288D01*
X95319334Y-102065186D01*
X95152797Y-102010001D01*
X95152795Y-102010000D01*
X95050010Y-101999500D01*
X94449998Y-101999500D01*
X94449980Y-101999501D01*
X94347203Y-102010000D01*
X94347200Y-102010001D01*
X94180668Y-102065185D01*
X94180663Y-102065187D01*
X94031342Y-102157289D01*
X93907289Y-102281342D01*
X93815187Y-102430663D01*
X93815185Y-102430668D01*
X93795732Y-102489374D01*
X93760001Y-102597203D01*
X93760001Y-102597204D01*
X93760000Y-102597204D01*
X93749500Y-102699983D01*
X93749500Y-103300001D01*
X93749501Y-103300019D01*
X93760000Y-103402796D01*
X93760001Y-103402799D01*
X93815185Y-103569331D01*
X93815187Y-103569336D01*
X93834090Y-103599983D01*
X93905032Y-103714999D01*
X93907289Y-103718657D01*
X94031345Y-103842713D01*
X94065594Y-103863837D01*
X94112320Y-103915784D01*
X94124500Y-103969377D01*
X94124500Y-109167255D01*
X94122775Y-109182872D01*
X94123061Y-109182899D01*
X94122326Y-109190665D01*
X94124439Y-109257872D01*
X94124500Y-109261767D01*
X94124500Y-109289357D01*
X94125003Y-109293335D01*
X94125918Y-109304967D01*
X94127290Y-109348624D01*
X94127291Y-109348627D01*
X94132880Y-109367867D01*
X94136824Y-109386911D01*
X94139162Y-109405413D01*
X94139336Y-109406792D01*
X94155414Y-109447403D01*
X94159197Y-109458452D01*
X94168528Y-109490569D01*
X94171382Y-109500390D01*
X94180610Y-109515995D01*
X94181580Y-109517634D01*
X94190136Y-109535100D01*
X94194929Y-109547203D01*
X94197514Y-109553732D01*
X94223181Y-109589060D01*
X94229593Y-109598821D01*
X94251828Y-109636417D01*
X94251833Y-109636424D01*
X94265990Y-109650580D01*
X94278628Y-109665376D01*
X94290405Y-109681586D01*
X94290406Y-109681587D01*
X94324057Y-109709425D01*
X94332698Y-109717288D01*
X95499197Y-110883788D01*
X95509022Y-110896051D01*
X95509243Y-110895869D01*
X95514211Y-110901874D01*
X95514213Y-110901876D01*
X95514214Y-110901877D01*
X95558704Y-110943656D01*
X95563222Y-110947899D01*
X95566021Y-110950612D01*
X95585522Y-110970114D01*
X95585526Y-110970117D01*
X95585529Y-110970120D01*
X95588702Y-110972581D01*
X95597574Y-110980159D01*
X95629418Y-111010062D01*
X95646976Y-111019714D01*
X95663233Y-111030393D01*
X95679064Y-111042673D01*
X95708803Y-111055542D01*
X95719152Y-111060021D01*
X95729641Y-111065160D01*
X95749118Y-111075867D01*
X95767908Y-111086197D01*
X95778191Y-111088837D01*
X95787305Y-111091177D01*
X95805719Y-111097481D01*
X95824104Y-111105438D01*
X95867261Y-111112273D01*
X95878656Y-111114632D01*
X95920981Y-111125500D01*
X95941016Y-111125500D01*
X95960413Y-111127026D01*
X95980196Y-111130160D01*
X96023675Y-111126050D01*
X96035344Y-111125500D01*
X101875501Y-111125500D01*
X101942540Y-111145185D01*
X101988295Y-111197989D01*
X101999501Y-111249500D01*
X101999501Y-113116466D01*
X102005852Y-113261954D01*
X102022265Y-113374000D01*
X102056509Y-113607784D01*
X102146969Y-113945386D01*
X102146973Y-113945397D01*
X102276009Y-114270203D01*
X102276014Y-114270213D01*
X102410914Y-114520403D01*
X102441896Y-114577862D01*
X102642158Y-114863864D01*
X102642378Y-114864178D01*
X102874727Y-115125268D01*
X102874731Y-115125272D01*
X103135821Y-115357621D01*
X103135826Y-115357624D01*
X103135830Y-115357628D01*
X103422138Y-115558104D01*
X103729785Y-115723985D01*
X103729789Y-115723986D01*
X103729796Y-115723990D01*
X103970793Y-115819731D01*
X104054609Y-115853029D01*
X104392218Y-115943491D01*
X104738046Y-115994148D01*
X104883533Y-116000500D01*
X110116466Y-116000499D01*
X110261954Y-115994148D01*
X110607782Y-115943491D01*
X110945391Y-115853029D01*
X111181179Y-115759356D01*
X111270203Y-115723990D01*
X111270205Y-115723988D01*
X111270215Y-115723985D01*
X111577862Y-115558104D01*
X111864170Y-115357628D01*
X111976324Y-115257820D01*
X112125268Y-115125272D01*
X112125272Y-115125268D01*
X112236750Y-115000000D01*
X136351920Y-115000000D01*
X136372211Y-115257820D01*
X136432582Y-115509285D01*
X136531549Y-115748213D01*
X136666673Y-115968714D01*
X136666676Y-115968719D01*
X136671767Y-115974679D01*
X137516923Y-115129523D01*
X137540507Y-115209844D01*
X137618239Y-115330798D01*
X137726900Y-115424952D01*
X137857685Y-115484680D01*
X137867466Y-115486086D01*
X137025319Y-116328232D01*
X137031283Y-116333325D01*
X137251786Y-116468450D01*
X137490714Y-116567417D01*
X137742179Y-116627788D01*
X138000000Y-116648079D01*
X138257820Y-116627788D01*
X138509285Y-116567417D01*
X138748213Y-116468450D01*
X138968713Y-116333326D01*
X138968723Y-116333319D01*
X138974678Y-116328232D01*
X138974678Y-116328231D01*
X138132533Y-115486086D01*
X138142315Y-115484680D01*
X138273100Y-115424952D01*
X138381761Y-115330798D01*
X138459493Y-115209844D01*
X138483076Y-115129523D01*
X139328231Y-115974678D01*
X139328232Y-115974678D01*
X139333319Y-115968723D01*
X139333326Y-115968713D01*
X139468450Y-115748213D01*
X139567417Y-115509285D01*
X139627788Y-115257820D01*
X139648079Y-115000000D01*
X139627788Y-114742179D01*
X139567417Y-114490714D01*
X139468450Y-114251786D01*
X139333325Y-114031283D01*
X139328232Y-114025319D01*
X138483076Y-114870475D01*
X138459493Y-114790156D01*
X138381761Y-114669202D01*
X138273100Y-114575048D01*
X138142315Y-114515320D01*
X138132532Y-114513913D01*
X138974679Y-113671767D01*
X138974679Y-113671766D01*
X138968719Y-113666676D01*
X138968714Y-113666673D01*
X138748213Y-113531549D01*
X138509285Y-113432582D01*
X138257820Y-113372211D01*
X138000000Y-113351920D01*
X137742179Y-113372211D01*
X137490714Y-113432582D01*
X137251786Y-113531549D01*
X137031289Y-113666670D01*
X137031273Y-113666682D01*
X137025320Y-113671766D01*
X137867467Y-114513913D01*
X137857685Y-114515320D01*
X137726900Y-114575048D01*
X137618239Y-114669202D01*
X137540507Y-114790156D01*
X137516923Y-114870476D01*
X136671766Y-114025320D01*
X136666682Y-114031273D01*
X136666670Y-114031289D01*
X136531549Y-114251786D01*
X136432582Y-114490714D01*
X136372211Y-114742179D01*
X136351920Y-115000000D01*
X112236750Y-115000000D01*
X112357621Y-114864178D01*
X112357621Y-114864177D01*
X112357628Y-114864170D01*
X112558104Y-114577862D01*
X112723985Y-114270215D01*
X112724419Y-114269124D01*
X112780564Y-114127796D01*
X112853029Y-113945391D01*
X112943491Y-113607782D01*
X112994148Y-113261954D01*
X113000500Y-113116467D01*
X113000500Y-112655001D01*
X115552704Y-112655001D01*
X115552899Y-112657486D01*
X115598718Y-112815198D01*
X115682314Y-112956552D01*
X115682321Y-112956561D01*
X115798438Y-113072678D01*
X115798447Y-113072685D01*
X115939803Y-113156282D01*
X115939806Y-113156283D01*
X116097504Y-113202099D01*
X116097510Y-113202100D01*
X116134350Y-113204999D01*
X116134366Y-113205000D01*
X116775000Y-113205000D01*
X116775000Y-112655000D01*
X117275000Y-112655000D01*
X117275000Y-113205000D01*
X117915634Y-113205000D01*
X117915649Y-113204999D01*
X117952489Y-113202100D01*
X117952495Y-113202099D01*
X118110193Y-113156283D01*
X118110196Y-113156282D01*
X118251552Y-113072685D01*
X118251561Y-113072678D01*
X118367678Y-112956561D01*
X118367685Y-112956552D01*
X118451281Y-112815198D01*
X118497100Y-112657486D01*
X118497295Y-112655001D01*
X118497295Y-112655000D01*
X117275000Y-112655000D01*
X116775000Y-112655000D01*
X115552705Y-112655000D01*
X115552704Y-112655001D01*
X113000500Y-112655001D01*
X113000500Y-112154998D01*
X115552704Y-112154998D01*
X115552705Y-112155000D01*
X116775000Y-112155000D01*
X116775000Y-111385000D01*
X117275000Y-111385000D01*
X117275000Y-112155000D01*
X118497295Y-112155000D01*
X118497295Y-112154998D01*
X118497100Y-112152513D01*
X118451281Y-111994801D01*
X118367685Y-111853447D01*
X118362900Y-111847278D01*
X118365252Y-111845453D01*
X118338445Y-111796405D01*
X118343402Y-111726712D01*
X118364465Y-111693936D01*
X118362900Y-111692722D01*
X118367685Y-111686552D01*
X118451281Y-111545198D01*
X118497100Y-111387486D01*
X118497295Y-111385001D01*
X118497295Y-111385000D01*
X117275000Y-111385000D01*
X116775000Y-111385000D01*
X115552705Y-111385000D01*
X115552704Y-111385001D01*
X115552899Y-111387486D01*
X115598718Y-111545198D01*
X115682314Y-111686552D01*
X115687100Y-111692722D01*
X115684753Y-111694542D01*
X115711564Y-111743642D01*
X115706580Y-111813334D01*
X115685541Y-111846069D01*
X115687100Y-111847278D01*
X115682314Y-111853447D01*
X115598718Y-111994801D01*
X115552899Y-112152513D01*
X115552704Y-112154998D01*
X113000500Y-112154998D01*
X113000499Y-108799499D01*
X113020184Y-108732461D01*
X113072988Y-108686706D01*
X113124499Y-108675500D01*
X113305622Y-108675500D01*
X113372661Y-108695185D01*
X113411161Y-108734403D01*
X113432289Y-108768657D01*
X113556346Y-108892714D01*
X113559182Y-108894463D01*
X113560717Y-108896170D01*
X113562011Y-108897193D01*
X113561836Y-108897414D01*
X113605905Y-108946411D01*
X113617126Y-109015374D01*
X113589282Y-109079456D01*
X113559182Y-109105537D01*
X113556346Y-109107285D01*
X113432289Y-109231342D01*
X113340187Y-109380663D01*
X113340185Y-109380668D01*
X113318036Y-109447510D01*
X113285001Y-109547203D01*
X113285001Y-109547204D01*
X113285000Y-109547204D01*
X113274500Y-109649983D01*
X113274500Y-109649996D01*
X113274501Y-110250000D01*
X113274501Y-110250019D01*
X113285000Y-110352796D01*
X113285001Y-110352799D01*
X113340185Y-110519331D01*
X113340187Y-110519336D01*
X113344776Y-110526776D01*
X113432288Y-110668656D01*
X113556344Y-110792712D01*
X113705666Y-110884814D01*
X113872203Y-110939999D01*
X113974991Y-110950500D01*
X115025008Y-110950499D01*
X115025016Y-110950498D01*
X115025019Y-110950498D01*
X115081302Y-110944748D01*
X115127797Y-110939999D01*
X115294334Y-110884814D01*
X115371903Y-110836968D01*
X115439295Y-110818528D01*
X115505959Y-110839450D01*
X115528056Y-110858335D01*
X115552705Y-110885000D01*
X118497295Y-110885000D01*
X118497295Y-110884998D01*
X118497100Y-110882513D01*
X118451281Y-110724801D01*
X118367685Y-110583447D01*
X118362900Y-110577278D01*
X118365366Y-110575364D01*
X118338802Y-110526776D01*
X118343749Y-110457082D01*
X118364856Y-110424232D01*
X118363301Y-110423026D01*
X118368077Y-110416868D01*
X118368081Y-110416865D01*
X118451744Y-110275398D01*
X118497598Y-110117569D01*
X118500500Y-110080694D01*
X118500500Y-109649306D01*
X118497598Y-109612431D01*
X118494326Y-109601170D01*
X118455962Y-109469119D01*
X118451744Y-109454602D01*
X118368081Y-109313135D01*
X118368078Y-109313132D01*
X118363298Y-109306969D01*
X118365750Y-109305066D01*
X118339155Y-109256421D01*
X118344104Y-109186726D01*
X118364940Y-109154304D01*
X118363298Y-109153031D01*
X118368075Y-109146870D01*
X118368081Y-109146865D01*
X118451744Y-109005398D01*
X118497598Y-108847569D01*
X118500500Y-108810694D01*
X118500500Y-108379306D01*
X118497598Y-108342431D01*
X118451744Y-108184602D01*
X118368081Y-108043135D01*
X118368079Y-108043133D01*
X118368076Y-108043129D01*
X118251870Y-107926923D01*
X118251862Y-107926917D01*
X118128964Y-107854236D01*
X118110398Y-107843256D01*
X118110397Y-107843255D01*
X118110396Y-107843255D01*
X118110393Y-107843254D01*
X117952573Y-107797402D01*
X117952567Y-107797401D01*
X117915701Y-107794500D01*
X117915694Y-107794500D01*
X117774500Y-107794500D01*
X117707461Y-107774815D01*
X117661706Y-107722011D01*
X117650500Y-107670500D01*
X117650500Y-107415638D01*
X117670185Y-107348599D01*
X117709401Y-107310100D01*
X117818656Y-107242712D01*
X117942712Y-107118656D01*
X118034814Y-106969334D01*
X118089999Y-106802797D01*
X118100500Y-106700009D01*
X118100499Y-105299992D01*
X118089999Y-105197203D01*
X118053812Y-105088000D01*
X118051411Y-105018175D01*
X118087142Y-104958133D01*
X118149662Y-104926940D01*
X118171519Y-104924999D01*
X118499972Y-104924999D01*
X118499986Y-104924998D01*
X118602697Y-104914505D01*
X118769119Y-104859358D01*
X118769128Y-104859354D01*
X118810832Y-104833630D01*
X118878224Y-104815188D01*
X118944888Y-104836109D01*
X118989659Y-104889750D01*
X118998322Y-104959081D01*
X118981472Y-105004261D01*
X118965188Y-105030663D01*
X118965185Y-105030668D01*
X118949296Y-105078618D01*
X118910001Y-105197203D01*
X118910001Y-105197204D01*
X118910000Y-105197204D01*
X118899500Y-105299983D01*
X118899500Y-106700001D01*
X118899501Y-106700018D01*
X118910000Y-106802796D01*
X118910001Y-106802799D01*
X118965185Y-106969331D01*
X118965187Y-106969336D01*
X118977932Y-106989999D01*
X119057288Y-107118656D01*
X119181344Y-107242712D01*
X119330666Y-107334814D01*
X119497203Y-107389999D01*
X119599991Y-107400500D01*
X119939547Y-107400499D01*
X120006586Y-107420183D01*
X120027228Y-107436818D01*
X120564510Y-107974101D01*
X120597995Y-108035424D01*
X120593011Y-108105116D01*
X120583562Y-108124902D01*
X120548254Y-108184605D01*
X120548254Y-108184606D01*
X120502402Y-108342426D01*
X120502401Y-108342432D01*
X120499500Y-108379298D01*
X120499500Y-108810701D01*
X120502401Y-108847567D01*
X120502402Y-108847573D01*
X120548254Y-109005393D01*
X120548255Y-109005396D01*
X120631917Y-109146862D01*
X120636702Y-109153031D01*
X120634256Y-109154927D01*
X120660857Y-109203642D01*
X120655873Y-109273334D01*
X120635069Y-109305703D01*
X120636702Y-109306969D01*
X120631917Y-109313137D01*
X120548255Y-109454603D01*
X120548254Y-109454606D01*
X120502402Y-109612426D01*
X120502401Y-109612432D01*
X120499500Y-109649298D01*
X120499500Y-110080701D01*
X120502401Y-110117567D01*
X120502402Y-110117573D01*
X120548254Y-110275393D01*
X120548255Y-110275396D01*
X120548256Y-110275398D01*
X120562800Y-110299991D01*
X120631917Y-110416862D01*
X120636702Y-110423031D01*
X120634256Y-110424927D01*
X120660857Y-110473642D01*
X120655873Y-110543334D01*
X120635069Y-110575703D01*
X120636702Y-110576969D01*
X120631917Y-110583137D01*
X120548255Y-110724603D01*
X120548254Y-110724606D01*
X120502402Y-110882426D01*
X120502401Y-110882432D01*
X120499500Y-110919298D01*
X120499500Y-111350701D01*
X120502401Y-111387567D01*
X120502402Y-111387573D01*
X120548254Y-111545393D01*
X120548255Y-111545396D01*
X120548256Y-111545398D01*
X120561561Y-111567895D01*
X120631917Y-111686862D01*
X120636702Y-111693031D01*
X120634256Y-111694927D01*
X120660857Y-111743642D01*
X120655873Y-111813334D01*
X120635069Y-111845703D01*
X120636702Y-111846969D01*
X120631917Y-111853137D01*
X120548255Y-111994603D01*
X120548254Y-111994606D01*
X120502402Y-112152426D01*
X120502401Y-112152432D01*
X120499500Y-112189298D01*
X120499500Y-112620701D01*
X120502401Y-112657567D01*
X120502402Y-112657573D01*
X120548254Y-112815393D01*
X120548255Y-112815396D01*
X120631917Y-112956862D01*
X120631923Y-112956870D01*
X120748129Y-113073076D01*
X120748133Y-113073079D01*
X120748135Y-113073081D01*
X120889602Y-113156744D01*
X120889609Y-113156746D01*
X121047426Y-113202597D01*
X121047429Y-113202597D01*
X121047431Y-113202598D01*
X121084306Y-113205500D01*
X121084314Y-113205500D01*
X122865686Y-113205500D01*
X122865694Y-113205500D01*
X122902569Y-113202598D01*
X122902571Y-113202597D01*
X122902573Y-113202597D01*
X123060392Y-113156746D01*
X123060392Y-113156745D01*
X123060398Y-113156744D01*
X123142093Y-113108429D01*
X123209812Y-113091248D01*
X123276075Y-113113407D01*
X123292891Y-113127482D01*
X123513181Y-113347771D01*
X123546666Y-113409094D01*
X123549500Y-113435452D01*
X123549500Y-114025001D01*
X123549501Y-114025019D01*
X123560000Y-114127796D01*
X123560001Y-114127799D01*
X123607125Y-114270008D01*
X123615186Y-114294334D01*
X123707288Y-114443656D01*
X123831344Y-114567712D01*
X123980666Y-114659814D01*
X124147203Y-114714999D01*
X124249991Y-114725500D01*
X124850008Y-114725499D01*
X124850016Y-114725498D01*
X124850019Y-114725498D01*
X124906302Y-114719748D01*
X124952797Y-114714999D01*
X125119334Y-114659814D01*
X125268656Y-114567712D01*
X125392712Y-114443656D01*
X125394461Y-114440819D01*
X125396169Y-114439283D01*
X125397193Y-114437989D01*
X125397414Y-114438163D01*
X125446406Y-114394096D01*
X125515368Y-114382872D01*
X125579451Y-114410713D01*
X125605537Y-114440817D01*
X125607288Y-114443656D01*
X125731344Y-114567712D01*
X125880666Y-114659814D01*
X126047203Y-114714999D01*
X126149991Y-114725500D01*
X126750008Y-114725499D01*
X126750016Y-114725498D01*
X126750019Y-114725498D01*
X126806302Y-114719748D01*
X126852797Y-114714999D01*
X127019334Y-114659814D01*
X127168656Y-114567712D01*
X127187462Y-114548905D01*
X127248782Y-114515420D01*
X127318474Y-114520403D01*
X127352052Y-114539319D01*
X127356337Y-114542707D01*
X127356342Y-114542710D01*
X127356344Y-114542712D01*
X127505666Y-114634814D01*
X127672203Y-114689999D01*
X127774991Y-114700500D01*
X128400008Y-114700499D01*
X128400016Y-114700498D01*
X128400019Y-114700498D01*
X128459939Y-114694377D01*
X128502797Y-114689999D01*
X128669334Y-114634814D01*
X128818656Y-114542712D01*
X128912675Y-114448692D01*
X128973994Y-114415210D01*
X129043686Y-114420194D01*
X129088034Y-114448695D01*
X129181654Y-114542315D01*
X129330875Y-114634356D01*
X129330880Y-114634358D01*
X129497302Y-114689505D01*
X129497309Y-114689506D01*
X129600019Y-114699999D01*
X129662499Y-114699998D01*
X129662500Y-114699998D01*
X129662500Y-113750000D01*
X130162500Y-113750000D01*
X130162500Y-114699999D01*
X130224972Y-114699999D01*
X130224986Y-114699998D01*
X130327697Y-114689505D01*
X130494119Y-114634358D01*
X130494124Y-114634356D01*
X130643345Y-114542315D01*
X130767315Y-114418345D01*
X130859356Y-114269124D01*
X130859358Y-114269119D01*
X130914505Y-114102697D01*
X130914506Y-114102690D01*
X130924999Y-113999986D01*
X130925000Y-113999973D01*
X130925000Y-113750000D01*
X130162500Y-113750000D01*
X129662500Y-113750000D01*
X129662500Y-113374000D01*
X129682185Y-113306961D01*
X129734989Y-113261206D01*
X129786500Y-113250000D01*
X130924999Y-113250000D01*
X130924999Y-113000028D01*
X130924998Y-113000013D01*
X130914505Y-112897302D01*
X130859358Y-112730880D01*
X130859356Y-112730875D01*
X130770943Y-112587536D01*
X130752503Y-112520144D01*
X130773425Y-112453480D01*
X130827067Y-112408710D01*
X130863877Y-112399082D01*
X130952797Y-112389999D01*
X131119334Y-112334814D01*
X131268656Y-112242712D01*
X131392712Y-112118656D01*
X131484814Y-111969334D01*
X131539999Y-111802797D01*
X131550500Y-111700009D01*
X131550499Y-111169578D01*
X131570183Y-111102541D01*
X131622987Y-111056786D01*
X131692146Y-111046842D01*
X131755702Y-111075867D01*
X131768788Y-111089047D01*
X131834276Y-111165724D01*
X131932366Y-111249500D01*
X132030985Y-111333729D01*
X132030990Y-111333732D01*
X132251558Y-111468897D01*
X132336057Y-111503897D01*
X132490560Y-111567895D01*
X132742105Y-111628285D01*
X133000000Y-111648582D01*
X133257895Y-111628285D01*
X133509440Y-111567895D01*
X133748441Y-111468897D01*
X133969012Y-111333731D01*
X134165724Y-111165724D01*
X134165725Y-111165722D01*
X134169428Y-111162560D01*
X134170993Y-111164392D01*
X134223642Y-111135644D01*
X134293334Y-111140628D01*
X134329469Y-111163851D01*
X134330572Y-111162560D01*
X134334274Y-111165722D01*
X134334276Y-111165724D01*
X134425153Y-111243340D01*
X134530985Y-111333729D01*
X134530990Y-111333732D01*
X134751558Y-111468897D01*
X134836057Y-111503897D01*
X134990560Y-111567895D01*
X135242105Y-111628285D01*
X135500000Y-111648582D01*
X135757895Y-111628285D01*
X136009440Y-111567895D01*
X136248441Y-111468897D01*
X136469012Y-111333731D01*
X136665724Y-111165724D01*
X136833731Y-110969012D01*
X136968897Y-110748441D01*
X136978771Y-110724603D01*
X136988114Y-110702048D01*
X137031954Y-110647644D01*
X137098248Y-110625579D01*
X137102675Y-110625500D01*
X138897325Y-110625500D01*
X138964364Y-110645185D01*
X139010119Y-110697989D01*
X139011886Y-110702048D01*
X139031101Y-110748438D01*
X139031102Y-110748440D01*
X139166267Y-110969009D01*
X139166270Y-110969014D01*
X139218695Y-111030395D01*
X139334276Y-111165724D01*
X139432366Y-111249500D01*
X139530985Y-111333729D01*
X139530990Y-111333732D01*
X139751558Y-111468897D01*
X139836057Y-111503897D01*
X139990560Y-111567895D01*
X140242105Y-111628285D01*
X140500000Y-111648582D01*
X140757895Y-111628285D01*
X141009440Y-111567895D01*
X141248441Y-111468897D01*
X141469012Y-111333731D01*
X141665724Y-111165724D01*
X141665725Y-111165722D01*
X141669428Y-111162560D01*
X141670993Y-111164392D01*
X141723642Y-111135644D01*
X141793334Y-111140628D01*
X141829469Y-111163851D01*
X141830572Y-111162560D01*
X141834274Y-111165722D01*
X141834276Y-111165724D01*
X141925153Y-111243340D01*
X142030985Y-111333729D01*
X142030990Y-111333732D01*
X142251558Y-111468897D01*
X142336057Y-111503897D01*
X142490560Y-111567895D01*
X142742105Y-111628285D01*
X143000000Y-111648582D01*
X143257895Y-111628285D01*
X143509440Y-111567895D01*
X143748441Y-111468897D01*
X143969012Y-111333731D01*
X144165724Y-111165724D01*
X144333731Y-110969012D01*
X144468897Y-110748441D01*
X144567895Y-110509440D01*
X144628285Y-110257895D01*
X144648582Y-110000000D01*
X144628285Y-109742105D01*
X144567895Y-109490560D01*
X144491324Y-109305703D01*
X144468897Y-109251558D01*
X144349269Y-109056344D01*
X144333731Y-109030988D01*
X144333730Y-109030987D01*
X144333729Y-109030985D01*
X144249772Y-108932684D01*
X144165724Y-108834276D01*
X144044001Y-108730315D01*
X143969014Y-108666270D01*
X143969009Y-108666267D01*
X143748441Y-108531102D01*
X143509442Y-108432106D01*
X143509444Y-108432106D01*
X143509440Y-108432105D01*
X143509436Y-108432104D01*
X143509430Y-108432102D01*
X143257898Y-108371715D01*
X143000000Y-108351418D01*
X142742101Y-108371715D01*
X142490569Y-108432102D01*
X142490557Y-108432106D01*
X142251558Y-108531102D01*
X142030990Y-108666267D01*
X142030985Y-108666270D01*
X141903678Y-108775001D01*
X141834276Y-108834276D01*
X141834274Y-108834277D01*
X141830572Y-108837440D01*
X141829006Y-108835607D01*
X141776358Y-108864356D01*
X141706666Y-108859372D01*
X141670530Y-108836148D01*
X141669428Y-108837440D01*
X141665725Y-108834277D01*
X141665724Y-108834276D01*
X141548787Y-108734403D01*
X141469014Y-108666270D01*
X141469009Y-108666267D01*
X141248441Y-108531102D01*
X141009442Y-108432106D01*
X141009444Y-108432106D01*
X141009440Y-108432105D01*
X141009436Y-108432104D01*
X141009430Y-108432102D01*
X140757898Y-108371715D01*
X140500000Y-108351418D01*
X140242101Y-108371715D01*
X139990569Y-108432102D01*
X139990557Y-108432106D01*
X139751558Y-108531102D01*
X139530990Y-108666267D01*
X139530985Y-108666270D01*
X139334276Y-108834276D01*
X139166270Y-109030985D01*
X139166267Y-109030990D01*
X139031102Y-109251559D01*
X139031101Y-109251561D01*
X139011886Y-109297952D01*
X138968046Y-109352356D01*
X138901752Y-109374421D01*
X138897325Y-109374500D01*
X137102675Y-109374500D01*
X137035636Y-109354815D01*
X136989881Y-109302011D01*
X136988114Y-109297952D01*
X136968898Y-109251561D01*
X136968897Y-109251559D01*
X136879415Y-109105537D01*
X136833731Y-109030988D01*
X136833730Y-109030987D01*
X136833729Y-109030985D01*
X136749772Y-108932684D01*
X136665724Y-108834276D01*
X136544001Y-108730315D01*
X136469014Y-108666270D01*
X136469009Y-108666267D01*
X136248441Y-108531102D01*
X136009442Y-108432106D01*
X136009444Y-108432106D01*
X136009440Y-108432105D01*
X136009436Y-108432104D01*
X136009430Y-108432102D01*
X135757898Y-108371715D01*
X135500000Y-108351418D01*
X135242101Y-108371715D01*
X134990569Y-108432102D01*
X134990557Y-108432106D01*
X134751558Y-108531102D01*
X134530990Y-108666267D01*
X134530985Y-108666270D01*
X134403678Y-108775001D01*
X134334276Y-108834276D01*
X134334274Y-108834277D01*
X134330572Y-108837440D01*
X134329006Y-108835607D01*
X134276358Y-108864356D01*
X134206666Y-108859372D01*
X134170530Y-108836148D01*
X134169428Y-108837440D01*
X134165725Y-108834277D01*
X134165724Y-108834276D01*
X134048787Y-108734403D01*
X133969014Y-108666270D01*
X133969009Y-108666267D01*
X133748441Y-108531102D01*
X133509442Y-108432106D01*
X133509444Y-108432106D01*
X133509440Y-108432105D01*
X133509436Y-108432104D01*
X133509430Y-108432102D01*
X133257898Y-108371715D01*
X133000000Y-108351418D01*
X132742101Y-108371715D01*
X132490569Y-108432102D01*
X132490557Y-108432106D01*
X132251558Y-108531102D01*
X132030990Y-108666267D01*
X132030985Y-108666270D01*
X131834276Y-108834276D01*
X131666270Y-109030985D01*
X131666267Y-109030990D01*
X131531106Y-109251552D01*
X131531103Y-109251558D01*
X131511015Y-109300053D01*
X131467172Y-109354455D01*
X131400878Y-109376518D01*
X131400352Y-109376536D01*
X131376374Y-109377289D01*
X131376368Y-109377290D01*
X131357126Y-109382880D01*
X131338087Y-109386823D01*
X131318217Y-109389334D01*
X131318203Y-109389337D01*
X131277598Y-109405413D01*
X131266554Y-109409194D01*
X131224614Y-109421379D01*
X131224610Y-109421381D01*
X131207366Y-109431579D01*
X131189905Y-109440133D01*
X131171274Y-109447510D01*
X131171262Y-109447517D01*
X131135933Y-109473185D01*
X131126173Y-109479596D01*
X131088580Y-109501829D01*
X131074414Y-109515995D01*
X131059624Y-109528627D01*
X131043414Y-109540404D01*
X131043407Y-109540411D01*
X131025495Y-109562063D01*
X130967595Y-109601170D01*
X130917352Y-109606379D01*
X130850012Y-109599500D01*
X130099998Y-109599500D01*
X130099980Y-109599501D01*
X129997203Y-109610000D01*
X129997200Y-109610001D01*
X129830668Y-109665185D01*
X129830663Y-109665187D01*
X129681342Y-109757289D01*
X129557289Y-109881342D01*
X129465187Y-110030663D01*
X129465185Y-110030668D01*
X129438523Y-110111130D01*
X129410001Y-110197203D01*
X129410001Y-110197204D01*
X129410000Y-110197204D01*
X129399500Y-110299983D01*
X129399500Y-111700001D01*
X129399501Y-111700018D01*
X129410000Y-111802796D01*
X129410001Y-111802799D01*
X129465185Y-111969331D01*
X129465187Y-111969336D01*
X129561080Y-112124803D01*
X129559205Y-112125959D01*
X129581329Y-112180788D01*
X129568293Y-112249431D01*
X129520216Y-112300129D01*
X129496928Y-112310618D01*
X129330878Y-112365642D01*
X129330875Y-112365643D01*
X129181657Y-112457682D01*
X129088034Y-112551305D01*
X129026710Y-112584789D01*
X128957019Y-112579805D01*
X128912672Y-112551304D01*
X128818657Y-112457289D01*
X128818656Y-112457288D01*
X128684968Y-112374829D01*
X128669336Y-112365187D01*
X128669335Y-112365186D01*
X128669334Y-112365186D01*
X128503401Y-112310201D01*
X128445957Y-112270428D01*
X128419134Y-112205912D01*
X128431449Y-112137136D01*
X128439182Y-112124965D01*
X128438920Y-112124803D01*
X128442710Y-112118657D01*
X128442712Y-112118656D01*
X128534814Y-111969334D01*
X128589999Y-111802797D01*
X128600500Y-111700009D01*
X128600499Y-110299992D01*
X128597986Y-110275396D01*
X128589999Y-110197203D01*
X128589998Y-110197200D01*
X128551394Y-110080701D01*
X128534814Y-110030666D01*
X128442712Y-109881344D01*
X128373695Y-109812327D01*
X128340211Y-109751003D01*
X128345196Y-109681312D01*
X128373698Y-109636963D01*
X128392314Y-109618347D01*
X128484356Y-109469124D01*
X128484358Y-109469119D01*
X128539505Y-109302697D01*
X128539506Y-109302690D01*
X128549999Y-109199986D01*
X128550000Y-109199973D01*
X128550000Y-108750000D01*
X127349000Y-108750000D01*
X127281961Y-108730315D01*
X127236206Y-108677511D01*
X127225000Y-108626000D01*
X127225000Y-108374000D01*
X127244685Y-108306961D01*
X127297489Y-108261206D01*
X127349000Y-108250000D01*
X128549999Y-108250000D01*
X128549999Y-107800028D01*
X128549998Y-107800013D01*
X128539505Y-107697302D01*
X128484358Y-107530880D01*
X128484356Y-107530875D01*
X128392315Y-107381654D01*
X128268341Y-107257680D01*
X128264905Y-107254963D01*
X128224529Y-107197940D01*
X128221392Y-107128141D01*
X128256490Y-107067726D01*
X128302812Y-107039993D01*
X128469334Y-106984814D01*
X128618656Y-106892712D01*
X128742712Y-106768656D01*
X128834814Y-106619334D01*
X128889999Y-106452797D01*
X128900500Y-106350009D01*
X128900499Y-105675938D01*
X128920183Y-105608900D01*
X128972987Y-105563145D01*
X129042146Y-105553201D01*
X129105702Y-105582226D01*
X129115725Y-105591953D01*
X129130256Y-105607738D01*
X129326491Y-105760474D01*
X129326493Y-105760475D01*
X129537617Y-105874730D01*
X129545190Y-105878828D01*
X129780386Y-105959571D01*
X130025665Y-106000500D01*
X130274335Y-106000500D01*
X130519614Y-105959571D01*
X130754810Y-105878828D01*
X130973509Y-105760474D01*
X131169744Y-105607738D01*
X131338164Y-105424785D01*
X131474173Y-105216607D01*
X131487214Y-105186875D01*
X131532169Y-105133391D01*
X131566124Y-105117624D01*
X131567822Y-105117131D01*
X131586912Y-105113174D01*
X131606792Y-105110664D01*
X131647401Y-105094585D01*
X131658444Y-105090803D01*
X131700390Y-105078618D01*
X131717629Y-105068422D01*
X131735103Y-105059862D01*
X131753727Y-105052488D01*
X131753727Y-105052487D01*
X131753732Y-105052486D01*
X131789083Y-105026800D01*
X131798814Y-105020408D01*
X131836420Y-104998170D01*
X131850589Y-104983999D01*
X131865379Y-104971368D01*
X131881587Y-104959594D01*
X131909438Y-104925926D01*
X131917279Y-104917309D01*
X132334583Y-104500005D01*
X141344357Y-104500005D01*
X141364890Y-104747812D01*
X141364892Y-104747824D01*
X141425936Y-104988881D01*
X141525826Y-105216606D01*
X141661833Y-105424782D01*
X141677583Y-105441891D01*
X141830256Y-105607738D01*
X142026491Y-105760474D01*
X142026493Y-105760475D01*
X142237617Y-105874730D01*
X142245190Y-105878828D01*
X142480386Y-105959571D01*
X142725665Y-106000500D01*
X142974335Y-106000500D01*
X143219614Y-105959571D01*
X143454810Y-105878828D01*
X143673509Y-105760474D01*
X143869744Y-105607738D01*
X144038164Y-105424785D01*
X144174173Y-105216607D01*
X144176409Y-105211510D01*
X144181595Y-105199689D01*
X144226551Y-105146203D01*
X144293287Y-105125514D01*
X144295150Y-105125500D01*
X144967257Y-105125500D01*
X144982877Y-105127224D01*
X144982904Y-105126939D01*
X144990660Y-105127671D01*
X144990667Y-105127673D01*
X145057873Y-105125561D01*
X145061768Y-105125500D01*
X145089346Y-105125500D01*
X145089350Y-105125500D01*
X145093324Y-105124997D01*
X145104963Y-105124080D01*
X145148627Y-105122709D01*
X145167869Y-105117117D01*
X145186912Y-105113174D01*
X145206792Y-105110664D01*
X145247401Y-105094585D01*
X145258444Y-105090803D01*
X145300390Y-105078618D01*
X145317629Y-105068422D01*
X145335103Y-105059862D01*
X145353727Y-105052488D01*
X145353727Y-105052487D01*
X145353732Y-105052486D01*
X145389083Y-105026800D01*
X145398814Y-105020408D01*
X145436420Y-104998170D01*
X145450589Y-104983999D01*
X145465379Y-104971368D01*
X145481587Y-104959594D01*
X145509438Y-104925926D01*
X145517279Y-104917309D01*
X145712820Y-104721769D01*
X145774142Y-104688285D01*
X145843834Y-104693269D01*
X145899767Y-104735141D01*
X145924184Y-104800605D01*
X145924500Y-104809451D01*
X145924500Y-105305621D01*
X145904815Y-105372660D01*
X145865599Y-105411158D01*
X145831346Y-105432285D01*
X145707289Y-105556342D01*
X145615187Y-105705663D01*
X145615185Y-105705668D01*
X145597024Y-105760474D01*
X145560001Y-105872203D01*
X145560001Y-105872204D01*
X145560000Y-105872204D01*
X145549500Y-105974983D01*
X145549500Y-107025001D01*
X145549501Y-107025019D01*
X145560000Y-107127796D01*
X145560001Y-107127799D01*
X145615185Y-107294331D01*
X145615187Y-107294336D01*
X145638013Y-107331342D01*
X145707096Y-107443345D01*
X145707289Y-107443657D01*
X145831345Y-107567713D01*
X145865594Y-107588837D01*
X145912320Y-107640784D01*
X145924500Y-107694377D01*
X145924500Y-108805621D01*
X145904815Y-108872660D01*
X145865599Y-108911158D01*
X145831346Y-108932285D01*
X145707289Y-109056342D01*
X145615187Y-109205663D01*
X145615185Y-109205668D01*
X145597243Y-109259814D01*
X145560001Y-109372203D01*
X145560001Y-109372204D01*
X145560000Y-109372204D01*
X145549500Y-109474983D01*
X145549500Y-110525001D01*
X145549501Y-110525019D01*
X145560000Y-110627796D01*
X145560001Y-110627799D01*
X145615185Y-110794331D01*
X145615187Y-110794336D01*
X145630109Y-110818528D01*
X145707096Y-110943345D01*
X145707289Y-110943657D01*
X145831345Y-111067713D01*
X145865594Y-111088837D01*
X145912320Y-111140784D01*
X145924500Y-111194377D01*
X145924500Y-112305621D01*
X145904815Y-112372660D01*
X145865599Y-112411158D01*
X145831346Y-112432285D01*
X145707289Y-112556342D01*
X145615187Y-112705663D01*
X145615185Y-112705668D01*
X145606831Y-112730880D01*
X145560001Y-112872203D01*
X145560001Y-112872204D01*
X145560000Y-112872204D01*
X145549500Y-112974983D01*
X145549500Y-114025001D01*
X145549501Y-114025019D01*
X145560000Y-114127796D01*
X145560001Y-114127799D01*
X145607125Y-114270008D01*
X145615186Y-114294334D01*
X145707096Y-114443345D01*
X145707289Y-114443657D01*
X145831345Y-114567713D01*
X145865594Y-114588837D01*
X145912320Y-114640784D01*
X145924500Y-114694377D01*
X145924500Y-116967255D01*
X145922775Y-116982872D01*
X145923061Y-116982899D01*
X145922326Y-116990665D01*
X145924439Y-117057872D01*
X145924500Y-117061767D01*
X145924500Y-117089357D01*
X145925003Y-117093335D01*
X145925918Y-117104967D01*
X145927290Y-117148624D01*
X145927291Y-117148627D01*
X145932880Y-117167867D01*
X145936824Y-117186911D01*
X145939336Y-117206792D01*
X145955414Y-117247403D01*
X145959197Y-117258452D01*
X145971381Y-117300388D01*
X145981580Y-117317634D01*
X145990138Y-117335103D01*
X145997514Y-117353732D01*
X146023181Y-117389060D01*
X146029593Y-117398821D01*
X146051828Y-117436417D01*
X146051833Y-117436424D01*
X146065990Y-117450580D01*
X146078627Y-117465375D01*
X146090406Y-117481587D01*
X146104540Y-117493279D01*
X146143648Y-117551178D01*
X146149500Y-117588823D01*
X146149500Y-118897870D01*
X146149501Y-118897876D01*
X146155908Y-118957483D01*
X146206202Y-119092328D01*
X146206206Y-119092335D01*
X146292452Y-119207544D01*
X146292455Y-119207547D01*
X146407664Y-119293793D01*
X146407671Y-119293797D01*
X146542517Y-119344091D01*
X146542516Y-119344091D01*
X146549444Y-119344835D01*
X146602127Y-119350500D01*
X148397872Y-119350499D01*
X148457483Y-119344091D01*
X148592331Y-119293796D01*
X148707546Y-119207546D01*
X148793796Y-119092331D01*
X148844091Y-118957483D01*
X148850500Y-118897873D01*
X148850499Y-117102128D01*
X148844091Y-117042517D01*
X148824752Y-116990667D01*
X148793797Y-116907671D01*
X148793793Y-116907664D01*
X148707547Y-116792455D01*
X148707544Y-116792452D01*
X148592335Y-116706206D01*
X148592328Y-116706202D01*
X148457482Y-116655908D01*
X148457483Y-116655908D01*
X148397883Y-116649501D01*
X148397881Y-116649500D01*
X148397873Y-116649500D01*
X148397865Y-116649500D01*
X147299500Y-116649500D01*
X147232461Y-116629815D01*
X147186706Y-116577011D01*
X147175500Y-116525500D01*
X147175500Y-114694377D01*
X147195185Y-114627338D01*
X147234406Y-114588837D01*
X147252200Y-114577862D01*
X147268656Y-114567712D01*
X147392712Y-114443656D01*
X147394752Y-114440347D01*
X147396745Y-114438555D01*
X147397193Y-114437989D01*
X147397289Y-114438065D01*
X147446694Y-114393623D01*
X147515656Y-114382395D01*
X147579740Y-114410234D01*
X147605829Y-114440339D01*
X147607681Y-114443341D01*
X147607683Y-114443344D01*
X147731654Y-114567315D01*
X147880875Y-114659356D01*
X147880880Y-114659358D01*
X148047302Y-114714505D01*
X148047309Y-114714506D01*
X148150019Y-114724999D01*
X148199999Y-114724998D01*
X148200000Y-114724998D01*
X148200000Y-113750000D01*
X148700000Y-113750000D01*
X148700000Y-114724999D01*
X148749972Y-114724999D01*
X148749986Y-114724998D01*
X148852697Y-114714505D01*
X149019119Y-114659358D01*
X149019124Y-114659356D01*
X149168345Y-114567315D01*
X149292315Y-114443345D01*
X149384356Y-114294124D01*
X149384358Y-114294119D01*
X149439505Y-114127697D01*
X149439506Y-114127690D01*
X149449999Y-114024986D01*
X149450000Y-114024973D01*
X149450000Y-113750000D01*
X148700000Y-113750000D01*
X148200000Y-113750000D01*
X148200000Y-112275000D01*
X148700000Y-112275000D01*
X148700000Y-113250000D01*
X149449999Y-113250000D01*
X149449999Y-112975028D01*
X149449998Y-112975013D01*
X149439505Y-112872302D01*
X149384358Y-112705880D01*
X149384356Y-112705875D01*
X149292315Y-112556654D01*
X149168345Y-112432684D01*
X149019124Y-112340643D01*
X149019119Y-112340641D01*
X148852697Y-112285494D01*
X148852690Y-112285493D01*
X148749986Y-112275000D01*
X148700000Y-112275000D01*
X148200000Y-112275000D01*
X148199999Y-112274999D01*
X148150029Y-112275000D01*
X148150011Y-112275001D01*
X148047302Y-112285494D01*
X147880880Y-112340641D01*
X147880875Y-112340643D01*
X147731654Y-112432684D01*
X147607683Y-112556655D01*
X147607679Y-112556660D01*
X147605826Y-112559665D01*
X147604018Y-112561290D01*
X147603202Y-112562323D01*
X147603025Y-112562183D01*
X147553874Y-112606385D01*
X147484911Y-112617601D01*
X147420831Y-112589752D01*
X147394753Y-112559653D01*
X147394737Y-112559628D01*
X147392712Y-112556344D01*
X147268656Y-112432288D01*
X147268653Y-112432285D01*
X147234401Y-112411158D01*
X147187678Y-112359210D01*
X147175500Y-112305621D01*
X147175500Y-111194377D01*
X147195185Y-111127338D01*
X147234406Y-111088837D01*
X147268654Y-111067713D01*
X147268653Y-111067713D01*
X147268656Y-111067712D01*
X147392712Y-110943656D01*
X147394752Y-110940347D01*
X147396745Y-110938555D01*
X147397193Y-110937989D01*
X147397289Y-110938065D01*
X147446694Y-110893623D01*
X147515656Y-110882395D01*
X147579740Y-110910234D01*
X147605829Y-110940339D01*
X147607681Y-110943341D01*
X147607683Y-110943344D01*
X147731654Y-111067315D01*
X147880875Y-111159356D01*
X147880880Y-111159358D01*
X148047302Y-111214505D01*
X148047309Y-111214506D01*
X148150019Y-111224999D01*
X148199999Y-111224998D01*
X148200000Y-111224998D01*
X148200000Y-110250000D01*
X148700000Y-110250000D01*
X148700000Y-111224999D01*
X148749972Y-111224999D01*
X148749986Y-111224998D01*
X148852697Y-111214505D01*
X149019119Y-111159358D01*
X149019124Y-111159356D01*
X149168345Y-111067315D01*
X149292315Y-110943345D01*
X149384356Y-110794124D01*
X149384358Y-110794119D01*
X149439505Y-110627697D01*
X149439506Y-110627690D01*
X149449999Y-110524986D01*
X149450000Y-110524973D01*
X149450000Y-110250000D01*
X148700000Y-110250000D01*
X148200000Y-110250000D01*
X148200000Y-108775000D01*
X148700000Y-108775000D01*
X148700000Y-109750000D01*
X149449999Y-109750000D01*
X149449999Y-109475028D01*
X149449998Y-109475013D01*
X149439505Y-109372302D01*
X149384358Y-109205880D01*
X149384356Y-109205875D01*
X149292315Y-109056654D01*
X149168345Y-108932684D01*
X149019124Y-108840643D01*
X149019119Y-108840641D01*
X148852697Y-108785494D01*
X148852690Y-108785493D01*
X148749986Y-108775000D01*
X148700000Y-108775000D01*
X148200000Y-108775000D01*
X148199999Y-108774999D01*
X148150029Y-108775000D01*
X148150011Y-108775001D01*
X148047302Y-108785494D01*
X147880880Y-108840641D01*
X147880875Y-108840643D01*
X147731654Y-108932684D01*
X147607683Y-109056655D01*
X147607679Y-109056660D01*
X147605826Y-109059665D01*
X147604018Y-109061290D01*
X147603202Y-109062323D01*
X147603025Y-109062183D01*
X147553874Y-109106385D01*
X147484911Y-109117601D01*
X147420831Y-109089752D01*
X147394753Y-109059653D01*
X147394737Y-109059628D01*
X147392712Y-109056344D01*
X147268656Y-108932288D01*
X147268653Y-108932285D01*
X147234401Y-108911158D01*
X147187678Y-108859210D01*
X147175500Y-108805621D01*
X147175500Y-107694377D01*
X147195185Y-107627338D01*
X147234406Y-107588837D01*
X147268654Y-107567713D01*
X147268653Y-107567713D01*
X147268656Y-107567712D01*
X147392712Y-107443656D01*
X147394752Y-107440347D01*
X147396745Y-107438555D01*
X147397193Y-107437989D01*
X147397289Y-107438065D01*
X147446694Y-107393623D01*
X147515656Y-107382395D01*
X147579740Y-107410234D01*
X147605829Y-107440339D01*
X147607681Y-107443341D01*
X147607683Y-107443344D01*
X147731654Y-107567315D01*
X147880875Y-107659356D01*
X147880880Y-107659358D01*
X148047302Y-107714505D01*
X148047309Y-107714506D01*
X148150019Y-107724999D01*
X148199999Y-107724998D01*
X148200000Y-107724998D01*
X148200000Y-106750000D01*
X148700000Y-106750000D01*
X148700000Y-107724999D01*
X148749972Y-107724999D01*
X148749986Y-107724998D01*
X148852697Y-107714505D01*
X149019119Y-107659358D01*
X149019124Y-107659356D01*
X149168345Y-107567315D01*
X149292315Y-107443345D01*
X149384356Y-107294124D01*
X149384358Y-107294119D01*
X149439505Y-107127697D01*
X149439506Y-107127690D01*
X149449999Y-107024986D01*
X149450000Y-107024973D01*
X149450000Y-106750000D01*
X148700000Y-106750000D01*
X148200000Y-106750000D01*
X148200000Y-105275000D01*
X148700000Y-105275000D01*
X148700000Y-106250000D01*
X149449999Y-106250000D01*
X149449999Y-105975028D01*
X149449998Y-105975013D01*
X149439505Y-105872302D01*
X149384358Y-105705880D01*
X149384356Y-105705875D01*
X149292315Y-105556654D01*
X149168345Y-105432684D01*
X149019124Y-105340643D01*
X149019119Y-105340641D01*
X148852697Y-105285494D01*
X148852690Y-105285493D01*
X148749986Y-105275000D01*
X148700000Y-105275000D01*
X148200000Y-105275000D01*
X148199999Y-105274999D01*
X148150029Y-105275000D01*
X148150011Y-105275001D01*
X148047302Y-105285494D01*
X147880880Y-105340641D01*
X147880875Y-105340643D01*
X147731654Y-105432684D01*
X147607683Y-105556655D01*
X147607679Y-105556660D01*
X147605826Y-105559665D01*
X147604018Y-105561290D01*
X147603202Y-105562323D01*
X147603025Y-105562183D01*
X147553874Y-105606385D01*
X147484911Y-105617601D01*
X147420831Y-105589752D01*
X147394753Y-105559653D01*
X147394737Y-105559628D01*
X147392712Y-105556344D01*
X147268656Y-105432288D01*
X147268653Y-105432285D01*
X147234401Y-105411158D01*
X147187678Y-105359210D01*
X147175500Y-105305621D01*
X147175500Y-104194377D01*
X147195185Y-104127338D01*
X147234406Y-104088837D01*
X147268654Y-104067713D01*
X147268653Y-104067713D01*
X147268656Y-104067712D01*
X147392712Y-103943656D01*
X147394752Y-103940347D01*
X147396745Y-103938555D01*
X147397193Y-103937989D01*
X147397289Y-103938065D01*
X147446694Y-103893623D01*
X147515656Y-103882395D01*
X147579740Y-103910234D01*
X147605829Y-103940339D01*
X147607681Y-103943341D01*
X147607683Y-103943344D01*
X147731654Y-104067315D01*
X147880875Y-104159356D01*
X147880880Y-104159358D01*
X148047302Y-104214505D01*
X148047309Y-104214506D01*
X148150019Y-104224999D01*
X148199999Y-104224998D01*
X148200000Y-104224998D01*
X148200000Y-103250000D01*
X148700000Y-103250000D01*
X148700000Y-104224999D01*
X148749972Y-104224999D01*
X148749986Y-104224998D01*
X148852697Y-104214505D01*
X149019119Y-104159358D01*
X149019124Y-104159356D01*
X149168345Y-104067315D01*
X149292315Y-103943345D01*
X149384356Y-103794124D01*
X149384358Y-103794119D01*
X149439505Y-103627697D01*
X149439506Y-103627690D01*
X149449999Y-103524986D01*
X149450000Y-103524973D01*
X149450000Y-103250000D01*
X148700000Y-103250000D01*
X148200000Y-103250000D01*
X148200000Y-101775000D01*
X148700000Y-101775000D01*
X148700000Y-102750000D01*
X149449999Y-102750000D01*
X149449999Y-102475028D01*
X149449998Y-102475013D01*
X149439505Y-102372302D01*
X149384358Y-102205880D01*
X149384356Y-102205875D01*
X149292315Y-102056654D01*
X149168345Y-101932684D01*
X149019124Y-101840643D01*
X149019119Y-101840641D01*
X148852697Y-101785494D01*
X148852690Y-101785493D01*
X148749986Y-101775000D01*
X148700000Y-101775000D01*
X148200000Y-101775000D01*
X148199999Y-101774999D01*
X148150029Y-101775000D01*
X148150011Y-101775001D01*
X148047302Y-101785494D01*
X147880880Y-101840641D01*
X147880875Y-101840643D01*
X147731654Y-101932684D01*
X147607683Y-102056655D01*
X147607679Y-102056660D01*
X147605826Y-102059665D01*
X147604018Y-102061290D01*
X147603202Y-102062323D01*
X147603025Y-102062183D01*
X147553874Y-102106385D01*
X147484911Y-102117601D01*
X147420831Y-102089752D01*
X147394753Y-102059653D01*
X147394737Y-102059628D01*
X147392712Y-102056344D01*
X147268656Y-101932288D01*
X147268653Y-101932285D01*
X147234401Y-101911158D01*
X147187678Y-101859210D01*
X147175500Y-101805621D01*
X147175500Y-100694377D01*
X147195185Y-100627338D01*
X147234406Y-100588837D01*
X147268654Y-100567713D01*
X147268653Y-100567713D01*
X147268656Y-100567712D01*
X147392712Y-100443656D01*
X147394752Y-100440347D01*
X147396745Y-100438555D01*
X147397193Y-100437989D01*
X147397289Y-100438065D01*
X147446694Y-100393623D01*
X147515656Y-100382395D01*
X147579740Y-100410234D01*
X147605829Y-100440339D01*
X147607681Y-100443341D01*
X147607683Y-100443344D01*
X147731654Y-100567315D01*
X147880875Y-100659356D01*
X147880880Y-100659358D01*
X148047302Y-100714505D01*
X148047309Y-100714506D01*
X148150019Y-100724999D01*
X148199999Y-100724998D01*
X148200000Y-100724998D01*
X148200000Y-99750000D01*
X148700000Y-99750000D01*
X148700000Y-100724999D01*
X148749972Y-100724999D01*
X148749986Y-100724998D01*
X148852697Y-100714505D01*
X149019119Y-100659358D01*
X149019124Y-100659356D01*
X149168345Y-100567315D01*
X149292315Y-100443345D01*
X149384356Y-100294124D01*
X149384358Y-100294119D01*
X149439505Y-100127697D01*
X149439506Y-100127690D01*
X149449999Y-100024986D01*
X149450000Y-100024973D01*
X149450000Y-99750000D01*
X148700000Y-99750000D01*
X148200000Y-99750000D01*
X148200000Y-98275000D01*
X148700000Y-98275000D01*
X148700000Y-99250000D01*
X149449999Y-99250000D01*
X149449999Y-98975028D01*
X149449998Y-98975013D01*
X149439505Y-98872302D01*
X149384358Y-98705880D01*
X149384356Y-98705875D01*
X149292315Y-98556654D01*
X149168345Y-98432684D01*
X149019124Y-98340643D01*
X149019119Y-98340641D01*
X148852697Y-98285494D01*
X148852690Y-98285493D01*
X148749986Y-98275000D01*
X148700000Y-98275000D01*
X148200000Y-98275000D01*
X148199999Y-98274999D01*
X148150029Y-98275000D01*
X148150011Y-98275001D01*
X148047302Y-98285494D01*
X147880880Y-98340641D01*
X147880875Y-98340643D01*
X147731654Y-98432684D01*
X147607683Y-98556655D01*
X147607679Y-98556660D01*
X147605826Y-98559665D01*
X147604018Y-98561290D01*
X147603202Y-98562323D01*
X147603025Y-98562183D01*
X147553874Y-98606385D01*
X147484911Y-98617601D01*
X147420831Y-98589752D01*
X147394753Y-98559653D01*
X147394737Y-98559628D01*
X147392712Y-98556344D01*
X147268656Y-98432288D01*
X147147377Y-98357483D01*
X147119336Y-98340187D01*
X147119331Y-98340185D01*
X147117862Y-98339698D01*
X146952797Y-98285001D01*
X146952795Y-98285000D01*
X146850010Y-98274500D01*
X146249998Y-98274500D01*
X146249980Y-98274501D01*
X146147203Y-98285000D01*
X146147200Y-98285001D01*
X145980668Y-98340185D01*
X145980663Y-98340187D01*
X145831342Y-98432289D01*
X145707289Y-98556342D01*
X145615187Y-98705663D01*
X145615185Y-98705668D01*
X145604898Y-98736713D01*
X145560001Y-98872203D01*
X145560001Y-98872204D01*
X145560000Y-98872204D01*
X145549500Y-98974983D01*
X145549500Y-100025001D01*
X145549501Y-100025019D01*
X145560000Y-100127796D01*
X145560001Y-100127799D01*
X145615185Y-100294331D01*
X145615187Y-100294336D01*
X145648147Y-100347772D01*
X145707096Y-100443345D01*
X145707289Y-100443657D01*
X145831345Y-100567713D01*
X145865594Y-100588837D01*
X145912320Y-100640784D01*
X145924500Y-100694377D01*
X145924500Y-101805621D01*
X145904815Y-101872660D01*
X145865599Y-101911158D01*
X145831346Y-101932285D01*
X145707289Y-102056342D01*
X145615187Y-102205663D01*
X145615185Y-102205668D01*
X145606574Y-102231654D01*
X145560001Y-102372203D01*
X145560001Y-102372204D01*
X145560000Y-102372204D01*
X145549500Y-102474983D01*
X145549500Y-103064546D01*
X145529815Y-103131585D01*
X145513181Y-103152227D01*
X144827228Y-103838181D01*
X144765905Y-103871666D01*
X144739547Y-103874500D01*
X144295150Y-103874500D01*
X144228111Y-103854815D01*
X144182356Y-103802011D01*
X144181595Y-103800311D01*
X144174175Y-103783396D01*
X144038166Y-103575217D01*
X143991913Y-103524973D01*
X143869744Y-103392262D01*
X143673509Y-103239526D01*
X143673507Y-103239525D01*
X143673506Y-103239524D01*
X143454811Y-103121172D01*
X143454802Y-103121169D01*
X143219616Y-103040429D01*
X142974335Y-102999500D01*
X142725665Y-102999500D01*
X142480383Y-103040429D01*
X142245197Y-103121169D01*
X142245188Y-103121172D01*
X142026493Y-103239524D01*
X141830257Y-103392261D01*
X141661833Y-103575217D01*
X141525826Y-103783393D01*
X141425936Y-104011118D01*
X141364892Y-104252175D01*
X141364890Y-104252187D01*
X141344357Y-104499994D01*
X141344357Y-104500005D01*
X132334583Y-104500005D01*
X135072772Y-101761816D01*
X135134093Y-101728333D01*
X135160441Y-101725499D01*
X135750008Y-101725499D01*
X135750016Y-101725498D01*
X135750019Y-101725498D01*
X135806302Y-101719748D01*
X135852797Y-101714999D01*
X136019334Y-101659814D01*
X136168656Y-101567712D01*
X136292712Y-101443656D01*
X136384814Y-101294334D01*
X136439999Y-101127797D01*
X136450500Y-101025009D01*
X136450499Y-99974992D01*
X136443900Y-99910396D01*
X136439999Y-99872203D01*
X136439998Y-99872200D01*
X136430548Y-99843683D01*
X136384814Y-99705666D01*
X136292712Y-99556344D01*
X136168656Y-99432288D01*
X136168653Y-99432285D01*
X136134401Y-99411158D01*
X136087678Y-99359210D01*
X136075500Y-99305621D01*
X136075500Y-97482737D01*
X136077224Y-97467123D01*
X136076938Y-97467096D01*
X136077672Y-97459333D01*
X136077557Y-97455688D01*
X136075561Y-97392143D01*
X136075500Y-97388249D01*
X136075500Y-97360651D01*
X136075500Y-97360650D01*
X136074997Y-97356670D01*
X136074080Y-97345021D01*
X136072709Y-97301374D01*
X136072709Y-97301372D01*
X136067120Y-97282137D01*
X136063174Y-97263084D01*
X136060664Y-97243208D01*
X136044578Y-97202581D01*
X136040803Y-97191554D01*
X136028617Y-97149610D01*
X136028616Y-97149608D01*
X136018421Y-97132369D01*
X136009860Y-97114893D01*
X136002486Y-97096269D01*
X136002485Y-97096267D01*
X136001699Y-97095185D01*
X135976809Y-97060926D01*
X135970412Y-97051190D01*
X135948170Y-97013579D01*
X135948167Y-97013576D01*
X135948165Y-97013573D01*
X135934005Y-96999413D01*
X135921370Y-96984620D01*
X135909593Y-96968412D01*
X135875945Y-96940576D01*
X135867304Y-96932713D01*
X132721772Y-93787181D01*
X132688287Y-93725858D01*
X132693271Y-93656166D01*
X132735143Y-93600233D01*
X132800607Y-93575816D01*
X132809453Y-93575500D01*
X133346042Y-93575500D01*
X133413081Y-93595185D01*
X133451580Y-93634402D01*
X133452947Y-93636619D01*
X133457288Y-93643656D01*
X133581344Y-93767712D01*
X133730666Y-93859814D01*
X133897203Y-93914999D01*
X133999991Y-93925500D01*
X135000008Y-93925499D01*
X135000016Y-93925498D01*
X135000019Y-93925498D01*
X135056302Y-93919748D01*
X135102797Y-93914999D01*
X135269334Y-93859814D01*
X135418656Y-93767712D01*
X135542712Y-93643656D01*
X135571549Y-93596902D01*
X135623497Y-93550179D01*
X135677088Y-93538000D01*
X136822912Y-93538000D01*
X136889951Y-93557685D01*
X136928449Y-93596901D01*
X136957288Y-93643656D01*
X137081344Y-93767712D01*
X137230666Y-93859814D01*
X137397203Y-93914999D01*
X137499991Y-93925500D01*
X138500008Y-93925499D01*
X138500016Y-93925498D01*
X138500019Y-93925498D01*
X138556302Y-93919748D01*
X138602797Y-93914999D01*
X138769334Y-93859814D01*
X138918656Y-93767712D01*
X139042712Y-93643656D01*
X139071549Y-93596902D01*
X139123497Y-93550179D01*
X139177088Y-93538000D01*
X140282492Y-93538000D01*
X140349531Y-93557685D01*
X140388029Y-93596901D01*
X140432288Y-93668656D01*
X140556344Y-93792712D01*
X140705666Y-93884814D01*
X140789505Y-93912595D01*
X140846948Y-93952366D01*
X140873772Y-94016882D01*
X140874500Y-94030300D01*
X140874500Y-94936750D01*
X140854815Y-95003789D01*
X140802011Y-95049544D01*
X140790763Y-95054031D01*
X140595197Y-95121169D01*
X140595188Y-95121172D01*
X140376493Y-95239524D01*
X140274501Y-95318908D01*
X140180256Y-95392262D01*
X140173124Y-95400009D01*
X140011833Y-95575217D01*
X139875826Y-95783393D01*
X139775936Y-96011118D01*
X139714892Y-96252175D01*
X139714890Y-96252187D01*
X139694357Y-96499994D01*
X139694357Y-96500005D01*
X139714890Y-96747812D01*
X139714892Y-96747824D01*
X139775936Y-96988881D01*
X139875826Y-97216606D01*
X140011833Y-97424782D01*
X140043639Y-97459332D01*
X140180256Y-97607738D01*
X140376491Y-97760474D01*
X140446302Y-97798254D01*
X140553639Y-97856342D01*
X140595190Y-97878828D01*
X140830386Y-97959571D01*
X141075665Y-98000500D01*
X141324335Y-98000500D01*
X141569614Y-97959571D01*
X141804810Y-97878828D01*
X142023509Y-97760474D01*
X142219744Y-97607738D01*
X142388164Y-97424785D01*
X142524173Y-97216607D01*
X142624063Y-96988881D01*
X142685108Y-96747821D01*
X142686417Y-96732023D01*
X142705643Y-96500005D01*
X142705643Y-96499994D01*
X142685109Y-96252187D01*
X142685107Y-96252175D01*
X142624063Y-96011118D01*
X142524173Y-95783393D01*
X142388166Y-95575217D01*
X142332805Y-95515079D01*
X142219744Y-95392262D01*
X142213544Y-95387436D01*
X142173336Y-95356140D01*
X142132524Y-95299429D01*
X142125500Y-95258288D01*
X142125500Y-94249500D01*
X142145185Y-94182461D01*
X142197989Y-94136706D01*
X142249500Y-94125500D01*
X143401763Y-94125500D01*
X143468802Y-94145185D01*
X143514557Y-94197989D01*
X143520977Y-94215382D01*
X143533873Y-94260452D01*
X143561310Y-94356342D01*
X143566091Y-94373049D01*
X143660302Y-94553407D01*
X143660304Y-94553409D01*
X143788890Y-94711109D01*
X143867237Y-94774992D01*
X143946593Y-94839698D01*
X144126951Y-94933909D01*
X144322582Y-94989886D01*
X144441963Y-95000500D01*
X148558036Y-95000499D01*
X148677418Y-94989886D01*
X148873049Y-94933909D01*
X149053407Y-94839698D01*
X149211109Y-94711109D01*
X149339698Y-94553407D01*
X149433909Y-94373049D01*
X149489886Y-94177418D01*
X149500500Y-94058037D01*
X149500499Y-92941964D01*
X149489886Y-92822582D01*
X149433909Y-92626951D01*
X149339698Y-92446593D01*
X149263655Y-92353333D01*
X149211109Y-92288890D01*
X149079213Y-92181344D01*
X149053407Y-92160302D01*
X148873049Y-92066091D01*
X148873048Y-92066090D01*
X148873045Y-92066089D01*
X148732951Y-92026004D01*
X148677418Y-92010114D01*
X148677415Y-92010113D01*
X148677413Y-92010113D01*
X148611102Y-92004217D01*
X148558037Y-91999500D01*
X148558032Y-91999500D01*
X144441971Y-91999500D01*
X144441965Y-91999500D01*
X144441964Y-91999501D01*
X144430316Y-92000536D01*
X144322584Y-92010113D01*
X144126954Y-92066089D01*
X144056845Y-92102711D01*
X143946593Y-92160302D01*
X143946591Y-92160303D01*
X143946590Y-92160304D01*
X143788890Y-92288890D01*
X143667120Y-92438231D01*
X143660302Y-92446593D01*
X143596669Y-92568412D01*
X143566090Y-92626953D01*
X143556367Y-92660934D01*
X143527886Y-92760474D01*
X143520979Y-92784612D01*
X143483612Y-92843649D01*
X143420258Y-92873113D01*
X143401763Y-92874500D01*
X142849499Y-92874500D01*
X142782460Y-92854815D01*
X142736705Y-92802011D01*
X142725499Y-92750500D01*
X142725499Y-92649998D01*
X142725498Y-92649981D01*
X142714999Y-92547203D01*
X142714998Y-92547200D01*
X142705031Y-92517122D01*
X142659814Y-92380666D01*
X142567712Y-92231344D01*
X142443656Y-92107288D01*
X142440342Y-92105243D01*
X142438546Y-92103248D01*
X142437989Y-92102807D01*
X142438064Y-92102711D01*
X142393618Y-92053297D01*
X142382397Y-91984334D01*
X142410240Y-91920252D01*
X142440348Y-91894165D01*
X142443342Y-91892318D01*
X142567315Y-91768345D01*
X142659356Y-91619124D01*
X142659358Y-91619119D01*
X142714505Y-91452697D01*
X142714506Y-91452690D01*
X142724999Y-91349986D01*
X142725000Y-91349973D01*
X142725000Y-91300000D01*
X140275001Y-91300000D01*
X140275001Y-91349986D01*
X140285494Y-91452697D01*
X140340641Y-91619119D01*
X140340643Y-91619124D01*
X140432684Y-91768345D01*
X140556655Y-91892316D01*
X140556659Y-91892319D01*
X140559656Y-91894168D01*
X140561279Y-91895972D01*
X140562323Y-91896798D01*
X140562181Y-91896976D01*
X140606381Y-91946116D01*
X140617602Y-92015079D01*
X140589759Y-92079161D01*
X140559661Y-92105241D01*
X140556349Y-92107283D01*
X140556343Y-92107288D01*
X140432288Y-92231343D01*
X140427807Y-92237011D01*
X140425984Y-92235569D01*
X140382335Y-92274825D01*
X140328752Y-92287000D01*
X139177088Y-92287000D01*
X139110049Y-92267315D01*
X139071549Y-92228097D01*
X139064462Y-92216607D01*
X139042712Y-92181344D01*
X138948695Y-92087327D01*
X138915210Y-92026004D01*
X138920194Y-91956312D01*
X138948695Y-91911964D01*
X139042317Y-91818342D01*
X139134356Y-91669124D01*
X139134358Y-91669119D01*
X139189505Y-91502697D01*
X139189506Y-91502690D01*
X139199999Y-91399986D01*
X139200000Y-91399973D01*
X139200000Y-91337500D01*
X136800001Y-91337500D01*
X136800001Y-91399986D01*
X136810494Y-91502697D01*
X136865641Y-91669119D01*
X136865643Y-91669124D01*
X136957684Y-91818345D01*
X137051304Y-91911965D01*
X137084789Y-91973288D01*
X137079805Y-92042980D01*
X137051305Y-92087327D01*
X136957287Y-92181345D01*
X136928451Y-92228097D01*
X136876503Y-92274821D01*
X136822912Y-92287000D01*
X135677088Y-92287000D01*
X135610049Y-92267315D01*
X135571549Y-92228097D01*
X135564462Y-92216607D01*
X135542712Y-92181344D01*
X135448695Y-92087327D01*
X135415210Y-92026004D01*
X135420194Y-91956312D01*
X135448695Y-91911964D01*
X135542317Y-91818342D01*
X135634356Y-91669124D01*
X135634358Y-91669119D01*
X135689505Y-91502697D01*
X135689506Y-91502690D01*
X135699999Y-91399986D01*
X135700000Y-91399973D01*
X135700000Y-91337500D01*
X133300001Y-91337500D01*
X133300001Y-91399986D01*
X133310494Y-91502697D01*
X133365641Y-91669119D01*
X133365643Y-91669124D01*
X133457684Y-91818345D01*
X133551304Y-91911965D01*
X133584789Y-91973288D01*
X133579805Y-92042980D01*
X133551305Y-92087327D01*
X133457287Y-92181345D01*
X133441126Y-92207547D01*
X133416692Y-92247162D01*
X133405321Y-92265597D01*
X133353373Y-92312321D01*
X133299782Y-92324500D01*
X132194378Y-92324500D01*
X132127339Y-92304815D01*
X132088839Y-92265597D01*
X132080825Y-92252604D01*
X132067712Y-92231344D01*
X131943656Y-92107288D01*
X131940342Y-92105243D01*
X131938546Y-92103248D01*
X131937989Y-92102807D01*
X131938064Y-92102711D01*
X131893618Y-92053297D01*
X131882397Y-91984334D01*
X131910240Y-91920252D01*
X131940348Y-91894165D01*
X131943342Y-91892318D01*
X132067315Y-91768345D01*
X132159356Y-91619124D01*
X132159358Y-91619119D01*
X132214505Y-91452697D01*
X132214506Y-91452690D01*
X132224999Y-91349986D01*
X132225000Y-91349973D01*
X132225000Y-91300000D01*
X129775001Y-91300000D01*
X129775001Y-91349986D01*
X129785494Y-91452697D01*
X129840641Y-91619119D01*
X129840643Y-91619124D01*
X129932684Y-91768345D01*
X130056655Y-91892316D01*
X130056659Y-91892319D01*
X130059656Y-91894168D01*
X130061279Y-91895972D01*
X130062323Y-91896798D01*
X130062181Y-91896976D01*
X130106381Y-91946116D01*
X130117602Y-92015079D01*
X130089759Y-92079161D01*
X130059661Y-92105241D01*
X130056349Y-92107283D01*
X130056343Y-92107288D01*
X129932289Y-92231342D01*
X129840187Y-92380663D01*
X129840186Y-92380666D01*
X129785001Y-92547203D01*
X129785001Y-92547204D01*
X129785000Y-92547204D01*
X129774500Y-92649983D01*
X129774500Y-93250001D01*
X129774501Y-93250019D01*
X129785000Y-93352796D01*
X129785001Y-93352799D01*
X129840185Y-93519331D01*
X129840187Y-93519336D01*
X129867473Y-93563574D01*
X129932288Y-93668656D01*
X130056344Y-93792712D01*
X130205666Y-93884814D01*
X130372203Y-93939999D01*
X130474991Y-93950500D01*
X131064547Y-93950499D01*
X131131586Y-93970183D01*
X131152228Y-93986818D01*
X134788181Y-97622771D01*
X134821666Y-97684094D01*
X134824500Y-97710452D01*
X134824500Y-99305621D01*
X134804815Y-99372660D01*
X134765599Y-99411158D01*
X134731346Y-99432285D01*
X134607285Y-99556346D01*
X134605537Y-99559182D01*
X134603829Y-99560717D01*
X134602807Y-99562011D01*
X134602585Y-99561836D01*
X134553589Y-99605905D01*
X134484626Y-99617126D01*
X134420544Y-99589282D01*
X134394463Y-99559182D01*
X134392714Y-99556346D01*
X134268657Y-99432289D01*
X134268656Y-99432288D01*
X134167970Y-99370185D01*
X134119336Y-99340187D01*
X134119331Y-99340185D01*
X134105244Y-99335517D01*
X133952797Y-99285001D01*
X133952795Y-99285000D01*
X133850010Y-99274500D01*
X133249998Y-99274500D01*
X133249980Y-99274501D01*
X133147203Y-99285000D01*
X133147200Y-99285001D01*
X132980668Y-99340185D01*
X132980663Y-99340187D01*
X132831342Y-99432289D01*
X132707289Y-99556342D01*
X132615187Y-99705663D01*
X132615185Y-99705668D01*
X132599644Y-99752569D01*
X132590723Y-99779492D01*
X132587405Y-99789504D01*
X132547632Y-99846949D01*
X132483116Y-99873772D01*
X132469699Y-99874500D01*
X130530301Y-99874500D01*
X130463262Y-99854815D01*
X130417507Y-99802011D01*
X130412595Y-99789504D01*
X130410081Y-99781917D01*
X130384814Y-99705666D01*
X130292712Y-99556344D01*
X130168656Y-99432288D01*
X130168653Y-99432285D01*
X130134401Y-99411158D01*
X130087678Y-99359210D01*
X130075500Y-99305621D01*
X130075500Y-97532742D01*
X130077224Y-97517122D01*
X130076939Y-97517096D01*
X130077671Y-97509340D01*
X130077673Y-97509333D01*
X130075561Y-97442126D01*
X130075500Y-97438231D01*
X130075500Y-97410654D01*
X130075500Y-97410650D01*
X130074996Y-97406665D01*
X130074080Y-97395021D01*
X130073929Y-97390202D01*
X130072709Y-97351373D01*
X130067122Y-97332144D01*
X130063174Y-97313084D01*
X130060663Y-97293204D01*
X130044588Y-97252604D01*
X130040804Y-97241552D01*
X130028618Y-97199609D01*
X130028616Y-97199606D01*
X130018423Y-97182371D01*
X130009861Y-97164894D01*
X130002487Y-97146269D01*
X129986286Y-97123971D01*
X129976811Y-97110930D01*
X129970405Y-97101177D01*
X129948170Y-97063580D01*
X129944198Y-97056863D01*
X129947118Y-97055136D01*
X129927262Y-97004357D01*
X129930586Y-96963122D01*
X129933909Y-96950002D01*
X129985108Y-96747821D01*
X129986417Y-96732023D01*
X130005643Y-96500005D01*
X130005643Y-96499994D01*
X129985109Y-96252187D01*
X129985107Y-96252175D01*
X129924063Y-96011118D01*
X129824173Y-95783393D01*
X129688166Y-95575217D01*
X129632805Y-95515079D01*
X129519744Y-95392262D01*
X129323509Y-95239526D01*
X129323508Y-95239525D01*
X129323505Y-95239523D01*
X129323503Y-95239522D01*
X129190481Y-95167533D01*
X129140891Y-95118313D01*
X129125500Y-95058479D01*
X129125500Y-94032742D01*
X129127224Y-94017122D01*
X129126939Y-94017095D01*
X129127673Y-94009333D01*
X129125561Y-93942112D01*
X129125500Y-93938218D01*
X129125500Y-93910656D01*
X129125500Y-93910650D01*
X129124996Y-93906668D01*
X129124081Y-93895029D01*
X129123760Y-93884812D01*
X129122710Y-93851373D01*
X129117119Y-93832130D01*
X129113173Y-93813078D01*
X129110664Y-93793208D01*
X129094579Y-93752583D01*
X129090806Y-93741562D01*
X129078618Y-93699610D01*
X129078617Y-93699609D01*
X129078617Y-93699607D01*
X129078616Y-93699606D01*
X129068423Y-93682371D01*
X129059861Y-93664894D01*
X129052487Y-93646269D01*
X129042929Y-93633114D01*
X129026811Y-93610930D01*
X129020405Y-93601177D01*
X128998170Y-93563580D01*
X128998168Y-93563578D01*
X128998165Y-93563574D01*
X128984006Y-93549415D01*
X128971368Y-93534619D01*
X128968989Y-93531344D01*
X128959594Y-93518413D01*
X128949533Y-93510090D01*
X128925940Y-93490572D01*
X128917299Y-93482709D01*
X128761818Y-93327228D01*
X128728333Y-93265905D01*
X128725499Y-93239556D01*
X128725499Y-92649992D01*
X128723145Y-92626951D01*
X128714999Y-92547203D01*
X128714998Y-92547200D01*
X128705031Y-92517122D01*
X128659814Y-92380666D01*
X128567712Y-92231344D01*
X128443656Y-92107288D01*
X128440342Y-92105243D01*
X128438546Y-92103248D01*
X128437989Y-92102807D01*
X128438064Y-92102711D01*
X128393618Y-92053297D01*
X128382397Y-91984334D01*
X128410240Y-91920252D01*
X128440348Y-91894165D01*
X128443342Y-91892318D01*
X128567315Y-91768345D01*
X128659356Y-91619124D01*
X128659358Y-91619119D01*
X128714505Y-91452697D01*
X128714506Y-91452690D01*
X128724999Y-91349986D01*
X128725000Y-91349973D01*
X128725000Y-91300000D01*
X126275001Y-91300000D01*
X126275001Y-91349986D01*
X126285494Y-91452697D01*
X126340641Y-91619119D01*
X126340643Y-91619124D01*
X126432684Y-91768345D01*
X126556655Y-91892316D01*
X126556659Y-91892319D01*
X126559656Y-91894168D01*
X126561279Y-91895972D01*
X126562323Y-91896798D01*
X126562181Y-91896976D01*
X126606381Y-91946116D01*
X126617602Y-92015079D01*
X126589759Y-92079161D01*
X126559661Y-92105241D01*
X126556349Y-92107283D01*
X126556343Y-92107288D01*
X126432289Y-92231342D01*
X126340187Y-92380663D01*
X126340186Y-92380666D01*
X126285001Y-92547203D01*
X126285001Y-92547204D01*
X126285000Y-92547204D01*
X126274500Y-92649983D01*
X126274500Y-93250001D01*
X126274501Y-93250019D01*
X126285000Y-93352796D01*
X126285001Y-93352799D01*
X126340185Y-93519331D01*
X126340187Y-93519336D01*
X126367473Y-93563574D01*
X126432288Y-93668656D01*
X126556344Y-93792712D01*
X126705666Y-93884814D01*
X126872203Y-93939999D01*
X126974991Y-93950500D01*
X127564547Y-93950499D01*
X127631586Y-93970183D01*
X127652228Y-93986818D01*
X127838181Y-94172771D01*
X127871666Y-94234094D01*
X127874500Y-94260452D01*
X127874500Y-95058479D01*
X127854815Y-95125518D01*
X127809519Y-95167533D01*
X127676496Y-95239522D01*
X127676494Y-95239523D01*
X127574501Y-95318908D01*
X127480256Y-95392262D01*
X127473124Y-95400009D01*
X127311833Y-95575217D01*
X127175826Y-95783393D01*
X127075936Y-96011118D01*
X127014892Y-96252175D01*
X127014890Y-96252187D01*
X126994357Y-96499994D01*
X126994357Y-96500005D01*
X127014890Y-96747812D01*
X127014892Y-96747824D01*
X127075936Y-96988881D01*
X127175826Y-97216606D01*
X127311833Y-97424782D01*
X127343639Y-97459332D01*
X127480256Y-97607738D01*
X127676491Y-97760474D01*
X127746302Y-97798254D01*
X127853639Y-97856342D01*
X127895190Y-97878828D01*
X128130386Y-97959571D01*
X128375665Y-98000500D01*
X128624334Y-98000500D01*
X128624335Y-98000500D01*
X128680091Y-97991196D01*
X128749455Y-97999578D01*
X128803278Y-98044131D01*
X128824468Y-98110709D01*
X128824500Y-98113505D01*
X128824500Y-99305621D01*
X128804815Y-99372660D01*
X128765599Y-99411158D01*
X128731346Y-99432285D01*
X128607285Y-99556346D01*
X128605537Y-99559182D01*
X128603829Y-99560717D01*
X128602807Y-99562011D01*
X128602585Y-99561836D01*
X128553589Y-99605905D01*
X128484626Y-99617126D01*
X128420544Y-99589282D01*
X128394463Y-99559182D01*
X128392714Y-99556346D01*
X128268657Y-99432289D01*
X128268656Y-99432288D01*
X128167970Y-99370185D01*
X128119336Y-99340187D01*
X128119331Y-99340185D01*
X128105244Y-99335517D01*
X127952797Y-99285001D01*
X127952795Y-99285000D01*
X127850016Y-99274500D01*
X127260453Y-99274500D01*
X127193414Y-99254815D01*
X127172772Y-99238181D01*
X126186818Y-98252227D01*
X126153333Y-98190904D01*
X126150499Y-98164546D01*
X126150499Y-95552129D01*
X126150498Y-95552123D01*
X126150497Y-95552116D01*
X126144091Y-95492517D01*
X126140748Y-95483555D01*
X126093797Y-95357671D01*
X126093793Y-95357664D01*
X126007547Y-95242455D01*
X126007544Y-95242452D01*
X125892335Y-95156206D01*
X125892328Y-95156202D01*
X125757482Y-95105908D01*
X125757483Y-95105908D01*
X125697883Y-95099501D01*
X125697881Y-95099500D01*
X125697873Y-95099500D01*
X125697865Y-95099500D01*
X125399500Y-95099500D01*
X125332461Y-95079815D01*
X125286706Y-95027011D01*
X125275500Y-94975500D01*
X125275500Y-92532742D01*
X125277224Y-92517122D01*
X125276939Y-92517096D01*
X125277671Y-92509340D01*
X125277673Y-92509333D01*
X125275561Y-92442126D01*
X125275500Y-92438231D01*
X125275500Y-92410654D01*
X125275500Y-92410650D01*
X125274996Y-92406665D01*
X125274080Y-92395021D01*
X125272709Y-92351373D01*
X125267122Y-92332144D01*
X125263174Y-92313084D01*
X125260738Y-92293796D01*
X125260664Y-92293208D01*
X125260663Y-92293206D01*
X125260663Y-92293204D01*
X125244588Y-92252604D01*
X125240804Y-92241552D01*
X125228618Y-92199609D01*
X125228616Y-92199606D01*
X125218423Y-92182371D01*
X125209861Y-92164894D01*
X125202487Y-92146269D01*
X125176816Y-92110937D01*
X125170405Y-92101177D01*
X125148170Y-92063580D01*
X125144198Y-92056863D01*
X125147118Y-92055136D01*
X125127262Y-92004357D01*
X125130586Y-91963122D01*
X125185105Y-91747833D01*
X125185107Y-91747824D01*
X125185108Y-91747821D01*
X125185109Y-91747812D01*
X125205643Y-91500005D01*
X125205643Y-91499994D01*
X125185109Y-91252187D01*
X125185107Y-91252175D01*
X125124063Y-91011118D01*
X125047907Y-90837500D01*
X133300000Y-90837500D01*
X134250000Y-90837500D01*
X134250000Y-90075000D01*
X134750000Y-90075000D01*
X134750000Y-90837500D01*
X135699999Y-90837500D01*
X136800000Y-90837500D01*
X137750000Y-90837500D01*
X137750000Y-90075000D01*
X138250000Y-90075000D01*
X138250000Y-90837500D01*
X139199999Y-90837500D01*
X139199999Y-90800000D01*
X140275000Y-90800000D01*
X141250000Y-90800000D01*
X141250000Y-90050000D01*
X141750000Y-90050000D01*
X141750000Y-90800000D01*
X142724999Y-90800000D01*
X142724999Y-90750028D01*
X142724998Y-90750013D01*
X142714505Y-90647302D01*
X142659358Y-90480880D01*
X142659356Y-90480875D01*
X142567315Y-90331654D01*
X142443345Y-90207684D01*
X142294124Y-90115643D01*
X142294119Y-90115641D01*
X142127697Y-90060494D01*
X142127690Y-90060493D01*
X142024986Y-90050000D01*
X141750000Y-90050000D01*
X141250000Y-90050000D01*
X140975029Y-90050000D01*
X140975012Y-90050001D01*
X140872302Y-90060494D01*
X140705880Y-90115641D01*
X140705875Y-90115643D01*
X140556654Y-90207684D01*
X140432684Y-90331654D01*
X140340643Y-90480875D01*
X140340641Y-90480880D01*
X140285494Y-90647302D01*
X140285493Y-90647309D01*
X140275000Y-90750013D01*
X140275000Y-90800000D01*
X139199999Y-90800000D01*
X139199999Y-90775028D01*
X139199998Y-90775013D01*
X139189505Y-90672302D01*
X139134358Y-90505880D01*
X139134356Y-90505875D01*
X139042315Y-90356654D01*
X138918345Y-90232684D01*
X138769124Y-90140643D01*
X138769119Y-90140641D01*
X138602697Y-90085494D01*
X138602690Y-90085493D01*
X138499986Y-90075000D01*
X138250000Y-90075000D01*
X137750000Y-90075000D01*
X137500029Y-90075000D01*
X137500012Y-90075001D01*
X137397302Y-90085494D01*
X137230880Y-90140641D01*
X137230875Y-90140643D01*
X137081654Y-90232684D01*
X136957684Y-90356654D01*
X136865643Y-90505875D01*
X136865641Y-90505880D01*
X136810494Y-90672302D01*
X136810493Y-90672309D01*
X136800000Y-90775013D01*
X136800000Y-90837500D01*
X135699999Y-90837500D01*
X135699999Y-90775028D01*
X135699998Y-90775013D01*
X135689505Y-90672302D01*
X135634358Y-90505880D01*
X135634356Y-90505875D01*
X135542315Y-90356654D01*
X135418345Y-90232684D01*
X135269124Y-90140643D01*
X135269119Y-90140641D01*
X135102697Y-90085494D01*
X135102690Y-90085493D01*
X134999986Y-90075000D01*
X134750000Y-90075000D01*
X134250000Y-90075000D01*
X134000029Y-90075000D01*
X134000012Y-90075001D01*
X133897302Y-90085494D01*
X133730880Y-90140641D01*
X133730875Y-90140643D01*
X133581654Y-90232684D01*
X133457684Y-90356654D01*
X133365643Y-90505875D01*
X133365641Y-90505880D01*
X133310494Y-90672302D01*
X133310493Y-90672309D01*
X133300000Y-90775013D01*
X133300000Y-90837500D01*
X125047907Y-90837500D01*
X125031458Y-90800000D01*
X126275000Y-90800000D01*
X127250000Y-90800000D01*
X127250000Y-90050000D01*
X127750000Y-90050000D01*
X127750000Y-90800000D01*
X128724999Y-90800000D01*
X129775000Y-90800000D01*
X130750000Y-90800000D01*
X130750000Y-90050000D01*
X131250000Y-90050000D01*
X131250000Y-90800000D01*
X132224999Y-90800000D01*
X132224999Y-90750028D01*
X132224998Y-90750013D01*
X132214505Y-90647302D01*
X132159358Y-90480880D01*
X132159356Y-90480875D01*
X132067315Y-90331654D01*
X131943345Y-90207684D01*
X131794124Y-90115643D01*
X131794119Y-90115641D01*
X131627697Y-90060494D01*
X131627690Y-90060493D01*
X131524986Y-90050000D01*
X131250000Y-90050000D01*
X130750000Y-90050000D01*
X130475029Y-90050000D01*
X130475012Y-90050001D01*
X130372302Y-90060494D01*
X130205880Y-90115641D01*
X130205875Y-90115643D01*
X130056654Y-90207684D01*
X129932684Y-90331654D01*
X129840643Y-90480875D01*
X129840641Y-90480880D01*
X129785494Y-90647302D01*
X129785493Y-90647309D01*
X129775000Y-90750013D01*
X129775000Y-90800000D01*
X128724999Y-90800000D01*
X128724999Y-90750028D01*
X128724998Y-90750013D01*
X128714505Y-90647302D01*
X128659358Y-90480880D01*
X128659356Y-90480875D01*
X128567315Y-90331654D01*
X128443345Y-90207684D01*
X128294124Y-90115643D01*
X128294119Y-90115641D01*
X128127697Y-90060494D01*
X128127690Y-90060493D01*
X128024986Y-90050000D01*
X127750000Y-90050000D01*
X127250000Y-90050000D01*
X126975029Y-90050000D01*
X126975012Y-90050001D01*
X126872302Y-90060494D01*
X126705880Y-90115641D01*
X126705875Y-90115643D01*
X126556654Y-90207684D01*
X126432684Y-90331654D01*
X126340643Y-90480875D01*
X126340641Y-90480880D01*
X126285494Y-90647302D01*
X126285493Y-90647309D01*
X126275000Y-90750013D01*
X126275000Y-90800000D01*
X125031458Y-90800000D01*
X125024173Y-90783393D01*
X124888166Y-90575217D01*
X124833027Y-90515320D01*
X124719744Y-90392262D01*
X124523509Y-90239526D01*
X124523507Y-90239525D01*
X124523506Y-90239524D01*
X124304811Y-90121172D01*
X124304802Y-90121169D01*
X124069616Y-90040429D01*
X123824335Y-89999500D01*
X123575665Y-89999500D01*
X123330383Y-90040429D01*
X123095197Y-90121169D01*
X123095188Y-90121172D01*
X122876493Y-90239524D01*
X122680257Y-90392261D01*
X122511833Y-90575217D01*
X122375826Y-90783393D01*
X122275936Y-91011118D01*
X122214892Y-91252175D01*
X122214890Y-91252187D01*
X122194357Y-91499994D01*
X122194357Y-91500005D01*
X122214890Y-91747812D01*
X122214892Y-91747824D01*
X122275936Y-91988881D01*
X122375826Y-92216606D01*
X122511833Y-92424782D01*
X122531909Y-92446590D01*
X122680256Y-92607738D01*
X122876491Y-92760474D01*
X122876493Y-92760475D01*
X123087192Y-92874500D01*
X123095190Y-92878828D01*
X123330386Y-92959571D01*
X123575665Y-93000500D01*
X123824334Y-93000500D01*
X123824335Y-93000500D01*
X123880091Y-92991196D01*
X123949455Y-92999578D01*
X124003278Y-93044131D01*
X124024468Y-93110709D01*
X124024500Y-93113505D01*
X124024500Y-94975500D01*
X124004815Y-95042539D01*
X123952011Y-95088294D01*
X123900500Y-95099500D01*
X123602130Y-95099500D01*
X123602123Y-95099501D01*
X123542516Y-95105908D01*
X123407671Y-95156202D01*
X123407664Y-95156206D01*
X123292455Y-95242452D01*
X123292452Y-95242455D01*
X123206206Y-95357664D01*
X123206202Y-95357671D01*
X123155908Y-95492517D01*
X123150999Y-95538181D01*
X123149501Y-95552123D01*
X123149500Y-95552135D01*
X123149500Y-99447870D01*
X123149501Y-99447876D01*
X123155908Y-99507483D01*
X123206202Y-99642328D01*
X123206206Y-99642335D01*
X123292452Y-99757544D01*
X123292455Y-99757547D01*
X123407664Y-99843793D01*
X123407671Y-99843797D01*
X123542517Y-99894091D01*
X123542516Y-99894091D01*
X123549444Y-99894835D01*
X123602127Y-99900500D01*
X125697872Y-99900499D01*
X125757483Y-99894091D01*
X125892331Y-99843796D01*
X125892333Y-99843794D01*
X125900640Y-99840696D01*
X125901754Y-99843683D01*
X125954670Y-99832147D01*
X126020146Y-99856533D01*
X126033563Y-99868154D01*
X126513181Y-100347772D01*
X126546666Y-100409095D01*
X126549500Y-100435453D01*
X126549500Y-101025001D01*
X126549501Y-101025019D01*
X126560000Y-101127796D01*
X126560001Y-101127799D01*
X126608614Y-101274500D01*
X126615186Y-101294334D01*
X126707288Y-101443656D01*
X126831344Y-101567712D01*
X126980666Y-101659814D01*
X127126975Y-101708296D01*
X127184417Y-101748066D01*
X127211240Y-101812582D01*
X127198925Y-101881358D01*
X127151382Y-101932558D01*
X127087968Y-101950000D01*
X126800029Y-101950000D01*
X126800012Y-101950001D01*
X126697302Y-101960494D01*
X126530880Y-102015641D01*
X126530875Y-102015643D01*
X126389596Y-102102786D01*
X126322203Y-102121226D01*
X126255540Y-102100303D01*
X126210770Y-102046661D01*
X126200499Y-101997247D01*
X126200499Y-101774998D01*
X126200498Y-101774981D01*
X126189999Y-101672203D01*
X126189998Y-101672200D01*
X126171016Y-101614916D01*
X126134814Y-101505666D01*
X126042712Y-101356344D01*
X125918656Y-101232288D01*
X125815493Y-101168657D01*
X125769336Y-101140187D01*
X125769331Y-101140185D01*
X125767572Y-101139602D01*
X125602797Y-101085001D01*
X125602795Y-101085000D01*
X125500010Y-101074500D01*
X124499998Y-101074500D01*
X124499980Y-101074501D01*
X124397203Y-101085000D01*
X124397200Y-101085001D01*
X124230666Y-101140186D01*
X124230663Y-101140187D01*
X124186768Y-101167261D01*
X124119375Y-101185700D01*
X124052712Y-101164776D01*
X124033993Y-101149402D01*
X122161819Y-99277228D01*
X122128334Y-99215905D01*
X122125500Y-99189547D01*
X122125500Y-93082737D01*
X122127224Y-93067123D01*
X122126938Y-93067096D01*
X122127672Y-93059333D01*
X122125561Y-92992144D01*
X122125500Y-92988250D01*
X122125500Y-92960651D01*
X122125500Y-92960650D01*
X122124997Y-92956670D01*
X122124080Y-92945021D01*
X122122709Y-92901373D01*
X122117121Y-92882139D01*
X122113174Y-92863081D01*
X122110664Y-92843208D01*
X122102498Y-92822584D01*
X122094583Y-92802592D01*
X122090799Y-92791539D01*
X122081773Y-92760474D01*
X122078617Y-92749610D01*
X122068420Y-92732368D01*
X122059863Y-92714902D01*
X122052486Y-92696268D01*
X122026809Y-92660926D01*
X122020412Y-92651190D01*
X121998170Y-92613579D01*
X121998167Y-92613576D01*
X121998165Y-92613573D01*
X121984005Y-92599413D01*
X121971370Y-92584620D01*
X121959593Y-92568412D01*
X121925945Y-92540576D01*
X121917304Y-92532713D01*
X120500803Y-91116212D01*
X120490980Y-91103950D01*
X120490759Y-91104134D01*
X120485786Y-91098122D01*
X120436776Y-91052099D01*
X120433977Y-91049386D01*
X120414477Y-91029885D01*
X120414471Y-91029880D01*
X120411286Y-91027409D01*
X120402434Y-91019848D01*
X120370582Y-90989938D01*
X120370580Y-90989936D01*
X120370577Y-90989935D01*
X120353029Y-90980288D01*
X120336763Y-90969604D01*
X120320932Y-90957324D01*
X120280849Y-90939978D01*
X120270363Y-90934841D01*
X120232094Y-90913803D01*
X120232092Y-90913802D01*
X120212693Y-90908822D01*
X120194281Y-90902518D01*
X120175898Y-90894562D01*
X120175892Y-90894560D01*
X120132760Y-90887729D01*
X120121322Y-90885361D01*
X120079020Y-90874500D01*
X120079019Y-90874500D01*
X120058984Y-90874500D01*
X120039586Y-90872973D01*
X120032162Y-90871797D01*
X120019805Y-90869840D01*
X120019804Y-90869840D01*
X119976325Y-90873950D01*
X119964656Y-90874500D01*
X112445150Y-90874500D01*
X112378111Y-90854815D01*
X112332356Y-90802011D01*
X112331595Y-90800311D01*
X112324175Y-90783396D01*
X112188166Y-90575217D01*
X112133027Y-90515320D01*
X112019744Y-90392262D01*
X111823509Y-90239526D01*
X111823507Y-90239525D01*
X111823506Y-90239524D01*
X111604811Y-90121172D01*
X111604802Y-90121169D01*
X111369616Y-90040429D01*
X111124335Y-89999500D01*
X110875665Y-89999500D01*
X110630383Y-90040429D01*
X110395197Y-90121169D01*
X110395188Y-90121172D01*
X110176493Y-90239524D01*
X109980257Y-90392261D01*
X109811833Y-90575217D01*
X109675826Y-90783393D01*
X109575936Y-91011118D01*
X109514892Y-91252175D01*
X109514890Y-91252187D01*
X109494357Y-91499994D01*
X109494357Y-91500005D01*
X109514890Y-91747812D01*
X109514892Y-91747824D01*
X109575936Y-91988881D01*
X109675826Y-92216606D01*
X109811833Y-92424782D01*
X109831909Y-92446590D01*
X109980256Y-92607738D01*
X110176491Y-92760474D01*
X110176493Y-92760475D01*
X110387192Y-92874500D01*
X110395190Y-92878828D01*
X110630386Y-92959571D01*
X110770910Y-92983019D01*
X110833794Y-93013469D01*
X110870234Y-93073083D01*
X110874500Y-93105328D01*
X110874500Y-94002983D01*
X110854815Y-94070022D01*
X110802011Y-94115777D01*
X110789510Y-94120686D01*
X110741168Y-94136706D01*
X110730666Y-94140186D01*
X110730663Y-94140187D01*
X110581342Y-94232289D01*
X110457289Y-94356342D01*
X110426911Y-94405592D01*
X110374962Y-94452315D01*
X110325273Y-94464432D01*
X110313874Y-94464790D01*
X110313872Y-94464790D01*
X110294629Y-94470381D01*
X110275579Y-94474325D01*
X110255711Y-94476834D01*
X110255710Y-94476834D01*
X110215099Y-94492913D01*
X110204054Y-94496694D01*
X110162114Y-94508879D01*
X110162110Y-94508881D01*
X110144866Y-94519079D01*
X110127405Y-94527633D01*
X110108774Y-94535010D01*
X110108758Y-94535019D01*
X110092795Y-94546617D01*
X110026988Y-94570095D01*
X109958935Y-94554268D01*
X109910241Y-94504160D01*
X109896368Y-94435682D01*
X109896555Y-94433692D01*
X109899999Y-94399981D01*
X109900000Y-94399973D01*
X109900000Y-94275000D01*
X108750000Y-94275000D01*
X108750000Y-95099999D01*
X109191048Y-95099999D01*
X109258087Y-95119684D01*
X109303842Y-95172488D01*
X109313786Y-95241646D01*
X109284761Y-95305202D01*
X109278729Y-95311680D01*
X108727228Y-95863181D01*
X108665905Y-95896666D01*
X108639547Y-95899500D01*
X108303863Y-95899500D01*
X108244126Y-95884162D01*
X108207092Y-95863802D01*
X108187693Y-95858822D01*
X108169281Y-95852518D01*
X108150898Y-95844562D01*
X108150892Y-95844560D01*
X108107760Y-95837729D01*
X108096322Y-95835361D01*
X108054020Y-95824500D01*
X108054019Y-95824500D01*
X108033984Y-95824500D01*
X108014586Y-95822973D01*
X108007162Y-95821797D01*
X107994805Y-95819840D01*
X107994804Y-95819840D01*
X107951325Y-95823950D01*
X107939656Y-95824500D01*
X106194378Y-95824500D01*
X106127339Y-95804815D01*
X106088839Y-95765597D01*
X106067712Y-95731344D01*
X105943656Y-95607288D01*
X105940342Y-95605243D01*
X105938546Y-95603248D01*
X105937989Y-95602807D01*
X105938064Y-95602711D01*
X105893618Y-95553297D01*
X105882397Y-95484334D01*
X105910240Y-95420252D01*
X105940348Y-95394165D01*
X105943342Y-95392318D01*
X106067315Y-95268345D01*
X106159356Y-95119124D01*
X106159361Y-95119113D01*
X106214505Y-94952697D01*
X106214506Y-94952690D01*
X106224999Y-94849986D01*
X106225000Y-94849973D01*
X106225000Y-94800000D01*
X103775001Y-94800000D01*
X103775001Y-94849986D01*
X103785494Y-94952697D01*
X103840639Y-95119113D01*
X103840643Y-95119124D01*
X103932684Y-95268345D01*
X104056655Y-95392316D01*
X104056659Y-95392319D01*
X104059656Y-95394168D01*
X104061279Y-95395972D01*
X104062323Y-95396798D01*
X104062181Y-95396976D01*
X104106381Y-95446116D01*
X104117602Y-95515079D01*
X104089759Y-95579161D01*
X104059661Y-95605241D01*
X104056349Y-95607283D01*
X104056343Y-95607288D01*
X103932289Y-95731342D01*
X103840187Y-95880663D01*
X103840185Y-95880668D01*
X103837869Y-95887658D01*
X103787551Y-96039506D01*
X103747781Y-96096949D01*
X103683265Y-96123772D01*
X103669847Y-96124500D01*
X102469378Y-96124500D01*
X102402339Y-96104815D01*
X102363839Y-96065597D01*
X102342712Y-96031344D01*
X102218656Y-95907288D01*
X102094410Y-95830653D01*
X102069336Y-95815187D01*
X102069331Y-95815185D01*
X102038036Y-95804815D01*
X101902797Y-95760001D01*
X101902795Y-95760000D01*
X101800010Y-95749500D01*
X101199998Y-95749500D01*
X101199980Y-95749501D01*
X101097203Y-95760000D01*
X101097200Y-95760001D01*
X100930668Y-95815185D01*
X100930663Y-95815187D01*
X100870141Y-95852518D01*
X100814595Y-95886778D01*
X100747204Y-95905218D01*
X100680541Y-95884295D01*
X100635771Y-95830653D01*
X100625500Y-95781239D01*
X100625500Y-95218760D01*
X100645185Y-95151721D01*
X100697989Y-95105966D01*
X100767147Y-95096022D01*
X100814595Y-95113221D01*
X100845637Y-95132368D01*
X100930657Y-95184809D01*
X100930660Y-95184810D01*
X100930666Y-95184814D01*
X101097203Y-95239999D01*
X101199991Y-95250500D01*
X101800008Y-95250499D01*
X101800016Y-95250498D01*
X101800019Y-95250498D01*
X101878754Y-95242455D01*
X101902797Y-95239999D01*
X102069334Y-95184814D01*
X102218656Y-95092712D01*
X102342712Y-94968656D01*
X102434814Y-94819334D01*
X102489999Y-94652797D01*
X102500500Y-94550009D01*
X102500499Y-94300000D01*
X103775000Y-94300000D01*
X104750000Y-94300000D01*
X104750000Y-93550000D01*
X105250000Y-93550000D01*
X105250000Y-94300000D01*
X106224999Y-94300000D01*
X106224999Y-94275000D01*
X107100001Y-94275000D01*
X107100001Y-94399986D01*
X107110494Y-94502697D01*
X107165641Y-94669119D01*
X107165643Y-94669124D01*
X107257684Y-94818345D01*
X107381654Y-94942315D01*
X107530875Y-95034356D01*
X107530880Y-95034358D01*
X107697302Y-95089505D01*
X107697309Y-95089506D01*
X107800019Y-95099999D01*
X108249999Y-95099999D01*
X108250000Y-95099998D01*
X108250000Y-94275000D01*
X107100001Y-94275000D01*
X106224999Y-94275000D01*
X106224999Y-94250028D01*
X106224998Y-94250013D01*
X106214505Y-94147302D01*
X106159358Y-93980880D01*
X106159356Y-93980875D01*
X106067315Y-93831654D01*
X106010661Y-93775000D01*
X107100000Y-93775000D01*
X108250000Y-93775000D01*
X108250000Y-92950000D01*
X108750000Y-92950000D01*
X108750000Y-93775000D01*
X109899999Y-93775000D01*
X109899999Y-93650028D01*
X109899998Y-93650013D01*
X109889505Y-93547302D01*
X109834358Y-93380880D01*
X109834356Y-93380875D01*
X109742315Y-93231654D01*
X109618345Y-93107684D01*
X109469124Y-93015643D01*
X109469119Y-93015641D01*
X109302697Y-92960494D01*
X109302690Y-92960493D01*
X109199986Y-92950000D01*
X108750000Y-92950000D01*
X108250000Y-92950000D01*
X107800028Y-92950000D01*
X107800012Y-92950001D01*
X107697302Y-92960494D01*
X107530880Y-93015641D01*
X107530875Y-93015643D01*
X107381654Y-93107684D01*
X107257684Y-93231654D01*
X107165643Y-93380875D01*
X107165641Y-93380880D01*
X107110494Y-93547302D01*
X107110493Y-93547309D01*
X107100000Y-93650013D01*
X107100000Y-93775000D01*
X106010661Y-93775000D01*
X105943345Y-93707684D01*
X105794124Y-93615643D01*
X105794119Y-93615641D01*
X105627697Y-93560494D01*
X105627690Y-93560493D01*
X105524986Y-93550000D01*
X105250000Y-93550000D01*
X104750000Y-93550000D01*
X104475029Y-93550000D01*
X104475012Y-93550001D01*
X104372302Y-93560494D01*
X104205880Y-93615641D01*
X104205875Y-93615643D01*
X104056654Y-93707684D01*
X103932684Y-93831654D01*
X103840643Y-93980875D01*
X103840641Y-93980880D01*
X103785494Y-94147302D01*
X103785493Y-94147309D01*
X103775000Y-94250013D01*
X103775000Y-94300000D01*
X102500499Y-94300000D01*
X102500499Y-94185450D01*
X102520183Y-94118412D01*
X102536813Y-94097775D01*
X104247774Y-92386815D01*
X104309093Y-92353333D01*
X104335441Y-92350499D01*
X106122872Y-92350499D01*
X106182483Y-92344091D01*
X106317331Y-92293796D01*
X106432546Y-92207546D01*
X106518796Y-92092331D01*
X106568002Y-91960401D01*
X106609872Y-91904468D01*
X106675337Y-91880050D01*
X106743610Y-91894901D01*
X106771865Y-91916053D01*
X106893917Y-92038105D01*
X107087421Y-92173600D01*
X107301507Y-92273429D01*
X107301516Y-92273433D01*
X107515000Y-92330634D01*
X107515000Y-91435501D01*
X107622685Y-91484680D01*
X107729237Y-91500000D01*
X107800763Y-91500000D01*
X107907315Y-91484680D01*
X108015000Y-91435501D01*
X108015000Y-92330633D01*
X108228483Y-92273433D01*
X108228492Y-92273429D01*
X108442578Y-92173600D01*
X108636082Y-92038105D01*
X108803105Y-91871082D01*
X108938600Y-91677578D01*
X109038429Y-91463492D01*
X109038432Y-91463486D01*
X109095636Y-91250000D01*
X108198686Y-91250000D01*
X108224493Y-91209844D01*
X108265000Y-91071889D01*
X108265000Y-90928111D01*
X108224493Y-90790156D01*
X108198686Y-90750000D01*
X109095636Y-90750000D01*
X109095635Y-90749999D01*
X109038432Y-90536513D01*
X109038429Y-90536507D01*
X108938600Y-90322422D01*
X108938599Y-90322420D01*
X108803113Y-90128926D01*
X108803108Y-90128920D01*
X108636082Y-89961894D01*
X108442578Y-89826399D01*
X108228492Y-89726570D01*
X108228486Y-89726567D01*
X108015000Y-89669364D01*
X108015000Y-90564498D01*
X107907315Y-90515320D01*
X107800763Y-90500000D01*
X107729237Y-90500000D01*
X107622685Y-90515320D01*
X107515000Y-90564498D01*
X107515000Y-89669364D01*
X107514999Y-89669364D01*
X107301513Y-89726567D01*
X107301507Y-89726570D01*
X107087422Y-89826399D01*
X107087420Y-89826400D01*
X106893926Y-89961886D01*
X106771865Y-90083947D01*
X106710542Y-90117431D01*
X106640850Y-90112447D01*
X106584917Y-90070575D01*
X106568002Y-90039598D01*
X106566510Y-90035599D01*
X106530925Y-89940189D01*
X106518797Y-89907671D01*
X106518793Y-89907664D01*
X106432547Y-89792455D01*
X106432544Y-89792452D01*
X106317335Y-89706206D01*
X106317328Y-89706202D01*
X106182482Y-89655908D01*
X106182483Y-89655908D01*
X106122883Y-89649501D01*
X106122881Y-89649500D01*
X106122873Y-89649500D01*
X106122864Y-89649500D01*
X104327129Y-89649500D01*
X104327123Y-89649501D01*
X104267516Y-89655908D01*
X104132671Y-89706202D01*
X104132664Y-89706206D01*
X104017455Y-89792452D01*
X104017452Y-89792455D01*
X103931206Y-89907664D01*
X103931202Y-89907671D01*
X103880908Y-90042517D01*
X103874501Y-90102116D01*
X103874500Y-90102135D01*
X103874500Y-90939546D01*
X103854815Y-91006585D01*
X103838181Y-91027227D01*
X101652226Y-93213181D01*
X101590903Y-93246666D01*
X101564545Y-93249500D01*
X101199998Y-93249500D01*
X101199980Y-93249501D01*
X101097203Y-93260000D01*
X101097200Y-93260001D01*
X100930668Y-93315185D01*
X100930663Y-93315187D01*
X100869690Y-93352796D01*
X100814595Y-93386778D01*
X100747204Y-93405218D01*
X100680541Y-93384295D01*
X100635771Y-93330653D01*
X100625500Y-93281239D01*
X100625500Y-90082742D01*
X100627224Y-90067122D01*
X100626939Y-90067095D01*
X100627673Y-90059333D01*
X100625561Y-89992112D01*
X100625500Y-89988218D01*
X100625500Y-89960656D01*
X100625500Y-89960650D01*
X100624996Y-89956668D01*
X100624081Y-89945029D01*
X100622710Y-89901373D01*
X100617119Y-89882130D01*
X100613173Y-89863078D01*
X100610664Y-89843208D01*
X100594579Y-89802583D01*
X100590806Y-89791562D01*
X100578618Y-89749610D01*
X100578617Y-89749609D01*
X100578617Y-89749607D01*
X100578616Y-89749606D01*
X100568423Y-89732371D01*
X100559861Y-89714894D01*
X100552487Y-89696269D01*
X100526816Y-89660937D01*
X100520405Y-89651177D01*
X100498170Y-89613580D01*
X100498168Y-89613578D01*
X100498165Y-89613574D01*
X100484006Y-89599415D01*
X100471368Y-89584619D01*
X100459594Y-89568413D01*
X100425940Y-89540572D01*
X100417299Y-89532709D01*
X99500803Y-88616212D01*
X99490980Y-88603950D01*
X99490759Y-88604134D01*
X99485786Y-88598122D01*
X99436776Y-88552099D01*
X99433977Y-88549386D01*
X99414477Y-88529885D01*
X99414471Y-88529880D01*
X99411286Y-88527409D01*
X99402434Y-88519848D01*
X99370582Y-88489938D01*
X99370580Y-88489936D01*
X99370577Y-88489935D01*
X99353029Y-88480288D01*
X99336763Y-88469604D01*
X99320932Y-88457324D01*
X99280849Y-88439978D01*
X99270363Y-88434841D01*
X99232094Y-88413803D01*
X99232092Y-88413802D01*
X99212693Y-88408822D01*
X99194281Y-88402518D01*
X99175898Y-88394562D01*
X99175892Y-88394560D01*
X99132760Y-88387729D01*
X99121322Y-88385361D01*
X99079020Y-88374500D01*
X99079019Y-88374500D01*
X99058984Y-88374500D01*
X99039586Y-88372973D01*
X99032162Y-88371797D01*
X99019805Y-88369840D01*
X99019804Y-88369840D01*
X98976325Y-88373950D01*
X98964656Y-88374500D01*
X85670237Y-88374500D01*
X85654620Y-88372776D01*
X85654593Y-88373062D01*
X85646831Y-88372327D01*
X85579644Y-88374439D01*
X85575750Y-88374500D01*
X85548150Y-88374500D01*
X85544462Y-88374965D01*
X85544149Y-88375005D01*
X85532531Y-88375918D01*
X85488872Y-88377290D01*
X85488869Y-88377291D01*
X85469626Y-88382881D01*
X85450583Y-88386825D01*
X85430704Y-88389336D01*
X85430703Y-88389337D01*
X85390093Y-88405415D01*
X85379048Y-88409197D01*
X85337108Y-88421383D01*
X85337104Y-88421385D01*
X85319865Y-88431580D01*
X85302398Y-88440137D01*
X85283769Y-88447512D01*
X85283767Y-88447514D01*
X85248426Y-88473189D01*
X85238668Y-88479599D01*
X85201080Y-88501828D01*
X85186908Y-88516000D01*
X85172123Y-88528628D01*
X85155912Y-88540407D01*
X85128071Y-88574059D01*
X85120211Y-88582696D01*
X78164726Y-95538181D01*
X78103403Y-95571666D01*
X78077045Y-95574500D01*
X77499998Y-95574500D01*
X77499980Y-95574501D01*
X77397203Y-95585000D01*
X77397200Y-95585001D01*
X77230668Y-95640185D01*
X77230663Y-95640187D01*
X77081342Y-95732289D01*
X76957289Y-95856342D01*
X76865187Y-96005663D01*
X76865185Y-96005668D01*
X76845327Y-96065597D01*
X76810001Y-96172203D01*
X76810001Y-96172204D01*
X76810000Y-96172204D01*
X76799500Y-96274983D01*
X76799500Y-96900001D01*
X76799501Y-96900019D01*
X76810000Y-97002796D01*
X76810001Y-97002799D01*
X76865185Y-97169331D01*
X76865187Y-97169336D01*
X76873227Y-97182371D01*
X76953851Y-97313084D01*
X76957289Y-97318657D01*
X77050951Y-97412319D01*
X77084436Y-97473642D01*
X77079452Y-97543334D01*
X77050951Y-97587681D01*
X76957289Y-97681342D01*
X76865187Y-97830663D01*
X76865185Y-97830668D01*
X76864961Y-97831344D01*
X76810001Y-97997203D01*
X76810001Y-97997204D01*
X76810000Y-97997204D01*
X76799500Y-98099983D01*
X76799500Y-98725001D01*
X73500500Y-98725001D01*
X73500500Y-90500002D01*
X74744726Y-90500002D01*
X74763808Y-90851954D01*
X74792977Y-91029880D01*
X74814607Y-91161819D01*
X74820833Y-91199793D01*
X74820834Y-91199796D01*
X74915126Y-91539408D01*
X74915127Y-91539410D01*
X75045588Y-91866844D01*
X75045597Y-91866862D01*
X75170921Y-92103248D01*
X75210695Y-92178269D01*
X75399854Y-92457258D01*
X75408498Y-92470006D01*
X75408505Y-92470016D01*
X75627960Y-92728377D01*
X75636686Y-92738650D01*
X75892580Y-92981046D01*
X76173182Y-93194354D01*
X76475202Y-93376074D01*
X76475206Y-93376075D01*
X76475210Y-93376078D01*
X76795088Y-93524070D01*
X76795092Y-93524070D01*
X76795099Y-93524074D01*
X77129122Y-93636619D01*
X77473355Y-93712391D01*
X77823763Y-93750500D01*
X77823769Y-93750500D01*
X78176231Y-93750500D01*
X78176237Y-93750500D01*
X78526645Y-93712391D01*
X78870878Y-93636619D01*
X79204901Y-93524074D01*
X79204908Y-93524070D01*
X79204911Y-93524070D01*
X79461804Y-93405218D01*
X79524798Y-93376074D01*
X79826818Y-93194354D01*
X80107420Y-92981046D01*
X80363314Y-92738650D01*
X80591501Y-92470008D01*
X80789305Y-92178269D01*
X80954407Y-91866854D01*
X81084871Y-91539414D01*
X81095066Y-91502697D01*
X81131458Y-91371624D01*
X81179168Y-91199788D01*
X81236191Y-90851957D01*
X81254955Y-90505880D01*
X81255274Y-90500002D01*
X81255274Y-90499997D01*
X81236957Y-90162173D01*
X81236191Y-90148043D01*
X81179168Y-89800212D01*
X81130943Y-89626522D01*
X81084873Y-89460591D01*
X81084872Y-89460589D01*
X80954411Y-89133155D01*
X80954402Y-89133137D01*
X80789304Y-88821730D01*
X80591501Y-88529992D01*
X80591497Y-88529987D01*
X80591494Y-88529983D01*
X80363314Y-88261350D01*
X80107420Y-88018954D01*
X80107413Y-88018948D01*
X80107410Y-88018946D01*
X79826815Y-87805644D01*
X79524802Y-87623928D01*
X79524789Y-87623921D01*
X79204911Y-87475929D01*
X79204906Y-87475928D01*
X79204903Y-87475927D01*
X79204901Y-87475926D01*
X79098432Y-87440052D01*
X78870880Y-87363381D01*
X78526643Y-87287608D01*
X78176238Y-87249500D01*
X78176237Y-87249500D01*
X77823763Y-87249500D01*
X77823761Y-87249500D01*
X77473356Y-87287608D01*
X77129119Y-87363381D01*
X76795093Y-87475928D01*
X76795088Y-87475929D01*
X76475210Y-87623921D01*
X76475197Y-87623928D01*
X76173184Y-87805644D01*
X75892589Y-88018946D01*
X75892580Y-88018954D01*
X75636685Y-88261350D01*
X75408505Y-88529983D01*
X75408498Y-88529993D01*
X75210695Y-88821730D01*
X75045597Y-89133137D01*
X75045588Y-89133155D01*
X74915127Y-89460589D01*
X74915126Y-89460591D01*
X74820834Y-89800203D01*
X74820833Y-89800206D01*
X74763808Y-90148045D01*
X74744726Y-90499997D01*
X74744726Y-90500002D01*
X73500500Y-90500002D01*
X73500500Y-86124500D01*
X73520185Y-86057461D01*
X73572989Y-86011706D01*
X73624500Y-86000500D01*
X150375500Y-86000500D01*
X150442539Y-86020185D01*
G37*
%TD.AperFunction*%
%TD*%
M02*
