%TF.GenerationSoftware,KiCad,Pcbnew,8.0.0*%
%TF.CreationDate,2024-03-20T13:11:21+01:00*%
%TF.ProjectId,tcvr,74637672-2e6b-4696-9361-645f70636258,rev?*%
%TF.SameCoordinates,Original*%
%TF.FileFunction,Copper,L1,Top*%
%TF.FilePolarity,Positive*%
%FSLAX46Y46*%
G04 Gerber Fmt 4.6, Leading zero omitted, Abs format (unit mm)*
G04 Created by KiCad (PCBNEW 8.0.0) date 2024-03-20 13:11:21*
%MOMM*%
%LPD*%
G01*
G04 APERTURE LIST*
G04 Aperture macros list*
%AMRoundRect*
0 Rectangle with rounded corners*
0 $1 Rounding radius*
0 $2 $3 $4 $5 $6 $7 $8 $9 X,Y pos of 4 corners*
0 Add a 4 corners polygon primitive as box body*
4,1,4,$2,$3,$4,$5,$6,$7,$8,$9,$2,$3,0*
0 Add four circle primitives for the rounded corners*
1,1,$1+$1,$2,$3*
1,1,$1+$1,$4,$5*
1,1,$1+$1,$6,$7*
1,1,$1+$1,$8,$9*
0 Add four rect primitives between the rounded corners*
20,1,$1+$1,$2,$3,$4,$5,0*
20,1,$1+$1,$4,$5,$6,$7,0*
20,1,$1+$1,$6,$7,$8,$9,0*
20,1,$1+$1,$8,$9,$2,$3,0*%
G04 Aperture macros list end*
%ADD10C,0.200000*%
%TA.AperFunction,NonConductor*%
%ADD11C,0.200000*%
%TD*%
%TA.AperFunction,SMDPad,CuDef*%
%ADD12RoundRect,0.250000X-0.475000X0.250000X-0.475000X-0.250000X0.475000X-0.250000X0.475000X0.250000X0*%
%TD*%
%TA.AperFunction,SMDPad,CuDef*%
%ADD13RoundRect,0.250000X0.250000X0.250000X-0.250000X0.250000X-0.250000X-0.250000X0.250000X-0.250000X0*%
%TD*%
%TA.AperFunction,SMDPad,CuDef*%
%ADD14RoundRect,0.250000X0.475000X-0.250000X0.475000X0.250000X-0.475000X0.250000X-0.475000X-0.250000X0*%
%TD*%
%TA.AperFunction,SMDPad,CuDef*%
%ADD15RoundRect,0.250000X-0.450000X0.262500X-0.450000X-0.262500X0.450000X-0.262500X0.450000X0.262500X0*%
%TD*%
%TA.AperFunction,SMDPad,CuDef*%
%ADD16RoundRect,0.250000X-0.325000X-0.650000X0.325000X-0.650000X0.325000X0.650000X-0.325000X0.650000X0*%
%TD*%
%TA.AperFunction,SMDPad,CuDef*%
%ADD17RoundRect,0.250000X-0.262500X-0.450000X0.262500X-0.450000X0.262500X0.450000X-0.262500X0.450000X0*%
%TD*%
%TA.AperFunction,SMDPad,CuDef*%
%ADD18RoundRect,0.250000X0.650000X-0.325000X0.650000X0.325000X-0.650000X0.325000X-0.650000X-0.325000X0*%
%TD*%
%TA.AperFunction,SMDPad,CuDef*%
%ADD19RoundRect,2.500000X2.500000X-2.500000X2.500000X2.500000X-2.500000X2.500000X-2.500000X-2.500000X0*%
%TD*%
%TA.AperFunction,SMDPad,CuDef*%
%ADD20RoundRect,0.250000X-0.250000X-0.475000X0.250000X-0.475000X0.250000X0.475000X-0.250000X0.475000X0*%
%TD*%
%TA.AperFunction,SMDPad,CuDef*%
%ADD21R,2.000000X1.500000*%
%TD*%
%TA.AperFunction,SMDPad,CuDef*%
%ADD22R,2.000000X3.800000*%
%TD*%
%TA.AperFunction,ComponentPad*%
%ADD23C,1.500000*%
%TD*%
%TA.AperFunction,SMDPad,CuDef*%
%ADD24RoundRect,0.250000X0.450000X-0.262500X0.450000X0.262500X-0.450000X0.262500X-0.450000X-0.262500X0*%
%TD*%
%TA.AperFunction,SMDPad,CuDef*%
%ADD25RoundRect,0.150000X-0.587500X-0.150000X0.587500X-0.150000X0.587500X0.150000X-0.587500X0.150000X0*%
%TD*%
%TA.AperFunction,ComponentPad*%
%ADD26R,1.700000X1.700000*%
%TD*%
%TA.AperFunction,ComponentPad*%
%ADD27O,1.700000X1.700000*%
%TD*%
%TA.AperFunction,ComponentPad*%
%ADD28C,2.000000*%
%TD*%
%TA.AperFunction,ComponentPad*%
%ADD29O,2.000000X2.000000*%
%TD*%
%TA.AperFunction,SMDPad,CuDef*%
%ADD30RoundRect,0.250000X-0.250000X-0.250000X0.250000X-0.250000X0.250000X0.250000X-0.250000X0.250000X0*%
%TD*%
%TA.AperFunction,SMDPad,CuDef*%
%ADD31RoundRect,0.500000X-2.000000X-0.500000X2.000000X-0.500000X2.000000X0.500000X-2.000000X0.500000X0*%
%TD*%
%TA.AperFunction,ComponentPad*%
%ADD32C,2.286000*%
%TD*%
%TA.AperFunction,ComponentPad*%
%ADD33C,5.500000*%
%TD*%
%TA.AperFunction,SMDPad,CuDef*%
%ADD34RoundRect,0.150000X-0.825000X-0.150000X0.825000X-0.150000X0.825000X0.150000X-0.825000X0.150000X0*%
%TD*%
%TA.AperFunction,SMDPad,CuDef*%
%ADD35RoundRect,0.250000X-1.075000X0.375000X-1.075000X-0.375000X1.075000X-0.375000X1.075000X0.375000X0*%
%TD*%
%TA.AperFunction,SMDPad,CuDef*%
%ADD36RoundRect,0.250000X0.250000X-0.250000X0.250000X0.250000X-0.250000X0.250000X-0.250000X-0.250000X0*%
%TD*%
%TA.AperFunction,SMDPad,CuDef*%
%ADD37RoundRect,0.250000X0.325000X0.650000X-0.325000X0.650000X-0.325000X-0.650000X0.325000X-0.650000X0*%
%TD*%
%TA.AperFunction,Conductor*%
%ADD38C,0.500000*%
%TD*%
G04 APERTURE END LIST*
D10*
D11*
X90961904Y-113663123D02*
X90961904Y-114958361D01*
X90961904Y-114958361D02*
X90885714Y-115110742D01*
X90885714Y-115110742D02*
X90809523Y-115186933D01*
X90809523Y-115186933D02*
X90657142Y-115263123D01*
X90657142Y-115263123D02*
X90428571Y-115263123D01*
X90428571Y-115263123D02*
X90276190Y-115186933D01*
X90961904Y-114653600D02*
X90809523Y-114729790D01*
X90809523Y-114729790D02*
X90504761Y-114729790D01*
X90504761Y-114729790D02*
X90352380Y-114653600D01*
X90352380Y-114653600D02*
X90276190Y-114577409D01*
X90276190Y-114577409D02*
X90199999Y-114425028D01*
X90199999Y-114425028D02*
X90199999Y-113967885D01*
X90199999Y-113967885D02*
X90276190Y-113815504D01*
X90276190Y-113815504D02*
X90352380Y-113739314D01*
X90352380Y-113739314D02*
X90504761Y-113663123D01*
X90504761Y-113663123D02*
X90809523Y-113663123D01*
X90809523Y-113663123D02*
X90961904Y-113739314D01*
X92409523Y-114729790D02*
X92409523Y-113891695D01*
X92409523Y-113891695D02*
X92333333Y-113739314D01*
X92333333Y-113739314D02*
X92180952Y-113663123D01*
X92180952Y-113663123D02*
X91876190Y-113663123D01*
X91876190Y-113663123D02*
X91723809Y-113739314D01*
X92409523Y-114653600D02*
X92257142Y-114729790D01*
X92257142Y-114729790D02*
X91876190Y-114729790D01*
X91876190Y-114729790D02*
X91723809Y-114653600D01*
X91723809Y-114653600D02*
X91647618Y-114501219D01*
X91647618Y-114501219D02*
X91647618Y-114348838D01*
X91647618Y-114348838D02*
X91723809Y-114196457D01*
X91723809Y-114196457D02*
X91876190Y-114120266D01*
X91876190Y-114120266D02*
X92257142Y-114120266D01*
X92257142Y-114120266D02*
X92409523Y-114044076D01*
X93171428Y-114729790D02*
X93171428Y-113663123D01*
X93171428Y-113967885D02*
X93247618Y-113815504D01*
X93247618Y-113815504D02*
X93323809Y-113739314D01*
X93323809Y-113739314D02*
X93476190Y-113663123D01*
X93476190Y-113663123D02*
X93628571Y-113663123D01*
X94390475Y-114729790D02*
X94238094Y-114653600D01*
X94238094Y-114653600D02*
X94161904Y-114577409D01*
X94161904Y-114577409D02*
X94085713Y-114425028D01*
X94085713Y-114425028D02*
X94085713Y-113967885D01*
X94085713Y-113967885D02*
X94161904Y-113815504D01*
X94161904Y-113815504D02*
X94238094Y-113739314D01*
X94238094Y-113739314D02*
X94390475Y-113663123D01*
X94390475Y-113663123D02*
X94619047Y-113663123D01*
X94619047Y-113663123D02*
X94771428Y-113739314D01*
X94771428Y-113739314D02*
X94847618Y-113815504D01*
X94847618Y-113815504D02*
X94923809Y-113967885D01*
X94923809Y-113967885D02*
X94923809Y-114425028D01*
X94923809Y-114425028D02*
X94847618Y-114577409D01*
X94847618Y-114577409D02*
X94771428Y-114653600D01*
X94771428Y-114653600D02*
X94619047Y-114729790D01*
X94619047Y-114729790D02*
X94390475Y-114729790D01*
X95609523Y-114729790D02*
X95609523Y-113129790D01*
X95609523Y-113739314D02*
X95761904Y-113663123D01*
X95761904Y-113663123D02*
X96066666Y-113663123D01*
X96066666Y-113663123D02*
X96219047Y-113739314D01*
X96219047Y-113739314D02*
X96295237Y-113815504D01*
X96295237Y-113815504D02*
X96371428Y-113967885D01*
X96371428Y-113967885D02*
X96371428Y-114425028D01*
X96371428Y-114425028D02*
X96295237Y-114577409D01*
X96295237Y-114577409D02*
X96219047Y-114653600D01*
X96219047Y-114653600D02*
X96066666Y-114729790D01*
X96066666Y-114729790D02*
X95761904Y-114729790D01*
X95761904Y-114729790D02*
X95609523Y-114653600D01*
X97742856Y-114653600D02*
X97590475Y-114729790D01*
X97590475Y-114729790D02*
X97285713Y-114729790D01*
X97285713Y-114729790D02*
X97133332Y-114653600D01*
X97133332Y-114653600D02*
X97057142Y-114577409D01*
X97057142Y-114577409D02*
X96980951Y-114425028D01*
X96980951Y-114425028D02*
X96980951Y-113967885D01*
X96980951Y-113967885D02*
X97057142Y-113815504D01*
X97057142Y-113815504D02*
X97133332Y-113739314D01*
X97133332Y-113739314D02*
X97285713Y-113663123D01*
X97285713Y-113663123D02*
X97590475Y-113663123D01*
X97590475Y-113663123D02*
X97742856Y-113739314D01*
X98352380Y-114653600D02*
X98504761Y-114729790D01*
X98504761Y-114729790D02*
X98809523Y-114729790D01*
X98809523Y-114729790D02*
X98961904Y-114653600D01*
X98961904Y-114653600D02*
X99038095Y-114501219D01*
X99038095Y-114501219D02*
X99038095Y-114425028D01*
X99038095Y-114425028D02*
X98961904Y-114272647D01*
X98961904Y-114272647D02*
X98809523Y-114196457D01*
X98809523Y-114196457D02*
X98580952Y-114196457D01*
X98580952Y-114196457D02*
X98428571Y-114120266D01*
X98428571Y-114120266D02*
X98352380Y-113967885D01*
X98352380Y-113967885D02*
X98352380Y-113891695D01*
X98352380Y-113891695D02*
X98428571Y-113739314D01*
X98428571Y-113739314D02*
X98580952Y-113663123D01*
X98580952Y-113663123D02*
X98809523Y-113663123D01*
X98809523Y-113663123D02*
X98961904Y-113739314D01*
X99723809Y-114729790D02*
X99723809Y-113663123D01*
X99723809Y-113129790D02*
X99647618Y-113205980D01*
X99647618Y-113205980D02*
X99723809Y-113282171D01*
X99723809Y-113282171D02*
X99799999Y-113205980D01*
X99799999Y-113205980D02*
X99723809Y-113129790D01*
X99723809Y-113129790D02*
X99723809Y-113282171D01*
D12*
%TO.P,C3,1*%
%TO.N,Net-(Q1-B)*%
X103500000Y-98550000D03*
%TO.P,C3,2*%
%TO.N,Net-(Q1-E)*%
X103500000Y-100450000D03*
%TD*%
D13*
%TO.P,D3,1,K*%
%TO.N,Net-(D2-K)*%
X94750000Y-103000000D03*
%TO.P,D3,2,A*%
%TO.N,Net-(D3-A)*%
X92250000Y-103000000D03*
%TD*%
D14*
%TO.P,C18,1*%
%TO.N,Net-(J2-Pin_1)*%
X141500000Y-92950000D03*
%TO.P,C18,2*%
%TO.N,GND*%
X141500000Y-91050000D03*
%TD*%
D15*
%TO.P,R10,1*%
%TO.N,Net-(D1-K)*%
X78000000Y-96587500D03*
%TO.P,R10,2*%
%TO.N,Net-(D3-A)*%
X78000000Y-98412500D03*
%TD*%
D14*
%TO.P,C15,1*%
%TO.N,Net-(U1--)*%
X114500000Y-109950000D03*
%TO.P,C15,2*%
%TO.N,Net-(D2-K)*%
X114500000Y-108050000D03*
%TD*%
D12*
%TO.P,C4,1*%
%TO.N,Net-(Q1-E)*%
X103500000Y-102050000D03*
%TO.P,C4,2*%
%TO.N,GND*%
X103500000Y-103950000D03*
%TD*%
D16*
%TO.P,C14,1*%
%TO.N,Net-(U1-BYPASS)*%
X124525000Y-108500000D03*
%TO.P,C14,2*%
%TO.N,GND*%
X127475000Y-108500000D03*
%TD*%
D17*
%TO.P,R8,1*%
%TO.N,Net-(C13-Pad2)*%
X128087500Y-113500000D03*
%TO.P,R8,2*%
%TO.N,GND*%
X129912500Y-113500000D03*
%TD*%
D18*
%TO.P,C1,1*%
%TO.N,Net-(D1-K)*%
X108500000Y-96975000D03*
%TO.P,C1,2*%
%TO.N,GND*%
X108500000Y-94025000D03*
%TD*%
D19*
%TO.P,SW1,1,A*%
%TO.N,GND*%
X82500000Y-110500000D03*
%TO.P,SW1,2,B*%
%TO.N,Net-(D2-K)*%
X107500000Y-110500000D03*
%TD*%
D20*
%TO.P,C19,1*%
%TO.N,Net-(AE1-A)*%
X146550000Y-103000000D03*
%TO.P,C19,2*%
%TO.N,GND*%
X148450000Y-103000000D03*
%TD*%
D21*
%TO.P,Q3,1,B*%
%TO.N,Net-(Q3-B)*%
X118350000Y-95200000D03*
%TO.P,Q3,2,C*%
%TO.N,Net-(Q3-C)*%
X118350000Y-97500000D03*
D22*
X124650000Y-97500000D03*
D21*
%TO.P,Q3,3,E*%
%TO.N,Net-(D2-K)*%
X118350000Y-99800000D03*
%TD*%
D20*
%TO.P,C13,1*%
%TO.N,Net-(C13-Pad1)*%
X124550000Y-113500000D03*
%TO.P,C13,2*%
%TO.N,Net-(C13-Pad2)*%
X126450000Y-113500000D03*
%TD*%
D14*
%TO.P,C10,1*%
%TO.N,Net-(J2-Pin_1)*%
X131000000Y-92950000D03*
%TO.P,C10,2*%
%TO.N,GND*%
X131000000Y-91050000D03*
%TD*%
D23*
%TO.P,Y1,1,1*%
%TO.N,Net-(Q2-D)*%
X97500000Y-92050000D03*
%TO.P,Y1,2,2*%
%TO.N,Net-(Q1-B)*%
X97500000Y-96950000D03*
%TD*%
D15*
%TO.P,R9,1*%
%TO.N,Net-(D1-K)*%
X125000000Y-102087500D03*
%TO.P,R9,2*%
%TO.N,Net-(D2-A)*%
X125000000Y-103912500D03*
%TD*%
D20*
%TO.P,C20,1*%
%TO.N,Net-(AE1-A)*%
X146550000Y-106500000D03*
%TO.P,C20,2*%
%TO.N,GND*%
X148450000Y-106500000D03*
%TD*%
D24*
%TO.P,R6,1*%
%TO.N,Net-(J2-Pin_1)*%
X134500000Y-92912500D03*
%TO.P,R6,2*%
%TO.N,GND*%
X134500000Y-91087500D03*
%TD*%
D25*
%TO.P,Q2,1,G*%
%TO.N,Net-(D3-A)*%
X78062500Y-101550000D03*
%TO.P,Q2,2,S*%
%TO.N,GND*%
X78062500Y-103450000D03*
%TO.P,Q2,3,D*%
%TO.N,Net-(Q2-D)*%
X79937500Y-102500000D03*
%TD*%
D26*
%TO.P,J1,1,Pin_1*%
%TO.N,Net-(D1-A)*%
X105225000Y-91000000D03*
D27*
%TO.P,J1,2,Pin_2*%
%TO.N,GND*%
X107765000Y-91000000D03*
%TD*%
D15*
%TO.P,R2,1*%
%TO.N,Net-(Q1-E)*%
X107000000Y-102087500D03*
%TO.P,R2,2*%
%TO.N,GND*%
X107000000Y-103912500D03*
%TD*%
D26*
%TO.P,AE1,1,A*%
%TO.N,Net-(AE1-A)*%
X147500000Y-118000000D03*
%TD*%
D15*
%TO.P,R3,1*%
%TO.N,Net-(Q1-B)*%
X100000000Y-102087500D03*
%TO.P,R3,2*%
%TO.N,GND*%
X100000000Y-103912500D03*
%TD*%
%TO.P,R5,1*%
%TO.N,Net-(D2-K)*%
X118000000Y-102087500D03*
%TO.P,R5,2*%
%TO.N,GND*%
X118000000Y-103912500D03*
%TD*%
D28*
%TO.P,L3,1,1*%
%TO.N,Net-(C11-Pad1)*%
X128500000Y-96500000D03*
D29*
%TO.P,L3,2,2*%
%TO.N,Net-(J2-Pin_1)*%
X141200000Y-96500000D03*
%TD*%
D28*
%TO.P,L4,1,1*%
%TO.N,Net-(J2-Pin_1)*%
X130150000Y-104500000D03*
D29*
%TO.P,L4,2,2*%
%TO.N,Net-(AE1-A)*%
X142850000Y-104500000D03*
%TD*%
D30*
%TO.P,D2,1,K*%
%TO.N,Net-(D2-K)*%
X122750000Y-106000000D03*
%TO.P,D2,2,A*%
%TO.N,Net-(D2-A)*%
X125250000Y-106000000D03*
%TD*%
D31*
%TO.P,J2,1,Pin_1*%
%TO.N,Net-(J2-Pin_1)*%
X146500000Y-93500000D03*
%TD*%
D20*
%TO.P,C23,1*%
%TO.N,Net-(AE1-A)*%
X146550000Y-99500000D03*
%TO.P,C23,2*%
%TO.N,GND*%
X148450000Y-99500000D03*
%TD*%
D32*
%TO.P,J3,1,Pin_1*%
%TO.N,Net-(J3-Pin_1)*%
X133000000Y-110000000D03*
%TO.P,J3,2,Pin_2*%
X135500000Y-110000000D03*
%TO.P,J3,3,Pin_3*%
X140500000Y-110000000D03*
%TO.P,J3,4,Pin_4*%
X143000000Y-110000000D03*
%TO.P,J3,5,Pin_5*%
%TO.N,GND*%
X138000000Y-115000000D03*
%TD*%
D24*
%TO.P,R7,1*%
%TO.N,Net-(J2-Pin_1)*%
X138000000Y-92912500D03*
%TO.P,R7,2*%
%TO.N,GND*%
X138000000Y-91087500D03*
%TD*%
D33*
%TO.P,J4,1,Pin_1*%
%TO.N,GND*%
X78000000Y-90500000D03*
%TD*%
D20*
%TO.P,C8,1*%
%TO.N,Net-(Q3-C)*%
X127550000Y-100500000D03*
%TO.P,C8,2*%
%TO.N,Net-(C11-Pad1)*%
X129450000Y-100500000D03*
%TD*%
%TO.P,C11,1*%
%TO.N,Net-(C11-Pad1)*%
X133550000Y-100500000D03*
%TO.P,C11,2*%
%TO.N,Net-(J2-Pin_1)*%
X135450000Y-100500000D03*
%TD*%
D14*
%TO.P,C2,1*%
%TO.N,Net-(D1-K)*%
X105000000Y-96450000D03*
%TO.P,C2,2*%
%TO.N,GND*%
X105000000Y-94550000D03*
%TD*%
D20*
%TO.P,C7,1*%
%TO.N,Net-(Q1-E)*%
X109550000Y-102500000D03*
%TO.P,C7,2*%
%TO.N,Net-(Q3-B)*%
X111450000Y-102500000D03*
%TD*%
D25*
%TO.P,Q1,1,B*%
%TO.N,Net-(Q1-B)*%
X107062500Y-98550000D03*
%TO.P,Q1,2,E*%
%TO.N,Net-(Q1-E)*%
X107062500Y-100450000D03*
%TO.P,Q1,3,C*%
%TO.N,Net-(D1-K)*%
X108937500Y-99500000D03*
%TD*%
D34*
%TO.P,U1,1,GAIN*%
%TO.N,Net-(C12-Pad2)*%
X117025000Y-108595000D03*
%TO.P,U1,2,-*%
%TO.N,Net-(U1--)*%
X117025000Y-109865000D03*
%TO.P,U1,3,+*%
%TO.N,GND*%
X117025000Y-111135000D03*
%TO.P,U1,4,GND*%
X117025000Y-112405000D03*
%TO.P,U1,5*%
%TO.N,Net-(C13-Pad1)*%
X121975000Y-112405000D03*
%TO.P,U1,6,V+*%
%TO.N,Net-(D2-A)*%
X121975000Y-111135000D03*
%TO.P,U1,7,BYPASS*%
%TO.N,Net-(U1-BYPASS)*%
X121975000Y-109865000D03*
%TO.P,U1,8,GAIN*%
%TO.N,Net-(C12-Pad1)*%
X121975000Y-108595000D03*
%TD*%
D14*
%TO.P,C9,1*%
%TO.N,Net-(C11-Pad1)*%
X127500000Y-92950000D03*
%TO.P,C9,2*%
%TO.N,GND*%
X127500000Y-91050000D03*
%TD*%
D20*
%TO.P,C21,1*%
%TO.N,Net-(AE1-A)*%
X146550000Y-110000000D03*
%TO.P,C21,2*%
%TO.N,GND*%
X148450000Y-110000000D03*
%TD*%
D12*
%TO.P,C6,1*%
%TO.N,Net-(D2-K)*%
X115500000Y-102050000D03*
%TO.P,C6,2*%
%TO.N,GND*%
X115500000Y-103950000D03*
%TD*%
D15*
%TO.P,R4,1*%
%TO.N,Net-(D1-K)*%
X111500000Y-95087500D03*
%TO.P,R4,2*%
%TO.N,Net-(Q3-B)*%
X111500000Y-96912500D03*
%TD*%
D35*
%TO.P,L2,1,1*%
%TO.N,Net-(Q3-B)*%
X115500000Y-97100000D03*
%TO.P,L2,2,2*%
%TO.N,Net-(D2-K)*%
X115500000Y-99900000D03*
%TD*%
D18*
%TO.P,C16,1*%
%TO.N,Net-(D2-A)*%
X127500000Y-105975000D03*
%TO.P,C16,2*%
%TO.N,GND*%
X127500000Y-103025000D03*
%TD*%
D16*
%TO.P,C17,1*%
%TO.N,Net-(C13-Pad1)*%
X127525000Y-111000000D03*
%TO.P,C17,2*%
%TO.N,Net-(J3-Pin_1)*%
X130475000Y-111000000D03*
%TD*%
D15*
%TO.P,R1,1*%
%TO.N,Net-(D1-K)*%
X100000000Y-98587500D03*
%TO.P,R1,2*%
%TO.N,Net-(Q1-B)*%
X100000000Y-100412500D03*
%TD*%
D36*
%TO.P,D1,1,K*%
%TO.N,Net-(D1-K)*%
X101500000Y-96750000D03*
%TO.P,D1,2,A*%
%TO.N,Net-(D1-A)*%
X101500000Y-94250000D03*
%TD*%
D37*
%TO.P,C12,1*%
%TO.N,Net-(C12-Pad1)*%
X119975000Y-106000000D03*
%TO.P,C12,2*%
%TO.N,Net-(C12-Pad2)*%
X117025000Y-106000000D03*
%TD*%
D20*
%TO.P,C5,1*%
%TO.N,Net-(Q2-D)*%
X82050000Y-102500000D03*
%TO.P,C5,2*%
%TO.N,GND*%
X83950000Y-102500000D03*
%TD*%
%TO.P,C22,1*%
%TO.N,Net-(AE1-A)*%
X146550000Y-113500000D03*
%TO.P,C22,2*%
%TO.N,GND*%
X148450000Y-113500000D03*
%TD*%
D28*
%TO.P,L1,1,1*%
%TO.N,Net-(D1-K)*%
X111000000Y-91500000D03*
D29*
%TO.P,L1,2,2*%
%TO.N,Net-(Q3-C)*%
X123700000Y-91500000D03*
%TD*%
D38*
%TO.N,GND*%
X100000000Y-103912500D02*
X99912500Y-103912500D01*
X93500000Y-102000000D02*
X93500000Y-105000000D01*
X127500000Y-104003122D02*
X128850000Y-105353122D01*
X82500000Y-107887500D02*
X82500000Y-110500000D01*
X106962500Y-103950000D02*
X107000000Y-103912500D01*
X131000000Y-91050000D02*
X134462500Y-91050000D01*
X99912500Y-103912500D02*
X97500000Y-101500000D01*
X141462500Y-91087500D02*
X141500000Y-91050000D01*
X97500000Y-101500000D02*
X94000000Y-101500000D01*
X148450000Y-113500000D02*
X148450000Y-110000000D01*
X134500000Y-91087500D02*
X138000000Y-91087500D01*
X88000000Y-110500000D02*
X82500000Y-110500000D01*
X117025000Y-111135000D02*
X117025000Y-112405000D01*
X83950000Y-109050000D02*
X82500000Y-110500000D01*
X129000000Y-112587500D02*
X129000000Y-109000000D01*
X129000000Y-109000000D02*
X128500000Y-108500000D01*
X127500000Y-91050000D02*
X131000000Y-91050000D01*
X100000000Y-103912500D02*
X103462500Y-103912500D01*
X138000000Y-91087500D02*
X141462500Y-91087500D01*
X105000000Y-94550000D02*
X107975000Y-94550000D01*
X129912500Y-113500000D02*
X129000000Y-112587500D01*
X107975000Y-94550000D02*
X108500000Y-94025000D01*
X128500000Y-108500000D02*
X127475000Y-108500000D01*
X148450000Y-110000000D02*
X148450000Y-106500000D01*
X117962500Y-103950000D02*
X118000000Y-103912500D01*
X128850000Y-105353122D02*
X128850000Y-107125000D01*
X93500000Y-105000000D02*
X88000000Y-110500000D01*
X148450000Y-106500000D02*
X148450000Y-103000000D01*
X148450000Y-99500000D02*
X148450000Y-103000000D01*
X128850000Y-107125000D02*
X127475000Y-108500000D01*
X107765000Y-93290000D02*
X107765000Y-91000000D01*
X134462500Y-91050000D02*
X134500000Y-91087500D01*
X94000000Y-101500000D02*
X93500000Y-102000000D01*
X127500000Y-103025000D02*
X127500000Y-104003122D01*
X103462500Y-103912500D02*
X103500000Y-103950000D01*
X103500000Y-103950000D02*
X106962500Y-103950000D01*
X108500000Y-94025000D02*
X107765000Y-93290000D01*
%TO.N,Net-(D2-K)*%
X115500000Y-99900000D02*
X115500000Y-102050000D01*
X114450000Y-102050000D02*
X115500000Y-102050000D01*
X118350000Y-99800000D02*
X115600000Y-99800000D01*
X122750000Y-106000000D02*
X122750000Y-105250000D01*
X109950000Y-108050000D02*
X107500000Y-110500000D01*
X94750000Y-103000000D02*
X94750000Y-109250000D01*
X94750000Y-109250000D02*
X96000000Y-110500000D01*
X113500000Y-103000000D02*
X114450000Y-102050000D01*
X118000000Y-100150000D02*
X118350000Y-99800000D01*
X118000000Y-102087500D02*
X118000000Y-100150000D01*
X96000000Y-110500000D02*
X107500000Y-110500000D01*
X114500000Y-108050000D02*
X113500000Y-107050000D01*
X119587500Y-102087500D02*
X118000000Y-102087500D01*
X115600000Y-99800000D02*
X115500000Y-99900000D01*
X114500000Y-108050000D02*
X109950000Y-108050000D01*
X122750000Y-105250000D02*
X119587500Y-102087500D01*
X113500000Y-107050000D02*
X113500000Y-103000000D01*
%TO.N,Net-(J3-Pin_1)*%
X140500000Y-110000000D02*
X143000000Y-110000000D01*
X140500000Y-110000000D02*
X135500000Y-110000000D01*
X130475000Y-111000000D02*
X131475000Y-110000000D01*
X131475000Y-110000000D02*
X133000000Y-110000000D01*
X133000000Y-110000000D02*
X135500000Y-110000000D01*
%TO.N,Net-(J2-Pin_1)*%
X135450000Y-97400000D02*
X131000000Y-92950000D01*
X138000000Y-92912500D02*
X141462500Y-92912500D01*
X134500000Y-92912500D02*
X138000000Y-92912500D01*
X135450000Y-100500000D02*
X131450000Y-104500000D01*
X135450000Y-100500000D02*
X135450000Y-97400000D01*
X146500000Y-93500000D02*
X142050000Y-93500000D01*
X131000000Y-92950000D02*
X134462500Y-92950000D01*
X141462500Y-92912500D02*
X141500000Y-92950000D01*
X141500000Y-92950000D02*
X141500000Y-96200000D01*
X134462500Y-92950000D02*
X134500000Y-92912500D01*
X141500000Y-96200000D02*
X141200000Y-96500000D01*
X131450000Y-104500000D02*
X130150000Y-104500000D01*
X142050000Y-93500000D02*
X141500000Y-92950000D01*
%TO.N,Net-(D1-K)*%
X120000000Y-91500000D02*
X111000000Y-91500000D01*
X100000000Y-90000000D02*
X99000000Y-89000000D01*
X111500000Y-95087500D02*
X111500000Y-92000000D01*
X110412500Y-95087500D02*
X111500000Y-95087500D01*
X108500000Y-99062500D02*
X108937500Y-99500000D01*
X108500000Y-96975000D02*
X109975000Y-95500000D01*
X101500000Y-96750000D02*
X101500000Y-97087500D01*
X99000000Y-89000000D02*
X85587500Y-89000000D01*
X105000000Y-96450000D02*
X107975000Y-96450000D01*
X104700000Y-96750000D02*
X105000000Y-96450000D01*
X101500000Y-96750000D02*
X104700000Y-96750000D01*
X125000000Y-102087500D02*
X124087500Y-102087500D01*
X107975000Y-96450000D02*
X108500000Y-96975000D01*
X121500000Y-99500000D02*
X121500000Y-93000000D01*
X101500000Y-97087500D02*
X100000000Y-98587500D01*
X124087500Y-102087500D02*
X121500000Y-99500000D01*
X108500000Y-96975000D02*
X108500000Y-99062500D01*
X109975000Y-95500000D02*
X110000000Y-95500000D01*
X100000000Y-98587500D02*
X100000000Y-90000000D01*
X110000000Y-95500000D02*
X110412500Y-95087500D01*
X111500000Y-92000000D02*
X111000000Y-91500000D01*
X85587500Y-89000000D02*
X78000000Y-96587500D01*
X121500000Y-93000000D02*
X120000000Y-91500000D01*
%TO.N,Net-(D2-A)*%
X126000000Y-106500000D02*
X126000000Y-110000000D01*
X124865000Y-111135000D02*
X121975000Y-111135000D01*
X125000000Y-105750000D02*
X125250000Y-106000000D01*
X125250000Y-106000000D02*
X125500000Y-106000000D01*
X127475000Y-106000000D02*
X127500000Y-105975000D01*
X125250000Y-106000000D02*
X127475000Y-106000000D01*
X125000000Y-103912500D02*
X125000000Y-105750000D01*
X126000000Y-110000000D02*
X124865000Y-111135000D01*
X125500000Y-106000000D02*
X126000000Y-106500000D01*
%TO.N,Net-(C13-Pad2)*%
X126450000Y-113500000D02*
X128087500Y-113500000D01*
%TO.N,Net-(Q3-B)*%
X111450000Y-102500000D02*
X111450000Y-96962500D01*
X111500000Y-96912500D02*
X115312500Y-96912500D01*
X115500000Y-97100000D02*
X117400000Y-95200000D01*
X111450000Y-96962500D02*
X111500000Y-96912500D01*
X115312500Y-96912500D02*
X115500000Y-97100000D01*
X117400000Y-95200000D02*
X118350000Y-95200000D01*
X111500000Y-96912500D02*
X111500000Y-97000000D01*
%TO.N,Net-(Q1-B)*%
X107062500Y-98550000D02*
X103500000Y-98550000D01*
X100587500Y-100412500D02*
X102450000Y-98550000D01*
X100000000Y-100412500D02*
X100587500Y-100412500D01*
X98412500Y-100412500D02*
X97500000Y-99500000D01*
X97500000Y-99500000D02*
X97500000Y-96950000D01*
X100000000Y-100412500D02*
X98412500Y-100412500D01*
X102450000Y-98550000D02*
X103500000Y-98550000D01*
X100000000Y-102087500D02*
X100000000Y-100412500D01*
%TO.N,Net-(Q1-E)*%
X107000000Y-102087500D02*
X107000000Y-100512500D01*
X103537500Y-102087500D02*
X103500000Y-102050000D01*
X109137500Y-102087500D02*
X109550000Y-102500000D01*
X107000000Y-102087500D02*
X103537500Y-102087500D01*
X107000000Y-100512500D02*
X107062500Y-100450000D01*
X103500000Y-100450000D02*
X103500000Y-102050000D01*
X107000000Y-102087500D02*
X109137500Y-102087500D01*
%TO.N,Net-(D3-A)*%
X99000000Y-93000000D02*
X92250000Y-99750000D01*
X99000000Y-91500000D02*
X99000000Y-93000000D01*
X92250000Y-99750000D02*
X92250000Y-103000000D01*
X78000000Y-98412500D02*
X78000000Y-101487500D01*
X78062500Y-101550000D02*
X89000000Y-90612500D01*
X89000000Y-90500000D02*
X98000000Y-90500000D01*
X98000000Y-90500000D02*
X99000000Y-91500000D01*
X89000000Y-90612500D02*
X89000000Y-90500000D01*
X78000000Y-101487500D02*
X78062500Y-101550000D01*
%TO.N,Net-(Q2-D)*%
X82050000Y-102500000D02*
X92500000Y-92050000D01*
X79937500Y-102500000D02*
X82050000Y-102500000D01*
X92500000Y-92050000D02*
X97500000Y-92050000D01*
%TO.N,Net-(Q3-C)*%
X124650000Y-92450000D02*
X123700000Y-91500000D01*
X124650000Y-97500000D02*
X124650000Y-97600000D01*
X124650000Y-97600000D02*
X127550000Y-100500000D01*
X124650000Y-97500000D02*
X124650000Y-92450000D01*
%TO.N,Net-(C12-Pad2)*%
X117025000Y-106500000D02*
X117025000Y-108595000D01*
%TO.N,Net-(U1--)*%
X116940000Y-109950000D02*
X117025000Y-109865000D01*
X114500000Y-109950000D02*
X116940000Y-109950000D01*
%TO.N,Net-(C13-Pad1)*%
X124550000Y-113500000D02*
X123455000Y-112405000D01*
X127525000Y-111000000D02*
X127050000Y-111000000D01*
X127050000Y-111000000D02*
X124550000Y-113500000D01*
X123455000Y-112405000D02*
X121975000Y-112405000D01*
%TO.N,Net-(U1-BYPASS)*%
X121975000Y-109865000D02*
X123160000Y-109865000D01*
X123160000Y-109865000D02*
X124525000Y-108500000D01*
%TO.N,Net-(C12-Pad1)*%
X119975000Y-106500000D02*
X121975000Y-108500000D01*
X121975000Y-108500000D02*
X121975000Y-108595000D01*
%TO.N,Net-(C11-Pad1)*%
X128500000Y-96500000D02*
X128500000Y-93950000D01*
X129450000Y-100500000D02*
X133550000Y-100500000D01*
X128500000Y-93950000D02*
X127500000Y-92950000D01*
X129450000Y-97450000D02*
X128500000Y-96500000D01*
X129450000Y-100500000D02*
X129450000Y-97450000D01*
%TO.N,Net-(AE1-A)*%
X145050000Y-104500000D02*
X146550000Y-103000000D01*
X146550000Y-113500000D02*
X146550000Y-117050000D01*
X146550000Y-113500000D02*
X146550000Y-110000000D01*
X142850000Y-104500000D02*
X145050000Y-104500000D01*
X146550000Y-103000000D02*
X146550000Y-106500000D01*
X146550000Y-117050000D02*
X147500000Y-118000000D01*
X146550000Y-99500000D02*
X146550000Y-103000000D01*
X146550000Y-110000000D02*
X146550000Y-106500000D01*
%TO.N,Net-(D1-A)*%
X101500000Y-94250000D02*
X104750000Y-91000000D01*
X104750000Y-91000000D02*
X105225000Y-91000000D01*
%TD*%
%TA.AperFunction,Conductor*%
%TO.N,GND*%
G36*
X119704809Y-92270185D02*
G01*
X119725451Y-92286819D01*
X120713181Y-93274548D01*
X120746666Y-93335871D01*
X120749500Y-93362229D01*
X120749500Y-99573918D01*
X120749500Y-99573920D01*
X120749499Y-99573920D01*
X120778340Y-99718907D01*
X120778343Y-99718917D01*
X120834913Y-99855490D01*
X120834914Y-99855491D01*
X120834916Y-99855495D01*
X120847226Y-99873918D01*
X120914764Y-99974998D01*
X120917051Y-99978420D01*
X120917052Y-99978421D01*
X123504549Y-102565916D01*
X123609084Y-102670451D01*
X123609087Y-102670453D01*
X123609088Y-102670454D01*
X123732003Y-102752583D01*
X123732004Y-102752583D01*
X123732005Y-102752584D01*
X123778052Y-102771657D01*
X123778053Y-102771658D01*
X123778054Y-102771658D01*
X123868588Y-102809159D01*
X123930565Y-102821486D01*
X123992474Y-102853869D01*
X123994054Y-102855422D01*
X124050951Y-102912319D01*
X124084436Y-102973642D01*
X124079452Y-103043334D01*
X124050951Y-103087681D01*
X123957289Y-103181342D01*
X123865187Y-103330663D01*
X123865185Y-103330668D01*
X123846852Y-103385995D01*
X123810001Y-103497203D01*
X123810001Y-103497204D01*
X123810000Y-103497204D01*
X123799500Y-103599983D01*
X123799500Y-103599996D01*
X123799501Y-104224998D01*
X123799501Y-104225019D01*
X123810000Y-104327796D01*
X123810001Y-104327799D01*
X123865185Y-104494331D01*
X123865187Y-104494336D01*
X123881246Y-104520371D01*
X123957288Y-104643656D01*
X124081344Y-104767712D01*
X124190597Y-104835099D01*
X124237321Y-104887047D01*
X124249500Y-104940638D01*
X124249500Y-106300001D01*
X124249501Y-106300019D01*
X124260000Y-106402796D01*
X124260001Y-106402799D01*
X124276569Y-106452797D01*
X124315186Y-106569334D01*
X124388237Y-106687770D01*
X124407289Y-106718657D01*
X124531344Y-106842712D01*
X124575522Y-106869961D01*
X124622247Y-106921909D01*
X124633470Y-106990871D01*
X124605627Y-107054953D01*
X124547558Y-107093810D01*
X124510426Y-107099500D01*
X124149998Y-107099500D01*
X124149980Y-107099501D01*
X124047203Y-107110000D01*
X124047200Y-107110001D01*
X123880668Y-107165185D01*
X123880663Y-107165187D01*
X123731342Y-107257289D01*
X123607289Y-107381342D01*
X123515187Y-107530663D01*
X123515185Y-107530668D01*
X123487349Y-107614670D01*
X123460001Y-107697203D01*
X123460001Y-107697204D01*
X123460000Y-107697204D01*
X123449500Y-107799983D01*
X123449500Y-107875191D01*
X123429815Y-107942230D01*
X123377011Y-107987985D01*
X123307853Y-107997929D01*
X123244297Y-107968904D01*
X123237819Y-107962872D01*
X123201870Y-107926923D01*
X123201862Y-107926917D01*
X123078964Y-107854236D01*
X123060398Y-107843256D01*
X123060397Y-107843255D01*
X123060396Y-107843255D01*
X123060393Y-107843254D01*
X122902573Y-107797402D01*
X122902567Y-107797401D01*
X122865701Y-107794500D01*
X122865694Y-107794500D01*
X122382229Y-107794500D01*
X122315190Y-107774815D01*
X122294548Y-107758181D01*
X121086818Y-106550451D01*
X121053333Y-106489128D01*
X121050499Y-106462770D01*
X121050499Y-105299998D01*
X121050498Y-105299981D01*
X121039999Y-105197203D01*
X121039998Y-105197200D01*
X121037360Y-105189238D01*
X120984814Y-105030666D01*
X120892712Y-104881344D01*
X120768656Y-104757288D01*
X120657173Y-104688525D01*
X120619336Y-104665187D01*
X120619331Y-104665185D01*
X120612088Y-104662785D01*
X120452797Y-104610001D01*
X120452795Y-104610000D01*
X120350010Y-104599500D01*
X119599998Y-104599500D01*
X119599980Y-104599501D01*
X119497203Y-104610000D01*
X119497200Y-104610001D01*
X119330668Y-104665185D01*
X119330659Y-104665189D01*
X119288801Y-104691008D01*
X119221409Y-104709448D01*
X119154745Y-104688525D01*
X119109976Y-104634883D01*
X119101315Y-104565552D01*
X119118167Y-104520371D01*
X119134355Y-104494126D01*
X119134358Y-104494119D01*
X119189505Y-104327697D01*
X119189506Y-104327690D01*
X119199999Y-104224986D01*
X119200000Y-104224973D01*
X119200000Y-104162500D01*
X116800001Y-104162500D01*
X116798820Y-104163681D01*
X116737497Y-104197166D01*
X116711139Y-104200000D01*
X115750000Y-104200000D01*
X115750000Y-104949999D01*
X115870197Y-104949999D01*
X115937236Y-104969684D01*
X115982991Y-105022488D01*
X115992935Y-105091646D01*
X115987905Y-105112991D01*
X115962640Y-105189238D01*
X115960000Y-105197206D01*
X115949500Y-105299983D01*
X115949500Y-106700001D01*
X115949501Y-106700018D01*
X115960000Y-106802796D01*
X115960001Y-106802799D01*
X116015185Y-106969331D01*
X116015187Y-106969336D01*
X116027932Y-106989999D01*
X116105148Y-107115187D01*
X116107289Y-107118657D01*
X116236451Y-107247819D01*
X116234559Y-107249710D01*
X116267774Y-107296583D01*
X116274500Y-107336867D01*
X116274500Y-107670500D01*
X116254815Y-107737539D01*
X116202011Y-107783294D01*
X116150500Y-107794500D01*
X116134298Y-107794500D01*
X116097432Y-107797401D01*
X116097426Y-107797402D01*
X115939606Y-107843254D01*
X115939599Y-107843257D01*
X115912619Y-107859213D01*
X115844895Y-107876396D01*
X115778633Y-107854236D01*
X115734870Y-107799769D01*
X115725499Y-107752481D01*
X115725499Y-107749998D01*
X115725498Y-107749981D01*
X115714999Y-107647203D01*
X115714998Y-107647200D01*
X115695126Y-107587230D01*
X115659814Y-107480666D01*
X115567712Y-107331344D01*
X115443656Y-107207288D01*
X115314618Y-107127697D01*
X115294336Y-107115187D01*
X115294331Y-107115185D01*
X115278684Y-107110000D01*
X115127797Y-107060001D01*
X115127795Y-107060000D01*
X115025016Y-107049500D01*
X115025009Y-107049500D01*
X114612229Y-107049500D01*
X114545190Y-107029815D01*
X114524548Y-107013181D01*
X114286819Y-106775451D01*
X114253334Y-106714128D01*
X114250500Y-106687770D01*
X114250500Y-104785523D01*
X114270185Y-104718484D01*
X114322989Y-104672729D01*
X114392147Y-104662785D01*
X114455703Y-104691810D01*
X114462181Y-104697842D01*
X114556654Y-104792315D01*
X114705875Y-104884356D01*
X114705880Y-104884358D01*
X114872302Y-104939505D01*
X114872309Y-104939506D01*
X114975019Y-104949999D01*
X115249999Y-104949999D01*
X115250000Y-104949998D01*
X115250000Y-103824000D01*
X115269685Y-103756961D01*
X115322489Y-103711206D01*
X115374000Y-103700000D01*
X116724999Y-103700000D01*
X116726180Y-103698819D01*
X116787503Y-103665334D01*
X116813861Y-103662500D01*
X119199999Y-103662500D01*
X119199999Y-103600028D01*
X119199998Y-103600013D01*
X119189505Y-103497302D01*
X119134358Y-103330880D01*
X119134356Y-103330875D01*
X119042315Y-103181654D01*
X118948695Y-103088034D01*
X118915210Y-103026711D01*
X118920194Y-102957019D01*
X118948694Y-102912673D01*
X118987050Y-102874318D01*
X119048373Y-102840833D01*
X119074730Y-102838000D01*
X119225270Y-102838000D01*
X119292309Y-102857685D01*
X119312951Y-102874319D01*
X121774571Y-105335938D01*
X121808056Y-105397261D01*
X121804596Y-105462622D01*
X121760001Y-105597200D01*
X121760000Y-105597204D01*
X121749500Y-105699983D01*
X121749500Y-106300001D01*
X121749501Y-106300019D01*
X121760000Y-106402796D01*
X121760001Y-106402799D01*
X121776569Y-106452797D01*
X121815186Y-106569334D01*
X121907288Y-106718656D01*
X122031344Y-106842712D01*
X122180666Y-106934814D01*
X122347203Y-106989999D01*
X122449991Y-107000500D01*
X123050008Y-107000499D01*
X123050016Y-107000498D01*
X123050019Y-107000498D01*
X123106302Y-106994748D01*
X123152797Y-106989999D01*
X123319334Y-106934814D01*
X123468656Y-106842712D01*
X123592712Y-106718656D01*
X123684814Y-106569334D01*
X123739999Y-106402797D01*
X123750500Y-106300009D01*
X123750499Y-105699992D01*
X123739999Y-105597203D01*
X123684814Y-105430666D01*
X123592712Y-105281344D01*
X123530338Y-105218970D01*
X123496853Y-105157647D01*
X123496402Y-105155480D01*
X123477687Y-105061395D01*
X123471658Y-105031087D01*
X123471656Y-105031082D01*
X123415087Y-104894511D01*
X123415080Y-104894498D01*
X123332952Y-104771585D01*
X123309179Y-104747812D01*
X123228416Y-104667049D01*
X122443762Y-103882395D01*
X120065921Y-101504552D01*
X120065914Y-101504546D01*
X119974783Y-101443655D01*
X119974783Y-101443656D01*
X119942995Y-101422416D01*
X119942992Y-101422414D01*
X119942991Y-101422414D01*
X119806417Y-101365843D01*
X119806407Y-101365840D01*
X119661420Y-101337000D01*
X119661418Y-101337000D01*
X119074730Y-101337000D01*
X119007691Y-101317315D01*
X118987049Y-101300681D01*
X118948548Y-101262180D01*
X118915063Y-101200857D01*
X118920047Y-101131165D01*
X118961919Y-101075232D01*
X119027383Y-101050815D01*
X119036229Y-101050499D01*
X119397871Y-101050499D01*
X119397872Y-101050499D01*
X119457483Y-101044091D01*
X119592331Y-100993796D01*
X119707546Y-100907546D01*
X119793796Y-100792331D01*
X119844091Y-100657483D01*
X119850500Y-100597873D01*
X119850499Y-99002128D01*
X119844091Y-98942517D01*
X119840276Y-98932289D01*
X119793797Y-98807671D01*
X119793796Y-98807669D01*
X119749318Y-98748254D01*
X119731393Y-98724310D01*
X119706977Y-98658847D01*
X119721828Y-98590574D01*
X119731394Y-98575689D01*
X119793796Y-98492331D01*
X119844091Y-98357483D01*
X119850500Y-98297873D01*
X119850499Y-96702128D01*
X119844091Y-96642517D01*
X119806710Y-96542294D01*
X119793797Y-96507671D01*
X119793796Y-96507669D01*
X119731394Y-96424311D01*
X119706977Y-96358847D01*
X119721828Y-96290574D01*
X119731394Y-96275689D01*
X119731923Y-96274983D01*
X119793796Y-96192331D01*
X119844091Y-96057483D01*
X119850500Y-95997873D01*
X119850499Y-94402128D01*
X119844091Y-94342517D01*
X119842033Y-94337000D01*
X119793797Y-94207671D01*
X119793793Y-94207664D01*
X119707547Y-94092455D01*
X119707544Y-94092452D01*
X119592335Y-94006206D01*
X119592328Y-94006202D01*
X119457482Y-93955908D01*
X119457483Y-93955908D01*
X119397883Y-93949501D01*
X119397881Y-93949500D01*
X119397873Y-93949500D01*
X119397864Y-93949500D01*
X117302129Y-93949500D01*
X117302123Y-93949501D01*
X117242516Y-93955908D01*
X117107671Y-94006202D01*
X117107664Y-94006206D01*
X116992455Y-94092452D01*
X116992452Y-94092455D01*
X116906206Y-94207664D01*
X116906202Y-94207671D01*
X116855908Y-94342517D01*
X116849730Y-94399986D01*
X116849501Y-94402123D01*
X116849500Y-94402135D01*
X116849500Y-94637769D01*
X116829815Y-94704808D01*
X116813181Y-94725450D01*
X115600449Y-95938181D01*
X115539126Y-95971666D01*
X115512768Y-95974500D01*
X114374998Y-95974500D01*
X114374981Y-95974501D01*
X114272203Y-95985000D01*
X114272200Y-95985001D01*
X114105668Y-96040185D01*
X114105663Y-96040187D01*
X113956341Y-96132290D01*
X113952578Y-96135266D01*
X113887783Y-96161407D01*
X113875667Y-96162000D01*
X112574730Y-96162000D01*
X112507691Y-96142315D01*
X112487049Y-96125681D01*
X112449049Y-96087681D01*
X112415564Y-96026358D01*
X112420548Y-95956666D01*
X112449049Y-95912319D01*
X112495476Y-95865892D01*
X112542712Y-95818656D01*
X112634814Y-95669334D01*
X112689999Y-95502797D01*
X112700500Y-95400009D01*
X112700499Y-94774992D01*
X112689999Y-94672203D01*
X112634814Y-94505666D01*
X112542712Y-94356344D01*
X112418656Y-94232288D01*
X112309402Y-94164900D01*
X112262679Y-94112953D01*
X112250500Y-94059362D01*
X112250500Y-92374500D01*
X112270185Y-92307461D01*
X112322989Y-92261706D01*
X112374500Y-92250500D01*
X119637770Y-92250500D01*
X119704809Y-92270185D01*
G37*
%TD.AperFunction*%
%TA.AperFunction,Conductor*%
G36*
X132585981Y-101270185D02*
G01*
X132624479Y-101309401D01*
X132707288Y-101443656D01*
X132831344Y-101567712D01*
X132980666Y-101659814D01*
X132980670Y-101659815D01*
X132987209Y-101662864D01*
X132986119Y-101665201D01*
X133033643Y-101698080D01*
X133060488Y-101762587D01*
X133048197Y-101831367D01*
X133024902Y-101863728D01*
X131417684Y-103470946D01*
X131356361Y-103504431D01*
X131286669Y-103499447D01*
X131238774Y-103467249D01*
X131169744Y-103392262D01*
X130973509Y-103239526D01*
X130973507Y-103239525D01*
X130973506Y-103239524D01*
X130754811Y-103121172D01*
X130754802Y-103121169D01*
X130519616Y-103040429D01*
X130274335Y-102999500D01*
X130025665Y-102999500D01*
X129780383Y-103040429D01*
X129545197Y-103121169D01*
X129545188Y-103121172D01*
X129326493Y-103239524D01*
X129130256Y-103392261D01*
X129115229Y-103408586D01*
X129055342Y-103444576D01*
X128985504Y-103442475D01*
X128927888Y-103402950D01*
X128900787Y-103338551D01*
X128900000Y-103324602D01*
X128900000Y-103275000D01*
X127750000Y-103275000D01*
X127750000Y-104099999D01*
X128199972Y-104099999D01*
X128199986Y-104099998D01*
X128302697Y-104089505D01*
X128469119Y-104034358D01*
X128469126Y-104034355D01*
X128506087Y-104011557D01*
X128573479Y-103993116D01*
X128640143Y-104014038D01*
X128684913Y-104067679D01*
X128693575Y-104137010D01*
X128691391Y-104147535D01*
X128664892Y-104252174D01*
X128664890Y-104252187D01*
X128644357Y-104499994D01*
X128644357Y-104500005D01*
X128664890Y-104747812D01*
X128664892Y-104747824D01*
X128691215Y-104851768D01*
X128688590Y-104921588D01*
X128648634Y-104978905D01*
X128584033Y-105005522D01*
X128515296Y-104992988D01*
X128505914Y-104987748D01*
X128476626Y-104969684D01*
X128469334Y-104965186D01*
X128302797Y-104910001D01*
X128302795Y-104910000D01*
X128200010Y-104899500D01*
X126799998Y-104899500D01*
X126799981Y-104899501D01*
X126697203Y-104910000D01*
X126697200Y-104910001D01*
X126530668Y-104965185D01*
X126530663Y-104965187D01*
X126381342Y-105057289D01*
X126257287Y-105181344D01*
X126251580Y-105190598D01*
X126199632Y-105237322D01*
X126146042Y-105249500D01*
X126112230Y-105249500D01*
X126045191Y-105229815D01*
X126024549Y-105213181D01*
X125968657Y-105157289D01*
X125968656Y-105157288D01*
X125819334Y-105065186D01*
X125819332Y-105065185D01*
X125813187Y-105061395D01*
X125814290Y-105059605D01*
X125769649Y-105020290D01*
X125750500Y-104954091D01*
X125750500Y-104940638D01*
X125770185Y-104873599D01*
X125809401Y-104835100D01*
X125918656Y-104767712D01*
X126042712Y-104643656D01*
X126134814Y-104494334D01*
X126189999Y-104327797D01*
X126200500Y-104225009D01*
X126200499Y-104052751D01*
X126220183Y-103985714D01*
X126272987Y-103939959D01*
X126342145Y-103930015D01*
X126389596Y-103947214D01*
X126530875Y-104034356D01*
X126530880Y-104034358D01*
X126697302Y-104089505D01*
X126697309Y-104089506D01*
X126800019Y-104099999D01*
X127249999Y-104099999D01*
X127250000Y-104099998D01*
X127250000Y-102899000D01*
X127269685Y-102831961D01*
X127322489Y-102786206D01*
X127374000Y-102775000D01*
X128899999Y-102775000D01*
X128899999Y-102650028D01*
X128899998Y-102650013D01*
X128889505Y-102547302D01*
X128834358Y-102380880D01*
X128834356Y-102380875D01*
X128742315Y-102231654D01*
X128618345Y-102107684D01*
X128469124Y-102015643D01*
X128469119Y-102015641D01*
X128302697Y-101960494D01*
X128302690Y-101960493D01*
X128199986Y-101950000D01*
X128012035Y-101950000D01*
X127944996Y-101930315D01*
X127899241Y-101877511D01*
X127889297Y-101808353D01*
X127918322Y-101744797D01*
X127973031Y-101708294D01*
X127990815Y-101702401D01*
X128119334Y-101659814D01*
X128268656Y-101567712D01*
X128392712Y-101443656D01*
X128394461Y-101440819D01*
X128396169Y-101439283D01*
X128397193Y-101437989D01*
X128397414Y-101438163D01*
X128446406Y-101394096D01*
X128515368Y-101382872D01*
X128579451Y-101410713D01*
X128605537Y-101440817D01*
X128607288Y-101443656D01*
X128731344Y-101567712D01*
X128880666Y-101659814D01*
X129047203Y-101714999D01*
X129149991Y-101725500D01*
X129750008Y-101725499D01*
X129750016Y-101725498D01*
X129750019Y-101725498D01*
X129806302Y-101719748D01*
X129852797Y-101714999D01*
X130019334Y-101659814D01*
X130168656Y-101567712D01*
X130292712Y-101443656D01*
X130375519Y-101309402D01*
X130427467Y-101262679D01*
X130481058Y-101250500D01*
X132518942Y-101250500D01*
X132585981Y-101270185D01*
G37*
%TD.AperFunction*%
%TA.AperFunction,Conductor*%
G36*
X150443039Y-86019685D02*
G01*
X150488794Y-86072489D01*
X150500000Y-86124000D01*
X150500000Y-121376000D01*
X150480315Y-121443039D01*
X150427511Y-121488794D01*
X150376000Y-121500000D01*
X73624000Y-121500000D01*
X73556961Y-121480315D01*
X73511206Y-121427511D01*
X73500000Y-121376000D01*
X73500000Y-115291396D01*
X78062157Y-115291396D01*
X78136140Y-115357234D01*
X78422404Y-115557679D01*
X78729991Y-115723528D01*
X78730008Y-115723535D01*
X79054760Y-115852551D01*
X79054771Y-115852555D01*
X79392317Y-115943000D01*
X79738091Y-115993648D01*
X79883555Y-115999999D01*
X85116444Y-115999999D01*
X85261908Y-115993648D01*
X85607682Y-115943000D01*
X85945228Y-115852555D01*
X85945239Y-115852551D01*
X86269991Y-115723535D01*
X86270008Y-115723528D01*
X86577595Y-115557679D01*
X86863853Y-115357239D01*
X86863864Y-115357230D01*
X86937841Y-115291396D01*
X86937841Y-115291395D01*
X82500000Y-110853553D01*
X78062157Y-115291395D01*
X78062157Y-115291396D01*
X73500000Y-115291396D01*
X73500000Y-113116444D01*
X77000000Y-113116444D01*
X77006351Y-113261908D01*
X77056999Y-113607682D01*
X77147444Y-113945228D01*
X77147448Y-113945239D01*
X77276464Y-114269991D01*
X77276471Y-114270008D01*
X77442320Y-114577595D01*
X77642764Y-114863859D01*
X77708602Y-114937841D01*
X77708603Y-114937841D01*
X82146444Y-110500000D01*
X82853553Y-110500000D01*
X87291395Y-114937841D01*
X87291396Y-114937841D01*
X87357230Y-114863864D01*
X87357239Y-114863853D01*
X87557679Y-114577595D01*
X87723528Y-114270008D01*
X87723535Y-114269991D01*
X87852551Y-113945239D01*
X87852555Y-113945228D01*
X87943000Y-113607682D01*
X87993648Y-113261908D01*
X87999999Y-113116444D01*
X87999999Y-112524290D01*
X89593354Y-112524290D01*
X89593354Y-115869768D01*
X100405499Y-115869768D01*
X100405499Y-112524290D01*
X89593354Y-112524290D01*
X87999999Y-112524290D01*
X87999999Y-107883555D01*
X87993648Y-107738091D01*
X87943000Y-107392317D01*
X87852555Y-107054771D01*
X87852551Y-107054760D01*
X87723535Y-106730008D01*
X87723528Y-106729991D01*
X87557679Y-106422404D01*
X87357234Y-106136140D01*
X87291395Y-106062157D01*
X82853553Y-110500000D01*
X82146444Y-110500000D01*
X82146445Y-110499999D01*
X77708603Y-106062157D01*
X77708602Y-106062157D01*
X77642760Y-106136145D01*
X77442320Y-106422404D01*
X77276471Y-106729991D01*
X77276464Y-106730008D01*
X77147448Y-107054760D01*
X77147444Y-107054771D01*
X77056999Y-107392317D01*
X77006351Y-107738091D01*
X77000000Y-107883555D01*
X77000000Y-113116444D01*
X73500000Y-113116444D01*
X73500000Y-105708603D01*
X78062157Y-105708603D01*
X82499999Y-110146445D01*
X86937841Y-105708603D01*
X86937841Y-105708602D01*
X86863859Y-105642764D01*
X86577595Y-105442320D01*
X86270008Y-105276471D01*
X86269991Y-105276464D01*
X85945239Y-105147448D01*
X85945228Y-105147444D01*
X85607682Y-105056999D01*
X85261908Y-105006351D01*
X85116444Y-105000000D01*
X79883555Y-105000000D01*
X79738091Y-105006351D01*
X79392317Y-105056999D01*
X79054771Y-105147444D01*
X79054760Y-105147448D01*
X78730008Y-105276464D01*
X78729991Y-105276471D01*
X78422404Y-105442320D01*
X78136145Y-105642760D01*
X78062157Y-105708602D01*
X78062157Y-105708603D01*
X73500000Y-105708603D01*
X73500000Y-103700001D01*
X76827704Y-103700001D01*
X76827899Y-103702486D01*
X76873718Y-103860198D01*
X76957314Y-104001552D01*
X76957321Y-104001561D01*
X77073438Y-104117678D01*
X77073447Y-104117685D01*
X77214803Y-104201282D01*
X77214806Y-104201283D01*
X77372504Y-104247099D01*
X77372510Y-104247100D01*
X77409350Y-104249999D01*
X77409366Y-104250000D01*
X77812500Y-104250000D01*
X77812500Y-103700000D01*
X78312500Y-103700000D01*
X78312500Y-104250000D01*
X78715634Y-104250000D01*
X78715649Y-104249999D01*
X78752489Y-104247100D01*
X78752495Y-104247099D01*
X78910193Y-104201283D01*
X78910196Y-104201282D01*
X79051552Y-104117685D01*
X79051561Y-104117678D01*
X79167678Y-104001561D01*
X79167685Y-104001552D01*
X79251281Y-103860198D01*
X79297100Y-103702486D01*
X79297295Y-103700001D01*
X79297295Y-103700000D01*
X78312500Y-103700000D01*
X77812500Y-103700000D01*
X76827705Y-103700000D01*
X76827704Y-103700001D01*
X73500000Y-103700001D01*
X73500000Y-103199998D01*
X76827704Y-103199998D01*
X76827705Y-103200000D01*
X77812500Y-103200000D01*
X77812500Y-102650000D01*
X77409350Y-102650000D01*
X77372510Y-102652899D01*
X77372504Y-102652900D01*
X77214806Y-102698716D01*
X77214803Y-102698717D01*
X77073447Y-102782314D01*
X77073438Y-102782321D01*
X76957321Y-102898438D01*
X76957314Y-102898447D01*
X76873718Y-103039801D01*
X76827899Y-103197513D01*
X76827704Y-103199998D01*
X73500000Y-103199998D01*
X73500000Y-98725001D01*
X76799500Y-98725001D01*
X76799501Y-98725019D01*
X76810000Y-98827796D01*
X76810001Y-98827799D01*
X76849875Y-98948129D01*
X76865186Y-98994334D01*
X76957288Y-99143656D01*
X77081344Y-99267712D01*
X77190597Y-99335099D01*
X77237321Y-99387047D01*
X77249500Y-99440638D01*
X77249500Y-100706889D01*
X77229815Y-100773928D01*
X77188621Y-100813621D01*
X77073137Y-100881917D01*
X77073129Y-100881923D01*
X76956923Y-100998129D01*
X76956917Y-100998137D01*
X76873255Y-101139603D01*
X76873254Y-101139606D01*
X76827402Y-101297426D01*
X76827401Y-101297432D01*
X76824500Y-101334298D01*
X76824500Y-101765701D01*
X76827401Y-101802567D01*
X76827402Y-101802573D01*
X76873254Y-101960393D01*
X76873255Y-101960396D01*
X76873256Y-101960398D01*
X76905928Y-102015643D01*
X76956917Y-102101862D01*
X76956923Y-102101870D01*
X77073129Y-102218076D01*
X77073133Y-102218079D01*
X77073135Y-102218081D01*
X77214602Y-102301744D01*
X77232559Y-102306961D01*
X77372426Y-102347597D01*
X77372429Y-102347597D01*
X77372431Y-102347598D01*
X77409306Y-102350500D01*
X78575500Y-102350500D01*
X78642539Y-102370185D01*
X78688294Y-102422989D01*
X78699500Y-102474500D01*
X78699500Y-102526000D01*
X78679815Y-102593039D01*
X78627011Y-102638794D01*
X78575500Y-102650000D01*
X78312500Y-102650000D01*
X78312500Y-103200000D01*
X78968185Y-103200000D01*
X79031306Y-103217268D01*
X79089602Y-103251744D01*
X79102269Y-103255424D01*
X79247426Y-103297597D01*
X79247429Y-103297597D01*
X79247431Y-103297598D01*
X79284306Y-103300500D01*
X79284314Y-103300500D01*
X80590686Y-103300500D01*
X80590694Y-103300500D01*
X80627569Y-103297598D01*
X80627571Y-103297597D01*
X80627573Y-103297597D01*
X80772733Y-103255424D01*
X80807328Y-103250500D01*
X81018942Y-103250500D01*
X81085981Y-103270185D01*
X81124479Y-103309401D01*
X81207288Y-103443656D01*
X81331344Y-103567712D01*
X81480666Y-103659814D01*
X81647203Y-103714999D01*
X81749991Y-103725500D01*
X82350008Y-103725499D01*
X82350016Y-103725498D01*
X82350019Y-103725498D01*
X82416997Y-103718656D01*
X82452797Y-103714999D01*
X82619334Y-103659814D01*
X82768656Y-103567712D01*
X82892712Y-103443656D01*
X82894752Y-103440347D01*
X82896745Y-103438555D01*
X82897193Y-103437989D01*
X82897289Y-103438065D01*
X82946694Y-103393623D01*
X83015656Y-103382395D01*
X83079740Y-103410234D01*
X83105829Y-103440339D01*
X83107681Y-103443341D01*
X83107683Y-103443344D01*
X83231654Y-103567315D01*
X83380875Y-103659356D01*
X83380880Y-103659358D01*
X83547302Y-103714505D01*
X83547309Y-103714506D01*
X83650019Y-103724999D01*
X83699999Y-103724998D01*
X83700000Y-103724998D01*
X83700000Y-102750000D01*
X84200000Y-102750000D01*
X84200000Y-103724999D01*
X84249972Y-103724999D01*
X84249986Y-103724998D01*
X84352697Y-103714505D01*
X84519119Y-103659358D01*
X84519124Y-103659356D01*
X84668345Y-103567315D01*
X84792315Y-103443345D01*
X84884356Y-103294124D01*
X84884358Y-103294119D01*
X84939505Y-103127697D01*
X84939506Y-103127690D01*
X84949999Y-103024986D01*
X84950000Y-103024973D01*
X84950000Y-102750000D01*
X84200000Y-102750000D01*
X83700000Y-102750000D01*
X83700000Y-102374000D01*
X83719685Y-102306961D01*
X83772489Y-102261206D01*
X83824000Y-102250000D01*
X84949999Y-102250000D01*
X84949999Y-101975028D01*
X84949998Y-101975013D01*
X84939505Y-101872302D01*
X84884358Y-101705880D01*
X84884356Y-101705875D01*
X84792315Y-101556654D01*
X84668345Y-101432684D01*
X84519124Y-101340643D01*
X84512579Y-101337592D01*
X84513640Y-101335315D01*
X84465920Y-101302265D01*
X84439107Y-101237745D01*
X84451432Y-101168971D01*
X84474694Y-101136672D01*
X92774549Y-92836819D01*
X92835872Y-92803334D01*
X92862230Y-92800500D01*
X96434376Y-92800500D01*
X96501415Y-92820185D01*
X96535949Y-92853374D01*
X96538402Y-92856877D01*
X96693123Y-93011598D01*
X96872361Y-93137102D01*
X97070670Y-93229575D01*
X97282023Y-93286207D01*
X97357720Y-93292829D01*
X97422788Y-93318281D01*
X97463766Y-93374872D01*
X97467645Y-93444634D01*
X97434593Y-93504038D01*
X91667045Y-99271586D01*
X91647727Y-99300500D01*
X91633640Y-99321584D01*
X91621211Y-99340186D01*
X91584914Y-99394507D01*
X91528343Y-99531082D01*
X91528340Y-99531092D01*
X91499500Y-99676079D01*
X91499500Y-102137770D01*
X91479815Y-102204809D01*
X91463181Y-102225451D01*
X91407289Y-102281342D01*
X91315187Y-102430663D01*
X91315186Y-102430666D01*
X91260001Y-102597203D01*
X91260001Y-102597204D01*
X91260000Y-102597204D01*
X91249500Y-102699983D01*
X91249500Y-103300001D01*
X91249501Y-103300019D01*
X91260000Y-103402796D01*
X91260001Y-103402799D01*
X91315185Y-103569331D01*
X91315187Y-103569336D01*
X91334090Y-103599983D01*
X91407288Y-103718656D01*
X91531344Y-103842712D01*
X91680666Y-103934814D01*
X91847203Y-103989999D01*
X91949991Y-104000500D01*
X92550008Y-104000499D01*
X92550016Y-104000498D01*
X92550019Y-104000498D01*
X92622283Y-103993116D01*
X92652797Y-103989999D01*
X92819334Y-103934814D01*
X92968656Y-103842712D01*
X93092712Y-103718656D01*
X93184814Y-103569334D01*
X93239999Y-103402797D01*
X93250500Y-103300009D01*
X93250499Y-102699992D01*
X93247481Y-102670451D01*
X93239999Y-102597203D01*
X93239998Y-102597200D01*
X93223463Y-102547302D01*
X93184814Y-102430666D01*
X93092712Y-102281344D01*
X93036819Y-102225451D01*
X93003334Y-102164128D01*
X93000500Y-102137770D01*
X93000500Y-100112229D01*
X93020185Y-100045190D01*
X93036819Y-100024548D01*
X94505025Y-98556342D01*
X96045963Y-97015403D01*
X96107284Y-96981920D01*
X96176976Y-96986904D01*
X96232909Y-97028776D01*
X96257170Y-97092278D01*
X96263793Y-97167976D01*
X96263793Y-97167979D01*
X96320422Y-97379322D01*
X96320424Y-97379326D01*
X96320425Y-97379330D01*
X96349981Y-97442712D01*
X96412897Y-97577638D01*
X96439189Y-97615186D01*
X96538402Y-97756877D01*
X96622115Y-97840590D01*
X96693123Y-97911598D01*
X96696622Y-97914048D01*
X96740248Y-97968625D01*
X96749500Y-98015624D01*
X96749500Y-99573918D01*
X96749500Y-99573920D01*
X96749499Y-99573920D01*
X96778340Y-99718907D01*
X96778343Y-99718917D01*
X96834913Y-99855490D01*
X96834914Y-99855491D01*
X96834916Y-99855495D01*
X96847226Y-99873918D01*
X96914764Y-99974998D01*
X96917051Y-99978420D01*
X97934078Y-100995447D01*
X97934085Y-100995453D01*
X98006878Y-101044091D01*
X98006879Y-101044091D01*
X98057008Y-101077586D01*
X98178230Y-101127797D01*
X98193587Y-101134158D01*
X98193591Y-101134158D01*
X98193592Y-101134159D01*
X98338579Y-101163000D01*
X98338582Y-101163000D01*
X98338583Y-101163000D01*
X98486417Y-101163000D01*
X98854369Y-101163000D01*
X98921408Y-101182685D01*
X98967163Y-101235489D01*
X98977107Y-101304647D01*
X98959908Y-101352096D01*
X98865189Y-101505659D01*
X98865185Y-101505668D01*
X98846944Y-101560717D01*
X98810001Y-101672203D01*
X98810001Y-101672204D01*
X98810000Y-101672204D01*
X98799500Y-101774983D01*
X98799500Y-102400001D01*
X98799501Y-102400019D01*
X98810000Y-102502796D01*
X98810001Y-102502799D01*
X98865185Y-102669331D01*
X98865187Y-102669336D01*
X98893781Y-102715694D01*
X98951430Y-102809159D01*
X98957289Y-102818657D01*
X99051304Y-102912672D01*
X99084789Y-102973995D01*
X99079805Y-103043687D01*
X99051305Y-103088034D01*
X98957682Y-103181657D01*
X98865643Y-103330875D01*
X98865641Y-103330880D01*
X98810494Y-103497302D01*
X98810493Y-103497309D01*
X98800000Y-103600013D01*
X98800000Y-103662500D01*
X101199999Y-103662500D01*
X101199999Y-103600028D01*
X101199998Y-103600013D01*
X101189505Y-103497302D01*
X101134358Y-103330880D01*
X101134356Y-103330875D01*
X101042315Y-103181654D01*
X100948695Y-103088034D01*
X100915210Y-103026711D01*
X100920194Y-102957019D01*
X100948691Y-102912676D01*
X101042712Y-102818656D01*
X101134814Y-102669334D01*
X101189999Y-102502797D01*
X101200500Y-102400009D01*
X101200499Y-101774992D01*
X101197748Y-101748066D01*
X101189999Y-101672203D01*
X101189998Y-101672200D01*
X101168030Y-101605905D01*
X101134814Y-101505666D01*
X101042712Y-101356344D01*
X101024049Y-101337681D01*
X100990564Y-101276358D01*
X100995548Y-101206666D01*
X101024049Y-101162319D01*
X101042712Y-101143656D01*
X101134814Y-100994334D01*
X101159161Y-100920857D01*
X101189184Y-100872182D01*
X102069357Y-99992009D01*
X102130678Y-99958526D01*
X102200370Y-99963510D01*
X102256303Y-100005382D01*
X102280720Y-100070846D01*
X102280394Y-100092294D01*
X102274500Y-100149981D01*
X102274500Y-100750001D01*
X102274501Y-100750019D01*
X102285000Y-100852796D01*
X102285001Y-100852799D01*
X102340185Y-101019331D01*
X102340187Y-101019336D01*
X102374212Y-101074500D01*
X102431355Y-101167144D01*
X102432289Y-101168657D01*
X102435795Y-101173091D01*
X102461934Y-101237887D01*
X102448892Y-101306529D01*
X102435795Y-101326909D01*
X102432289Y-101331342D01*
X102340187Y-101480663D01*
X102340185Y-101480668D01*
X102315109Y-101556342D01*
X102285001Y-101647203D01*
X102285001Y-101647204D01*
X102285000Y-101647204D01*
X102274500Y-101749983D01*
X102274500Y-102350001D01*
X102274501Y-102350019D01*
X102285000Y-102452796D01*
X102285001Y-102452799D01*
X102340185Y-102619331D01*
X102340187Y-102619336D01*
X102366990Y-102662791D01*
X102432288Y-102768656D01*
X102556344Y-102892712D01*
X102559628Y-102894737D01*
X102559653Y-102894753D01*
X102561445Y-102896746D01*
X102562011Y-102897193D01*
X102561934Y-102897289D01*
X102606379Y-102946699D01*
X102617603Y-103015661D01*
X102589761Y-103079744D01*
X102559665Y-103105826D01*
X102556660Y-103107679D01*
X102556655Y-103107683D01*
X102432684Y-103231654D01*
X102340643Y-103380875D01*
X102340641Y-103380880D01*
X102285494Y-103547302D01*
X102285493Y-103547309D01*
X102275000Y-103650013D01*
X102275000Y-103700000D01*
X104724999Y-103700000D01*
X104724999Y-103650028D01*
X104724998Y-103650013D01*
X104714505Y-103547302D01*
X104659358Y-103380880D01*
X104659356Y-103380875D01*
X104567315Y-103231654D01*
X104443344Y-103107683D01*
X104443341Y-103107681D01*
X104440339Y-103105829D01*
X104438713Y-103104021D01*
X104437677Y-103103202D01*
X104437817Y-103103024D01*
X104393617Y-103053880D01*
X104382397Y-102984917D01*
X104410243Y-102920836D01*
X104440344Y-102894754D01*
X104443656Y-102892712D01*
X104462049Y-102874319D01*
X104523372Y-102840834D01*
X104549730Y-102838000D01*
X105925270Y-102838000D01*
X105992309Y-102857685D01*
X106012951Y-102874319D01*
X106051304Y-102912672D01*
X106084789Y-102973995D01*
X106079805Y-103043687D01*
X106051305Y-103088034D01*
X105957682Y-103181657D01*
X105865643Y-103330875D01*
X105865641Y-103330880D01*
X105810494Y-103497302D01*
X105810493Y-103497309D01*
X105800000Y-103600013D01*
X105800000Y-103662500D01*
X108199999Y-103662500D01*
X108199999Y-103600028D01*
X108199998Y-103600013D01*
X108189505Y-103497302D01*
X108134358Y-103330880D01*
X108134356Y-103330875D01*
X108042315Y-103181654D01*
X107948695Y-103088034D01*
X107915210Y-103026711D01*
X107920194Y-102957019D01*
X107948694Y-102912673D01*
X107987050Y-102874318D01*
X108048373Y-102840833D01*
X108074730Y-102838000D01*
X108425501Y-102838000D01*
X108492540Y-102857685D01*
X108538295Y-102910489D01*
X108549501Y-102962000D01*
X108549501Y-103025018D01*
X108560000Y-103127796D01*
X108560001Y-103127799D01*
X108615185Y-103294331D01*
X108615187Y-103294336D01*
X108637728Y-103330880D01*
X108707288Y-103443656D01*
X108831344Y-103567712D01*
X108980666Y-103659814D01*
X109147203Y-103714999D01*
X109249991Y-103725500D01*
X109850008Y-103725499D01*
X109850016Y-103725498D01*
X109850019Y-103725498D01*
X109916997Y-103718656D01*
X109952797Y-103714999D01*
X110119334Y-103659814D01*
X110268656Y-103567712D01*
X110392712Y-103443656D01*
X110394461Y-103440819D01*
X110396169Y-103439283D01*
X110397193Y-103437989D01*
X110397414Y-103438163D01*
X110446406Y-103394096D01*
X110515368Y-103382872D01*
X110579451Y-103410713D01*
X110605537Y-103440817D01*
X110607288Y-103443656D01*
X110731344Y-103567712D01*
X110880666Y-103659814D01*
X111047203Y-103714999D01*
X111149991Y-103725500D01*
X111750008Y-103725499D01*
X111750016Y-103725498D01*
X111750019Y-103725498D01*
X111816997Y-103718656D01*
X111852797Y-103714999D01*
X112019334Y-103659814D01*
X112168656Y-103567712D01*
X112292712Y-103443656D01*
X112384814Y-103294334D01*
X112439999Y-103127797D01*
X112450500Y-103025009D01*
X112450499Y-101974992D01*
X112446835Y-101939128D01*
X112439999Y-101872203D01*
X112439998Y-101872200D01*
X112426467Y-101831367D01*
X112384814Y-101705666D01*
X112292712Y-101556344D01*
X112236819Y-101500451D01*
X112203334Y-101439128D01*
X112200500Y-101412770D01*
X112200500Y-97970908D01*
X112220185Y-97903869D01*
X112264271Y-97865363D01*
X112263187Y-97863605D01*
X112269332Y-97859814D01*
X112269334Y-97859814D01*
X112418656Y-97767712D01*
X112487049Y-97699319D01*
X112548372Y-97665834D01*
X112574730Y-97663000D01*
X113607125Y-97663000D01*
X113674164Y-97682685D01*
X113719919Y-97735489D01*
X113724829Y-97747990D01*
X113731677Y-97768657D01*
X113740186Y-97794333D01*
X113740187Y-97794336D01*
X113762594Y-97830663D01*
X113832288Y-97943656D01*
X113956344Y-98067712D01*
X114105666Y-98159814D01*
X114272203Y-98214999D01*
X114374991Y-98225500D01*
X116625008Y-98225499D01*
X116716660Y-98216136D01*
X116785350Y-98228905D01*
X116836235Y-98276786D01*
X116852550Y-98326239D01*
X116855909Y-98357483D01*
X116906202Y-98492328D01*
X116906203Y-98492330D01*
X116906204Y-98492331D01*
X116968464Y-98575500D01*
X116968606Y-98575689D01*
X116993023Y-98641153D01*
X116978172Y-98709426D01*
X116968605Y-98724312D01*
X116937851Y-98765393D01*
X116881916Y-98807264D01*
X116812225Y-98812247D01*
X116799582Y-98808787D01*
X116727800Y-98785001D01*
X116625010Y-98774500D01*
X114374998Y-98774500D01*
X114374981Y-98774501D01*
X114272203Y-98785000D01*
X114272200Y-98785001D01*
X114105668Y-98840185D01*
X114105663Y-98840187D01*
X113956342Y-98932289D01*
X113832289Y-99056342D01*
X113740187Y-99205663D01*
X113740185Y-99205668D01*
X113719627Y-99267710D01*
X113685001Y-99372203D01*
X113685001Y-99372204D01*
X113685000Y-99372204D01*
X113674500Y-99474983D01*
X113674500Y-100325001D01*
X113674501Y-100325019D01*
X113685000Y-100427796D01*
X113685001Y-100427799D01*
X113740185Y-100594331D01*
X113740187Y-100594336D01*
X113775069Y-100650888D01*
X113832288Y-100743656D01*
X113956344Y-100867712D01*
X114105666Y-100959814D01*
X114272203Y-101014999D01*
X114374991Y-101025500D01*
X114438770Y-101025499D01*
X114505808Y-101045183D01*
X114551564Y-101097986D01*
X114561508Y-101167144D01*
X114532484Y-101230700D01*
X114526453Y-101237179D01*
X114500450Y-101263181D01*
X114439130Y-101296666D01*
X114412770Y-101299500D01*
X114376080Y-101299500D01*
X114231092Y-101328340D01*
X114231082Y-101328343D01*
X114094511Y-101384912D01*
X114094499Y-101384919D01*
X114051603Y-101413582D01*
X114051602Y-101413583D01*
X113971582Y-101467049D01*
X113971581Y-101467050D01*
X112917050Y-102521580D01*
X112917044Y-102521588D01*
X112867812Y-102595268D01*
X112867813Y-102595269D01*
X112834921Y-102644496D01*
X112834914Y-102644508D01*
X112778342Y-102781086D01*
X112778340Y-102781092D01*
X112749500Y-102926079D01*
X112749500Y-106302202D01*
X112729815Y-106369241D01*
X112677011Y-106414996D01*
X112607853Y-106424940D01*
X112544297Y-106395915D01*
X112523925Y-106373326D01*
X112472595Y-106300019D01*
X112357628Y-106135830D01*
X112357624Y-106135826D01*
X112357621Y-106135821D01*
X112125272Y-105874731D01*
X112125268Y-105874727D01*
X111864178Y-105642378D01*
X111864172Y-105642373D01*
X111864170Y-105642372D01*
X111577862Y-105441896D01*
X111572728Y-105439128D01*
X111280098Y-105281344D01*
X111270215Y-105276015D01*
X111270214Y-105276014D01*
X111270213Y-105276014D01*
X111270203Y-105276009D01*
X110945397Y-105146973D01*
X110945386Y-105146969D01*
X110607784Y-105056509D01*
X110474037Y-105036918D01*
X110261954Y-105005852D01*
X110116467Y-104999500D01*
X107979152Y-104999500D01*
X107912113Y-104979815D01*
X107866358Y-104927011D01*
X107856414Y-104857853D01*
X107885439Y-104794297D01*
X107914062Y-104769957D01*
X107918345Y-104767315D01*
X108042315Y-104643345D01*
X108134356Y-104494124D01*
X108134358Y-104494119D01*
X108189505Y-104327697D01*
X108189506Y-104327690D01*
X108199999Y-104224986D01*
X108200000Y-104224973D01*
X108200000Y-104162500D01*
X105800001Y-104162500D01*
X105800001Y-104224986D01*
X105810494Y-104327697D01*
X105865641Y-104494119D01*
X105865643Y-104494124D01*
X105957684Y-104643345D01*
X106081655Y-104767316D01*
X106081657Y-104767317D01*
X106085941Y-104769960D01*
X106132667Y-104821906D01*
X106143891Y-104890869D01*
X106116049Y-104954952D01*
X106057981Y-104993809D01*
X106020847Y-104999500D01*
X104883534Y-104999500D01*
X104744132Y-105005586D01*
X104738046Y-105005852D01*
X104694993Y-105012158D01*
X104491742Y-105041930D01*
X104422558Y-105032169D01*
X104369633Y-104986554D01*
X104349771Y-104919567D01*
X104369279Y-104852475D01*
X104408676Y-104813699D01*
X104443345Y-104792315D01*
X104567315Y-104668345D01*
X104659356Y-104519124D01*
X104659358Y-104519119D01*
X104714505Y-104352697D01*
X104714506Y-104352690D01*
X104724999Y-104249986D01*
X104725000Y-104249973D01*
X104725000Y-104200000D01*
X103750000Y-104200000D01*
X103750000Y-104949999D01*
X103902435Y-104949999D01*
X103969474Y-104969684D01*
X104015229Y-105022488D01*
X104025173Y-105091646D01*
X103996148Y-105155202D01*
X103948216Y-105189238D01*
X103729796Y-105276009D01*
X103729786Y-105276014D01*
X103422146Y-105441891D01*
X103422141Y-105441893D01*
X103422138Y-105441896D01*
X103258246Y-105556655D01*
X103135821Y-105642378D01*
X102874731Y-105874727D01*
X102874727Y-105874731D01*
X102642378Y-106135821D01*
X102642372Y-106135830D01*
X102441896Y-106422138D01*
X102441893Y-106422141D01*
X102441891Y-106422146D01*
X102276014Y-106729786D01*
X102276009Y-106729796D01*
X102146973Y-107054602D01*
X102146969Y-107054613D01*
X102056509Y-107392215D01*
X102031180Y-107565132D01*
X102005852Y-107738046D01*
X102003147Y-107800013D01*
X101999500Y-107883533D01*
X101999500Y-109625500D01*
X101979815Y-109692539D01*
X101927011Y-109738294D01*
X101875500Y-109749500D01*
X96362230Y-109749500D01*
X96295191Y-109729815D01*
X96274549Y-109713181D01*
X95536819Y-108975451D01*
X95503334Y-108914128D01*
X95500500Y-108887770D01*
X95500500Y-104162500D01*
X98800001Y-104162500D01*
X98800001Y-104224986D01*
X98810494Y-104327697D01*
X98865641Y-104494119D01*
X98865643Y-104494124D01*
X98957684Y-104643345D01*
X99081654Y-104767315D01*
X99230875Y-104859356D01*
X99230880Y-104859358D01*
X99397302Y-104914505D01*
X99397309Y-104914506D01*
X99500019Y-104924999D01*
X99749999Y-104924999D01*
X99750000Y-104924998D01*
X99750000Y-104162500D01*
X100250000Y-104162500D01*
X100250000Y-104924999D01*
X100499972Y-104924999D01*
X100499986Y-104924998D01*
X100602697Y-104914505D01*
X100769119Y-104859358D01*
X100769124Y-104859356D01*
X100918345Y-104767315D01*
X101042315Y-104643345D01*
X101134356Y-104494124D01*
X101134358Y-104494119D01*
X101189505Y-104327697D01*
X101189506Y-104327690D01*
X101199999Y-104224986D01*
X101200000Y-104224973D01*
X101200000Y-104200000D01*
X102275001Y-104200000D01*
X102275001Y-104249986D01*
X102285494Y-104352697D01*
X102340641Y-104519119D01*
X102340643Y-104519124D01*
X102432684Y-104668345D01*
X102556654Y-104792315D01*
X102705875Y-104884356D01*
X102705880Y-104884358D01*
X102872302Y-104939505D01*
X102872309Y-104939506D01*
X102975019Y-104949999D01*
X103249999Y-104949999D01*
X103250000Y-104949998D01*
X103250000Y-104200000D01*
X102275001Y-104200000D01*
X101200000Y-104200000D01*
X101200000Y-104162500D01*
X100250000Y-104162500D01*
X99750000Y-104162500D01*
X98800001Y-104162500D01*
X95500500Y-104162500D01*
X95500500Y-103862230D01*
X95520185Y-103795191D01*
X95536819Y-103774549D01*
X95564702Y-103746666D01*
X95592712Y-103718656D01*
X95684814Y-103569334D01*
X95739999Y-103402797D01*
X95750500Y-103300009D01*
X95750499Y-102699992D01*
X95747481Y-102670451D01*
X95739999Y-102597203D01*
X95739998Y-102597200D01*
X95723463Y-102547302D01*
X95684814Y-102430666D01*
X95592712Y-102281344D01*
X95468656Y-102157288D01*
X95319334Y-102065186D01*
X95152797Y-102010001D01*
X95152795Y-102010000D01*
X95050010Y-101999500D01*
X94449998Y-101999500D01*
X94449980Y-101999501D01*
X94347203Y-102010000D01*
X94347200Y-102010001D01*
X94180668Y-102065185D01*
X94180663Y-102065187D01*
X94031342Y-102157289D01*
X93907289Y-102281342D01*
X93815187Y-102430663D01*
X93815186Y-102430666D01*
X93760001Y-102597203D01*
X93760001Y-102597204D01*
X93760000Y-102597204D01*
X93749500Y-102699983D01*
X93749500Y-103300001D01*
X93749501Y-103300019D01*
X93760000Y-103402796D01*
X93760001Y-103402799D01*
X93815185Y-103569331D01*
X93815187Y-103569336D01*
X93834090Y-103599983D01*
X93905032Y-103714999D01*
X93907289Y-103718657D01*
X93963181Y-103774549D01*
X93996666Y-103835872D01*
X93999500Y-103862230D01*
X93999500Y-109323918D01*
X93999500Y-109323920D01*
X93999499Y-109323920D01*
X94028340Y-109468907D01*
X94028343Y-109468917D01*
X94084913Y-109605490D01*
X94084914Y-109605491D01*
X94084916Y-109605495D01*
X94093504Y-109618347D01*
X94093709Y-109618654D01*
X94093710Y-109618657D01*
X94167046Y-109728414D01*
X94167052Y-109728421D01*
X95521584Y-111082952D01*
X95521586Y-111082954D01*
X95550902Y-111102541D01*
X95595270Y-111132186D01*
X95644505Y-111165084D01*
X95644506Y-111165084D01*
X95644507Y-111165085D01*
X95644509Y-111165086D01*
X95781082Y-111221656D01*
X95781087Y-111221658D01*
X95781091Y-111221658D01*
X95781092Y-111221659D01*
X95926079Y-111250500D01*
X95926082Y-111250500D01*
X95926083Y-111250500D01*
X96073917Y-111250500D01*
X101875501Y-111250500D01*
X101942540Y-111270185D01*
X101988295Y-111322989D01*
X101999501Y-111374500D01*
X101999501Y-113116466D01*
X102005852Y-113261954D01*
X102022265Y-113374000D01*
X102056509Y-113607784D01*
X102146969Y-113945386D01*
X102146973Y-113945397D01*
X102276009Y-114270203D01*
X102276014Y-114270213D01*
X102410914Y-114520403D01*
X102441896Y-114577862D01*
X102642158Y-114863864D01*
X102642378Y-114864178D01*
X102874727Y-115125268D01*
X102874731Y-115125272D01*
X103135821Y-115357621D01*
X103135826Y-115357624D01*
X103135830Y-115357628D01*
X103422138Y-115558104D01*
X103729785Y-115723985D01*
X103729789Y-115723986D01*
X103729796Y-115723990D01*
X103970793Y-115819731D01*
X104054609Y-115853029D01*
X104392218Y-115943491D01*
X104738046Y-115994148D01*
X104883533Y-116000500D01*
X110116466Y-116000499D01*
X110261954Y-115994148D01*
X110607782Y-115943491D01*
X110945391Y-115853029D01*
X111181179Y-115759356D01*
X111270203Y-115723990D01*
X111270205Y-115723988D01*
X111270215Y-115723985D01*
X111577862Y-115558104D01*
X111864170Y-115357628D01*
X112125270Y-115125270D01*
X112178171Y-115065826D01*
X112236751Y-115000000D01*
X136351920Y-115000000D01*
X136372211Y-115257820D01*
X136432582Y-115509285D01*
X136531549Y-115748213D01*
X136666673Y-115968714D01*
X136666676Y-115968719D01*
X136671767Y-115974679D01*
X137517037Y-115129409D01*
X137534075Y-115192993D01*
X137599901Y-115307007D01*
X137692993Y-115400099D01*
X137807007Y-115465925D01*
X137870590Y-115482962D01*
X137025319Y-116328232D01*
X137031283Y-116333325D01*
X137251786Y-116468450D01*
X137490714Y-116567417D01*
X137742179Y-116627788D01*
X138000000Y-116648079D01*
X138257820Y-116627788D01*
X138509285Y-116567417D01*
X138748213Y-116468450D01*
X138968713Y-116333326D01*
X138968723Y-116333319D01*
X138974678Y-116328232D01*
X138974678Y-116328231D01*
X138129409Y-115482962D01*
X138192993Y-115465925D01*
X138307007Y-115400099D01*
X138400099Y-115307007D01*
X138465925Y-115192993D01*
X138482962Y-115129409D01*
X139328231Y-115974678D01*
X139328232Y-115974678D01*
X139333319Y-115968723D01*
X139333326Y-115968713D01*
X139468450Y-115748213D01*
X139567417Y-115509285D01*
X139627788Y-115257820D01*
X139648079Y-115000000D01*
X139627788Y-114742179D01*
X139567417Y-114490714D01*
X139468450Y-114251786D01*
X139333325Y-114031283D01*
X139328232Y-114025319D01*
X138482962Y-114870589D01*
X138465925Y-114807007D01*
X138400099Y-114692993D01*
X138307007Y-114599901D01*
X138192993Y-114534075D01*
X138129408Y-114517037D01*
X138974679Y-113671767D01*
X138974679Y-113671766D01*
X138968719Y-113666676D01*
X138968714Y-113666673D01*
X138748213Y-113531549D01*
X138509285Y-113432582D01*
X138257820Y-113372211D01*
X138000000Y-113351920D01*
X137742179Y-113372211D01*
X137490714Y-113432582D01*
X137251786Y-113531549D01*
X137031289Y-113666670D01*
X137031273Y-113666682D01*
X137025320Y-113671766D01*
X137870591Y-114517037D01*
X137807007Y-114534075D01*
X137692993Y-114599901D01*
X137599901Y-114692993D01*
X137534075Y-114807007D01*
X137517037Y-114870590D01*
X136671766Y-114025320D01*
X136666682Y-114031273D01*
X136666670Y-114031289D01*
X136531549Y-114251786D01*
X136432582Y-114490714D01*
X136372211Y-114742179D01*
X136351920Y-115000000D01*
X112236751Y-115000000D01*
X112357621Y-114864178D01*
X112357621Y-114864177D01*
X112357628Y-114864170D01*
X112558104Y-114577862D01*
X112723985Y-114270215D01*
X112724419Y-114269124D01*
X112780564Y-114127796D01*
X112853029Y-113945391D01*
X112943491Y-113607782D01*
X112994148Y-113261954D01*
X113000500Y-113116467D01*
X113000500Y-112655001D01*
X115552704Y-112655001D01*
X115552899Y-112657486D01*
X115598718Y-112815198D01*
X115682314Y-112956552D01*
X115682321Y-112956561D01*
X115798438Y-113072678D01*
X115798447Y-113072685D01*
X115939803Y-113156282D01*
X115939806Y-113156283D01*
X116097504Y-113202099D01*
X116097510Y-113202100D01*
X116134350Y-113204999D01*
X116134366Y-113205000D01*
X116775000Y-113205000D01*
X116775000Y-112655000D01*
X117275000Y-112655000D01*
X117275000Y-113205000D01*
X117915634Y-113205000D01*
X117915649Y-113204999D01*
X117952489Y-113202100D01*
X117952495Y-113202099D01*
X118110193Y-113156283D01*
X118110196Y-113156282D01*
X118251552Y-113072685D01*
X118251561Y-113072678D01*
X118367678Y-112956561D01*
X118367685Y-112956552D01*
X118451281Y-112815198D01*
X118497100Y-112657486D01*
X118497295Y-112655001D01*
X118497295Y-112655000D01*
X117275000Y-112655000D01*
X116775000Y-112655000D01*
X115552705Y-112655000D01*
X115552704Y-112655001D01*
X113000500Y-112655001D01*
X113000500Y-112154998D01*
X115552704Y-112154998D01*
X115552705Y-112155000D01*
X116775000Y-112155000D01*
X116775000Y-111385000D01*
X117275000Y-111385000D01*
X117275000Y-112155000D01*
X118497295Y-112155000D01*
X118497295Y-112154998D01*
X118497100Y-112152513D01*
X118451281Y-111994801D01*
X118367685Y-111853447D01*
X118362900Y-111847278D01*
X118365252Y-111845453D01*
X118338445Y-111796405D01*
X118343402Y-111726712D01*
X118364465Y-111693936D01*
X118362900Y-111692722D01*
X118367685Y-111686552D01*
X118451281Y-111545198D01*
X118497100Y-111387486D01*
X118497295Y-111385001D01*
X118497295Y-111385000D01*
X117275000Y-111385000D01*
X116775000Y-111385000D01*
X115552705Y-111385000D01*
X115552704Y-111385001D01*
X115552899Y-111387486D01*
X115598718Y-111545198D01*
X115682314Y-111686552D01*
X115687100Y-111692722D01*
X115684753Y-111694542D01*
X115711564Y-111743642D01*
X115706580Y-111813334D01*
X115685541Y-111846069D01*
X115687100Y-111847278D01*
X115682314Y-111853447D01*
X115598718Y-111994801D01*
X115552899Y-112152513D01*
X115552704Y-112154998D01*
X113000500Y-112154998D01*
X113000499Y-108924499D01*
X113020184Y-108857461D01*
X113072988Y-108811706D01*
X113124499Y-108800500D01*
X113412770Y-108800500D01*
X113479809Y-108820185D01*
X113500451Y-108836819D01*
X113556346Y-108892714D01*
X113559182Y-108894463D01*
X113560717Y-108896170D01*
X113562011Y-108897193D01*
X113561836Y-108897414D01*
X113605905Y-108946411D01*
X113617126Y-109015374D01*
X113589282Y-109079456D01*
X113559182Y-109105537D01*
X113556346Y-109107285D01*
X113432289Y-109231342D01*
X113340187Y-109380663D01*
X113340185Y-109380668D01*
X113328130Y-109417048D01*
X113285001Y-109547203D01*
X113285001Y-109547204D01*
X113285000Y-109547204D01*
X113274500Y-109649983D01*
X113274500Y-109649996D01*
X113274501Y-110250000D01*
X113274501Y-110250019D01*
X113285000Y-110352796D01*
X113285001Y-110352799D01*
X113340185Y-110519331D01*
X113340187Y-110519336D01*
X113344776Y-110526776D01*
X113432288Y-110668656D01*
X113556344Y-110792712D01*
X113705666Y-110884814D01*
X113872203Y-110939999D01*
X113974991Y-110950500D01*
X115025008Y-110950499D01*
X115025016Y-110950498D01*
X115025019Y-110950498D01*
X115081302Y-110944748D01*
X115127797Y-110939999D01*
X115294334Y-110884814D01*
X115371903Y-110836968D01*
X115439295Y-110818528D01*
X115505959Y-110839450D01*
X115528056Y-110858335D01*
X115552705Y-110885000D01*
X118497295Y-110885000D01*
X118497295Y-110884998D01*
X118497100Y-110882513D01*
X118451281Y-110724801D01*
X118367685Y-110583447D01*
X118362900Y-110577278D01*
X118365366Y-110575364D01*
X118338802Y-110526776D01*
X118343749Y-110457082D01*
X118364856Y-110424232D01*
X118363301Y-110423026D01*
X118368077Y-110416868D01*
X118368081Y-110416865D01*
X118451744Y-110275398D01*
X118497598Y-110117569D01*
X118500500Y-110080694D01*
X118500500Y-109649306D01*
X118497598Y-109612431D01*
X118495581Y-109605490D01*
X118451745Y-109454606D01*
X118451744Y-109454603D01*
X118451744Y-109454602D01*
X118368081Y-109313135D01*
X118368078Y-109313132D01*
X118363298Y-109306969D01*
X118365750Y-109305066D01*
X118339155Y-109256421D01*
X118344104Y-109186726D01*
X118364940Y-109154304D01*
X118363298Y-109153031D01*
X118368075Y-109146870D01*
X118368081Y-109146865D01*
X118451744Y-109005398D01*
X118497598Y-108847569D01*
X118500500Y-108810694D01*
X118500500Y-108379306D01*
X118497598Y-108342431D01*
X118451744Y-108184602D01*
X118368081Y-108043135D01*
X118368079Y-108043133D01*
X118368076Y-108043129D01*
X118251870Y-107926923D01*
X118251862Y-107926917D01*
X118128964Y-107854236D01*
X118110398Y-107843256D01*
X118110397Y-107843255D01*
X118110396Y-107843255D01*
X118110393Y-107843254D01*
X117952573Y-107797402D01*
X117952567Y-107797401D01*
X117915701Y-107794500D01*
X117915694Y-107794500D01*
X117899500Y-107794500D01*
X117832461Y-107774815D01*
X117786706Y-107722011D01*
X117775500Y-107670500D01*
X117775500Y-107336867D01*
X117795185Y-107269828D01*
X117814386Y-107248656D01*
X117813549Y-107247819D01*
X117863428Y-107197940D01*
X117942712Y-107118656D01*
X118034814Y-106969334D01*
X118089999Y-106802797D01*
X118100500Y-106700009D01*
X118100499Y-105299992D01*
X118089999Y-105197203D01*
X118053812Y-105088000D01*
X118051411Y-105018175D01*
X118087142Y-104958133D01*
X118149662Y-104926940D01*
X118171519Y-104924999D01*
X118499972Y-104924999D01*
X118499986Y-104924998D01*
X118602697Y-104914505D01*
X118769119Y-104859358D01*
X118769128Y-104859354D01*
X118810832Y-104833630D01*
X118878224Y-104815188D01*
X118944888Y-104836109D01*
X118989659Y-104889750D01*
X118998322Y-104959081D01*
X118981472Y-105004261D01*
X118965188Y-105030663D01*
X118965185Y-105030668D01*
X118955003Y-105061395D01*
X118910001Y-105197203D01*
X118910001Y-105197204D01*
X118910000Y-105197204D01*
X118899500Y-105299983D01*
X118899500Y-106700001D01*
X118899501Y-106700018D01*
X118910000Y-106802796D01*
X118910001Y-106802799D01*
X118965185Y-106969331D01*
X118965187Y-106969336D01*
X118977932Y-106989999D01*
X119057288Y-107118656D01*
X119181344Y-107242712D01*
X119330666Y-107334814D01*
X119497203Y-107389999D01*
X119599991Y-107400500D01*
X119762768Y-107400499D01*
X119829808Y-107420183D01*
X119850450Y-107436818D01*
X120188447Y-107774815D01*
X120507652Y-108094019D01*
X120541137Y-108155342D01*
X120539048Y-108216295D01*
X120502401Y-108342434D01*
X120499500Y-108379298D01*
X120499500Y-108810701D01*
X120502401Y-108847567D01*
X120502402Y-108847573D01*
X120548254Y-109005393D01*
X120548255Y-109005396D01*
X120631917Y-109146862D01*
X120636702Y-109153031D01*
X120634256Y-109154927D01*
X120660857Y-109203642D01*
X120655873Y-109273334D01*
X120635069Y-109305703D01*
X120636702Y-109306969D01*
X120631917Y-109313137D01*
X120548255Y-109454603D01*
X120548254Y-109454606D01*
X120502402Y-109612426D01*
X120502401Y-109612432D01*
X120499500Y-109649298D01*
X120499500Y-110080701D01*
X120502401Y-110117567D01*
X120502402Y-110117573D01*
X120548254Y-110275393D01*
X120548255Y-110275396D01*
X120548256Y-110275398D01*
X120562800Y-110299991D01*
X120631917Y-110416862D01*
X120636702Y-110423031D01*
X120634256Y-110424927D01*
X120660857Y-110473642D01*
X120655873Y-110543334D01*
X120635069Y-110575703D01*
X120636702Y-110576969D01*
X120631917Y-110583137D01*
X120548255Y-110724603D01*
X120548254Y-110724606D01*
X120502402Y-110882426D01*
X120502401Y-110882432D01*
X120499500Y-110919298D01*
X120499500Y-111350701D01*
X120502401Y-111387567D01*
X120502402Y-111387573D01*
X120548254Y-111545393D01*
X120548255Y-111545396D01*
X120548256Y-111545398D01*
X120561561Y-111567895D01*
X120631917Y-111686862D01*
X120636702Y-111693031D01*
X120634256Y-111694927D01*
X120660857Y-111743642D01*
X120655873Y-111813334D01*
X120635069Y-111845703D01*
X120636702Y-111846969D01*
X120631917Y-111853137D01*
X120548255Y-111994603D01*
X120548254Y-111994606D01*
X120502402Y-112152426D01*
X120502401Y-112152432D01*
X120499500Y-112189298D01*
X120499500Y-112620701D01*
X120502401Y-112657567D01*
X120502402Y-112657573D01*
X120548254Y-112815393D01*
X120548255Y-112815396D01*
X120631917Y-112956862D01*
X120631923Y-112956870D01*
X120748129Y-113073076D01*
X120748133Y-113073079D01*
X120748135Y-113073081D01*
X120889602Y-113156744D01*
X120902269Y-113160424D01*
X121047426Y-113202597D01*
X121047429Y-113202597D01*
X121047431Y-113202598D01*
X121084306Y-113205500D01*
X121084314Y-113205500D01*
X122865686Y-113205500D01*
X122865694Y-113205500D01*
X122902569Y-113202598D01*
X122902571Y-113202597D01*
X122902573Y-113202597D01*
X123047733Y-113160424D01*
X123082328Y-113155500D01*
X123092770Y-113155500D01*
X123159809Y-113175185D01*
X123180451Y-113191819D01*
X123513181Y-113524549D01*
X123546666Y-113585872D01*
X123549500Y-113612230D01*
X123549500Y-114025001D01*
X123549501Y-114025019D01*
X123560000Y-114127796D01*
X123560001Y-114127799D01*
X123607125Y-114270008D01*
X123615186Y-114294334D01*
X123707288Y-114443656D01*
X123831344Y-114567712D01*
X123980666Y-114659814D01*
X124147203Y-114714999D01*
X124249991Y-114725500D01*
X124850008Y-114725499D01*
X124850016Y-114725498D01*
X124850019Y-114725498D01*
X124906302Y-114719748D01*
X124952797Y-114714999D01*
X125119334Y-114659814D01*
X125268656Y-114567712D01*
X125392712Y-114443656D01*
X125394461Y-114440819D01*
X125396169Y-114439283D01*
X125397193Y-114437989D01*
X125397414Y-114438163D01*
X125446406Y-114394096D01*
X125515368Y-114382872D01*
X125579451Y-114410713D01*
X125605537Y-114440817D01*
X125607288Y-114443656D01*
X125731344Y-114567712D01*
X125880666Y-114659814D01*
X126047203Y-114714999D01*
X126149991Y-114725500D01*
X126750008Y-114725499D01*
X126750016Y-114725498D01*
X126750019Y-114725498D01*
X126806302Y-114719748D01*
X126852797Y-114714999D01*
X127019334Y-114659814D01*
X127168656Y-114567712D01*
X127187462Y-114548905D01*
X127248782Y-114515420D01*
X127318474Y-114520403D01*
X127352052Y-114539319D01*
X127356337Y-114542707D01*
X127356342Y-114542710D01*
X127356344Y-114542712D01*
X127505666Y-114634814D01*
X127672203Y-114689999D01*
X127774991Y-114700500D01*
X128400008Y-114700499D01*
X128400016Y-114700498D01*
X128400019Y-114700498D01*
X128473487Y-114692993D01*
X128502797Y-114689999D01*
X128669334Y-114634814D01*
X128818656Y-114542712D01*
X128912675Y-114448692D01*
X128973994Y-114415210D01*
X129043686Y-114420194D01*
X129088034Y-114448695D01*
X129181654Y-114542315D01*
X129330875Y-114634356D01*
X129330880Y-114634358D01*
X129497302Y-114689505D01*
X129497309Y-114689506D01*
X129600019Y-114699999D01*
X129662499Y-114699998D01*
X129662500Y-114699998D01*
X129662500Y-113750000D01*
X130162500Y-113750000D01*
X130162500Y-114699999D01*
X130224972Y-114699999D01*
X130224986Y-114699998D01*
X130327697Y-114689505D01*
X130494119Y-114634358D01*
X130494124Y-114634356D01*
X130643345Y-114542315D01*
X130767315Y-114418345D01*
X130859356Y-114269124D01*
X130859358Y-114269119D01*
X130914505Y-114102697D01*
X130914506Y-114102690D01*
X130924999Y-113999986D01*
X130925000Y-113999973D01*
X130925000Y-113750000D01*
X130162500Y-113750000D01*
X129662500Y-113750000D01*
X129662500Y-113374000D01*
X129682185Y-113306961D01*
X129734989Y-113261206D01*
X129786500Y-113250000D01*
X130924999Y-113250000D01*
X130924999Y-113000028D01*
X130924998Y-113000013D01*
X130914505Y-112897302D01*
X130859358Y-112730880D01*
X130859356Y-112730875D01*
X130770943Y-112587536D01*
X130752503Y-112520144D01*
X130773425Y-112453480D01*
X130827067Y-112408710D01*
X130863877Y-112399082D01*
X130952797Y-112389999D01*
X131119334Y-112334814D01*
X131268656Y-112242712D01*
X131392712Y-112118656D01*
X131484814Y-111969334D01*
X131539999Y-111802797D01*
X131550500Y-111700009D01*
X131550499Y-111169579D01*
X131570183Y-111102541D01*
X131622987Y-111056786D01*
X131692146Y-111046842D01*
X131755702Y-111075867D01*
X131768788Y-111089047D01*
X131834276Y-111165724D01*
X131956585Y-111270185D01*
X132030985Y-111333729D01*
X132030990Y-111333732D01*
X132251558Y-111468897D01*
X132336057Y-111503897D01*
X132490560Y-111567895D01*
X132742105Y-111628285D01*
X133000000Y-111648582D01*
X133257895Y-111628285D01*
X133509440Y-111567895D01*
X133748441Y-111468897D01*
X133969012Y-111333731D01*
X134165724Y-111165724D01*
X134165725Y-111165722D01*
X134169428Y-111162560D01*
X134170993Y-111164392D01*
X134223642Y-111135644D01*
X134293334Y-111140628D01*
X134329469Y-111163851D01*
X134330572Y-111162560D01*
X134334274Y-111165722D01*
X134334276Y-111165724D01*
X134425153Y-111243340D01*
X134530985Y-111333729D01*
X134530990Y-111333732D01*
X134751558Y-111468897D01*
X134836057Y-111503897D01*
X134990560Y-111567895D01*
X135242105Y-111628285D01*
X135500000Y-111648582D01*
X135757895Y-111628285D01*
X136009440Y-111567895D01*
X136248441Y-111468897D01*
X136469012Y-111333731D01*
X136665724Y-111165724D01*
X136833731Y-110969012D01*
X136931351Y-110809709D01*
X136983162Y-110762835D01*
X137037078Y-110750500D01*
X138962922Y-110750500D01*
X139029961Y-110770185D01*
X139068648Y-110809709D01*
X139095516Y-110853553D01*
X139166269Y-110969013D01*
X139166270Y-110969014D01*
X139223369Y-111035868D01*
X139334276Y-111165724D01*
X139456585Y-111270185D01*
X139530985Y-111333729D01*
X139530990Y-111333732D01*
X139751558Y-111468897D01*
X139836057Y-111503897D01*
X139990560Y-111567895D01*
X140242105Y-111628285D01*
X140500000Y-111648582D01*
X140757895Y-111628285D01*
X141009440Y-111567895D01*
X141248441Y-111468897D01*
X141469012Y-111333731D01*
X141665724Y-111165724D01*
X141665725Y-111165722D01*
X141669428Y-111162560D01*
X141670993Y-111164392D01*
X141723642Y-111135644D01*
X141793334Y-111140628D01*
X141829469Y-111163851D01*
X141830572Y-111162560D01*
X141834274Y-111165722D01*
X141834276Y-111165724D01*
X141925153Y-111243340D01*
X142030985Y-111333729D01*
X142030990Y-111333732D01*
X142251558Y-111468897D01*
X142336057Y-111503897D01*
X142490560Y-111567895D01*
X142742105Y-111628285D01*
X143000000Y-111648582D01*
X143257895Y-111628285D01*
X143509440Y-111567895D01*
X143748441Y-111468897D01*
X143969012Y-111333731D01*
X144165724Y-111165724D01*
X144333731Y-110969012D01*
X144468897Y-110748441D01*
X144567895Y-110509440D01*
X144628285Y-110257895D01*
X144648582Y-110000000D01*
X144628285Y-109742105D01*
X144567895Y-109490560D01*
X144491324Y-109305703D01*
X144468897Y-109251558D01*
X144349269Y-109056344D01*
X144333731Y-109030988D01*
X144333730Y-109030987D01*
X144333729Y-109030985D01*
X144255279Y-108939132D01*
X144165724Y-108834276D01*
X143982175Y-108677511D01*
X143969014Y-108666270D01*
X143969009Y-108666267D01*
X143748441Y-108531102D01*
X143509442Y-108432106D01*
X143509444Y-108432106D01*
X143509440Y-108432105D01*
X143509436Y-108432104D01*
X143509430Y-108432102D01*
X143257898Y-108371715D01*
X143000000Y-108351418D01*
X142742101Y-108371715D01*
X142490569Y-108432102D01*
X142490557Y-108432106D01*
X142251558Y-108531102D01*
X142030990Y-108666267D01*
X142030985Y-108666270D01*
X141903678Y-108775001D01*
X141834276Y-108834276D01*
X141834274Y-108834277D01*
X141830572Y-108837440D01*
X141829006Y-108835607D01*
X141776358Y-108864356D01*
X141706666Y-108859372D01*
X141670530Y-108836148D01*
X141669428Y-108837440D01*
X141665725Y-108834277D01*
X141665724Y-108834276D01*
X141482175Y-108677511D01*
X141469014Y-108666270D01*
X141469009Y-108666267D01*
X141248441Y-108531102D01*
X141009442Y-108432106D01*
X141009444Y-108432106D01*
X141009440Y-108432105D01*
X141009436Y-108432104D01*
X141009430Y-108432102D01*
X140757898Y-108371715D01*
X140500000Y-108351418D01*
X140242101Y-108371715D01*
X139990569Y-108432102D01*
X139990557Y-108432106D01*
X139751558Y-108531102D01*
X139530990Y-108666267D01*
X139530985Y-108666270D01*
X139334276Y-108834276D01*
X139166270Y-109030985D01*
X139166269Y-109030986D01*
X139098537Y-109141515D01*
X139068648Y-109190290D01*
X139016838Y-109237165D01*
X138962922Y-109249500D01*
X137037078Y-109249500D01*
X136970039Y-109229815D01*
X136931351Y-109190290D01*
X136833731Y-109030988D01*
X136833730Y-109030986D01*
X136833729Y-109030985D01*
X136755279Y-108939132D01*
X136665724Y-108834276D01*
X136482175Y-108677511D01*
X136469014Y-108666270D01*
X136469009Y-108666267D01*
X136248441Y-108531102D01*
X136009442Y-108432106D01*
X136009444Y-108432106D01*
X136009440Y-108432105D01*
X136009436Y-108432104D01*
X136009430Y-108432102D01*
X135757898Y-108371715D01*
X135500000Y-108351418D01*
X135242101Y-108371715D01*
X134990569Y-108432102D01*
X134990557Y-108432106D01*
X134751558Y-108531102D01*
X134530990Y-108666267D01*
X134530985Y-108666270D01*
X134403678Y-108775001D01*
X134334276Y-108834276D01*
X134334274Y-108834277D01*
X134330572Y-108837440D01*
X134329006Y-108835607D01*
X134276358Y-108864356D01*
X134206666Y-108859372D01*
X134170530Y-108836148D01*
X134169428Y-108837440D01*
X134165725Y-108834277D01*
X134165724Y-108834276D01*
X133982175Y-108677511D01*
X133969014Y-108666270D01*
X133969009Y-108666267D01*
X133748441Y-108531102D01*
X133509442Y-108432106D01*
X133509444Y-108432106D01*
X133509440Y-108432105D01*
X133509436Y-108432104D01*
X133509430Y-108432102D01*
X133257898Y-108371715D01*
X133000000Y-108351418D01*
X132742101Y-108371715D01*
X132490569Y-108432102D01*
X132490557Y-108432106D01*
X132251558Y-108531102D01*
X132030990Y-108666267D01*
X132030985Y-108666270D01*
X131834276Y-108834276D01*
X131666270Y-109030985D01*
X131666269Y-109030986D01*
X131598537Y-109141515D01*
X131568648Y-109190290D01*
X131516838Y-109237165D01*
X131462922Y-109249500D01*
X131401076Y-109249500D01*
X131372242Y-109255234D01*
X131372243Y-109255235D01*
X131256093Y-109278339D01*
X131256089Y-109278340D01*
X131197047Y-109302797D01*
X131119507Y-109334914D01*
X131119498Y-109334919D01*
X131063702Y-109372202D01*
X131051040Y-109380663D01*
X130996585Y-109417048D01*
X130850449Y-109563182D01*
X130789128Y-109596666D01*
X130762770Y-109599500D01*
X130099998Y-109599500D01*
X130099980Y-109599501D01*
X129997203Y-109610000D01*
X129997200Y-109610001D01*
X129830668Y-109665185D01*
X129830663Y-109665187D01*
X129681342Y-109757289D01*
X129557289Y-109881342D01*
X129465187Y-110030663D01*
X129465186Y-110030666D01*
X129410001Y-110197203D01*
X129410001Y-110197204D01*
X129410000Y-110197204D01*
X129399500Y-110299983D01*
X129399500Y-111700001D01*
X129399501Y-111700018D01*
X129410000Y-111802796D01*
X129410001Y-111802799D01*
X129443929Y-111905185D01*
X129465186Y-111969334D01*
X129544042Y-112097181D01*
X129561080Y-112124803D01*
X129559205Y-112125959D01*
X129581329Y-112180788D01*
X129568293Y-112249431D01*
X129520216Y-112300129D01*
X129496928Y-112310618D01*
X129330878Y-112365642D01*
X129330875Y-112365643D01*
X129181657Y-112457682D01*
X129088034Y-112551305D01*
X129026710Y-112584789D01*
X128957019Y-112579805D01*
X128912672Y-112551304D01*
X128818657Y-112457289D01*
X128818656Y-112457288D01*
X128670075Y-112365643D01*
X128669336Y-112365187D01*
X128669335Y-112365186D01*
X128669334Y-112365186D01*
X128503401Y-112310201D01*
X128445957Y-112270428D01*
X128419134Y-112205912D01*
X128431449Y-112137136D01*
X128439182Y-112124965D01*
X128438920Y-112124803D01*
X128442710Y-112118657D01*
X128442712Y-112118656D01*
X128534814Y-111969334D01*
X128589999Y-111802797D01*
X128600500Y-111700009D01*
X128600499Y-110299992D01*
X128597986Y-110275396D01*
X128589999Y-110197203D01*
X128589998Y-110197200D01*
X128534814Y-110030666D01*
X128442712Y-109881344D01*
X128373695Y-109812327D01*
X128340211Y-109751003D01*
X128345196Y-109681312D01*
X128373698Y-109636963D01*
X128392314Y-109618347D01*
X128484356Y-109469124D01*
X128484358Y-109469119D01*
X128539505Y-109302697D01*
X128539506Y-109302690D01*
X128549999Y-109199986D01*
X128550000Y-109199973D01*
X128550000Y-108750000D01*
X127349000Y-108750000D01*
X127281961Y-108730315D01*
X127236206Y-108677511D01*
X127225000Y-108626000D01*
X127225000Y-108374000D01*
X127244685Y-108306961D01*
X127297489Y-108261206D01*
X127349000Y-108250000D01*
X128549999Y-108250000D01*
X128549999Y-107800028D01*
X128549998Y-107800013D01*
X128539505Y-107697302D01*
X128484358Y-107530880D01*
X128484356Y-107530875D01*
X128392315Y-107381654D01*
X128268341Y-107257680D01*
X128264905Y-107254963D01*
X128224529Y-107197940D01*
X128221392Y-107128141D01*
X128256490Y-107067726D01*
X128302812Y-107039993D01*
X128469334Y-106984814D01*
X128618656Y-106892712D01*
X128742712Y-106768656D01*
X128834814Y-106619334D01*
X128889999Y-106452797D01*
X128900500Y-106350009D01*
X128900499Y-105675938D01*
X128920183Y-105608900D01*
X128972987Y-105563145D01*
X129042146Y-105553201D01*
X129105702Y-105582226D01*
X129115725Y-105591953D01*
X129130256Y-105607738D01*
X129326491Y-105760474D01*
X129326493Y-105760475D01*
X129537617Y-105874730D01*
X129545190Y-105878828D01*
X129780386Y-105959571D01*
X130025665Y-106000500D01*
X130274335Y-106000500D01*
X130519614Y-105959571D01*
X130754810Y-105878828D01*
X130973509Y-105760474D01*
X131169744Y-105607738D01*
X131338164Y-105424785D01*
X131415327Y-105306677D01*
X131468474Y-105261322D01*
X131519136Y-105250500D01*
X131523920Y-105250500D01*
X131627906Y-105229815D01*
X131668913Y-105221658D01*
X131805495Y-105165084D01*
X131854729Y-105132186D01*
X131928416Y-105082952D01*
X132511362Y-104500005D01*
X141344357Y-104500005D01*
X141364890Y-104747812D01*
X141364892Y-104747824D01*
X141425936Y-104988881D01*
X141525826Y-105216606D01*
X141661833Y-105424782D01*
X141675040Y-105439128D01*
X141830256Y-105607738D01*
X142026491Y-105760474D01*
X142026493Y-105760475D01*
X142237617Y-105874730D01*
X142245190Y-105878828D01*
X142480386Y-105959571D01*
X142725665Y-106000500D01*
X142974335Y-106000500D01*
X143219614Y-105959571D01*
X143454810Y-105878828D01*
X143673509Y-105760474D01*
X143869744Y-105607738D01*
X144038164Y-105424785D01*
X144115327Y-105306677D01*
X144168474Y-105261322D01*
X144219136Y-105250500D01*
X145123920Y-105250500D01*
X145227906Y-105229815D01*
X145268913Y-105221658D01*
X145405495Y-105165084D01*
X145454729Y-105132186D01*
X145528416Y-105082952D01*
X145587821Y-105023545D01*
X145649141Y-104990063D01*
X145718833Y-104995047D01*
X145774767Y-105036918D01*
X145799184Y-105102382D01*
X145799500Y-105111229D01*
X145799500Y-105412770D01*
X145779815Y-105479809D01*
X145763181Y-105500451D01*
X145707289Y-105556342D01*
X145615187Y-105705663D01*
X145615185Y-105705668D01*
X145597024Y-105760474D01*
X145560001Y-105872203D01*
X145560001Y-105872204D01*
X145560000Y-105872204D01*
X145549500Y-105974983D01*
X145549500Y-107025001D01*
X145549501Y-107025019D01*
X145560000Y-107127796D01*
X145560001Y-107127799D01*
X145615115Y-107294119D01*
X145615186Y-107294334D01*
X145707096Y-107443345D01*
X145707289Y-107443657D01*
X145763181Y-107499549D01*
X145796666Y-107560872D01*
X145799500Y-107587230D01*
X145799500Y-108912770D01*
X145779815Y-108979809D01*
X145763181Y-109000451D01*
X145707289Y-109056342D01*
X145615187Y-109205663D01*
X145615185Y-109205668D01*
X145560000Y-109372204D01*
X145549500Y-109474983D01*
X145549500Y-110525001D01*
X145549501Y-110525019D01*
X145560000Y-110627796D01*
X145560001Y-110627799D01*
X145615185Y-110794331D01*
X145615187Y-110794336D01*
X145630109Y-110818528D01*
X145707096Y-110943345D01*
X145707289Y-110943657D01*
X145763181Y-110999549D01*
X145796666Y-111060872D01*
X145799500Y-111087230D01*
X145799500Y-112412770D01*
X145779815Y-112479809D01*
X145763181Y-112500451D01*
X145707289Y-112556342D01*
X145615187Y-112705663D01*
X145615185Y-112705668D01*
X145606831Y-112730880D01*
X145560001Y-112872203D01*
X145560001Y-112872204D01*
X145560000Y-112872204D01*
X145549500Y-112974983D01*
X145549500Y-114025001D01*
X145549501Y-114025019D01*
X145560000Y-114127796D01*
X145560001Y-114127799D01*
X145607125Y-114270008D01*
X145615186Y-114294334D01*
X145707096Y-114443345D01*
X145707289Y-114443657D01*
X145763181Y-114499549D01*
X145796666Y-114560872D01*
X145799500Y-114587230D01*
X145799500Y-117123918D01*
X145799500Y-117123920D01*
X145799499Y-117123920D01*
X145828340Y-117268907D01*
X145828343Y-117268917D01*
X145884914Y-117405492D01*
X145917812Y-117454727D01*
X145917813Y-117454730D01*
X145967046Y-117528414D01*
X145967047Y-117528415D01*
X145967048Y-117528416D01*
X146113182Y-117674550D01*
X146146666Y-117735872D01*
X146149500Y-117762230D01*
X146149500Y-118897870D01*
X146149501Y-118897876D01*
X146155908Y-118957483D01*
X146206202Y-119092328D01*
X146206206Y-119092335D01*
X146292452Y-119207544D01*
X146292455Y-119207547D01*
X146407664Y-119293793D01*
X146407671Y-119293797D01*
X146542517Y-119344091D01*
X146542516Y-119344091D01*
X146549444Y-119344835D01*
X146602127Y-119350500D01*
X148397872Y-119350499D01*
X148457483Y-119344091D01*
X148592331Y-119293796D01*
X148707546Y-119207546D01*
X148793796Y-119092331D01*
X148844091Y-118957483D01*
X148850500Y-118897873D01*
X148850499Y-117102128D01*
X148844091Y-117042517D01*
X148793796Y-116907669D01*
X148793795Y-116907668D01*
X148793793Y-116907664D01*
X148707547Y-116792455D01*
X148707544Y-116792452D01*
X148592335Y-116706206D01*
X148592328Y-116706202D01*
X148457482Y-116655908D01*
X148457483Y-116655908D01*
X148397883Y-116649501D01*
X148397881Y-116649500D01*
X148397873Y-116649500D01*
X148397865Y-116649500D01*
X147424500Y-116649500D01*
X147357461Y-116629815D01*
X147311706Y-116577011D01*
X147300500Y-116525500D01*
X147300500Y-114587230D01*
X147320185Y-114520191D01*
X147336819Y-114499549D01*
X147345654Y-114490714D01*
X147392712Y-114443656D01*
X147394752Y-114440347D01*
X147396745Y-114438555D01*
X147397193Y-114437989D01*
X147397289Y-114438065D01*
X147446694Y-114393623D01*
X147515656Y-114382395D01*
X147579740Y-114410234D01*
X147605829Y-114440339D01*
X147607681Y-114443341D01*
X147607683Y-114443344D01*
X147731654Y-114567315D01*
X147880875Y-114659356D01*
X147880880Y-114659358D01*
X148047302Y-114714505D01*
X148047309Y-114714506D01*
X148150019Y-114724999D01*
X148199999Y-114724998D01*
X148200000Y-114724998D01*
X148200000Y-113750000D01*
X148700000Y-113750000D01*
X148700000Y-114724999D01*
X148749972Y-114724999D01*
X148749986Y-114724998D01*
X148852697Y-114714505D01*
X149019119Y-114659358D01*
X149019124Y-114659356D01*
X149168345Y-114567315D01*
X149292315Y-114443345D01*
X149384356Y-114294124D01*
X149384358Y-114294119D01*
X149439505Y-114127697D01*
X149439506Y-114127690D01*
X149449999Y-114024986D01*
X149450000Y-114024973D01*
X149450000Y-113750000D01*
X148700000Y-113750000D01*
X148200000Y-113750000D01*
X148200000Y-112275000D01*
X148700000Y-112275000D01*
X148700000Y-113250000D01*
X149449999Y-113250000D01*
X149449999Y-112975028D01*
X149449998Y-112975013D01*
X149439505Y-112872302D01*
X149384358Y-112705880D01*
X149384356Y-112705875D01*
X149292315Y-112556654D01*
X149168345Y-112432684D01*
X149019124Y-112340643D01*
X149019119Y-112340641D01*
X148852697Y-112285494D01*
X148852690Y-112285493D01*
X148749986Y-112275000D01*
X148700000Y-112275000D01*
X148200000Y-112275000D01*
X148199999Y-112274999D01*
X148150029Y-112275000D01*
X148150011Y-112275001D01*
X148047302Y-112285494D01*
X147880880Y-112340641D01*
X147880875Y-112340643D01*
X147731654Y-112432684D01*
X147607683Y-112556655D01*
X147607679Y-112556660D01*
X147605826Y-112559665D01*
X147604018Y-112561290D01*
X147603202Y-112562323D01*
X147603025Y-112562183D01*
X147553874Y-112606385D01*
X147484911Y-112617601D01*
X147420831Y-112589752D01*
X147394753Y-112559653D01*
X147394737Y-112559628D01*
X147392712Y-112556344D01*
X147336819Y-112500451D01*
X147303334Y-112439128D01*
X147300500Y-112412770D01*
X147300500Y-111087230D01*
X147320185Y-111020191D01*
X147336819Y-110999549D01*
X147350501Y-110985867D01*
X147392712Y-110943656D01*
X147394752Y-110940347D01*
X147396745Y-110938555D01*
X147397193Y-110937989D01*
X147397289Y-110938065D01*
X147446694Y-110893623D01*
X147515656Y-110882395D01*
X147579740Y-110910234D01*
X147605829Y-110940339D01*
X147607681Y-110943341D01*
X147607683Y-110943344D01*
X147731654Y-111067315D01*
X147880875Y-111159356D01*
X147880880Y-111159358D01*
X148047302Y-111214505D01*
X148047309Y-111214506D01*
X148150019Y-111224999D01*
X148199999Y-111224998D01*
X148200000Y-111224998D01*
X148200000Y-110250000D01*
X148700000Y-110250000D01*
X148700000Y-111224999D01*
X148749972Y-111224999D01*
X148749986Y-111224998D01*
X148852697Y-111214505D01*
X149019119Y-111159358D01*
X149019124Y-111159356D01*
X149168345Y-111067315D01*
X149292315Y-110943345D01*
X149384356Y-110794124D01*
X149384358Y-110794119D01*
X149439505Y-110627697D01*
X149439506Y-110627690D01*
X149449999Y-110524986D01*
X149450000Y-110524973D01*
X149450000Y-110250000D01*
X148700000Y-110250000D01*
X148200000Y-110250000D01*
X148200000Y-108775000D01*
X148700000Y-108775000D01*
X148700000Y-109750000D01*
X149449999Y-109750000D01*
X149449999Y-109475028D01*
X149449998Y-109475013D01*
X149439505Y-109372302D01*
X149384358Y-109205880D01*
X149384356Y-109205875D01*
X149292315Y-109056654D01*
X149168345Y-108932684D01*
X149019124Y-108840643D01*
X149019119Y-108840641D01*
X148852697Y-108785494D01*
X148852690Y-108785493D01*
X148749986Y-108775000D01*
X148700000Y-108775000D01*
X148200000Y-108775000D01*
X148199999Y-108774999D01*
X148150029Y-108775000D01*
X148150011Y-108775001D01*
X148047302Y-108785494D01*
X147880880Y-108840641D01*
X147880875Y-108840643D01*
X147731654Y-108932684D01*
X147607683Y-109056655D01*
X147607679Y-109056660D01*
X147605826Y-109059665D01*
X147604018Y-109061290D01*
X147603202Y-109062323D01*
X147603025Y-109062183D01*
X147553874Y-109106385D01*
X147484911Y-109117601D01*
X147420831Y-109089752D01*
X147394753Y-109059653D01*
X147394737Y-109059628D01*
X147392712Y-109056344D01*
X147336819Y-109000451D01*
X147303334Y-108939128D01*
X147300500Y-108912770D01*
X147300500Y-107587230D01*
X147320185Y-107520191D01*
X147336819Y-107499549D01*
X147355705Y-107480663D01*
X147392712Y-107443656D01*
X147394752Y-107440347D01*
X147396745Y-107438555D01*
X147397193Y-107437989D01*
X147397289Y-107438065D01*
X147446694Y-107393623D01*
X147515656Y-107382395D01*
X147579740Y-107410234D01*
X147605829Y-107440339D01*
X147607681Y-107443341D01*
X147607683Y-107443344D01*
X147731654Y-107567315D01*
X147880875Y-107659356D01*
X147880880Y-107659358D01*
X148047302Y-107714505D01*
X148047309Y-107714506D01*
X148150019Y-107724999D01*
X148199999Y-107724998D01*
X148200000Y-107724998D01*
X148200000Y-106750000D01*
X148700000Y-106750000D01*
X148700000Y-107724999D01*
X148749972Y-107724999D01*
X148749986Y-107724998D01*
X148852697Y-107714505D01*
X149019119Y-107659358D01*
X149019124Y-107659356D01*
X149168345Y-107567315D01*
X149292315Y-107443345D01*
X149384356Y-107294124D01*
X149384358Y-107294119D01*
X149439505Y-107127697D01*
X149439506Y-107127690D01*
X149449999Y-107024986D01*
X149450000Y-107024973D01*
X149450000Y-106750000D01*
X148700000Y-106750000D01*
X148200000Y-106750000D01*
X148200000Y-105275000D01*
X148700000Y-105275000D01*
X148700000Y-106250000D01*
X149449999Y-106250000D01*
X149449999Y-105975028D01*
X149449998Y-105975013D01*
X149439505Y-105872302D01*
X149384358Y-105705880D01*
X149384356Y-105705875D01*
X149292315Y-105556654D01*
X149168345Y-105432684D01*
X149019124Y-105340643D01*
X149019119Y-105340641D01*
X148852697Y-105285494D01*
X148852690Y-105285493D01*
X148749986Y-105275000D01*
X148700000Y-105275000D01*
X148200000Y-105275000D01*
X148199999Y-105274999D01*
X148150029Y-105275000D01*
X148150011Y-105275001D01*
X148047302Y-105285494D01*
X147880880Y-105340641D01*
X147880875Y-105340643D01*
X147731654Y-105432684D01*
X147607683Y-105556655D01*
X147607679Y-105556660D01*
X147605826Y-105559665D01*
X147604018Y-105561290D01*
X147603202Y-105562323D01*
X147603025Y-105562183D01*
X147553874Y-105606385D01*
X147484911Y-105617601D01*
X147420831Y-105589752D01*
X147394753Y-105559653D01*
X147394737Y-105559628D01*
X147392712Y-105556344D01*
X147336819Y-105500451D01*
X147303334Y-105439128D01*
X147300500Y-105412770D01*
X147300500Y-104087230D01*
X147320185Y-104020191D01*
X147336819Y-103999549D01*
X147350654Y-103985714D01*
X147392712Y-103943656D01*
X147394752Y-103940347D01*
X147396745Y-103938555D01*
X147397193Y-103937989D01*
X147397289Y-103938065D01*
X147446694Y-103893623D01*
X147515656Y-103882395D01*
X147579740Y-103910234D01*
X147605829Y-103940339D01*
X147607681Y-103943341D01*
X147607683Y-103943344D01*
X147731654Y-104067315D01*
X147880875Y-104159356D01*
X147880880Y-104159358D01*
X148047302Y-104214505D01*
X148047309Y-104214506D01*
X148150019Y-104224999D01*
X148199999Y-104224998D01*
X148200000Y-104224998D01*
X148200000Y-103250000D01*
X148700000Y-103250000D01*
X148700000Y-104224999D01*
X148749972Y-104224999D01*
X148749986Y-104224998D01*
X148852697Y-104214505D01*
X149019119Y-104159358D01*
X149019124Y-104159356D01*
X149168345Y-104067315D01*
X149292315Y-103943345D01*
X149384356Y-103794124D01*
X149384358Y-103794119D01*
X149439505Y-103627697D01*
X149439506Y-103627690D01*
X149449999Y-103524986D01*
X149450000Y-103524973D01*
X149450000Y-103250000D01*
X148700000Y-103250000D01*
X148200000Y-103250000D01*
X148200000Y-101775000D01*
X148700000Y-101775000D01*
X148700000Y-102750000D01*
X149449999Y-102750000D01*
X149449999Y-102475028D01*
X149449998Y-102475013D01*
X149439505Y-102372302D01*
X149384358Y-102205880D01*
X149384356Y-102205875D01*
X149292315Y-102056654D01*
X149168345Y-101932684D01*
X149019124Y-101840643D01*
X149019119Y-101840641D01*
X148852697Y-101785494D01*
X148852690Y-101785493D01*
X148749986Y-101775000D01*
X148700000Y-101775000D01*
X148200000Y-101775000D01*
X148199999Y-101774999D01*
X148150029Y-101775000D01*
X148150011Y-101775001D01*
X148047302Y-101785494D01*
X147880880Y-101840641D01*
X147880875Y-101840643D01*
X147731654Y-101932684D01*
X147607683Y-102056655D01*
X147607679Y-102056660D01*
X147605826Y-102059665D01*
X147604018Y-102061290D01*
X147603202Y-102062323D01*
X147603025Y-102062183D01*
X147553874Y-102106385D01*
X147484911Y-102117601D01*
X147420831Y-102089752D01*
X147394753Y-102059653D01*
X147394737Y-102059628D01*
X147392712Y-102056344D01*
X147336819Y-102000451D01*
X147303334Y-101939128D01*
X147300500Y-101912770D01*
X147300500Y-100587230D01*
X147320185Y-100520191D01*
X147336819Y-100499549D01*
X147392712Y-100443656D01*
X147394752Y-100440347D01*
X147396745Y-100438555D01*
X147397193Y-100437989D01*
X147397289Y-100438065D01*
X147446694Y-100393623D01*
X147515656Y-100382395D01*
X147579740Y-100410234D01*
X147605829Y-100440339D01*
X147607681Y-100443341D01*
X147607683Y-100443344D01*
X147731654Y-100567315D01*
X147880875Y-100659356D01*
X147880880Y-100659358D01*
X148047302Y-100714505D01*
X148047309Y-100714506D01*
X148150019Y-100724999D01*
X148199999Y-100724998D01*
X148200000Y-100724998D01*
X148200000Y-99750000D01*
X148700000Y-99750000D01*
X148700000Y-100724999D01*
X148749972Y-100724999D01*
X148749986Y-100724998D01*
X148852697Y-100714505D01*
X149019119Y-100659358D01*
X149019124Y-100659356D01*
X149168345Y-100567315D01*
X149292315Y-100443345D01*
X149384356Y-100294124D01*
X149384358Y-100294119D01*
X149439505Y-100127697D01*
X149439506Y-100127690D01*
X149449999Y-100024986D01*
X149450000Y-100024973D01*
X149450000Y-99750000D01*
X148700000Y-99750000D01*
X148200000Y-99750000D01*
X148200000Y-98275000D01*
X148700000Y-98275000D01*
X148700000Y-99250000D01*
X149449999Y-99250000D01*
X149449999Y-98975028D01*
X149449998Y-98975013D01*
X149439505Y-98872302D01*
X149384358Y-98705880D01*
X149384356Y-98705875D01*
X149292315Y-98556654D01*
X149168345Y-98432684D01*
X149019124Y-98340643D01*
X149019119Y-98340641D01*
X148852697Y-98285494D01*
X148852690Y-98285493D01*
X148749986Y-98275000D01*
X148700000Y-98275000D01*
X148200000Y-98275000D01*
X148199999Y-98274999D01*
X148150029Y-98275000D01*
X148150011Y-98275001D01*
X148047302Y-98285494D01*
X147880880Y-98340641D01*
X147880875Y-98340643D01*
X147731654Y-98432684D01*
X147607683Y-98556655D01*
X147607679Y-98556660D01*
X147605826Y-98559665D01*
X147604018Y-98561290D01*
X147603202Y-98562323D01*
X147603025Y-98562183D01*
X147553874Y-98606385D01*
X147484911Y-98617601D01*
X147420831Y-98589752D01*
X147394753Y-98559653D01*
X147394737Y-98559628D01*
X147392712Y-98556344D01*
X147268656Y-98432288D01*
X147147377Y-98357483D01*
X147119336Y-98340187D01*
X147119331Y-98340185D01*
X147117862Y-98339698D01*
X146952797Y-98285001D01*
X146952795Y-98285000D01*
X146850010Y-98274500D01*
X146249998Y-98274500D01*
X146249980Y-98274501D01*
X146147203Y-98285000D01*
X146147200Y-98285001D01*
X145980668Y-98340185D01*
X145980663Y-98340187D01*
X145831342Y-98432289D01*
X145707289Y-98556342D01*
X145615187Y-98705663D01*
X145615185Y-98705668D01*
X145608776Y-98725009D01*
X145560001Y-98872203D01*
X145560001Y-98872204D01*
X145560000Y-98872204D01*
X145549500Y-98974983D01*
X145549500Y-100025001D01*
X145549501Y-100025019D01*
X145560000Y-100127796D01*
X145560001Y-100127799D01*
X145615185Y-100294331D01*
X145615187Y-100294336D01*
X145650069Y-100350888D01*
X145707096Y-100443345D01*
X145707289Y-100443657D01*
X145763181Y-100499549D01*
X145796666Y-100560872D01*
X145799500Y-100587230D01*
X145799500Y-101912770D01*
X145779815Y-101979809D01*
X145763181Y-102000451D01*
X145707289Y-102056342D01*
X145615187Y-102205663D01*
X145615185Y-102205668D01*
X145608630Y-102225451D01*
X145560001Y-102372203D01*
X145560001Y-102372204D01*
X145560000Y-102372204D01*
X145549500Y-102474983D01*
X145549500Y-102887770D01*
X145529815Y-102954809D01*
X145513181Y-102975451D01*
X144775451Y-103713181D01*
X144714128Y-103746666D01*
X144687770Y-103749500D01*
X144219136Y-103749500D01*
X144152097Y-103729815D01*
X144115327Y-103693322D01*
X144038164Y-103575215D01*
X143869744Y-103392262D01*
X143673509Y-103239526D01*
X143673507Y-103239525D01*
X143673506Y-103239524D01*
X143454811Y-103121172D01*
X143454802Y-103121169D01*
X143219616Y-103040429D01*
X142974335Y-102999500D01*
X142725665Y-102999500D01*
X142480383Y-103040429D01*
X142245197Y-103121169D01*
X142245188Y-103121172D01*
X142026493Y-103239524D01*
X141830257Y-103392261D01*
X141661833Y-103575217D01*
X141525826Y-103783393D01*
X141425936Y-104011118D01*
X141364892Y-104252175D01*
X141364890Y-104252187D01*
X141344357Y-104499994D01*
X141344357Y-104500005D01*
X132511362Y-104500005D01*
X135249548Y-101761817D01*
X135310871Y-101728333D01*
X135337229Y-101725499D01*
X135750002Y-101725499D01*
X135750008Y-101725499D01*
X135852797Y-101714999D01*
X136019334Y-101659814D01*
X136168656Y-101567712D01*
X136292712Y-101443656D01*
X136384814Y-101294334D01*
X136439999Y-101127797D01*
X136450500Y-101025009D01*
X136450499Y-99974992D01*
X136443900Y-99910396D01*
X136439999Y-99872203D01*
X136439998Y-99872200D01*
X136435978Y-99860068D01*
X136384814Y-99705666D01*
X136292712Y-99556344D01*
X136236819Y-99500451D01*
X136203334Y-99439128D01*
X136200500Y-99412770D01*
X136200500Y-97326079D01*
X136171659Y-97181092D01*
X136171658Y-97181091D01*
X136171658Y-97181087D01*
X136166789Y-97169331D01*
X136115087Y-97044511D01*
X136115080Y-97044498D01*
X136032952Y-96921585D01*
X135988057Y-96876690D01*
X135928416Y-96817049D01*
X134488653Y-95377286D01*
X133023549Y-93912181D01*
X132990064Y-93850858D01*
X132995048Y-93781166D01*
X133036920Y-93725233D01*
X133102384Y-93700816D01*
X133111230Y-93700500D01*
X133462770Y-93700500D01*
X133529809Y-93720185D01*
X133550451Y-93736819D01*
X133581344Y-93767712D01*
X133730666Y-93859814D01*
X133897203Y-93914999D01*
X133999991Y-93925500D01*
X135000008Y-93925499D01*
X135000016Y-93925498D01*
X135000019Y-93925498D01*
X135056302Y-93919748D01*
X135102797Y-93914999D01*
X135269334Y-93859814D01*
X135418656Y-93767712D01*
X135487049Y-93699319D01*
X135548372Y-93665834D01*
X135574730Y-93663000D01*
X136925270Y-93663000D01*
X136992309Y-93682685D01*
X137012951Y-93699319D01*
X137081344Y-93767712D01*
X137230666Y-93859814D01*
X137397203Y-93914999D01*
X137499991Y-93925500D01*
X138500008Y-93925499D01*
X138500016Y-93925498D01*
X138500019Y-93925498D01*
X138556302Y-93919748D01*
X138602797Y-93914999D01*
X138769334Y-93859814D01*
X138918656Y-93767712D01*
X138987049Y-93699319D01*
X139048372Y-93665834D01*
X139074730Y-93663000D01*
X140375270Y-93663000D01*
X140442309Y-93682685D01*
X140462951Y-93699319D01*
X140556344Y-93792712D01*
X140690597Y-93875519D01*
X140737321Y-93927465D01*
X140749500Y-93981057D01*
X140749500Y-94979662D01*
X140729815Y-95046701D01*
X140677011Y-95092456D01*
X140665764Y-95096943D01*
X140595194Y-95121170D01*
X140595188Y-95121172D01*
X140376493Y-95239524D01*
X140224707Y-95357664D01*
X140180256Y-95392262D01*
X140174409Y-95398614D01*
X140011833Y-95575217D01*
X139875826Y-95783393D01*
X139775936Y-96011118D01*
X139714892Y-96252175D01*
X139714890Y-96252187D01*
X139694357Y-96499994D01*
X139694357Y-96500005D01*
X139714890Y-96747812D01*
X139714892Y-96747824D01*
X139775936Y-96988881D01*
X139875826Y-97216606D01*
X140011833Y-97424782D01*
X140044197Y-97459938D01*
X140180256Y-97607738D01*
X140376491Y-97760474D01*
X140439506Y-97794576D01*
X140553639Y-97856342D01*
X140595190Y-97878828D01*
X140830386Y-97959571D01*
X141075665Y-98000500D01*
X141324335Y-98000500D01*
X141569614Y-97959571D01*
X141804810Y-97878828D01*
X142023509Y-97760474D01*
X142219744Y-97607738D01*
X142388164Y-97424785D01*
X142524173Y-97216607D01*
X142624063Y-96988881D01*
X142685108Y-96747821D01*
X142686417Y-96732023D01*
X142705643Y-96500005D01*
X142705643Y-96499994D01*
X142685109Y-96252187D01*
X142685107Y-96252175D01*
X142624063Y-96011118D01*
X142524173Y-95783393D01*
X142490785Y-95732289D01*
X142388164Y-95575215D01*
X142283269Y-95461268D01*
X142252348Y-95398614D01*
X142250500Y-95377286D01*
X142250500Y-94374500D01*
X142270185Y-94307461D01*
X142322989Y-94261706D01*
X142374500Y-94250500D01*
X143437529Y-94250500D01*
X143504568Y-94270185D01*
X143550323Y-94322989D01*
X143556744Y-94340387D01*
X143566088Y-94373043D01*
X143566090Y-94373048D01*
X143566091Y-94373049D01*
X143660302Y-94553407D01*
X143660304Y-94553409D01*
X143788890Y-94711109D01*
X143867237Y-94774992D01*
X143946593Y-94839698D01*
X144126951Y-94933909D01*
X144322582Y-94989886D01*
X144441963Y-95000500D01*
X148558036Y-95000499D01*
X148677418Y-94989886D01*
X148873049Y-94933909D01*
X149053407Y-94839698D01*
X149211109Y-94711109D01*
X149339698Y-94553407D01*
X149433909Y-94373049D01*
X149489886Y-94177418D01*
X149500500Y-94058037D01*
X149500499Y-92941964D01*
X149489886Y-92822582D01*
X149437100Y-92638102D01*
X149433910Y-92626954D01*
X149433909Y-92626953D01*
X149433909Y-92626951D01*
X149339698Y-92446593D01*
X149245146Y-92330634D01*
X149211109Y-92288890D01*
X149075125Y-92178011D01*
X149053407Y-92160302D01*
X148873049Y-92066091D01*
X148873048Y-92066090D01*
X148873045Y-92066089D01*
X148732951Y-92026004D01*
X148677418Y-92010114D01*
X148677415Y-92010113D01*
X148677413Y-92010113D01*
X148611102Y-92004217D01*
X148558037Y-91999500D01*
X148558032Y-91999500D01*
X144441971Y-91999500D01*
X144441965Y-91999500D01*
X144441964Y-91999501D01*
X144436351Y-92000000D01*
X144322584Y-92010113D01*
X144126954Y-92066089D01*
X144076717Y-92092331D01*
X143946593Y-92160302D01*
X143946591Y-92160303D01*
X143946590Y-92160304D01*
X143788890Y-92288890D01*
X143660304Y-92446590D01*
X143566088Y-92626956D01*
X143556744Y-92659613D01*
X143519376Y-92718651D01*
X143456022Y-92748113D01*
X143437529Y-92749500D01*
X142847643Y-92749500D01*
X142780604Y-92729815D01*
X142734849Y-92677011D01*
X142724285Y-92638102D01*
X142720657Y-92602596D01*
X142714999Y-92547203D01*
X142659814Y-92380666D01*
X142567712Y-92231344D01*
X142443656Y-92107288D01*
X142440342Y-92105243D01*
X142438546Y-92103248D01*
X142437989Y-92102807D01*
X142438064Y-92102711D01*
X142393618Y-92053297D01*
X142382397Y-91984334D01*
X142410240Y-91920252D01*
X142440348Y-91894165D01*
X142443342Y-91892318D01*
X142567315Y-91768345D01*
X142659356Y-91619124D01*
X142659358Y-91619119D01*
X142714505Y-91452697D01*
X142714506Y-91452690D01*
X142724999Y-91349986D01*
X142725000Y-91349973D01*
X142725000Y-91300000D01*
X140275001Y-91300000D01*
X140275001Y-91349986D01*
X140285494Y-91452697D01*
X140340641Y-91619119D01*
X140340643Y-91619124D01*
X140432684Y-91768345D01*
X140556655Y-91892316D01*
X140556659Y-91892319D01*
X140559656Y-91894168D01*
X140561279Y-91895972D01*
X140562323Y-91896798D01*
X140562181Y-91896976D01*
X140606381Y-91946116D01*
X140617602Y-92015079D01*
X140589759Y-92079161D01*
X140559661Y-92105241D01*
X140556349Y-92107283D01*
X140556343Y-92107288D01*
X140537951Y-92125681D01*
X140476628Y-92159166D01*
X140450270Y-92162000D01*
X139074730Y-92162000D01*
X139007691Y-92142315D01*
X138987049Y-92125681D01*
X138948695Y-92087327D01*
X138915210Y-92026004D01*
X138920194Y-91956312D01*
X138948695Y-91911964D01*
X139042317Y-91818342D01*
X139134356Y-91669124D01*
X139134358Y-91669119D01*
X139189505Y-91502697D01*
X139189506Y-91502690D01*
X139199999Y-91399986D01*
X139200000Y-91399973D01*
X139200000Y-91337500D01*
X136800001Y-91337500D01*
X136800001Y-91399986D01*
X136810494Y-91502697D01*
X136865641Y-91669119D01*
X136865643Y-91669124D01*
X136957684Y-91818345D01*
X137051304Y-91911965D01*
X137084789Y-91973288D01*
X137079805Y-92042980D01*
X137051305Y-92087326D01*
X137012952Y-92125680D01*
X136951630Y-92159166D01*
X136925270Y-92162000D01*
X135574730Y-92162000D01*
X135507691Y-92142315D01*
X135487049Y-92125681D01*
X135448695Y-92087327D01*
X135415210Y-92026004D01*
X135420194Y-91956312D01*
X135448695Y-91911964D01*
X135542317Y-91818342D01*
X135634356Y-91669124D01*
X135634358Y-91669119D01*
X135689505Y-91502697D01*
X135689506Y-91502690D01*
X135699999Y-91399986D01*
X135700000Y-91399973D01*
X135700000Y-91337500D01*
X133300001Y-91337500D01*
X133300001Y-91399986D01*
X133310494Y-91502697D01*
X133365641Y-91669119D01*
X133365643Y-91669124D01*
X133457684Y-91818345D01*
X133551304Y-91911965D01*
X133584789Y-91973288D01*
X133579805Y-92042980D01*
X133551304Y-92087327D01*
X133475450Y-92163181D01*
X133414127Y-92196666D01*
X133387769Y-92199500D01*
X132087230Y-92199500D01*
X132020191Y-92179815D01*
X131999549Y-92163181D01*
X131943657Y-92107289D01*
X131943656Y-92107288D01*
X131940342Y-92105243D01*
X131938546Y-92103248D01*
X131937989Y-92102807D01*
X131938064Y-92102711D01*
X131893618Y-92053297D01*
X131882397Y-91984334D01*
X131910240Y-91920252D01*
X131940348Y-91894165D01*
X131943342Y-91892318D01*
X132067315Y-91768345D01*
X132159356Y-91619124D01*
X132159358Y-91619119D01*
X132214505Y-91452697D01*
X132214506Y-91452690D01*
X132224999Y-91349986D01*
X132225000Y-91349973D01*
X132225000Y-91300000D01*
X129775001Y-91300000D01*
X129775001Y-91349986D01*
X129785494Y-91452697D01*
X129840641Y-91619119D01*
X129840643Y-91619124D01*
X129932684Y-91768345D01*
X130056655Y-91892316D01*
X130056659Y-91892319D01*
X130059656Y-91894168D01*
X130061279Y-91895972D01*
X130062323Y-91896798D01*
X130062181Y-91896976D01*
X130106381Y-91946116D01*
X130117602Y-92015079D01*
X130089759Y-92079161D01*
X130059661Y-92105241D01*
X130056349Y-92107283D01*
X130056343Y-92107288D01*
X129932289Y-92231342D01*
X129840187Y-92380663D01*
X129840185Y-92380668D01*
X129825567Y-92424782D01*
X129785001Y-92547203D01*
X129785001Y-92547204D01*
X129785000Y-92547204D01*
X129774500Y-92649983D01*
X129774500Y-93250001D01*
X129774501Y-93250019D01*
X129785000Y-93352796D01*
X129785001Y-93352799D01*
X129840185Y-93519331D01*
X129840187Y-93519336D01*
X129875069Y-93575888D01*
X129932288Y-93668656D01*
X130056344Y-93792712D01*
X130205666Y-93884814D01*
X130372203Y-93939999D01*
X130474991Y-93950500D01*
X130887769Y-93950499D01*
X130954808Y-93970183D01*
X130975450Y-93986818D01*
X134663181Y-97674548D01*
X134696666Y-97735871D01*
X134699500Y-97762229D01*
X134699500Y-99412770D01*
X134679815Y-99479809D01*
X134663181Y-99500451D01*
X134607288Y-99556343D01*
X134607285Y-99556346D01*
X134605537Y-99559182D01*
X134603829Y-99560717D01*
X134602807Y-99562011D01*
X134602585Y-99561836D01*
X134553589Y-99605905D01*
X134484626Y-99617126D01*
X134420544Y-99589282D01*
X134394463Y-99559182D01*
X134392714Y-99556346D01*
X134268657Y-99432289D01*
X134268656Y-99432288D01*
X134131351Y-99347598D01*
X134119336Y-99340187D01*
X134119331Y-99340185D01*
X134103982Y-99335099D01*
X133952797Y-99285001D01*
X133952795Y-99285000D01*
X133850010Y-99274500D01*
X133249998Y-99274500D01*
X133249980Y-99274501D01*
X133147203Y-99285000D01*
X133147200Y-99285001D01*
X132980668Y-99340185D01*
X132980663Y-99340187D01*
X132831342Y-99432289D01*
X132707289Y-99556342D01*
X132696448Y-99573918D01*
X132633434Y-99676082D01*
X132624481Y-99690597D01*
X132572533Y-99737321D01*
X132518942Y-99749500D01*
X130481058Y-99749500D01*
X130414019Y-99729815D01*
X130375519Y-99690597D01*
X130292712Y-99556344D01*
X130236819Y-99500451D01*
X130203334Y-99439128D01*
X130200500Y-99412770D01*
X130200500Y-97376079D01*
X130171659Y-97231092D01*
X130171658Y-97231091D01*
X130171658Y-97231087D01*
X130160162Y-97203334D01*
X130115085Y-97094507D01*
X130081675Y-97044505D01*
X130066360Y-97021584D01*
X130039858Y-96981920D01*
X130032954Y-96971586D01*
X129999381Y-96938013D01*
X129965896Y-96876690D01*
X129966857Y-96819890D01*
X129985106Y-96747829D01*
X129985107Y-96747824D01*
X129985108Y-96747821D01*
X129986417Y-96732023D01*
X130005643Y-96500005D01*
X130005643Y-96499994D01*
X129985109Y-96252187D01*
X129985107Y-96252175D01*
X129924063Y-96011118D01*
X129824173Y-95783393D01*
X129688166Y-95575217D01*
X129632805Y-95515079D01*
X129519744Y-95392262D01*
X129323509Y-95239526D01*
X129315477Y-95235179D01*
X129265891Y-95185961D01*
X129250500Y-95126128D01*
X129250500Y-93876081D01*
X129244755Y-93847203D01*
X129244755Y-93847200D01*
X129225421Y-93750000D01*
X129221659Y-93731088D01*
X129167408Y-93600117D01*
X129165765Y-93595525D01*
X129165084Y-93594505D01*
X129110205Y-93512373D01*
X129082952Y-93471585D01*
X128761818Y-93150451D01*
X128728333Y-93089128D01*
X128725499Y-93062770D01*
X128725499Y-92649998D01*
X128725498Y-92649981D01*
X128714999Y-92547203D01*
X128714998Y-92547200D01*
X128689318Y-92469704D01*
X128659814Y-92380666D01*
X128567712Y-92231344D01*
X128443656Y-92107288D01*
X128440342Y-92105243D01*
X128438546Y-92103248D01*
X128437989Y-92102807D01*
X128438064Y-92102711D01*
X128393618Y-92053297D01*
X128382397Y-91984334D01*
X128410240Y-91920252D01*
X128440348Y-91894165D01*
X128443342Y-91892318D01*
X128567315Y-91768345D01*
X128659356Y-91619124D01*
X128659358Y-91619119D01*
X128714505Y-91452697D01*
X128714506Y-91452690D01*
X128724999Y-91349986D01*
X128725000Y-91349973D01*
X128725000Y-91300000D01*
X126275001Y-91300000D01*
X126275001Y-91349986D01*
X126285494Y-91452697D01*
X126340641Y-91619119D01*
X126340643Y-91619124D01*
X126432684Y-91768345D01*
X126556655Y-91892316D01*
X126556659Y-91892319D01*
X126559656Y-91894168D01*
X126561279Y-91895972D01*
X126562323Y-91896798D01*
X126562181Y-91896976D01*
X126606381Y-91946116D01*
X126617602Y-92015079D01*
X126589759Y-92079161D01*
X126559661Y-92105241D01*
X126556349Y-92107283D01*
X126556343Y-92107288D01*
X126432289Y-92231342D01*
X126340187Y-92380663D01*
X126340185Y-92380668D01*
X126325567Y-92424782D01*
X126285001Y-92547203D01*
X126285001Y-92547204D01*
X126285000Y-92547204D01*
X126274500Y-92649983D01*
X126274500Y-93250001D01*
X126274501Y-93250019D01*
X126285000Y-93352796D01*
X126285001Y-93352799D01*
X126340185Y-93519331D01*
X126340187Y-93519336D01*
X126375069Y-93575888D01*
X126432288Y-93668656D01*
X126556344Y-93792712D01*
X126705666Y-93884814D01*
X126872203Y-93939999D01*
X126974991Y-93950500D01*
X127387770Y-93950499D01*
X127454809Y-93970183D01*
X127475451Y-93986818D01*
X127713181Y-94224548D01*
X127746666Y-94285871D01*
X127749500Y-94312229D01*
X127749500Y-95126128D01*
X127729815Y-95193167D01*
X127684522Y-95235179D01*
X127676491Y-95239526D01*
X127480256Y-95392262D01*
X127474409Y-95398614D01*
X127311833Y-95575217D01*
X127175826Y-95783393D01*
X127075936Y-96011118D01*
X127014892Y-96252175D01*
X127014890Y-96252187D01*
X126994357Y-96499994D01*
X126994357Y-96500005D01*
X127014890Y-96747812D01*
X127014892Y-96747824D01*
X127075936Y-96988881D01*
X127175826Y-97216606D01*
X127311833Y-97424782D01*
X127344197Y-97459938D01*
X127480256Y-97607738D01*
X127676491Y-97760474D01*
X127739506Y-97794576D01*
X127853639Y-97856342D01*
X127895190Y-97878828D01*
X128130386Y-97959571D01*
X128375665Y-98000500D01*
X128575500Y-98000500D01*
X128642539Y-98020185D01*
X128688294Y-98072989D01*
X128699500Y-98124500D01*
X128699500Y-99412770D01*
X128679815Y-99479809D01*
X128663181Y-99500451D01*
X128607288Y-99556343D01*
X128607285Y-99556346D01*
X128605537Y-99559182D01*
X128603829Y-99560717D01*
X128602807Y-99562011D01*
X128602585Y-99561836D01*
X128553589Y-99605905D01*
X128484626Y-99617126D01*
X128420544Y-99589282D01*
X128394463Y-99559182D01*
X128392714Y-99556346D01*
X128268657Y-99432289D01*
X128268656Y-99432288D01*
X128131351Y-99347598D01*
X128119336Y-99340187D01*
X128119331Y-99340185D01*
X128103982Y-99335099D01*
X127952797Y-99285001D01*
X127952795Y-99285000D01*
X127850016Y-99274500D01*
X127850009Y-99274500D01*
X127437230Y-99274500D01*
X127370191Y-99254815D01*
X127349549Y-99238181D01*
X126186818Y-98075450D01*
X126153333Y-98014127D01*
X126150499Y-97987769D01*
X126150499Y-95552129D01*
X126150498Y-95552123D01*
X126150497Y-95552116D01*
X126144091Y-95492517D01*
X126132436Y-95461269D01*
X126093797Y-95357671D01*
X126093793Y-95357664D01*
X126007547Y-95242455D01*
X126007544Y-95242452D01*
X125892335Y-95156206D01*
X125892328Y-95156202D01*
X125757482Y-95105908D01*
X125757483Y-95105908D01*
X125697883Y-95099501D01*
X125697881Y-95099500D01*
X125697873Y-95099500D01*
X125697865Y-95099500D01*
X125524500Y-95099500D01*
X125457461Y-95079815D01*
X125411706Y-95027011D01*
X125400500Y-94975500D01*
X125400500Y-92376079D01*
X125371659Y-92231092D01*
X125371658Y-92231091D01*
X125371658Y-92231087D01*
X125365660Y-92216606D01*
X125315085Y-92094507D01*
X125313628Y-92092326D01*
X125258696Y-92010114D01*
X125232952Y-91971584D01*
X125199381Y-91938013D01*
X125165896Y-91876690D01*
X125166857Y-91819890D01*
X125185106Y-91747829D01*
X125185107Y-91747824D01*
X125185108Y-91747821D01*
X125185109Y-91747812D01*
X125205643Y-91500005D01*
X125205643Y-91499994D01*
X125185109Y-91252187D01*
X125185107Y-91252175D01*
X125124063Y-91011118D01*
X125047907Y-90837500D01*
X133300000Y-90837500D01*
X134250000Y-90837500D01*
X134250000Y-90075000D01*
X134750000Y-90075000D01*
X134750000Y-90837500D01*
X135699999Y-90837500D01*
X136800000Y-90837500D01*
X137750000Y-90837500D01*
X137750000Y-90075000D01*
X138250000Y-90075000D01*
X138250000Y-90837500D01*
X139199999Y-90837500D01*
X139199999Y-90800000D01*
X140275000Y-90800000D01*
X141250000Y-90800000D01*
X141250000Y-90050000D01*
X141750000Y-90050000D01*
X141750000Y-90800000D01*
X142724999Y-90800000D01*
X142724999Y-90750028D01*
X142724998Y-90750013D01*
X142714505Y-90647302D01*
X142659358Y-90480880D01*
X142659356Y-90480875D01*
X142567315Y-90331654D01*
X142443345Y-90207684D01*
X142294124Y-90115643D01*
X142294119Y-90115641D01*
X142127697Y-90060494D01*
X142127690Y-90060493D01*
X142024986Y-90050000D01*
X141750000Y-90050000D01*
X141250000Y-90050000D01*
X140975029Y-90050000D01*
X140975012Y-90050001D01*
X140872302Y-90060494D01*
X140705880Y-90115641D01*
X140705875Y-90115643D01*
X140556654Y-90207684D01*
X140432684Y-90331654D01*
X140340643Y-90480875D01*
X140340641Y-90480880D01*
X140285494Y-90647302D01*
X140285493Y-90647309D01*
X140275000Y-90750013D01*
X140275000Y-90800000D01*
X139199999Y-90800000D01*
X139199999Y-90775028D01*
X139199998Y-90775013D01*
X139189505Y-90672302D01*
X139134358Y-90505880D01*
X139134356Y-90505875D01*
X139042315Y-90356654D01*
X138918345Y-90232684D01*
X138769124Y-90140643D01*
X138769119Y-90140641D01*
X138602697Y-90085494D01*
X138602690Y-90085493D01*
X138499986Y-90075000D01*
X138250000Y-90075000D01*
X137750000Y-90075000D01*
X137500029Y-90075000D01*
X137500012Y-90075001D01*
X137397302Y-90085494D01*
X137230880Y-90140641D01*
X137230875Y-90140643D01*
X137081654Y-90232684D01*
X136957684Y-90356654D01*
X136865643Y-90505875D01*
X136865641Y-90505880D01*
X136810494Y-90672302D01*
X136810493Y-90672309D01*
X136800000Y-90775013D01*
X136800000Y-90837500D01*
X135699999Y-90837500D01*
X135699999Y-90775028D01*
X135699998Y-90775013D01*
X135689505Y-90672302D01*
X135634358Y-90505880D01*
X135634356Y-90505875D01*
X135542315Y-90356654D01*
X135418345Y-90232684D01*
X135269124Y-90140643D01*
X135269119Y-90140641D01*
X135102697Y-90085494D01*
X135102690Y-90085493D01*
X134999986Y-90075000D01*
X134750000Y-90075000D01*
X134250000Y-90075000D01*
X134000029Y-90075000D01*
X134000012Y-90075001D01*
X133897302Y-90085494D01*
X133730880Y-90140641D01*
X133730875Y-90140643D01*
X133581654Y-90232684D01*
X133457684Y-90356654D01*
X133365643Y-90505875D01*
X133365641Y-90505880D01*
X133310494Y-90672302D01*
X133310493Y-90672309D01*
X133300000Y-90775013D01*
X133300000Y-90837500D01*
X125047907Y-90837500D01*
X125031458Y-90800000D01*
X126275000Y-90800000D01*
X127250000Y-90800000D01*
X127250000Y-90050000D01*
X127750000Y-90050000D01*
X127750000Y-90800000D01*
X128724999Y-90800000D01*
X129775000Y-90800000D01*
X130750000Y-90800000D01*
X130750000Y-90050000D01*
X131250000Y-90050000D01*
X131250000Y-90800000D01*
X132224999Y-90800000D01*
X132224999Y-90750028D01*
X132224998Y-90750013D01*
X132214505Y-90647302D01*
X132159358Y-90480880D01*
X132159356Y-90480875D01*
X132067315Y-90331654D01*
X131943345Y-90207684D01*
X131794124Y-90115643D01*
X131794119Y-90115641D01*
X131627697Y-90060494D01*
X131627690Y-90060493D01*
X131524986Y-90050000D01*
X131250000Y-90050000D01*
X130750000Y-90050000D01*
X130475029Y-90050000D01*
X130475012Y-90050001D01*
X130372302Y-90060494D01*
X130205880Y-90115641D01*
X130205875Y-90115643D01*
X130056654Y-90207684D01*
X129932684Y-90331654D01*
X129840643Y-90480875D01*
X129840641Y-90480880D01*
X129785494Y-90647302D01*
X129785493Y-90647309D01*
X129775000Y-90750013D01*
X129775000Y-90800000D01*
X128724999Y-90800000D01*
X128724999Y-90750028D01*
X128724998Y-90750013D01*
X128714505Y-90647302D01*
X128659358Y-90480880D01*
X128659356Y-90480875D01*
X128567315Y-90331654D01*
X128443345Y-90207684D01*
X128294124Y-90115643D01*
X128294119Y-90115641D01*
X128127697Y-90060494D01*
X128127690Y-90060493D01*
X128024986Y-90050000D01*
X127750000Y-90050000D01*
X127250000Y-90050000D01*
X126975029Y-90050000D01*
X126975012Y-90050001D01*
X126872302Y-90060494D01*
X126705880Y-90115641D01*
X126705875Y-90115643D01*
X126556654Y-90207684D01*
X126432684Y-90331654D01*
X126340643Y-90480875D01*
X126340641Y-90480880D01*
X126285494Y-90647302D01*
X126285493Y-90647309D01*
X126275000Y-90750013D01*
X126275000Y-90800000D01*
X125031458Y-90800000D01*
X125024173Y-90783393D01*
X124888166Y-90575217D01*
X124850292Y-90534075D01*
X124719744Y-90392262D01*
X124523509Y-90239526D01*
X124523507Y-90239525D01*
X124523506Y-90239524D01*
X124304811Y-90121172D01*
X124304802Y-90121169D01*
X124069616Y-90040429D01*
X123824335Y-89999500D01*
X123575665Y-89999500D01*
X123330383Y-90040429D01*
X123095197Y-90121169D01*
X123095188Y-90121172D01*
X122876493Y-90239524D01*
X122680257Y-90392261D01*
X122511833Y-90575217D01*
X122375826Y-90783393D01*
X122275936Y-91011118D01*
X122214892Y-91252175D01*
X122214890Y-91252187D01*
X122194357Y-91499994D01*
X122194357Y-91500005D01*
X122214890Y-91747812D01*
X122214892Y-91747824D01*
X122275936Y-91988881D01*
X122375826Y-92216606D01*
X122511833Y-92424782D01*
X122511836Y-92424785D01*
X122680256Y-92607738D01*
X122876491Y-92760474D01*
X122914590Y-92781092D01*
X123054622Y-92856874D01*
X123095190Y-92878828D01*
X123330386Y-92959571D01*
X123575665Y-93000500D01*
X123775500Y-93000500D01*
X123842539Y-93020185D01*
X123888294Y-93072989D01*
X123899500Y-93124500D01*
X123899500Y-94975500D01*
X123879815Y-95042539D01*
X123827011Y-95088294D01*
X123775501Y-95099500D01*
X123602130Y-95099500D01*
X123602123Y-95099501D01*
X123542516Y-95105908D01*
X123407671Y-95156202D01*
X123407664Y-95156206D01*
X123292455Y-95242452D01*
X123292452Y-95242455D01*
X123206206Y-95357664D01*
X123206202Y-95357671D01*
X123155908Y-95492517D01*
X123150999Y-95538181D01*
X123149501Y-95552123D01*
X123149500Y-95552135D01*
X123149500Y-99447870D01*
X123149501Y-99447876D01*
X123155908Y-99507483D01*
X123206202Y-99642328D01*
X123206206Y-99642335D01*
X123292452Y-99757544D01*
X123292455Y-99757547D01*
X123407664Y-99843793D01*
X123407671Y-99843797D01*
X123542517Y-99894091D01*
X123542516Y-99894091D01*
X123549444Y-99894835D01*
X123602127Y-99900500D01*
X125697872Y-99900499D01*
X125757483Y-99894091D01*
X125757486Y-99894090D01*
X125774035Y-99887918D01*
X125843727Y-99882933D01*
X125905048Y-99916415D01*
X125905051Y-99916418D01*
X126513181Y-100524548D01*
X126546666Y-100585871D01*
X126549500Y-100612229D01*
X126549500Y-101025001D01*
X126549501Y-101025019D01*
X126560000Y-101127796D01*
X126560001Y-101127799D01*
X126615185Y-101294331D01*
X126615187Y-101294336D01*
X126629361Y-101317315D01*
X126707288Y-101443656D01*
X126831344Y-101567712D01*
X126980666Y-101659814D01*
X127126975Y-101708296D01*
X127184417Y-101748066D01*
X127211240Y-101812582D01*
X127198925Y-101881358D01*
X127151382Y-101932558D01*
X127087968Y-101950000D01*
X126800029Y-101950000D01*
X126800012Y-101950001D01*
X126697302Y-101960494D01*
X126530880Y-102015641D01*
X126530875Y-102015643D01*
X126389596Y-102102786D01*
X126322203Y-102121226D01*
X126255540Y-102100303D01*
X126210770Y-102046661D01*
X126200499Y-101997247D01*
X126200499Y-101774998D01*
X126200498Y-101774981D01*
X126189999Y-101672203D01*
X126189998Y-101672200D01*
X126168030Y-101605905D01*
X126134814Y-101505666D01*
X126042712Y-101356344D01*
X125918656Y-101232288D01*
X125815493Y-101168657D01*
X125769336Y-101140187D01*
X125769331Y-101140185D01*
X125751143Y-101134158D01*
X125602797Y-101085001D01*
X125602795Y-101085000D01*
X125500010Y-101074500D01*
X124499998Y-101074500D01*
X124499980Y-101074501D01*
X124397203Y-101085000D01*
X124397196Y-101085002D01*
X124281399Y-101123373D01*
X124211571Y-101125774D01*
X124154715Y-101093348D01*
X123229449Y-100168082D01*
X122286819Y-99225451D01*
X122253334Y-99164128D01*
X122250500Y-99137770D01*
X122250500Y-92926079D01*
X122221659Y-92781092D01*
X122221658Y-92781091D01*
X122221658Y-92781087D01*
X122208000Y-92748113D01*
X122165087Y-92644511D01*
X122165080Y-92644498D01*
X122082952Y-92521585D01*
X122031069Y-92469702D01*
X121978416Y-92417049D01*
X121978415Y-92417048D01*
X121604347Y-92042980D01*
X120478418Y-90917049D01*
X120478416Y-90917047D01*
X120429092Y-90884091D01*
X120396355Y-90862218D01*
X120355495Y-90834916D01*
X120355494Y-90834915D01*
X120355492Y-90834914D01*
X120355490Y-90834913D01*
X120218917Y-90778343D01*
X120218907Y-90778340D01*
X120073920Y-90749500D01*
X120073918Y-90749500D01*
X112369136Y-90749500D01*
X112302097Y-90729815D01*
X112265327Y-90693322D01*
X112261936Y-90688132D01*
X112188164Y-90575215D01*
X112019744Y-90392262D01*
X111823509Y-90239526D01*
X111823507Y-90239525D01*
X111823506Y-90239524D01*
X111604811Y-90121172D01*
X111604802Y-90121169D01*
X111369616Y-90040429D01*
X111124335Y-89999500D01*
X110875665Y-89999500D01*
X110630383Y-90040429D01*
X110395197Y-90121169D01*
X110395188Y-90121172D01*
X110176493Y-90239524D01*
X109980257Y-90392261D01*
X109811833Y-90575217D01*
X109675826Y-90783393D01*
X109575936Y-91011118D01*
X109514892Y-91252175D01*
X109514890Y-91252187D01*
X109494357Y-91499994D01*
X109494357Y-91500005D01*
X109514890Y-91747812D01*
X109514892Y-91747824D01*
X109575936Y-91988881D01*
X109675826Y-92216606D01*
X109811833Y-92424782D01*
X109811836Y-92424785D01*
X109980256Y-92607738D01*
X110176491Y-92760474D01*
X110214590Y-92781092D01*
X110354622Y-92856874D01*
X110395190Y-92878828D01*
X110482197Y-92908697D01*
X110630384Y-92959571D01*
X110645907Y-92962161D01*
X110708793Y-92992610D01*
X110745234Y-93052223D01*
X110749500Y-93084470D01*
X110749500Y-94059362D01*
X110729815Y-94126401D01*
X110690598Y-94164899D01*
X110670303Y-94177418D01*
X110581342Y-94232289D01*
X110512951Y-94300681D01*
X110451628Y-94334166D01*
X110425270Y-94337000D01*
X110338580Y-94337000D01*
X110193592Y-94365840D01*
X110193582Y-94365843D01*
X110071452Y-94416431D01*
X110001983Y-94423900D01*
X109939504Y-94392624D01*
X109903852Y-94332535D01*
X109900000Y-94301870D01*
X109900000Y-94275000D01*
X108750000Y-94275000D01*
X108750000Y-95099999D01*
X109014270Y-95099999D01*
X109081309Y-95119684D01*
X109127064Y-95172488D01*
X109137008Y-95241646D01*
X109107983Y-95305202D01*
X109101951Y-95311680D01*
X108581223Y-95832407D01*
X108519900Y-95865892D01*
X108450208Y-95860908D01*
X108424652Y-95847829D01*
X108380992Y-95818657D01*
X108366776Y-95809158D01*
X108330495Y-95784916D01*
X108330494Y-95784915D01*
X108330492Y-95784914D01*
X108193917Y-95728343D01*
X108193907Y-95728340D01*
X108048920Y-95699500D01*
X108048918Y-95699500D01*
X106087230Y-95699500D01*
X106020191Y-95679815D01*
X105999549Y-95663181D01*
X105943657Y-95607289D01*
X105943656Y-95607288D01*
X105940342Y-95605243D01*
X105938546Y-95603248D01*
X105937989Y-95602807D01*
X105938064Y-95602711D01*
X105893618Y-95553297D01*
X105882397Y-95484334D01*
X105910240Y-95420252D01*
X105940348Y-95394165D01*
X105943342Y-95392318D01*
X106067315Y-95268345D01*
X106159356Y-95119124D01*
X106159361Y-95119113D01*
X106214505Y-94952697D01*
X106214506Y-94952690D01*
X106224999Y-94849986D01*
X106225000Y-94849973D01*
X106225000Y-94800000D01*
X103775001Y-94800000D01*
X103775001Y-94849986D01*
X103785494Y-94952697D01*
X103840639Y-95119113D01*
X103840643Y-95119124D01*
X103932684Y-95268345D01*
X104056655Y-95392316D01*
X104056659Y-95392319D01*
X104059656Y-95394168D01*
X104061279Y-95395972D01*
X104062323Y-95396798D01*
X104062181Y-95396976D01*
X104106381Y-95446116D01*
X104117602Y-95515079D01*
X104089759Y-95579161D01*
X104059661Y-95605241D01*
X104056349Y-95607283D01*
X104056343Y-95607288D01*
X103932289Y-95731342D01*
X103840187Y-95880663D01*
X103840184Y-95880671D01*
X103828972Y-95914506D01*
X103789199Y-95971950D01*
X103724683Y-95998772D01*
X103711267Y-95999500D01*
X102362230Y-95999500D01*
X102295191Y-95979815D01*
X102274549Y-95963181D01*
X102218657Y-95907289D01*
X102218656Y-95907288D01*
X102089183Y-95827429D01*
X102069336Y-95815187D01*
X102069331Y-95815185D01*
X102020195Y-95798903D01*
X101902797Y-95760001D01*
X101902795Y-95760000D01*
X101800010Y-95749500D01*
X101199998Y-95749500D01*
X101199980Y-95749501D01*
X101097203Y-95760000D01*
X101097200Y-95760001D01*
X100930659Y-95815188D01*
X100926894Y-95816944D01*
X100924067Y-95817373D01*
X100923811Y-95817458D01*
X100923796Y-95817414D01*
X100857815Y-95827429D01*
X100794034Y-95798903D01*
X100755800Y-95740423D01*
X100750500Y-95704557D01*
X100750500Y-95295442D01*
X100770185Y-95228403D01*
X100822989Y-95182648D01*
X100892147Y-95172704D01*
X100926903Y-95183059D01*
X100930662Y-95184811D01*
X100930666Y-95184814D01*
X101097203Y-95239999D01*
X101199991Y-95250500D01*
X101800008Y-95250499D01*
X101800016Y-95250498D01*
X101800019Y-95250498D01*
X101878754Y-95242455D01*
X101902797Y-95239999D01*
X102069334Y-95184814D01*
X102218656Y-95092712D01*
X102342712Y-94968656D01*
X102434814Y-94819334D01*
X102489999Y-94652797D01*
X102500500Y-94550009D01*
X102500499Y-94362229D01*
X102518771Y-94300000D01*
X103775000Y-94300000D01*
X104750000Y-94300000D01*
X104750000Y-93550000D01*
X105250000Y-93550000D01*
X105250000Y-94300000D01*
X106224999Y-94300000D01*
X106224999Y-94275000D01*
X107100001Y-94275000D01*
X107100001Y-94399986D01*
X107110494Y-94502697D01*
X107165641Y-94669119D01*
X107165643Y-94669124D01*
X107257684Y-94818345D01*
X107381654Y-94942315D01*
X107530875Y-95034356D01*
X107530880Y-95034358D01*
X107697302Y-95089505D01*
X107697309Y-95089506D01*
X107800019Y-95099999D01*
X108249999Y-95099999D01*
X108250000Y-95099998D01*
X108250000Y-94275000D01*
X107100001Y-94275000D01*
X106224999Y-94275000D01*
X106224999Y-94250028D01*
X106224998Y-94250013D01*
X106214505Y-94147302D01*
X106159358Y-93980880D01*
X106159356Y-93980875D01*
X106067315Y-93831654D01*
X106010661Y-93775000D01*
X107100000Y-93775000D01*
X108250000Y-93775000D01*
X108250000Y-92950000D01*
X108750000Y-92950000D01*
X108750000Y-93775000D01*
X109899999Y-93775000D01*
X109899999Y-93650028D01*
X109899998Y-93650013D01*
X109889505Y-93547302D01*
X109834358Y-93380880D01*
X109834356Y-93380875D01*
X109742315Y-93231654D01*
X109618345Y-93107684D01*
X109469124Y-93015643D01*
X109469119Y-93015641D01*
X109302697Y-92960494D01*
X109302690Y-92960493D01*
X109199986Y-92950000D01*
X108750000Y-92950000D01*
X108250000Y-92950000D01*
X107800028Y-92950000D01*
X107800012Y-92950001D01*
X107697302Y-92960494D01*
X107530880Y-93015641D01*
X107530875Y-93015643D01*
X107381654Y-93107684D01*
X107257684Y-93231654D01*
X107165643Y-93380875D01*
X107165641Y-93380880D01*
X107110494Y-93547302D01*
X107110493Y-93547309D01*
X107100000Y-93650013D01*
X107100000Y-93775000D01*
X106010661Y-93775000D01*
X105943345Y-93707684D01*
X105794124Y-93615643D01*
X105794119Y-93615641D01*
X105627697Y-93560494D01*
X105627690Y-93560493D01*
X105524986Y-93550000D01*
X105250000Y-93550000D01*
X104750000Y-93550000D01*
X104475029Y-93550000D01*
X104475012Y-93550001D01*
X104372302Y-93560494D01*
X104205880Y-93615641D01*
X104205875Y-93615643D01*
X104056654Y-93707684D01*
X103932684Y-93831654D01*
X103840643Y-93980875D01*
X103840641Y-93980880D01*
X103785494Y-94147302D01*
X103785493Y-94147309D01*
X103775000Y-94250013D01*
X103775000Y-94300000D01*
X102518771Y-94300000D01*
X102520183Y-94295190D01*
X102536813Y-94274553D01*
X104424549Y-92386818D01*
X104485872Y-92353333D01*
X104512230Y-92350499D01*
X106122871Y-92350499D01*
X106122872Y-92350499D01*
X106182483Y-92344091D01*
X106317331Y-92293796D01*
X106432546Y-92207546D01*
X106518796Y-92092331D01*
X106568002Y-91960401D01*
X106609872Y-91904468D01*
X106675337Y-91880050D01*
X106743610Y-91894901D01*
X106771865Y-91916053D01*
X106893917Y-92038105D01*
X107087421Y-92173600D01*
X107301507Y-92273429D01*
X107301516Y-92273433D01*
X107515000Y-92330634D01*
X107515000Y-91433012D01*
X107572007Y-91465925D01*
X107699174Y-91500000D01*
X107830826Y-91500000D01*
X107957993Y-91465925D01*
X108015000Y-91433012D01*
X108015000Y-92330633D01*
X108228483Y-92273433D01*
X108228492Y-92273429D01*
X108442578Y-92173600D01*
X108636082Y-92038105D01*
X108803105Y-91871082D01*
X108938600Y-91677578D01*
X109038429Y-91463492D01*
X109038432Y-91463486D01*
X109095636Y-91250000D01*
X108198012Y-91250000D01*
X108230925Y-91192993D01*
X108265000Y-91065826D01*
X108265000Y-90934174D01*
X108230925Y-90807007D01*
X108198012Y-90750000D01*
X109095636Y-90750000D01*
X109095635Y-90749999D01*
X109038432Y-90536513D01*
X109038429Y-90536507D01*
X108938600Y-90322422D01*
X108938599Y-90322420D01*
X108803113Y-90128926D01*
X108803108Y-90128920D01*
X108636082Y-89961894D01*
X108442578Y-89826399D01*
X108228492Y-89726570D01*
X108228486Y-89726567D01*
X108015000Y-89669364D01*
X108015000Y-90566988D01*
X107957993Y-90534075D01*
X107830826Y-90500000D01*
X107699174Y-90500000D01*
X107572007Y-90534075D01*
X107515000Y-90566988D01*
X107515000Y-89669364D01*
X107514999Y-89669364D01*
X107301513Y-89726567D01*
X107301507Y-89726570D01*
X107087422Y-89826399D01*
X107087420Y-89826400D01*
X106893926Y-89961886D01*
X106771865Y-90083947D01*
X106710542Y-90117431D01*
X106640850Y-90112447D01*
X106584917Y-90070575D01*
X106568002Y-90039598D01*
X106561283Y-90021584D01*
X106518796Y-89907669D01*
X106518795Y-89907668D01*
X106518793Y-89907664D01*
X106432547Y-89792455D01*
X106432544Y-89792452D01*
X106317335Y-89706206D01*
X106317328Y-89706202D01*
X106182482Y-89655908D01*
X106182483Y-89655908D01*
X106122883Y-89649501D01*
X106122881Y-89649500D01*
X106122873Y-89649500D01*
X106122864Y-89649500D01*
X104327129Y-89649500D01*
X104327123Y-89649501D01*
X104267516Y-89655908D01*
X104132671Y-89706202D01*
X104132664Y-89706206D01*
X104017455Y-89792452D01*
X104017452Y-89792455D01*
X103931206Y-89907664D01*
X103931202Y-89907671D01*
X103880908Y-90042517D01*
X103874501Y-90102116D01*
X103874500Y-90102135D01*
X103874500Y-90762769D01*
X103854815Y-90829808D01*
X103838181Y-90850450D01*
X101475449Y-93213181D01*
X101414126Y-93246666D01*
X101387769Y-93249500D01*
X101199999Y-93249500D01*
X101199980Y-93249501D01*
X101097203Y-93260000D01*
X101097200Y-93260001D01*
X100930659Y-93315188D01*
X100926894Y-93316944D01*
X100924067Y-93317373D01*
X100923811Y-93317458D01*
X100923796Y-93317414D01*
X100857815Y-93327429D01*
X100794034Y-93298903D01*
X100755800Y-93240423D01*
X100750500Y-93204557D01*
X100750500Y-89926081D01*
X100750499Y-89926080D01*
X100732366Y-89834916D01*
X100721659Y-89781088D01*
X100673608Y-89665084D01*
X100665084Y-89644505D01*
X100583774Y-89522816D01*
X100582954Y-89521588D01*
X100582953Y-89521587D01*
X100582951Y-89521584D01*
X100478416Y-89417049D01*
X100278452Y-89217085D01*
X99478421Y-88417052D01*
X99478414Y-88417046D01*
X99404729Y-88367812D01*
X99404729Y-88367813D01*
X99355491Y-88334913D01*
X99218917Y-88278343D01*
X99218907Y-88278340D01*
X99073920Y-88249500D01*
X99073918Y-88249500D01*
X85661417Y-88249500D01*
X85513582Y-88249500D01*
X85513580Y-88249500D01*
X85368592Y-88278340D01*
X85368582Y-88278343D01*
X85232011Y-88334912D01*
X85231998Y-88334919D01*
X85109084Y-88417048D01*
X85109080Y-88417051D01*
X77987949Y-95538181D01*
X77926626Y-95571666D01*
X77900268Y-95574500D01*
X77499998Y-95574500D01*
X77499980Y-95574501D01*
X77397203Y-95585000D01*
X77397200Y-95585001D01*
X77230668Y-95640185D01*
X77230663Y-95640187D01*
X77081342Y-95732289D01*
X76957289Y-95856342D01*
X76865187Y-96005663D01*
X76865185Y-96005668D01*
X76839576Y-96082952D01*
X76810001Y-96172203D01*
X76810001Y-96172204D01*
X76810000Y-96172204D01*
X76799500Y-96274983D01*
X76799500Y-96900001D01*
X76799501Y-96900019D01*
X76810000Y-97002796D01*
X76810001Y-97002799D01*
X76864736Y-97167975D01*
X76865186Y-97169334D01*
X76941284Y-97292710D01*
X76957289Y-97318657D01*
X77050951Y-97412319D01*
X77084436Y-97473642D01*
X77079452Y-97543334D01*
X77050951Y-97587681D01*
X76957289Y-97681342D01*
X76865187Y-97830663D01*
X76865185Y-97830668D01*
X76849227Y-97878827D01*
X76810001Y-97997203D01*
X76810001Y-97997204D01*
X76810000Y-97997204D01*
X76799500Y-98099983D01*
X76799500Y-98725001D01*
X73500000Y-98725001D01*
X73500000Y-90500002D01*
X74745227Y-90500002D01*
X74764306Y-90851900D01*
X74764308Y-90851917D01*
X74821319Y-91199667D01*
X74821325Y-91199693D01*
X74915600Y-91539243D01*
X74915602Y-91539250D01*
X75046043Y-91866634D01*
X75046052Y-91866652D01*
X75211124Y-92178011D01*
X75408896Y-92469702D01*
X75531914Y-92614532D01*
X76777340Y-91369105D01*
X76855864Y-91477184D01*
X77022816Y-91644136D01*
X77130893Y-91722658D01*
X75882625Y-92970926D01*
X75882625Y-92970928D01*
X75892900Y-92980660D01*
X76173460Y-93193938D01*
X76173464Y-93193941D01*
X76475445Y-93375635D01*
X76795273Y-93523603D01*
X77129256Y-93636136D01*
X77473437Y-93711896D01*
X77823788Y-93749999D01*
X77823795Y-93750000D01*
X78176205Y-93750000D01*
X78176211Y-93749999D01*
X78526562Y-93711896D01*
X78870743Y-93636136D01*
X79204726Y-93523603D01*
X79524554Y-93375635D01*
X79826535Y-93193941D01*
X79826539Y-93193938D01*
X80107093Y-92980665D01*
X80107105Y-92980654D01*
X80117373Y-92970927D01*
X80117373Y-92970926D01*
X78869106Y-91722659D01*
X78977184Y-91644136D01*
X79144136Y-91477184D01*
X79222658Y-91369106D01*
X80468084Y-92614532D01*
X80468085Y-92614531D01*
X80591102Y-92469704D01*
X80788875Y-92178011D01*
X80953947Y-91866652D01*
X80953956Y-91866634D01*
X81084397Y-91539250D01*
X81084399Y-91539243D01*
X81178674Y-91199693D01*
X81178680Y-91199667D01*
X81235691Y-90851917D01*
X81235693Y-90851900D01*
X81254773Y-90500002D01*
X81254773Y-90499997D01*
X81235693Y-90148099D01*
X81235691Y-90148082D01*
X81178680Y-89800332D01*
X81178674Y-89800306D01*
X81084399Y-89460756D01*
X81084397Y-89460749D01*
X80953956Y-89133365D01*
X80953947Y-89133347D01*
X80788875Y-88821988D01*
X80591099Y-88530291D01*
X80468085Y-88385467D01*
X80468084Y-88385466D01*
X79222658Y-89630892D01*
X79144136Y-89522816D01*
X78977184Y-89355864D01*
X78869106Y-89277341D01*
X80117374Y-88029073D01*
X80117373Y-88029072D01*
X80107099Y-88019340D01*
X80107087Y-88019330D01*
X79826539Y-87806061D01*
X79826535Y-87806058D01*
X79524554Y-87624364D01*
X79204726Y-87476396D01*
X78870743Y-87363863D01*
X78526562Y-87288103D01*
X78176211Y-87250000D01*
X77823788Y-87250000D01*
X77473437Y-87288103D01*
X77129256Y-87363863D01*
X76795273Y-87476396D01*
X76475445Y-87624364D01*
X76173464Y-87806058D01*
X76173460Y-87806061D01*
X75892906Y-88019334D01*
X75882625Y-88029071D01*
X75882625Y-88029073D01*
X77130893Y-89277341D01*
X77022816Y-89355864D01*
X76855864Y-89522816D01*
X76777341Y-89630893D01*
X75531914Y-88385466D01*
X75531913Y-88385466D01*
X75408896Y-88530296D01*
X75211124Y-88821988D01*
X75046052Y-89133347D01*
X75046043Y-89133365D01*
X74915602Y-89460749D01*
X74915600Y-89460756D01*
X74821325Y-89800306D01*
X74821319Y-89800332D01*
X74764308Y-90148082D01*
X74764306Y-90148099D01*
X74745227Y-90499997D01*
X74745227Y-90500002D01*
X73500000Y-90500002D01*
X73500000Y-86124000D01*
X73519685Y-86056961D01*
X73572489Y-86011206D01*
X73624000Y-86000000D01*
X150376000Y-86000000D01*
X150443039Y-86019685D01*
G37*
%TD.AperFunction*%
%TD*%
M02*
